<?xml version="1.0" encoding="UTF-8"?>
<svg id="Livello_2" data-name="Livello 2" xmlns="http://www.w3.org/2000/svg" viewBox="0 0 748.69 753.17">
  <defs>
    <style>
      .cls-1 {
        fill: #42210b;
      }

      .cls-1, .cls-2, .cls-3, .cls-4, .cls-5, .cls-6, .cls-7, .cls-8, .cls-9, .cls-10, .cls-11, .cls-12, .cls-13 {
        stroke: #000;
        stroke-linecap: round;
        stroke-linejoin: round;
        stroke-width: 2px;
      }

      .cls-2 {
        fill: #101f21;
      }

      .cls-3 {
        fill: #373944;
      }

      .cls-4 {
        fill: #0e0f11;
      }

      .cls-5 {
        fill: #39bdff;
      }

      .cls-6 {
        fill: #fff;
      }

      .cls-7 {
        fill: #72758c;
      }

      .cls-8 {
        fill: none;
      }

      .cls-9 {
        fill: #ffcfe3;
      }

      .cls-10 {
        fill: #755223;
      }

      .cls-11 {
        fill: #1f2026;
      }

      .cls-12 {
        fill: #31323d;
      }

      .cls-13 {
        fill: #182e33;
      }
    </style>
  </defs>
  <g id="Cassa_e_asta_microfono" data-name="Cassa e asta microfono">
    <g>
      <path class="cls-12" d="M272.71,432.5c3.92.53,7.84,1.06,11.76,1.6.31-.19,3.95-2.44,4.19-6.78.19-3.44-1.9-5.76-2.29-6.18-3.66-1.13-7.31-2.26-10.97-3.39l-10.16-.87-1.14,8.22,1.63,3.97,3.06,3.4,3.92.04Z"/>
      <path class="cls-10" d="M287.7,697.52c-2.83-.66-14.77-3.1-25.76,3.96-4.61,2.96-7.52,6.61-9.25,9.25,6.73,5.02,33.85,24.08,66.05,17.17,7.47-1.6,13.87-4.31,19.15-7.27-.66-5.06-1.32-10.13-1.98-15.19"/>
      <path class="cls-10" d="M455.46,697.52c2.83-.66,14.77-3.1,25.76,3.96,4.61,2.96,7.52,6.61,9.25,9.25-6.73,5.02-33.85,24.08-66.05,17.17-7.47-1.6-13.87-4.31-19.15-7.27.66-5.06,1.32-10.13,1.98-15.19"/>
      <path class="cls-7" d="M238.74,406.67c-.93-1.23-4.27-5.36-9.45-5.87-8.19-.82-16.34,7.88-15.85,16.15.02.42.62,8.35,7.18,10.92,5.44,2.13,10.51-1.2,11.02-1.55"/>
      <path class="cls-9" d="M246.2,394.03c-.71,3.44-1.42,6.89-2.13,10.33-.89.21-8.47,2.15-11.88,9.76-3.09,6.91-.39,13.21.05,14.19,1.59.85,3.49.68,4.79-.4,1.55-1.3,1.94-3.69.8-5.58,1.23-2.76,2.46-5.52,3.69-8.27-2.02,3.55-2.6,6.72-2.79,8.57-.11,1.1-.56,6.23,1.99,10.37.44.7.92,1.31,1.69,1.69,2.37,1.16,5.33-.88,5.78-1.2.07.19,1.07,2.65,3.59,3.19,2.14.46,4.45-.66,5.58-2.79.41,1.94,1.9,3.38,3.59,3.59,2.21.27,4.57-1.62,4.79-4.39.15.43.65,1.62,1.79,2.09,1.6.66,3.94-.33,5.18-2.69-.73-.3-1.46-.6-2.19-.9-.25-.38-2.51-3.93-1-8.17,1.5-4.21,5.43-5.54,5.88-5.68-.21-4.99-.41-9.98-.62-14.97"/>
      <path class="cls-8" d="M248.18,433.49c-.54-1.12-1.05-2.45-1.4-3.99-1.2-5.29.2-9.81,1.1-12.06"/>
      <path class="cls-8" d="M257.35,433.89c-.59-1.33-1.18-2.93-1.6-4.79-.96-4.25-.64-7.93-.2-10.37"/>
      <path class="cls-8" d="M265.73,433.09c-.66-1.07-1.33-2.37-1.89-3.89-1.44-3.88-1.48-7.4-1.3-9.67"/>
      <path class="cls-7" d="M284.47,434.09c-.24-.19-3.23-2.64-2.89-6.58.24-2.82,2.1-5.3,4.79-6.38,0,0,3.06,2.92,2.3,7.33-.76,4.41-4.2,5.63-4.2,5.63Z"/>
      <path class="cls-9" d="M483.26,380.4c.98,7.7,1.96,15.41,2.94,23.11-1.37.76-5.45,3.24-7.34,8.29-1.82,4.86-.96,10.34,1.79,14.04.65.88,3.21,4.32,5.69,3.67,1.93-.51,3.3-3.36,2.91-5.65-.49-2.93-3.61-3.51-3.8-5.99-.15-1.9,1.51-3.59,2.98-4.75,2.56,2.02,3.85,4.1,4.51,5.43.48.97,3.05,6.14,1.72,11.9-.36,1.57-.97,3.02-.19,4.21.72,1.09,2.26,1.44,3.41,1.31,1.65-.19,3.08-1.46,3.67-3.22-.1.58-.35,2.58.9,4.24.33.43,1.19,1.59,2.39,1.56,1.15-.02,1.93-1.12,2.58-2.03,1.04-1.46,1.43-3.02,1.57-4.24,0,.58.04,2.54,1.48,4.1.41.45,1.5,1.63,3.01,1.56,1.45-.06,2.4-1.23,3.16-2.17,1.24-1.52,1.68-3.18,1.86-4.31-.22,1.93.53,3.66,1.84,4.32,1.91.96,4.13-.77,4.43-1.01.57-.45,2.6-2.21,2.83-9.42.08-2.54.18-6.84-1.54-12.41-1.72-5.55-4.46-9.8-6.87-12.78-.66-6.55-1.33-13.1-1.99-19.65"/>
      <path class="cls-9" d="M343.2,51.88c-2.2,16.21-.95,29.22.49,37.67,2.33,13.74,6.13,21.24,7.58,23.93,2.81,5.22,5.85,9.18,8.18,11.89-.8,10.41-1.6,20.82-2.4,31.23,1.28,12.96,8.07,24.49,18.34,28.86,15.36,6.54,38.08-3.09,46.66-25.72v-32.7c2.99-3.27,6.78-8.03,10.17-14.36.87-1.62,3.97-7.58,6.38-16.75,1.86-7.07,4-18.71,2.63-33.72l-32.16-26.31"/>
      <path class="cls-9" d="M422.05,127.04c2.99-3.27,6.78-8.03,10.17-14.36.87-1.62,3.97-7.58,6.38-16.75,1.86-7.07,4-18.71,2.63-33.72l-32.16-26.31-65.86,15.99c-2.2,16.21-.95,29.22.49,37.67,2.33,13.74,6.13,21.24,7.58,23.93,2.81,5.22,5.85,9.18,8.18,11.89"/>
      <path class="cls-13" d="M288.03,697.85c-2.3-1.35-3.48-3.91-2.97-6.27.57-2.66,3.01-3.83,3.3-3.96.99-61.15,4.06-125.79,9.91-193.52,3.62-41.95,8.09-82.48,13.21-121.53,11.03,6.3,27.12,13.65,47.55,17.17,42.38,7.3,76.47-6.52,90.48-13.21,1.54,103.47,3.08,206.95,4.62,310.42,2.02.98,3.3,3.04,3.3,5.28s-1.29,4.3-3.3,5.28c-.43,1.06-6.04,14.2-20.47,17.17-9.95,2.05-20.31-1.5-27.08-9.25-2.87-.63-5.19-2.65-5.94-5.28-.99-3.47.88-7.49,4.62-9.25-1.99-.05-3.65-1.48-3.96-3.3-.35-2.06,1.08-4.18,3.3-4.62-8.59-66.93-17.17-133.85-25.76-200.78-2.86.22-5.72.44-8.59.66-10.35,67.37-20.69,134.74-31.04,202.1,2.43,1.24,3.78,3.93,3.3,6.6-.47,2.62-2.59,4.67-5.24,5.05.22.18,2.03,1.73,1.94,4.2-.07,2-1.37,3.81-3.3,4.62-1.51,1.2-12.42,9.61-27.08,6.6-12.95-2.65-19.56-12.31-20.8-14.2Z"/>
      <path class="cls-5" d="M236.84,388.42c5.36,3.7,13.1,8.15,23.12,11.23,6.16,1.89,11.79,2.84,16.51,3.3,4.78-31.72,10.08-58.36,14.53-78.6,7.31-33.24,16.51-68.18,17.17-68.03.22.05-.51,4-1.98,11.89-3.42,18.37-4.65,21.17-5.28,27.74-1.19,12.31,2.31,11.03,1.98,25.1-.38,16.14-5.03,19.49-4.62,36.33.2,8.49.3,12.73,2.64,17.17,6.7,12.74,23.92,15.77,35.67,17.83,14.15,2.49,15.83-.26,39.63,1.98,15.04,1.41,13.78,2.46,22.46,2.64,20.98.45,35.55-5.48,40.95-7.93,10.83-4.91,19.61-8.89,21.13-16.51,1.44-7.2-4.97-10.87-6.6-23.78-.85-6.69.19-11.03,1.32-17.83,2.67-16.1,2.95-28.74,3.3-44.25.24-10.79-.01-25.18-1.98-42.27,9.25,49.32,18.49,98.63,27.74,147.94,4.42.45,12.52.68,21.8-2.64,10.77-3.85,17.45-10.46,20.47-13.87-1.82-38.47-7.16-69.8-11.89-91.81-12.25-56.94-21.09-95.48-52.18-112.94-9.14-5.13-26.45-14.85-46.23-11.23-12.35,2.26-17.86,8.3-31.04,7.27-13.59-1.07-17.32-8.24-28.4-10.57-18.45-3.88-35.98,10.16-45.57,17.83-41.88,33.52-54.48,91.8-64.73,142-4.19,20.54-7.92,44.69-9.91,71.99Z"/>
      <path class="cls-8" d="M518.49,431.47c.3-2.32.47-5.63-.2-9.5-.73-4.22-2.17-7.5-3.32-9.65"/>
      <path class="cls-8" d="M508.99,432.29c.28-2.25.42-4.98.16-8.05-.46-5.42-1.98-9.77-3.32-12.74"/>
      <path class="cls-8" d="M501.55,432.75c.24-2.5.32-5.64-.13-9.21-.6-4.77-1.94-8.64-3.14-11.39"/>
      <g>
        <path class="cls-2" d="M433,409.48c1.37,10.02,2.75,20.03,4.12,30.05-2.36,1.92-10,7.66-21.65,8.31-6.82.38-12.26-1.14-15.33-2.25-.84-11.12-1.69-22.24-2.53-33.35"/>
        <path class="cls-2" d="M433,409.48c1,1.57,2,3.14,3,4.71-4.06,1.62-9.82,3.47-16.98,4.39-8.62,1.11-15.88.45-20.74-.34-.22-2-.45-4-.67-6.01,5.88-.19,12.04-.52,18.46-1.03,5.9-.47,11.55-1.06,16.94-1.72Z"/>
      </g>
      <g>
        <path class="cls-2" d="M323.79,409.48l-4.12,30.05c2.36,1.92,10,7.66,21.65,8.31,6.82.38,12.26-1.14,15.33-2.25.84-11.12,1.69-22.24,2.53-33.35"/>
        <path class="cls-2" d="M323.79,409.48c-1,1.57-2,3.14-3,4.71,4.06,1.62,9.82,3.47,16.98,4.39,8.62,1.11,15.88.45,20.74-.34.22-2,.45-4,.67-6.01-5.88-.19-12.04-.52-18.46-1.03-5.9-.47-11.55-1.06-16.94-1.72Z"/>
      </g>
      <path class="cls-1" d="M346.9,55.04c-4.35.53-6.28,2.28-7.16,3.36-4.79,5.86.35,18.03,1.12,20.58.8,2.68,1.81,3.66,2.18,6.21.66,4.54-1.04,6.16-.84,10.57.06,1.37.31,6.73,3.58,9.62,3.95,3.48,8.05-.38,14.54,1.79,8.51,2.84,7.38,11.45,15.66,14.09,4.82,1.54,5.41-1.77,15.66-2.01,8.99-.22,11.23,2.15,14.54,0,5.34-3.47,3.4-12.13,7.38-13.2,2.87-.77,4.39,3.57,8.95,4.25,6.7.99,12.98-6.96,15.44-10.07,2.24-2.83,8.06-11.12,7.61-22.82-.1-2.68-.42-8.94-4.32-15.2-1.29-2.07-5.21-7.75-19.84-13.88-9.1-3.81-19.16-8.03-33.11-7.83-20.9.31-35.78,10.32-41.38,14.54Z"/>
      <path class="cls-1" d="M343.2,61.88c1.57,2.58,5.57,2.81,8.29,2.96,14.28.8,24.44-13.2,25.84-15.18-2.85,5.95-1.43,8.86-.97,9.64,2.92,5,13.64,4.83,21.19,1.64,8.57-3.62,10.32-10,14.76-9.12,4.61.92,4.53,7.16,10.58,12.89,8.87,8.42,25.01,9.58,28.5,4.44,1.1-1.61.58-3.3-5.26-18.09-7.07-17.91-8.01-19.75-9.31-21.92-4.21-7.05-8.14-13.65-14.29-17.32-17.99-10.74-47.22,8.21-60.62,20.18-9.51,8.49-22.47,23.68-18.7,29.87Z"/>
      <path class="cls-1" d="M345.37,59.88c-2.98,4.16-8.22,5.65-12.36,3.83-4.3-1.9-6.26-6.89-5.55-10.58.88-4.59,5.49-5.08,10.65-10.63,5.62-6.05,3.06-8.62,8.24-16.53,1.26-1.92,10.26-15.68,23.22-17.3,2.97-.37,6.87-.19,12.55-2.23,3.53-1.26,5.08-2.43,7.01-3.37,11.75-5.74,27.54,1.6,35.19,8.14,2.52,2.15,3.99,4.08,3.97,6.33-.03,3.25-3.12,6.35-6.57,7.13-3.65.82-7.63-1-9.82-4.55"/>
      <path class="cls-1" d="M428.29,17.55c7.63.68,11.86,3.94,13.56,5.47,4.88,4.39,8.36,12.04,8.72,19.08.13,2.44-.15,4.25,1.1,6.44,2.06,3.59,5.29,3.06,7.44,6.6,1.39,2.29,1.95,5.66.62,8.62-1.48,3.31-4.94,5.27-8.35,5.4-3.56.14-6.95-1.7-8.85-4.8"/>
      <path class="cls-8" d="M435.35,724.88c4.02.43,9.26.58,15.26-.33,8.94-1.36,15.83-4.5,20.23-6.97"/>
      <path class="cls-8" d="M462.55,703.65c1.74-.04,3.75.03,5.97.33,3.16.43,5.85,1.21,7.96,1.99"/>
      <path class="cls-8" d="M416.77,705.31c1.16,1.07,3.38,2.8,6.63,3.65,5.89,1.53,10.75-.99,11.94-1.66"/>
      <path class="cls-8" d="M409.81,679.44c-.66-6.97-1.33-13.93-1.99-20.9"/>
      <path class="cls-8" d="M447.62,630.35c-.22-19.68-.44-39.36-.66-59.04"/>
      <path class="cls-8" d="M392.89,542.11c-1.44-11.17-2.87-22.33-4.31-33.5"/>
      <path class="cls-8" d="M418.1,504.96c3.54,2.1,7.08,4.2,10.61,6.3"/>
      <path class="cls-8" d="M418.1,496.01c6.52,3.43,13.05,6.86,19.57,10.28"/>
      <path class="cls-8" d="M415.44,514.91c3.43-8.51,6.86-17.03,10.28-25.54"/>
      <path class="cls-8" d="M423.74,513.92c2.1-7.19,4.2-14.37,6.3-21.56"/>
      <path class="cls-8" d="M411.8,619.73c-1.11-7.41-2.21-14.82-3.32-22.22"/>
      <path class="cls-8" d="M365.03,490.03c.33-4.53.66-9.07.99-13.6h8.62"/>
      <path class="cls-8" d="M393.88,441.61v8.29c3.98.77,7.96,1.55,11.94,2.32"/>
      <path class="cls-9" d="M353.42,399.48c4.79.04,9.66.04,14.59,0,5.85-.05,11.6-.16,17.25-.33"/>
      <path class="cls-8" d="M431.12,429.13c.4,2.52.81,5.04,1.21,7.57-2.02,1.11-4.04,2.22-6.05,3.33"/>
      <path class="cls-8" d="M445.19,399.47v8.47"/>
      <path class="cls-8" d="M345.77,443.66c2.52-.4,5.04-.81,7.57-1.21.45-3.08.91-6.15,1.36-9.23"/>
      <path class="cls-8" d="M317.93,433.37c-.66,2.22-1.31,4.44-1.97,6.66,1.21,1.16,2.42,2.32,3.63,3.48"/>
      <path class="cls-8" d="M314.75,395.23c-.25,3.43-.5,6.86-.76,10.29"/>
      <path class="cls-8" d="M302.96,491.14c-.5,7.58-.99,15.17-1.49,22.75"/>
      <path class="cls-8" d="M352.19,528.06c-.62,7.21-1.24,14.42-1.86,21.63"/>
      <path class="cls-8" d="M295.5,635.46c.12-7.83.25-15.66.37-23.49"/>
      <path class="cls-8" d="M341,584.74c-.12,5.97-.25,11.93-.37,17.9"/>
      <path class="cls-8" d="M322.35,593.69c-3.85-3.85-7.71-7.71-11.56-11.56"/>
      <path class="cls-8" d="M324.22,584c-4.6-4.23-9.2-8.45-13.8-12.68"/>
      <path class="cls-8" d="M310.79,589.59c2.11-6.46,4.23-12.93,6.34-19.39"/>
      <path class="cls-8" d="M316.01,595.56c2.98-8.7,5.97-17.4,8.95-26.11"/>
      <path class="cls-8" d="M331.68,679.84v-8.2"/>
      <path class="cls-8" d="M298.2,700.08c1.79,1.45,4.69,3.44,8.69,4.76,5.58,1.83,10.42,1.4,12.96.98"/>
      <path class="cls-8" d="M332.31,714.84v2.46c-3.12,1.04-6.23,2.08-9.35,3.12"/>
      <path class="cls-8" d="M260.31,709.26c1.65-1.33,3.77-2.79,6.4-4.1,4.45-2.21,8.56-3.08,11.48-3.44"/>
      <path class="cls-8" d="M316.72,466.5c2.93,3.18,5.87,6.37,8.8,9.55"/>
      <path class="cls-8" d="M320.99,461.47c3.18,2.85,6.37,5.7,9.55,8.55"/>
      <path class="cls-8" d="M313.95,471.53c3.52-3.52,7.04-7.04,10.56-10.56"/>
      <path class="cls-8" d="M317.72,474.54c4.44-3.94,8.88-7.88,13.32-11.82"/>
      <path class="cls-8" d="M288.69,292.5c4.81-12.38,9.63-24.76,14.44-37.14"/>
      <path class="cls-8" d="M247.68,387.78c-2.16-1.01-4.32-2.01-6.48-3.02.65-3.96,1.3-7.91,1.94-11.87"/>
      <path class="cls-8" d="M277.04,351.95c.43-3.38.86-6.76,1.3-10.14"/>
      <path class="cls-8" d="M270.13,258.7c2.02-8.79,5.75-20.59,12.95-33.24,5.39-9.48,11.3-16.9,16.4-22.45"/>
      <path class="cls-8" d="M341.58,168.7c6.91-6.35,11.76-7.02,14.89-6.48,4.94.85,6.62,4.88,13.17,7.77,5.31,2.34,10.42,2.43,13.81,2.16"/>
      <path class="cls-8" d="M445.83,173.23c3.62.06,12.46.71,20.72,6.91,3.97,2.98,6.57,6.32,8.2,8.85"/>
      <path class="cls-8" d="M451.01,252.66c-3.19-8.27-2.7-14.98.43-16.84,1.81-1.07,4.07-.28,4.75,0,4.37,1.79,6.8,8.45,5.83,16.62"/>
      <path class="cls-8" d="M501.52,252.66c2.59,11.73,5.18,23.46,7.77,35.18"/>
      <path class="cls-8" d="M509.07,381.95c4.46-2.73,8.92-5.47,13.38-8.2-.65-3.89-1.3-7.77-1.94-11.66"/>
      <path class="cls-8" d="M486.41,348.71c-.86-7.48-1.73-14.97-2.59-22.45"/>
      <path class="cls-8" d="M436.98,329.07c1.35-4.38,2.64-9.92,3.24-16.4.67-7.31.25-13.65-.43-18.56"/>
      <path class="cls-8" d="M403.19,382.02c11.23-.29,20-2.3,25.99-4.13,9.76-2.98,11.39-5.26,11.81-7.09,1.13-4.92-5.74-10.08-6.5-10.63"/>
      <path class="cls-8" d="M335.27,366.67c-.71.29-6.48,2.52-11.22-.59-5.2-3.41-5.21-10.65-4.13-14.76.92-3.53,2.95-5.9,4.13-7.09"/>
      <path class="cls-8" d="M319.91,314.1c-1.72-1.56-6.64-6.43-7.68-14.17-1.16-8.65,2.99-17.48,10.63-23.03"/>
      <path class="cls-8" d="M362.44,221.38c-3.14,9.71-6.3,23.26-6.5,39.57-.12,10.21.95,19.2,2.36,26.58"/>
      <path class="cls-8" d="M391.38,325.92c1.65-11.47,2.94-24.12,3.54-37.8.53-12.03.46-23.29,0-33.66"/>
      <path class="cls-8" d="M394.33,192.44c6.5,8.27,12.99,16.54,19.49,24.8"/>
      <path class="cls-8" d="M406.73,191.26c3.54,4.92,7.09,9.84,10.63,14.76"/>
      <path class="cls-8" d="M394.92,201.89c7.28-4.72,14.57-9.45,21.85-14.17"/>
      <path class="cls-8" d="M398.46,210.75c7.09-4.72,14.17-9.45,21.26-14.17"/>
      <path class="cls-8" d="M372.37,67.09c1.46,1.4,3.52,2.97,6.26,4.05,9.18,3.63,18.04-1.35,19.52-2.21"/>
      <path class="cls-8" d="M371.63,108.33c1.18,2.22,3.25,5.22,6.63,6.26,3.26,1,5.64-.45,10.31-1.1,2.82-.4,7.06-.58,12.52.74"/>
      <path class="cls-8" d="M350.28,95.07c.68-1.89,2.26-7.13.37-13.26-1.15-3.71-3.11-6.29-4.42-7.73"/>
      <path class="cls-8" d="M338.49,50.51c-4.18.54-6.57,3.43-6.26,5.16.31,1.71,3.48,3.55,7.51,2.72"/>
      <path class="cls-8" d="M356.9,26.21c.26-.95,2.12-7.45,8.84-10.68,7.01-3.37,13.53-.4,14.36,0"/>
      <path class="cls-8" d="M369.79,46.83c.58-.61,2.63-2.64,5.89-2.95.79-.07,4.61-.43,6.63,2.21,1.74,2.27,1.53,5.95-.74,8.84"/>
      <path class="cls-8" d="M404.04,49.04c.42-3.82,3.44-6.75,7-7,3.02-.21,5.96,1.54,7.37,4.42"/>
      <path class="cls-8" d="M436.82,29.15c1.51,1.89,3.48,4.86,4.42,8.84,1.62,6.83-1.02,11.36,1.84,15.1.95,1.24,2.78,2.74,6.63,3.31"/>
      <path class="cls-8" d="M400.36,98.76c.64-.74,3.59-4.02,8.47-4.42,6.92-.57,11.19,5.21,11.42,5.52"/>
      <path class="cls-8" d="M422.82,79.24c.38.67,2.14,3.62,5.89,4.79,4.35,1.35,7.93-.77,8.47-1.1"/>
      <path class="cls-8" d="M414.68,138.76v11.03"/>
      <path class="cls-8" d="M363.21,143.48c.7-6.13,1.4-12.25,2.1-18.38-2.36-2.98-4.73-5.95-7.09-8.93"/>
      <path class="cls-8" d="M382.64,153.99c1.87,3.47,5.49,5.53,9.19,5.25,4.34-.33,6.77-3.73,7.09-4.2"/>
      <path class="cls-7" d="M169.93,699.57c-6.2,9.27-30.15,18.96-51.46,20.94-27.84,2.59-57.8-7.33-64.97-17.33-1.06-1.48-1.62-2.96-1.6-4.41.15-10.24,29.58-18.11,47.55-20.38,32.34-4.07,70.99,4.55,72,16.31.14,1.58-.41,3.22-1.52,4.87Z"/>
      <path class="cls-12" d="M171.45,703.16c.9,10.44-27.87,23.47-52.98,25.81-31.98,2.98-66.74-10.55-66.57-21.74.02-1.4.59-2.75,1.6-4.05,7.17,10,37.13,19.92,64.97,17.33,21.31-1.98,45.26-11.67,51.46-20.94.89,1.15,1.41,2.35,1.52,3.59Z"/>
      <path class="cls-6" d="M51.9,698.77v8.46"/>
      <path class="cls-6" d="M171.45,694.7c0,4.3,0,8.6,0,12.9"/>
      <path class="cls-7" d="M104.96,695.83c1.11.5,3.42,1.36,6.42,1.13,2.44-.19,4.29-1.02,5.31-1.58,2.9-111.47,5.8-222.94,8.7-334.42-.85.82-2.65,2.31-5.21,2.72-3.9.62-6.8-1.74-7.58-2.42-2.55,111.52-5.09,223.04-7.64,334.57Z"/>
      <path class="cls-7" d="M113.97,343.04c1.11.23,3.42.63,6.42.53,2.44-.09,4.29-.48,5.31-.74,2.9-51.79,5.8-103.58,8.7-155.37-.85.38-2.65,1.07-5.21,1.26-3.9.29-6.8-.81-7.58-1.12-2.55,51.81-5.09,103.62-7.64,155.44Z"/>
      <path class="cls-12" d="M109.71,313.64c.46-.5,4.96-5.19,11.77-4.4,6.18.71,9.44,5.38,9.9,6.07-.49,15.9-.99,31.8-1.48,47.7-2.86,4.26-7.9,6.45-12.75,5.55-6.39-1.18-9.01-7.07-9.21-7.54.59-15.79,1.18-31.59,1.77-47.38Z"/>
      <path class="cls-12" d="M243.24,135.67c-5.98-1.92-8.84-6.85-7.79-10.18.82-2.57,4.23-4.95,7.09-4.08,3.79,1.15,3.78,7.12,3.77,7.4-.06,3.73-2.43,6.22-3.08,6.85-1.91,2.8-3.83,5.61-5.74,8.41-1.92-2.23-5.01-3.04-7.71-2.04-2.88,1.07-4.74,3.99-4.5,7.13.63,3.19,1.26,6.38,1.88,9.58,1.59,2.91,4.96,4.36,8.11,3.52,3.04-.81,5.22-3.58,5.29-6.77,3.76-1.71,9.76-5.17,14.34-11.74,1.93-2.78,4.35-6.35,4.83-11.62.56-6.16-1.89-10.91-3.02-12.83-4-6.05-10.74-9.41-17.51-8.75-.38.04-9.47,1.05-12.98,7.85-3.8,7.34.1,19.12,11.26,25.68"/>
      <path class="cls-7" d="M6.17,197.95c2.72,2.72,5.43,5.43,8.15,8.15,72.75-16,145.51-32,218.26-48-.91-3.02-1.81-6.04-2.72-9.06-74.57,16.3-149.13,32.6-223.7,48.91Z"/>
      <path class="cls-12" d="M117.06,169.71c.05,4.92.11,9.84.16,14.76,1.56,4.76,6.17,7.85,11.09,7.47,4.75-.36,8.74-3.88,9.74-8.6-.48-5.94-.96-11.88-1.44-17.83-2.24-3.84-6.61-5.9-10.9-5.15-4.58.79-8.15,4.62-8.65,9.35Z"/>
      <path class="cls-12" d="M1,201.35c.57,2.47,1.14,4.94,1.7,7.4,2.72,1.96,9.68,2.2,16.72.61,6.8-1.54,12.2-4.45,13.16-7.11-1.28-2.86-2.57-5.73-3.85-8.59-3.61-1.3-10.11-1.09-16.21.5-6.52,1.7-11.27,4.65-11.53,7.18Z"/>
      <path class="cls-8" d="M126.85,682.17c5.43-.33,14.07-.09,23.62,3.67,4.35,1.72,7.94,3.79,10.78,5.73"/>
      <path class="cls-8" d="M90.61,711.99c3.58,1.02,7.99,1.94,13.07,2.29,8.39.59,15.43-.57,20.41-1.83"/>
      <path class="cls-8" d="M68.82,699.37c-1.14-.32-3.79-1.18-3.9-2.52-.12-1.47,2.79-3.23,7.34-4.36"/>
      <path class="cls-8" d="M139.24,720.24c4.41-.83,10.32-2.44,16.74-5.73,4.91-2.52,8.79-5.34,11.7-7.8"/>
      <path class="cls-8" d="M75.25,719.55c-3.09-.84-6.91-2.17-11.01-4.36-3.24-1.73-5.9-3.58-8.03-5.28"/>
      <path class="cls-8" d="M114.01,689.28v-55.29"/>
      <path class="cls-8" d="M111.94,546.16v-46.56"/>
      <path class="cls-8" d="M116.53,372.99c.76.22,2.42.58,4.36,0,1.01-.3,1.78-.77,2.29-1.15"/>
      <path class="cls-8" d="M118.82,401.89c.23,8.64.46,17.28.69,25.92"/>
      <path class="cls-8" d="M112.17,358.77c.46.6,2.42,3,5.96,3.67,3.8.72,6.67-1.09,7.24-1.48"/>
      <path class="cls-8" d="M126.16,323.22v-7.34"/>
      <path class="cls-8" d="M114.24,345.23c.31-8.1.61-16.21.92-24.31"/>
      <path class="cls-8" d="M122.04,302.57c1.15-10.02,2.29-20.03,3.44-30.05"/>
      <path class="cls-8" d="M121.12,231.7c1.15-11.85,2.29-23.7,3.44-35.55"/>
      <path class="cls-8" d="M122.95,182.39c.4.31,3.35,2.51,7.11,1.61,2.61-.62,4.12-2.38,4.59-2.98"/>
      <path class="cls-8" d="M121.81,170c.23-.74.77-2.14,2.06-3.44,1.02-1.02,2.08-1.56,2.75-1.83"/>
      <path class="cls-8" d="M36.94,197.3c5.81-1.3,11.62-2.6,17.43-3.9"/>
      <path class="cls-8" d="M68.14,187.2c13.61-2.98,27.22-5.96,40.83-8.95"/>
      <path class="cls-8" d="M25.47,196.84c.92,1.83,1.83,3.67,2.75,5.5"/>
      <path class="cls-8" d="M14.32,206.11c-.29.1-3.74,1.18-6.5-1.01-1.63-1.29-2.14-3.03-2.29-3.67"/>
      <path class="cls-8" d="M141.99,173.9c5.58-1.3,11.16-2.6,16.74-3.9"/>
      <path class="cls-8" d="M174.79,164.04c14.53-2.91,29.05-5.81,43.58-8.72"/>
      <path class="cls-8" d="M241.3,151.65c2.1-.73,5.29-2.16,8.26-5.05,6.17-5.99,6.78-13.73,6.88-15.83"/>
      <path class="cls-8" d="M232.82,127.34c-.33-.84-1.35-3.78,0-6.42,1.78-3.47,7.04-5.25,12.39-3.21"/>
      <path class="cls-8" d="M248.87,133.07v-7.57"/>
      <g>
        <path class="cls-7" d="M736.46,412.64l-20.81,35.25-106.26,14.92-42.81-40.94c12-5.53,24-11.07,36-16.61,17.64-4.15,43.23-8.07,73.86-5.54,24.57,2.02,44.96,7.57,60.02,12.92Z"/>
        <path class="cls-12" d="M596.62,425.82c-2.7-1.68-8.03-4.51-15.36-5.24-6.78-.68-12.18.74-15.14,1.75-5.54,98.48-11.08,196.96-16.62,295.45,38.47,8.31,76.94,16.62,115.41,24.93,22.62-12.77,45.24-25.54,67.86-38.32,9.06-47.08,16.03-105.22,14.77-171.73-.84-44.65-5.24-84.95-11.08-120.02-21.8-1.54-35.16,3.71-43.5,9.15-8.06,5.25-15.71,13.46-25.28,11.63-4.24-.81-7.39-3.32-14.57-3.78-4.66-.3-8.57.43-11.21,1.12"/>
        <path class="cls-7" d="M641.9,430.76c-1.46,4.71-2.93,9.42-4.39,14.13-14.06-1.18-28.13-2.37-42.19-3.55.43-5.17.87-10.34,1.3-15.51"/>
        <path class="cls-6" d="M668.14,432.96c-.92,103.1-1.85,206.2-2.77,309.29"/>
        <path class="cls-3" d="M637.65,713.93c1.63-.72,5.07-1.55,11.11,1.54-.1,7.89-.2,15.79-.3,23.68,3.18.72,6.36,1.45,9.53,2.17-.35.96-3.01,7.91-10.16,10.16-.45.14-6.42,1.93-11.08-.92-10.3-6.32-9.04-32.25.9-36.63Z"/>
        <path class="cls-3" d="M573.24,700.11c1.63-.72,5.07-1.55,11.11,1.54-.1,7.89-.2,15.79-.3,23.68,3.18.72,6.36,1.45,9.53,2.17-.35.96-3.01,7.91-10.16,10.16-.45.14-6.42,1.93-11.08-.92-10.3-6.32-9.04-32.25.9-36.63Z"/>
        <path class="cls-4" d="M648.83,732.64c-1.51-.53-2.29-.22-2.65,0-2.29,1.39-1.59,7.84.84,8.64.24.08,1.54.45,3.76-1.67"/>
        <path class="cls-4" d="M584.39,718.59c-1.51-.53-2.29-.22-2.65,0-2.29,1.39-1.59,7.84.84,8.64.24.08,1.54.45,3.76-1.67"/>
        <path class="cls-12" d="M637.26,444.89c.57-41.59,1.13-83.19,1.7-124.78-3.7-1.6-7.39-3.2-11.09-4.79-1.46,42.19-2.92,84.38-4.37,126.57,4.59,1,9.18,2,13.77,3.01Z"/>
        <path class="cls-12" d="M609.51,442.78c.57-42.93,1.13-85.86,1.7-128.8-3.7-1.65-7.39-3.3-11.09-4.95-1.46,43.55-2.92,87.09-4.37,130.64,4.59,1.03,9.18,2.07,13.77,3.1Z"/>
        <path class="cls-12" d="M585.98,313.35c21.15,2.46,42.3,4.93,63.45,7.39,2.05-1.64,4.11-3.29,6.16-4.93-.62-4.72-1.23-9.45-1.85-14.17-20.53-1.44-41.07-2.87-61.6-4.31-2.31.82-4.62,1.64-6.93,2.46.26,4.52.51,9.03.77,13.55Z"/>
        <path class="cls-12" d="M649.43,320.74c-.92-5.13-1.85-10.27-2.77-15.4-20.48-1.85-40.96-3.7-61.45-5.54"/>
        <path class="cls-11" d="M582.04,509.6c.2-1.93,2.82-24.3,21.42-33.22,2.42-1.16,12.56-6.03,22.56-2.07,12.27,4.86,20,21.3,17.04,40.19-2.38,48.49-4.75,96.99-7.13,145.48-.31,17.66-9.59,31.49-21.34,34.12-10.21,2.29-19.4-4.55-22.65-6.97-15.36-11.42-16.68-30.33-16.86-33.77,2.32-47.92,4.63-95.84,6.95-143.76Z"/>
        <path class="cls-4" d="M598.13,599.57c.08-.63,1.16-7.92,9.45-10.75,1.08-.37,5.61-1.91,10.11-.57,5.53,1.64,9.06,7.04,7.82,13.19-.85,15.82-1.69,31.63-2.54,47.45-.06,5.76-4.16,10.23-9.41,11.04-4.57.7-8.72-1.57-10.19-2.38-6.94-3.8-7.61-9.98-7.71-11.1.82-15.63,1.64-31.26,2.47-46.89Z"/>
        <path class="cls-8" d="M579.14,736.3c-1.5-.77-3.95-2.29-5.98-5.06-3.72-5.07-3.37-10.63-3.22-12.2"/>
        <path class="cls-8" d="M576.61,717.9c-1.09-1.28-.99-3.22.23-4.37,1.22-1.15,3.15-1.15,4.37,0"/>
        <path class="cls-8" d="M650.01,745.97c-.53.48-3.2,2.75-7.13,2.53-3.03-.17-5.07-1.73-5.75-2.3"/>
        <path class="cls-8" d="M639.89,734.23c-.47-2.17.25-4.33,1.84-5.52,1.39-1.04,2.96-.96,3.45-.92"/>
        <path class="cls-8" d="M633.67,733.08c-.19-2-.33-6.59,2.3-11.27,1.24-2.2,2.72-3.78,3.91-4.83"/>
        <path class="cls-8" d="M605.37,725.72c5.14.31,10.28.61,15.42.92"/>
        <path class="cls-8" d="M560.04,715.37c-2.07-.46-4.14-.92-6.21-1.38.84-5.52,1.69-11.04,2.53-16.57"/>
        <path class="cls-8" d="M583.51,686.37c1.42,2.05,3.97,5.12,8.05,7.59,7.09,4.29,14.18,3.94,16.8,3.68"/>
        <path class="cls-8" d="M640.35,700.41c3.68-3.53,7.36-7.06,11.04-10.58"/>
        <path class="cls-8" d="M647.48,702.71c3.45-2.99,6.9-5.98,10.35-8.97"/>
        <path class="cls-8" d="M641.04,693.97c4.99,2.68,9.97,5.37,14.96,8.05"/>
        <path class="cls-8" d="M644.95,690.51c4.53,2.76,9.05,5.52,13.58,8.28"/>
        <path class="cls-8" d="M585.81,670.96c-1.38-1.74-3.41-4.75-4.6-8.97-.91-3.24-1.01-6.08-.92-8.05"/>
        <path class="cls-8" d="M557.97,647.72c.46-9.2.92-18.41,1.38-27.61"/>
        <path class="cls-8" d="M574.31,620.1c.77-16.11,1.53-32.21,2.3-48.32"/>
        <path class="cls-8" d="M561.88,552.91c.15-3.83.31-7.67.46-11.51"/>
        <path class="cls-8" d="M576.61,512.19c-.05-3.26.27-7.69,1.84-12.66,3-9.48,8.86-15.44,11.97-18.18"/>
        <path class="cls-12" d="M568.32,479.97c.15-5.75.31-11.51.46-17.26"/>
        <path class="cls-12" d="M574.31,425.9c2.14-.2,4.71-.27,7.59,0,4.12.39,7.55,1.36,10.12,2.3"/>
        <path class="cls-12" d="M595.94,444.3c6.14.84,12.27,1.69,18.41,2.53"/>
        <path class="cls-12" d="M648.17,434.64c1.76-.33,4.23-.58,7.13-.23,4.07.49,7.16,1.95,8.97,2.99"/>
        <path class="cls-12" d="M663.82,480.66c-.15,8.28-.31,16.57-.46,24.85"/>
        <path class="cls-12" d="M644.03,482.73c-1.12-1.99-3.25-5.17-6.9-8.05-3.65-2.88-7.24-4.2-9.43-4.83"/>
        <path class="cls-12" d="M659.52,576.28c-.09,6.93-.18,13.85-.27,20.78"/>
        <path class="cls-12" d="M645.49,550.64c.63-7.47,1.26-14.93,1.89-22.4"/>
        <path class="cls-12" d="M657.42,638.82c.27,11.06.54,22.12.81,33.17"/>
        <path class="cls-12" d="M673.6,716.1c-.13,4.45-.27,8.9-.4,13.35l14.97-6.88"/>
        <path class="cls-12" d="M724.58,701.53c1.62-.81,3.24-1.62,4.85-2.43.4-4.05.81-8.09,1.21-12.14"/>
        <path class="cls-12" d="M680.88,657.43c-.4-7.55-.81-15.1-1.21-22.66"/>
        <path class="cls-12" d="M736.31,634.78c1.37-13.16,2.21-27.95,2.02-44.1-.2-16.66-1.47-31.86-3.24-45.31"/>
        <path class="cls-12" d="M672.39,543.35v-18.61"/>
        <path class="cls-12" d="M732.26,438.57c1.75,9.04,3.51,18.07,5.26,27.11"/>
        <path class="cls-12" d="M675.62,438.97c6.54.72,10.32-.89,12.54-2.43,3.52-2.44,3.95-5.29,7.69-8.5,3.76-3.23,8.04-4.38,10.92-4.85"/>
        <path class="cls-12" d="M646.67,399.07c23.75,4.46,47.49,8.91,71.24,13.37"/>
        <path class="cls-12" d="M637.79,405.84c20.15,4.31,40.3,8.63,60.45,12.94"/>
        <path class="cls-12" d="M637.65,416.16c15.75,3.33,31.51,6.66,47.26,9.99"/>
        <path class="cls-12" d="M624,403.98c-2.2-.34-4.4-.68-6.6-1.02"/>
        <path class="cls-12" d="M625.18,413.63c-5.08-.9-10.17-1.81-15.25-2.71"/>
        <path class="cls-12" d="M651.41,429.02c-4.63-.9-9.26-1.81-13.9-2.71"/>
        <path class="cls-12" d="M624.84,424.45c-5.02-.96-10.03-1.92-15.05-2.87"/>
        <path class="cls-12" d="M597.26,418.53c-4.96-1.07-9.93-2.14-14.89-3.21"/>
        <path class="cls-12" d="M610.26,428.04c4.56.25,9.12.51,13.69.76"/>
        <path class="cls-12" d="M701.44,512.58c5.33-8.78,10.66-17.56,15.99-26.34"/>
        <path class="cls-12" d="M714.92,512.27c3.24-7.84,6.48-15.68,9.72-23.52"/>
        <path class="cls-12" d="M702.38,496.59c7.53,3.66,15.05,7.32,22.58,10.97"/>
        <path class="cls-12" d="M706.14,488.13c6.17,3.24,12.33,6.48,18.5,9.72"/>
        <path class="cls-12" d="M722.21,651.47c-2.26-4.44-4.52-8.87-6.78-13.31"/>
        <path class="cls-12" d="M727.54,646.87c-2.18-4.36-4.36-8.71-6.53-13.07"/>
        <path class="cls-12" d="M715.44,649.29c5-2.26,10-4.52,15-6.78"/>
        <path class="cls-12" d="M713.26,644.21c4.36-2.9,8.71-5.81,13.07-8.71"/>
      </g>
    </g>
  </g>
</svg>