<?xml version="1.0" encoding="UTF-8"?>
<svg id="Livello_2" data-name="Livello 2" xmlns="http://www.w3.org/2000/svg" viewBox="0 0 397.3 312.02">
  <defs>
    <style>
      .cls-1 {
        fill: #9e005d;
      }

      .cls-1, .cls-2, .cls-3, .cls-4, .cls-5, .cls-6, .cls-7, .cls-8, .cls-9, .cls-10, .cls-11, .cls-12, .cls-13, .cls-14, .cls-15 {
        stroke: #000;
        stroke-linecap: round;
        stroke-linejoin: round;
      }

      .cls-1, .cls-2, .cls-3, .cls-4, .cls-5, .cls-6, .cls-7, .cls-8, .cls-9, .cls-10, .cls-11, .cls-14, .cls-15 {
        stroke-width: 2px;
      }

      .cls-2 {
        fill: #702d00;
      }

      .cls-3 {
        fill: #2e3192;
      }

      .cls-4 {
        fill: #ff7bac;
      }

      .cls-5 {
        fill: #a67c52;
      }

      .cls-6 {
        fill: #333;
      }

      .cls-7 {
        fill: #fff;
      }

      .cls-8 {
        fill: #6d6d6d;
      }

      .cls-9, .cls-12 {
        fill: none;
      }

      .cls-10 {
        fill: #5b5b5b;
      }

      .cls-11 {
        fill: #c69c6d;
      }

      .cls-12, .cls-13 {
        stroke-width: 1.5px;
      }

      .cls-13 {
        fill: #d9e021;
      }

      .cls-14 {
        fill: #60003e;
      }

      .cls-15 {
        fill: #a04e70;
      }
    </style>
  </defs>
  <g id="Personaggi">
    <g>
      <g>
        <path class="cls-14" d="M347.7,154.72c2.22.18,12.7.8,21.04-6.71,3.89-3.5,5.86-7.46,6.85-10,1.03-1.04,3.97-4.31,4.47-9.37.3-2.96-.36-5.35-.86-6.73.91-2.58,1.86-6.17,2.05-10.53.29-6.52-1.25-11.72-2.44-14.81.92-2.93,1.89-7.13,1.95-12.24.07-5.58-.98-10.14-1.94-13.21,1.05-1.79,3.29-6.14,3.19-12.09-.09-5.73-2.29-9.89-3.37-11.67-15.8-6.85-31.6-13.7-47.4-20.55"/>
        <path class="cls-1" d="M361.68,140c-1.57.38-3.13-.6-3.73-1.86-.92-1.95.38-4.72,2.42-5.03,1.64-.25,3.44,1.14,3.73,2.98.26,1.64-.7,3.5-2.42,3.91Z"/>
        <path class="cls-1" d="M370.37,112.72c-1.57.38-3.13-.6-3.73-1.86-.92-1.95.38-4.72,2.42-5.03,1.64-.25,3.44,1.14,3.73,2.98.26,1.64-.7,3.5-2.42,3.91Z"/>
        <path class="cls-1" d="M370.92,87.42c-1.57.38-3.13-.6-3.73-1.86-.92-1.95.38-4.72,2.42-5.03,1.64-.25,3.44,1.14,3.73,2.98.26,1.64-.7,3.5-2.42,3.91Z"/>
        <path class="cls-1" d="M370.37,64.68c-1.57.38-3.13-.6-3.73-1.86-.92-1.95.38-4.72,2.42-5.03,1.64-.25,3.44,1.14,3.73,2.98.26,1.64-.7,3.5-2.42,3.91Z"/>
        <path class="cls-1" d="M364.68,130.12c.13-.06,1.55-.67,1.89-2.24.25-1.12-.16-2.31-1.05-3.08"/>
        <path class="cls-1" d="M367.9,134.94c.45-.21,1.77-.76,3.43-.42,1.28.26,2.13.92,2.52,1.26"/>
        <path class="cls-1" d="M358.46,143.47c-.41.1-3.24.85-4.47,3.56-.64,1.4-.57,2.7-.49,3.35"/>
        <path class="cls-1" d="M355.04,134.73c-.1-.14-1.03-1.44-2.66-1.47-1.05-.02-1.79.51-2.03.7"/>
        <path class="cls-1" d="M373.56,115.58c.43.04,1.29.18,2.17.77.75.5,1.18,1.11,1.4,1.47"/>
        <path class="cls-1" d="M366.92,115.65c-1.06.17-1.91.88-2.17,1.82-.22.83.1,1.54.21,1.75"/>
        <path class="cls-1" d="M364.54,104.68c.04-.7-.31-1.36-.91-1.68-.77-.41-1.53-.04-1.61,0"/>
        <path class="cls-1" d="M372.37,103.28c0-.27.01-1.66,1.12-2.8,1.06-1.09,2.37-1.18,2.66-1.19"/>
        <path class="cls-1" d="M366.22,89.72c-.22,0-1.86-.05-3.01,1.26-.87.99-.91,2.13-.91,2.45"/>
        <path class="cls-1" d="M374.33,88.67c.29.06,1.37.31,2.17,1.33.67.86.75,1.77.77,2.1"/>
        <path class="cls-1" d="M373.49,77.84c-.07-.25-.63-2.54.84-4.26.65-.76,1.43-1.1,1.89-1.26"/>
        <path class="cls-1" d="M366.43,78.05c.13-1.23-.37-2.42-1.33-3.08-.94-.65-1.96-.53-2.24-.49"/>
        <path class="cls-1" d="M328.68,44.19c3.94-2.69,8.83-2.89,12.3-.56,2.98,2,3.87,5.17,4.1,6.15,1.42-.59,4.5-1.64,8.39-1.12,5.24.71,8.5,3.81,9.51,4.85-.47.33-4.67,3.4-4.85,8.95-.17,5.27,3.43,8.52,3.91,8.95-1.24,1.18-4.79,4.9-5.59,10.81-1.18,8.73,4.64,14.88,5.41,15.66-.63.55-5.51,4.96-5.22,12.12.3,7.26,5.68,11.27,6.34,11.74-.89-.14-5.73-.83-10.07,2.42-5.37,4.03-5.24,10.57-5.22,11.18l-31.05-7.6"/>
        <path class="cls-1" d="M362.98,121.73c-7.84-3.49-15.69-6.99-23.53-10.48"/>
        <path class="cls-1" d="M361.86,97.87c-5.28-1.53-10.56-3.06-15.84-4.59"/>
        <path class="cls-1" d="M362.05,71.41c-4.64-.69-9.28-1.38-13.92-2.07"/>
        <path class="cls-1" d="M364.82,65.4c-.28.14-.94.53-1.4,1.33-.55.95-.46,1.87-.42,2.17"/>
        <path class="cls-1" d="M374.26,66.58c.26,0,.82.05,1.4.42.78.5,1.05,1.24,1.12,1.47"/>
        <path class="cls-1" d="M373.7,55.54c-.07-.21-.47-1.52.28-2.87.75-1.35,2.09-1.7,2.31-1.75"/>
        <path class="cls-1" d="M368.25,54.84c-.03-.21-.15-.77-.63-1.26-.57-.59-1.28-.68-1.47-.7"/>
        <path class="cls-14" d="M343.01,38.55c1.71-.48,3.4.02,4.19,1.19.5.73.52,1.54.49,1.96"/>
      </g>
      <g>
        <path class="cls-9" d="M337.07,97.22c5.72.41,10.53-1.55,12.09-5.06,1.09-2.46.92-6.43-.98-7.34-1.29-.61-3.44.14-4.12,1.61-.88,1.89,1.1,4.07,1.47,4.47,2.15,2.36,6.72,3.83,9.86,1.47,2.67-2.01,3.6-6.25,1.96-8.39-1.04-1.35-3.25-2.02-3.98-1.33-.77.73-.08,3.15,1.4,4.33,1.54,1.24,4.03,1.19,6.29-.14"/>
        <path class="cls-6" d="M252.37,84.48c.12-25.89,18.95-47.04,42.07-49.69,21.69-2.49,41.33,11.96,49.07,30.61,7.29,17.57,3.71,38.18-9.23,53.05"/>
        <path class="cls-9" d="M294.3,34.78c1.96,4.29,3.91,8.57,5.87,12.86-1.4,1.3-2.8,2.61-4.19,3.91,1.82,1.82,3.63,3.63,5.45,5.45-5.08,12.58-10.16,25.16-15.24,37.74"/>
        <path class="cls-9" d="M331.06,49.04c-5.17.79-10.34,1.58-15.52,2.38.09,2.33.19,4.66.28,6.99-4.8-.47-9.6-.93-14.4-1.4"/>
        <path class="cls-4" d="M315.54,51.42c5.53-.92,11.06-1.84,16.59-2.76,6.65-7.48,8.94-17.51,5.63-25.76-5.12-12.76-22.8-19.23-34.11-11.88-7.1,4.62-10.67,14.02-9.37,23.77,1.96,4.29,3.91,8.57,5.87,12.86"/>
        <path class="cls-15" d="M310.72,33.55c-.62-.69-2.67-2.97-2.03-5.69.64-2.71,3.56-4.16,5.82-4.4,3-.32,5.6,1.41,6.94,3.45.26.39,2.32,3.63.79,6.62-.83,1.62-2.29,2.34-2.8,2.56-3.04,1.32-6.72-.29-8.74-2.54Z"/>
        <path class="cls-9" d="M302.78,19.78c.66-.63,2.35-2.08,4.99-2.56,3.26-.6,5.79.67,6.52,1.07"/>
        <path class="cls-9" d="M327.19,22.43c.51.24,2.95,1.46,4.05,4.38,1.01,2.68.22,5.01,0,5.59"/>
        <path class="cls-7" d="M301.75,31.21c1.01,1.49,4.16,5.7,10.09,7.87,5.98,2.19,11.14.97,12.87.48-2.67,7.2-10.84,10.36-17,7.43-5.44-2.59-8.29-9.47-5.96-15.78Z"/>
        <path class="cls-7" d="M313.03,30.49c-.35-.18-.32-1.54.51-2.38.69-.69,1.83-.92,2.05-.61.39.57-1.96,3.29-2.56,2.98Z"/>
        <path class="cls-7" d="M316.77,32.72c.36.17,1.42-.68,1.58-1.85.13-.97-.38-2.02-.76-2-.69.03-1.42,3.56-.82,3.85Z"/>
        <path class="cls-4" d="M312.72,9.43c-1.22-4.17-4.58-7.34-8.71-8.2-5.45-1.14-9.52,2.3-9.97,2.7.89,1.24,1.95,2.56,3.22,3.91,2.12,2.26,4.25,3.98,6.1,5.27"/>
        <path class="cls-9" d="M310.23,11.48c-.37-.94-1.38-3.16-3.77-4.85-1.7-1.2-3.37-1.61-4.33-1.77"/>
        <path class="cls-4" d="M332.71,18.38c3.61-2.41,8.22-2.69,11.95-.7,4.91,2.63,5.82,7.87,5.92,8.47-1.47.38-3.14.72-4.98.94-3.08.37-5.81.32-8.06.12"/>
        <path class="cls-9" d="M333.3,20.82c.88-.49,3.09-1.54,6-1.3,2.07.17,3.62.93,4.46,1.42"/>
        <path class="cls-7" d="M301.7,38.79c1.02-1.36,2.04-2.72,3.06-4.08"/>
        <path class="cls-7" d="M303.94,43.59c1.3-2.17,2.61-4.35,3.91-6.52"/>
        <path class="cls-7" d="M307.34,46.52c1.25-2.58,2.5-5.16,3.75-7.74"/>
        <path class="cls-7" d="M312.28,48.07c.78-2.73,1.55-5.46,2.33-8.19"/>
        <path class="cls-7" d="M318.69,46.51c0-2.06-.01-4.12-.02-6.17"/>
        <path class="cls-6" d="M288.35,43.44c-2.71-9.68-5.43-19.35-8.14-29.03-.8.65-3.1,2.38-6.75,3.07-3.2.61-5.74.1-6.79-.16.73,11.53,1.45,23.05,2.18,34.58"/>
        <path class="cls-2" d="M266.67,17.32c-.76-3.76-1.51-7.52-2.27-11.28.35-.1,2.86-.75,5.14.32,1.76.83,2.26,2.18,2.39,2.55.09-.53.58-2.98,3.39-4.83,1.84-1.21,3.77-1.56,4.63-1.68.09,4,.17,8.01.26,12.01-.74.63-2.89,2.31-6.38,3.06-3.47.74-6.2.11-7.16-.15Z"/>
        <path class="cls-6" d="M331.75,57.71c8-6.08,16.01-12.15,24.01-18.23.24,1,1.04,3.77,3.53,6.52,2.19,2.42,4.51,3.54,5.52,3.97-7.54,8.75-15.07,17.5-22.61,26.25"/>
        <path class="cls-2" d="M364.8,49.97c2.87-2.54,5.75-5.08,8.62-7.63-.22-.29-1.83-2.33-4.29-2.84-1.9-.4-3.12.37-3.44.59.25-.48,1.34-2.73.21-5.9-.74-2.08-2.06-3.52-2.68-4.13-2.49,3.14-4.97,6.28-7.46,9.42.21.94.9,3.59,3.24,6.29,2.32,2.68,4.88,3.83,5.8,4.2Z"/>
        <path class="cls-3" d="M300.17,47.64c1.97-.04,4.55.1,7.48.77,3.35.77,6.02,1.98,7.9,3.01.09,2.33.19,4.66.28,6.99-2.14-.23-4.29-.47-6.43-.7-1.05,6.01-2.1,12.02-3.15,18.03-5.17,2.49-10.34,4.99-15.52,7.48-.56-5.15-1.12-10.3-1.68-15.45,3.17-4.68,6.34-9.37,9.51-14.05-.86-.72-1.72-1.44-2.59-2.17,1.4-1.3,2.8-2.61,4.19-3.91Z"/>
        <path class="cls-7" d="M298.56,53.72c1.5.8,3.22,1.62,5.17,2.38,2.2.85,4.26,1.46,6.08,1.89"/>
      </g>
      <path class="cls-8" d="M355.64,183.56c-.49.21-1.94.9-2.38,2.31-.69,2.24,1.48,5.37,4.33,5.52,2.57.14,5-2.17,4.89-4.61-.09-2-1.84-3.24-2.1-3.42"/>
      <path class="cls-8" d="M343.79,168.32c5.64,3.54,11.28,7.08,16.92,10.62-.12,2.07-.23,4.15-.35,6.22-1.63-.4-3.26-.79-4.89-1.19.05-1.12.09-2.24.14-3.36-4.4-2.84-8.81-5.68-13.21-8.53l1.4-3.77Z"/>
      <path class="cls-8" d="M366.84,173.67c-.49.21-1.94.9-2.38,2.31-.69,2.24,1.48,5.37,4.33,5.52,2.57.14,5-2.17,4.89-4.61-.09-2-1.84-3.24-2.1-3.42"/>
      <g>
        <polygon class="cls-11" points="74.3 90.49 278.4 181.08 346.62 120.68 163.21 45.2 74.3 90.49"/>
        <polygon class="cls-5" points="74.05 89.86 74.05 166.44 278.15 256.47 346.37 199.99 346.37 120.05 278.15 180.45 74.05 89.86"/>
        <line class="cls-7" x1="278.15" y1="180.45" x2="278.15" y2="256.47"/>
      </g>
      <path class="cls-8" d="M346.64,164.79c7.9.98,15.8,1.96,23.7,2.94.16,1.82.33,3.63.49,5.45-1.61.23-3.22.47-4.82.7v-2.59c-6.38-.65-12.77-1.3-19.15-1.96"/>
      <g>
        <g>
          <path class="cls-13" d="M50.66,110.75c4.72-5.34,9.44-10.69,14.17-16.03-.02-6.54-.05-13.08-.07-19.62-4.61,5.27-9.23,10.53-13.84,15.8-.09,6.62-.17,13.23-.26,19.85Z"/>
          <path class="cls-13" d="M50.92,90.9c-6.24-2.17-12.49-4.33-18.73-6.5-.37,5.86-.73,11.73-1.1,17.59,6.52,2.92,13.05,5.84,19.57,8.76.09-6.62.17-13.23.26-19.85Z"/>
          <path class="cls-13" d="M47.72,68.74c-5.18,5.22-10.36,10.44-15.54,15.66,6.24,2.17,12.49,4.33,18.73,6.5,4.61-5.27,9.23-10.53,13.84-15.8-5.68-2.12-11.35-4.24-17.03-6.36Z"/>
          <path class="cls-13" d="M32.18,84.4c6.24,2.17,12.49,4.33,18.73,6.5,4.61-5.27,9.23-10.53,13.84-15.8"/>
          <path class="cls-12" d="M32.18,89.57c6.24,2.17,12.49,4.33,18.73,6.5,4.61-5.27,9.23-10.53,13.84-15.8"/>
          <path class="cls-12" d="M32.18,94.75c6.24,2.17,12.49,4.33,18.73,6.5,4.61-5.27,9.23-10.53,13.84-15.8"/>
          <path class="cls-12" d="M32.18,99.92c6.24,2.17,12.49,4.33,18.73,6.5,4.61-5.27,9.23-10.53,13.84-15.8"/>
          <g>
            <path class="cls-13" d="M42.07,80.57c3.52,2.46,7.58,3.36,9.71,2.55.86-.33,1.77-1.07,1.53-1.74-.58-1.65-7.41-1.24-8.18-3-.35-.81.71-1.75,1.8-2.15,2.16-.79,6.12-.01,8.85,2.43"/>
            <path class="cls-13" d="M55.44,75.14c-2.95,3.48-5.9,6.97-8.85,10.45"/>
            <path class="cls-13" d="M51.92,74.06c-2.9,3.37-5.81,6.74-8.71,10.11"/>
          </g>
        </g>
        <g>
          <path class="cls-13" d="M63.47,146.62c4.72-5.34,9.44-10.69,14.17-16.03-.02-8.26-.05-16.53-.07-24.79-4.58,5.4-9.16,10.8-13.75,16.2-.12,8.21-.23,16.41-.35,24.62Z"/>
          <path class="cls-13" d="M63.73,121.6c-6.24-2.17-12.49-4.33-18.73-6.5-.37,7.59-.73,15.18-1.1,22.76,6.52,2.92,13.05,5.84,19.57,8.76.09-8.34.17-16.68.26-25.02Z"/>
          <path class="cls-13" d="M58.63,99.93c-4.54,5.16-9.07,10.31-13.61,15.47,6.21,1.99,12.43,3.98,18.64,5.96,4.66-5.47,9.32-10.94,13.98-16.41-6.34-1.68-12.67-3.35-19.01-5.03Z"/>
          <path class="cls-12" d="M45,120.27c6.24,2.17,12.49,4.33,18.73,6.5,4.61-5.27,9.23-10.53,13.84-15.8"/>
          <path class="cls-12" d="M45,125.45c6.24,2.17,12.49,4.33,18.73,6.5,4.61-5.27,9.23-10.53,13.84-15.8"/>
          <path class="cls-12" d="M45,130.62c6.24,2.17,12.49,4.33,18.73,6.5,4.61-5.27,9.23-10.53,13.84-15.8"/>
          <path class="cls-12" d="M45,135.79c6.24,2.17,12.49,4.33,18.73,6.5l13.84-15.8"/>
          <g>
            <path class="cls-13" d="M53.74,111.4c3.52,2.46,7.58,3.36,9.71,2.55.86-.33,1.77-1.07,1.53-1.74-.58-1.65-7.41-1.24-8.18-3-.35-.81.71-1.75,1.8-2.15,2.16-.79,6.12-.01,8.85,2.43"/>
            <path class="cls-13" d="M67.1,105.96c-2.95,3.48-5.9,6.97-8.85,10.45"/>
            <path class="cls-13" d="M63.58,104.88c-2.9,3.37-5.81,6.74-8.71,10.11"/>
          </g>
        </g>
        <g>
          <path class="cls-13" d="M248.58,135.15c4.72-5.34,9.44-10.69,14.17-16.03v-35.23c-4.66,5.47-9.32,10.94-13.98,16.41-.06,11.62-.12,23.24-.19,34.86Z"/>
          <path class="cls-13" d="M248.76,100.3c-6.21-1.99-12.43-3.98-18.64-5.96-.37,10.69-.75,21.37-1.12,32.06,6.52,2.92,13.05,5.84,19.57,8.76.06-11.62.12-23.24.19-34.86Z"/>
          <path class="cls-13" d="M243.73,78.86c-4.54,5.16-9.07,10.31-13.61,15.47,6.21,1.99,12.43,3.98,18.64,5.96,4.66-5.47,9.32-10.94,13.98-16.41-6.34-1.68-12.67-3.35-19.01-5.03Z"/>
          <path class="cls-12" d="M230.1,98.46c6.24,2.17,12.49,4.33,18.73,6.5l13.84-15.8"/>
          <path class="cls-12" d="M230.1,103.63c6.24,2.17,12.49,4.33,18.73,6.5,4.61-5.27,9.23-10.53,13.84-15.8"/>
          <path class="cls-12" d="M230.1,108.8c6.24,2.17,12.49,4.33,18.73,6.5,4.61-5.27,9.23-10.53,13.84-15.8"/>
          <path class="cls-12" d="M230.1,113.98c6.24,2.17,12.49,4.33,18.73,6.5,4.61-5.27,9.23-10.53,13.84-15.8"/>
          <path class="cls-12" d="M230.1,119.15c6.24,2.17,12.49,4.33,18.73,6.5l13.84-15.8"/>
          <path class="cls-13" d="M230.1,124.32c6.24,2.17,12.49,4.33,18.73,6.5,4.61-5.27,9.23-10.53,13.84-15.8"/>
          <g>
            <path class="cls-13" d="M239,89.91c3.52,2.46,7.58,3.36,9.71,2.55.86-.33,1.77-1.07,1.53-1.74-.58-1.65-7.41-1.24-8.18-3-.35-.81.71-1.75,1.8-2.15,2.16-.79,6.12-.01,8.85,2.43"/>
            <path class="cls-13" d="M252.37,84.48c-2.95,3.48-5.9,6.97-8.85,10.45"/>
            <path class="cls-13" d="M248.84,83.4c-2.9,3.37-5.81,6.74-8.71,10.11"/>
          </g>
        </g>
        <g>
          <path class="cls-13" d="M228.3,148.8c4.72-5.34,9.44-10.69,14.17-16.03-.02-8.26-.05-16.53-.07-24.79-4.58,5.4-9.16,10.8-13.75,16.2-.12,8.21-.23,16.41-.35,24.62Z"/>
          <path class="cls-13" d="M228.55,123.77c-6.24-2.17-12.49-4.33-18.73-6.5-.37,7.59-.73,15.18-1.1,22.76,6.52,2.92,13.05,5.84,19.57,8.76.09-8.34.17-16.68.26-25.02Z"/>
          <path class="cls-13" d="M223.45,102.1c-4.54,5.16-9.07,10.31-13.61,15.47,6.21,1.99,12.43,3.98,18.64,5.96,4.66-5.47,9.32-10.94,13.98-16.41-6.34-1.68-12.67-3.35-19.01-5.03Z"/>
          <path class="cls-12" d="M209.82,122.44c6.24,2.17,12.49,4.33,18.73,6.5,4.61-5.27,9.23-10.53,13.84-15.8"/>
          <path class="cls-12" d="M209.82,127.62c6.24,2.17,12.49,4.33,18.73,6.5,4.61-5.27,9.23-10.53,13.84-15.8"/>
          <path class="cls-12" d="M209.82,132.79c6.24,2.17,12.49,4.33,18.73,6.5,4.61-5.27,9.23-10.53,13.84-15.8"/>
          <path class="cls-12" d="M209.82,137.96c6.24,2.17,12.49,4.33,18.73,6.5l13.84-15.8"/>
          <g>
            <path class="cls-13" d="M218.84,113.07c3.52,2.46,7.58,3.36,9.71,2.55.86-.33,1.77-1.07,1.53-1.74-.58-1.65-7.41-1.24-8.18-3-.35-.81.71-1.75,1.8-2.15,2.16-.79,6.12-.01,8.85,2.43"/>
            <path class="cls-13" d="M232.2,107.63c-2.95,3.48-5.9,6.97-8.85,10.45"/>
            <path class="cls-13" d="M228.68,106.56c-2.9,3.37-5.81,6.74-8.71,10.11"/>
          </g>
        </g>
        <g>
          <path class="cls-13" d="M209.19,238.92c4.72-5.34,9.44-10.69,14.17-16.03-.02-8.26-.05-16.53-.07-24.79-4.58,5.4-9.16,10.8-13.75,16.2-.12,8.21-.23,16.41-.35,24.62Z"/>
          <path class="cls-13" d="M209.45,213.89c-6.24-2.17-12.49-4.33-18.73-6.5-.37,7.59-.73,15.18-1.1,22.76,6.52,2.92,13.05,5.84,19.57,8.76.09-8.34.17-16.68.26-25.02Z"/>
          <path class="cls-13" d="M204.35,192.22c-4.54,5.16-9.07,10.31-13.61,15.47,6.21,1.99,12.43,3.98,18.64,5.96,4.66-5.47,9.32-10.94,13.98-16.41-6.34-1.68-12.67-3.35-19.01-5.03Z"/>
          <path class="cls-12" d="M190.72,212.56c6.24,2.17,12.49,4.33,18.73,6.5,4.61-5.27,9.23-10.53,13.84-15.8"/>
          <path class="cls-12" d="M190.72,217.74c6.24,2.17,12.49,4.33,18.73,6.5l13.84-15.8"/>
          <path class="cls-12" d="M190.72,222.91c6.24,2.17,12.49,4.33,18.73,6.5,4.61-5.27,9.23-10.53,13.84-15.8"/>
          <path class="cls-13" d="M190.72,228.08c6.24,2.17,12.49,4.33,18.73,6.5l13.84-15.8"/>
          <g>
            <path class="cls-13" d="M199.73,203.19c3.52,2.46,7.58,3.36,9.71,2.55.86-.33,1.77-1.07,1.53-1.74-.58-1.65-7.41-1.24-8.18-3-.35-.81.71-1.75,1.8-2.15,2.16-.79,6.12-.01,8.85,2.43"/>
            <path class="cls-13" d="M213.1,197.76c-2.95,3.48-5.9,6.97-8.85,10.45"/>
            <path class="cls-13" d="M209.58,196.68c-2.9,3.37-5.81,6.74-8.71,10.11"/>
          </g>
        </g>
        <g>
          <path class="cls-13" d="M253.39,155.08c4.72-5.34,9.44-10.69,14.17-16.03-.02-6.54-.05-13.08-.07-19.62-4.61,5.27-9.23,10.53-13.84,15.8-.09,6.62-.17,13.23-.26,19.85Z"/>
          <path class="cls-13" d="M253.64,135.23c-6.24-2.17-12.49-4.33-18.73-6.5-.37,5.86-.73,11.73-1.1,17.59,6.52,2.92,13.05,5.84,19.57,8.76.09-6.62.17-13.23.26-19.85Z"/>
          <path class="cls-13" d="M250.45,113.07c-5.18,5.22-10.36,10.44-15.54,15.66,6.24,2.17,12.49,4.33,18.73,6.5,4.61-5.27,9.23-10.53,13.84-15.8-5.68-2.12-11.35-4.24-17.03-6.36Z"/>
          <path class="cls-13" d="M234.91,128.73c6.24,2.17,12.49,4.33,18.73,6.5,4.61-5.27,9.23-10.53,13.84-15.8"/>
          <path class="cls-12" d="M234.91,133.9c6.24,2.17,12.49,4.33,18.73,6.5,4.61-5.27,9.23-10.53,13.84-15.8"/>
          <path class="cls-12" d="M234.91,139.07c6.24,2.17,12.49,4.33,18.73,6.5,4.61-5.27,9.23-10.53,13.84-15.8"/>
          <path class="cls-12" d="M234.91,144.25c6.24,2.17,12.49,4.33,18.73,6.5,4.61-5.27,9.23-10.53,13.84-15.8"/>
          <g>
            <path class="cls-13" d="M244.72,124.9c3.52,2.46,7.58,3.36,9.71,2.55.86-.33,1.77-1.07,1.53-1.74-.58-1.65-7.41-1.24-8.18-3-.35-.81.71-1.75,1.8-2.15,2.16-.79,6.12-.01,8.85,2.43"/>
            <path class="cls-13" d="M258.09,119.46c-2.95,3.48-5.9,6.97-8.85,10.45"/>
            <path class="cls-13" d="M254.56,118.38c-2.9,3.37-5.81,6.74-8.71,10.11"/>
          </g>
        </g>
        <g>
          <path class="cls-13" d="M253.9,260.47c4.72-5.34,9.44-10.69,14.17-16.03-.02-6.54-.05-13.08-.07-19.62-4.61,5.27-9.23,10.53-13.84,15.8-.09,6.62-.17,13.23-.26,19.85Z"/>
          <path class="cls-13" d="M254.16,240.62c-6.24-2.17-12.49-4.33-18.73-6.5-.37,5.86-.73,11.73-1.1,17.59,6.52,2.92,13.05,5.84,19.57,8.76.09-6.62.17-13.23.26-19.85Z"/>
          <path class="cls-13" d="M250.96,218.46c-5.18,5.22-10.36,10.44-15.54,15.66,6.24,2.17,12.49,4.33,18.73,6.5,4.61-5.27,9.23-10.53,13.84-15.8-5.68-2.12-11.35-4.24-17.03-6.36Z"/>
          <path class="cls-12" d="M235.42,234.12c6.24,2.17,12.49,4.33,18.73,6.5,4.61-5.27,9.23-10.53,13.84-15.8"/>
          <path class="cls-12" d="M235.42,239.29c6.24,2.17,12.49,4.33,18.73,6.5,4.61-5.27,9.23-10.53,13.84-15.8"/>
          <path class="cls-13" d="M235.42,244.46c6.24,2.17,12.49,4.33,18.73,6.5,4.61-5.27,9.23-10.53,13.84-15.8"/>
          <path class="cls-13" d="M235.42,249.63c6.24,2.17,12.49,4.33,18.73,6.5,4.61-5.27,9.23-10.53,13.84-15.8"/>
          <g>
            <path class="cls-13" d="M245.23,230.29c3.52,2.46,7.58,3.36,9.71,2.55.86-.33,1.77-1.07,1.53-1.74-.58-1.65-7.41-1.24-8.18-3-.35-.81.71-1.75,1.8-2.15,2.16-.79,6.12-.01,8.85,2.43"/>
            <path class="cls-13" d="M258.6,224.85c-2.95,3.48-5.9,6.97-8.85,10.45"/>
            <path class="cls-13" d="M255.07,223.77c-2.9,3.37-5.81,6.74-8.71,10.11"/>
          </g>
        </g>
        <g>
          <path class="cls-13" d="M283.86,138.2c4.72-5.34,9.44-10.69,14.17-16.03-.02-6.54-.05-13.08-.07-19.62-4.61,5.27-9.23,10.53-13.84,15.8-.09,6.62-.17,13.23-.26,19.85Z"/>
          <path class="cls-13" d="M284.12,118.34c-6.24-2.17-12.49-4.33-18.73-6.5-.37,5.86-.73,11.73-1.1,17.59,6.52,2.92,13.05,5.84,19.57,8.76.09-6.62.17-13.23.26-19.85Z"/>
          <path class="cls-13" d="M280.93,96.19c-5.18,5.22-10.36,10.44-15.54,15.66,6.24,2.17,12.49,4.33,18.73,6.5,4.61-5.27,9.23-10.53,13.84-15.8-5.68-2.12-11.35-4.24-17.03-6.36Z"/>
          <path class="cls-13" d="M265.39,111.84c6.24,2.17,12.49,4.33,18.73,6.5,4.61-5.27,9.23-10.53,13.84-15.8"/>
          <path class="cls-12" d="M265.39,117.02c6.24,2.17,12.49,4.33,18.73,6.5,4.61-5.27,9.23-10.53,13.84-15.8"/>
          <path class="cls-12" d="M265.39,122.19c6.24,2.17,12.49,4.33,18.73,6.5,4.61-5.27,9.23-10.53,13.84-15.8"/>
          <path class="cls-12" d="M265.39,127.36c6.24,2.17,12.49,4.33,18.73,6.5,4.61-5.27,9.23-10.53,13.84-15.8"/>
          <g>
            <path class="cls-13" d="M275.03,108.01c3.52,2.46,7.58,3.36,9.71,2.55.86-.33,1.77-1.07,1.53-1.74-.58-1.65-7.41-1.24-8.18-3-.35-.81.71-1.75,1.8-2.15,2.16-.79,6.12-.01,8.85,2.43"/>
            <path class="cls-13" d="M288.4,102.58c-2.95,3.48-5.9,6.97-8.85,10.45"/>
            <path class="cls-13" d="M284.87,101.5c-2.9,3.37-5.81,6.74-8.71,10.11"/>
          </g>
        </g>
        <g>
          <path class="cls-13" d="M297.52,273.97c4.72-5.34,9.44-10.69,14.17-16.03-.02-6.54-.05-13.08-.07-19.62-4.61,5.27-9.23,10.53-13.84,15.8-.09,6.62-.17,13.23-.26,19.85Z"/>
          <path class="cls-13" d="M297.78,254.12c-6.24-2.17-12.49-4.33-18.73-6.5-.37,5.86-.73,11.73-1.1,17.59,6.52,2.92,13.05,5.84,19.57,8.76.09-6.62.17-13.23.26-19.85Z"/>
          <path class="cls-13" d="M294.58,231.96c-5.18,5.22-10.36,10.44-15.54,15.66,6.24,2.17,12.49,4.33,18.73,6.5,4.61-5.27,9.23-10.53,13.84-15.8-5.68-2.12-11.35-4.24-17.03-6.36Z"/>
          <path class="cls-13" d="M279.04,247.62c6.24,2.17,12.49,4.33,18.73,6.5l13.84-15.8"/>
          <path class="cls-12" d="M279.04,252.79c6.24,2.17,12.49,4.33,18.73,6.5,4.61-5.27,9.23-10.53,13.84-15.8"/>
          <path class="cls-12" d="M279.04,257.96c6.24,2.17,12.49,4.33,18.73,6.5,4.61-5.27,9.23-10.53,13.84-15.8"/>
          <path class="cls-12" d="M279.04,263.13c6.24,2.17,12.49,4.33,18.73,6.5,4.61-5.27,9.23-10.53,13.84-15.8"/>
          <g>
            <path class="cls-13" d="M288.69,243.79c3.52,2.46,7.58,3.36,9.71,2.55.86-.33,1.77-1.07,1.53-1.74-.58-1.65-7.41-1.24-8.18-3-.35-.81.71-1.75,1.8-2.15,2.16-.79,6.12-.01,8.85,2.43"/>
            <path class="cls-13" d="M302.06,238.35c-2.95,3.48-5.9,6.97-8.85,10.45"/>
            <path class="cls-13" d="M298.53,237.27c-2.9,3.37-5.81,6.74-8.71,10.11"/>
          </g>
        </g>
        <g>
          <path class="cls-13" d="M279.48,168.29c4.72-5.34,9.44-10.69,14.17-16.03v-35.23c-4.66,5.47-9.32,10.94-13.98,16.41-.06,11.62-.12,23.24-.19,34.86Z"/>
          <path class="cls-13" d="M279.67,133.43c-6.21-1.99-12.43-3.98-18.64-5.96-.37,10.69-.75,21.37-1.12,32.06,6.52,2.92,13.05,5.84,19.57,8.76.06-11.62.12-23.24.19-34.86Z"/>
          <path class="cls-13" d="M274.64,112c-4.54,5.16-9.07,10.31-13.61,15.47,6.21,1.99,12.43,3.98,18.64,5.96,4.66-5.47,9.32-10.94,13.98-16.41-6.34-1.68-12.67-3.35-19.01-5.03Z"/>
          <path class="cls-12" d="M261.01,131.59c6.24,2.17,12.49,4.33,18.73,6.5,4.61-5.27,9.23-10.53,13.84-15.8"/>
          <path class="cls-12" d="M261.01,136.76c6.24,2.17,12.49,4.33,18.73,6.5,4.61-5.27,9.23-10.53,13.84-15.8"/>
          <path class="cls-12" d="M261.01,141.94c6.24,2.17,12.49,4.33,18.73,6.5l13.84-15.8"/>
          <path class="cls-12" d="M261.01,147.11c6.24,2.17,12.49,4.33,18.73,6.5,4.61-5.27,9.23-10.53,13.84-15.8"/>
          <path class="cls-12" d="M261.01,152.28c6.24,2.17,12.49,4.33,18.73,6.5l13.84-15.8"/>
          <path class="cls-12" d="M261.01,157.45c6.24,2.17,12.49,4.33,18.73,6.5,4.61-5.27,9.23-10.53,13.84-15.8"/>
          <g>
            <path class="cls-13" d="M269.84,123.28c3.52,2.46,7.58,3.36,9.71,2.55.86-.33,1.77-1.07,1.53-1.74-.58-1.65-7.41-1.24-8.18-3-.35-.81.71-1.75,1.8-2.15,2.16-.79,6.12-.01,8.85,2.43"/>
            <path class="cls-13" d="M283.21,117.84c-2.95,3.48-5.9,6.97-8.85,10.45"/>
            <path class="cls-13" d="M279.68,116.76c-2.9,3.37-5.81,6.74-8.71,10.11"/>
          </g>
        </g>
        <g>
          <path class="cls-13" d="M320.16,241.71c4.72-5.34,9.44-10.69,14.17-16.03v-35.23c-4.66,5.47-9.32,10.94-13.98,16.41-.06,11.62-.12,23.24-.19,34.86Z"/>
          <path class="cls-13" d="M320.35,206.86c-6.21-1.99-12.43-3.98-18.64-5.96-.37,10.69-.75,21.37-1.12,32.06,6.52,2.92,13.05,5.84,19.57,8.76.06-11.62.12-23.24.19-34.86Z"/>
          <path class="cls-13" d="M315.31,185.42c-4.54,5.16-9.07,10.31-13.61,15.47,6.21,1.99,12.43,3.98,18.64,5.96,4.66-5.47,9.32-10.94,13.98-16.41-6.34-1.68-12.67-3.35-19.01-5.03Z"/>
          <path class="cls-12" d="M301.68,205.02c6.24,2.17,12.49,4.33,18.73,6.5,4.61-5.27,9.23-10.53,13.84-15.8"/>
          <path class="cls-12" d="M301.68,210.19c6.24,2.17,12.49,4.33,18.73,6.5l13.84-15.8"/>
          <path class="cls-12" d="M301.68,215.36c6.24,2.17,12.49,4.33,18.73,6.5,4.61-5.27,9.23-10.53,13.84-15.8"/>
          <path class="cls-12" d="M301.68,220.53c6.24,2.17,12.49,4.33,18.73,6.5,4.61-5.27,9.23-10.53,13.84-15.8"/>
          <path class="cls-12" d="M301.68,225.71c6.24,2.17,12.49,4.33,18.73,6.5,4.61-5.27,9.23-10.53,13.84-15.8"/>
          <path class="cls-12" d="M301.68,230.88c6.24,2.17,12.49,4.33,18.73,6.5l13.84-15.8"/>
          <g>
            <path class="cls-13" d="M310.51,196.7c3.52,2.46,7.58,3.36,9.71,2.55.86-.33,1.77-1.07,1.53-1.74-.58-1.65-7.41-1.24-8.18-3-.35-.81.71-1.75,1.8-2.15,2.16-.79,6.12-.01,8.85,2.43"/>
            <path class="cls-13" d="M323.88,191.26c-2.95,3.48-5.9,6.97-8.85,10.45"/>
            <path class="cls-13" d="M320.36,190.19c-2.9,3.37-5.81,6.74-8.71,10.11"/>
          </g>
        </g>
        <g>
          <path class="cls-13" d="M76.81,178.32c4.72-5.34,9.44-10.69,14.17-16.03v-35.23c-4.66,5.47-9.32,10.94-13.98,16.41-.06,11.62-.12,23.24-.19,34.86Z"/>
          <path class="cls-13" d="M77,143.47c-6.21-1.99-12.43-3.98-18.64-5.96-.37,10.69-.75,21.37-1.12,32.06,6.52,2.92,13.05,5.84,19.57,8.76.06-11.62.12-23.24.19-34.86Z"/>
          <path class="cls-13" d="M71.96,122.03c-4.54,5.16-9.07,10.31-13.61,15.47,6.21,1.99,12.43,3.98,18.64,5.96,4.66-5.47,9.32-10.94,13.98-16.41l-19.01-5.03Z"/>
          <path class="cls-12" d="M58.33,141.63c6.24,2.17,12.49,4.33,18.73,6.5,4.61-5.27,9.23-10.53,13.84-15.8"/>
          <path class="cls-12" d="M58.33,146.8c6.24,2.17,12.49,4.33,18.73,6.5,4.61-5.27,9.23-10.53,13.84-15.8"/>
          <path class="cls-12" d="M58.33,151.97c6.24,2.17,12.49,4.33,18.73,6.5,4.61-5.27,9.23-10.53,13.84-15.8"/>
          <path class="cls-12" d="M58.33,157.14c6.24,2.17,12.49,4.33,18.73,6.5l13.84-15.8"/>
          <path class="cls-12" d="M58.33,162.32c6.24,2.17,12.49,4.33,18.73,6.5,4.61-5.27,9.23-10.53,13.84-15.8"/>
          <path class="cls-13" d="M58.33,167.49c6.24,2.17,12.49,4.33,18.73,6.5,4.61-5.27,9.23-10.53,13.84-15.8"/>
          <g>
            <path class="cls-13" d="M67.23,133.08c3.52,2.46,7.58,3.36,9.71,2.55.86-.33,1.77-1.07,1.53-1.74-.58-1.65-7.41-1.24-8.18-3-.35-.81.71-1.75,1.8-2.15,2.16-.79,6.12-.01,8.85,2.43"/>
            <path class="cls-13" d="M80.6,127.64c-2.95,3.48-5.9,6.97-8.85,10.45"/>
            <path class="cls-13" d="M77.08,126.56c-2.9,3.37-5.81,6.74-8.71,10.11"/>
          </g>
        </g>
        <g>
          <path class="cls-13" d="M56.53,191.96c4.72-5.34,9.44-10.69,14.17-16.03-.02-8.26-.05-16.53-.07-24.79-4.58,5.4-9.16,10.8-13.75,16.2-.12,8.21-.23,16.41-.35,24.62Z"/>
          <path class="cls-13" d="M56.79,166.94c-6.24-2.17-12.49-4.33-18.73-6.5l-1.1,22.76c6.52,2.92,13.05,5.84,19.57,8.76.09-8.34.17-16.68.26-25.02Z"/>
          <path class="cls-13" d="M51.68,145.27c-4.54,5.16-9.07,10.31-13.61,15.47,6.21,1.99,12.43,3.98,18.64,5.96,4.66-5.47,9.32-10.94,13.98-16.41-6.34-1.68-12.67-3.35-19.01-5.03Z"/>
          <path class="cls-12" d="M38.05,165.61c6.24,2.17,12.49,4.33,18.73,6.5,4.61-5.27,9.23-10.53,13.84-15.8"/>
          <path class="cls-12" d="M38.05,170.79c6.24,2.17,12.49,4.33,18.73,6.5l13.84-15.8"/>
          <path class="cls-12" d="M38.05,175.96c6.24,2.17,12.49,4.33,18.73,6.5,4.61-5.27,9.23-10.53,13.84-15.8"/>
          <path class="cls-12" d="M38.05,181.13c6.24,2.17,12.49,4.33,18.73,6.5,4.61-5.27,9.23-10.53,13.84-15.8"/>
          <g>
            <path class="cls-13" d="M47.07,156.24c3.52,2.46,7.58,3.36,9.71,2.55.86-.33,1.77-1.07,1.53-1.74-.58-1.65-7.41-1.24-8.18-3-.35-.81.71-1.75,1.8-2.15,2.16-.79,6.12-.01,8.85,2.43"/>
            <path class="cls-13" d="M60.44,150.8c-2.95,3.48-5.9,6.97-8.85,10.45"/>
            <path class="cls-13" d="M56.91,149.72c-2.9,3.37-5.81,6.74-8.71,10.11"/>
          </g>
        </g>
        <g>
          <path class="cls-13" d="M81.62,198.25c4.72-5.34,9.44-10.69,14.17-16.03-.02-6.54-.05-13.08-.07-19.62-4.61,5.27-9.23,10.53-13.84,15.8-.09,6.62-.17,13.23-.26,19.85Z"/>
          <path class="cls-13" d="M81.88,178.4c-6.24-2.17-12.49-4.33-18.73-6.5-.37,5.86-.73,11.73-1.1,17.59,6.52,2.92,13.05,5.84,19.57,8.76.09-6.62.17-13.23.26-19.85Z"/>
          <path class="cls-13" d="M78.69,156.24c-5.18,5.22-10.36,10.44-15.54,15.66,6.24,2.17,12.49,4.33,18.73,6.5,4.61-5.27,9.23-10.53,13.84-15.8-5.68-2.12-11.35-4.24-17.03-6.36Z"/>
          <path class="cls-13" d="M63.15,171.9c6.24,2.17,12.49,4.33,18.73,6.5,4.61-5.27,9.23-10.53,13.84-15.8"/>
          <path class="cls-12" d="M63.15,177.07c6.24,2.17,12.49,4.33,18.73,6.5,4.61-5.27,9.23-10.53,13.84-15.8"/>
          <path class="cls-12" d="M63.15,182.24c6.24,2.17,12.49,4.33,18.73,6.5,4.61-5.27,9.23-10.53,13.84-15.8"/>
          <path class="cls-12" d="M63.15,187.41c6.24,2.17,12.49,4.33,18.73,6.5,4.61-5.27,9.23-10.53,13.84-15.8"/>
          <g>
            <path class="cls-13" d="M72.95,168.07c3.52,2.46,7.58,3.36,9.71,2.55.86-.33,1.77-1.07,1.53-1.74-.58-1.65-7.41-1.24-8.18-3-.35-.81.71-1.75,1.8-2.15,2.16-.79,6.12-.01,8.85,2.43"/>
            <path class="cls-13" d="M86.32,162.63c-2.95,3.48-5.9,6.97-8.85,10.45"/>
            <path class="cls-13" d="M82.8,161.55c-2.9,3.37-5.81,6.74-8.71,10.11"/>
          </g>
        </g>
        <g>
          <path class="cls-13" d="M112.1,181.36c4.72-5.34,9.44-10.69,14.17-16.03-.02-6.54-.05-13.08-.07-19.62l-13.84,15.8c-.09,6.62-.17,13.23-.26,19.85Z"/>
          <path class="cls-13" d="M112.35,161.51c-6.24-2.17-12.49-4.33-18.73-6.5l-1.1,17.59c6.52,2.92,13.05,5.84,19.57,8.76.09-6.62.17-13.23.26-19.85Z"/>
          <path class="cls-13" d="M109.16,139.36c-5.18,5.22-10.36,10.44-15.54,15.66,6.24,2.17,12.49,4.33,18.73,6.5l13.84-15.8c-5.68-2.12-11.35-4.24-17.03-6.36Z"/>
          <path class="cls-13" d="M93.62,155.01c6.24,2.17,12.49,4.33,18.73,6.5,4.61-5.27,9.23-10.53,13.84-15.8"/>
          <path class="cls-12" d="M93.62,160.19c6.24,2.17,12.49,4.33,18.73,6.5,4.61-5.27,9.23-10.53,13.84-15.8"/>
          <path class="cls-12" d="M93.62,165.36c6.24,2.17,12.49,4.33,18.73,6.5,4.61-5.27,9.23-10.53,13.84-15.8"/>
          <path class="cls-13" d="M93.62,170.53c6.24,2.17,12.49,4.33,18.73,6.5,4.61-5.27,9.23-10.53,13.84-15.8"/>
          <g>
            <path class="cls-13" d="M103.27,151.18c3.52,2.46,7.58,3.36,9.71,2.55.86-.33,1.77-1.07,1.53-1.74-.58-1.65-7.41-1.24-8.18-3-.35-.81.71-1.75,1.8-2.15,2.16-.79,6.12-.01,8.85,2.43"/>
            <path class="cls-13" d="M116.63,145.75c-2.95,3.48-5.9,6.97-8.85,10.45"/>
            <path class="cls-13" d="M113.11,144.67c-2.9,3.37-5.81,6.74-8.71,10.11"/>
          </g>
        </g>
        <g>
          <path class="cls-13" d="M107.72,211.46c4.72-5.34,9.44-10.69,14.17-16.03v-35.23c-4.66,5.47-9.32,10.94-13.98,16.41-.06,11.62-.12,23.24-.19,34.86Z"/>
          <path class="cls-13" d="M107.9,176.6c-6.21-1.99-12.43-3.98-18.64-5.96-.37,10.69-.75,21.37-1.12,32.06,6.52,2.92,13.05,5.84,19.57,8.76.06-11.62.12-23.24.19-34.86Z"/>
          <path class="cls-13" d="M102.87,155.17c-4.54,5.16-9.07,10.31-13.61,15.47,6.21,1.99,12.43,3.98,18.64,5.96,4.66-5.47,9.32-10.94,13.98-16.41-6.34-1.68-12.67-3.35-19.01-5.03Z"/>
          <path class="cls-12" d="M89.24,174.76c6.24,2.17,12.49,4.33,18.73,6.5,4.61-5.27,9.23-10.53,13.84-15.8"/>
          <path class="cls-12" d="M89.24,179.93c6.24,2.17,12.49,4.33,18.73,6.5,4.61-5.27,9.23-10.53,13.84-15.8"/>
          <path class="cls-12" d="M89.24,185.11c6.24,2.17,12.49,4.33,18.73,6.5l13.84-15.8"/>
          <path class="cls-12" d="M89.24,190.28c6.24,2.17,12.49,4.33,18.73,6.5,4.61-5.27,9.23-10.53,13.84-15.8"/>
          <path class="cls-12" d="M89.24,195.45c6.24,2.17,12.49,4.33,18.73,6.5,4.61-5.27,9.23-10.53,13.84-15.8"/>
          <path class="cls-12" d="M89.24,200.62c6.24,2.17,12.49,4.33,18.73,6.5,4.61-5.27,9.23-10.53,13.84-15.8"/>
          <g>
            <path class="cls-13" d="M98.07,166.45c3.52,2.46,7.58,3.36,9.71,2.55.86-.33,1.77-1.07,1.53-1.74-.58-1.65-7.41-1.24-8.18-3-.35-.81.71-1.75,1.8-2.15,2.16-.79,6.12-.01,8.85,2.43"/>
            <path class="cls-13" d="M111.44,161.01c-2.95,3.48-5.9,6.97-8.85,10.45"/>
            <path class="cls-13" d="M107.92,159.93c-2.9,3.37-5.81,6.74-8.71,10.11"/>
          </g>
        </g>
        <g>
          <path class="cls-13" d="M154.59,83.34c4.72-5.34,9.44-10.69,14.17-16.03v-35.23c-4.66,5.47-9.32,10.94-13.98,16.41-.06,11.62-.12,23.24-.19,34.86Z"/>
          <path class="cls-13" d="M154.78,48.49c-6.21-1.99-12.43-3.98-18.64-5.96-.37,10.69-.75,21.37-1.12,32.06,6.52,2.92,13.05,5.84,19.57,8.76.06-11.62.12-23.24.19-34.86Z"/>
          <path class="cls-13" d="M149.75,27.05c-4.54,5.16-9.07,10.31-13.61,15.47,6.21,1.99,12.43,3.98,18.64,5.96,4.66-5.47,9.32-10.94,13.98-16.41-6.34-1.68-12.67-3.35-19.01-5.03Z"/>
          <path class="cls-12" d="M136.12,46.64c6.24,2.17,12.49,4.33,18.73,6.5,4.61-5.27,9.23-10.53,13.84-15.8"/>
          <path class="cls-12" d="M136.12,51.82c6.24,2.17,12.49,4.33,18.73,6.5l13.84-15.8"/>
          <path class="cls-12" d="M136.12,56.99c6.24,2.17,12.49,4.33,18.73,6.5,4.61-5.27,9.23-10.53,13.84-15.8"/>
          <path class="cls-12" d="M136.12,62.16c6.24,2.17,12.49,4.33,18.73,6.5l13.84-15.8"/>
          <path class="cls-12" d="M136.12,67.33c6.24,2.17,12.49,4.33,18.73,6.5l13.84-15.8"/>
          <path class="cls-12" d="M136.12,72.51c6.24,2.17,12.49,4.33,18.73,6.5,4.61-5.27,9.23-10.53,13.84-15.8"/>
          <g>
            <path class="cls-13" d="M144.9,38.52c3.52,2.46,7.58,3.36,9.71,2.55.86-.33,1.77-1.07,1.53-1.74-.58-1.65-7.41-1.24-8.18-3-.35-.81.71-1.75,1.8-2.15,2.16-.79,6.12-.01,8.85,2.43"/>
            <path class="cls-13" d="M158.27,33.08c-2.95,3.48-5.9,6.97-8.85,10.45"/>
            <path class="cls-13" d="M154.74,32c-2.9,3.37-5.81,6.74-8.71,10.11"/>
          </g>
        </g>
        <g>
          <path class="cls-13" d="M134.37,214.3c4.72-5.34,9.44-10.69,14.17-16.03v-35.23c-4.66,5.47-9.32,10.94-13.98,16.41-.06,11.62-.12,23.24-.19,34.86Z"/>
          <path class="cls-13" d="M134.56,179.44c-6.21-1.99-12.43-3.98-18.64-5.96-.37,10.69-.75,21.37-1.12,32.06,6.52,2.92,13.05,5.84,19.57,8.76.06-11.62.12-23.24.19-34.86Z"/>
          <path class="cls-13" d="M129.53,158.01c-4.54,5.16-9.07,10.31-13.61,15.47,6.21,1.99,12.43,3.98,18.64,5.96,4.66-5.47,9.32-10.94,13.98-16.41-6.34-1.68-12.67-3.35-19.01-5.03Z"/>
          <path class="cls-12" d="M115.9,177.6c6.24,2.17,12.49,4.33,18.73,6.5,4.61-5.27,9.23-10.53,13.84-15.8"/>
          <path class="cls-12" d="M115.9,182.78c6.24,2.17,12.49,4.33,18.73,6.5,4.61-5.27,9.23-10.53,13.84-15.8"/>
          <path class="cls-12" d="M115.9,187.95c6.24,2.17,12.49,4.33,18.73,6.5,4.61-5.27,9.23-10.53,13.84-15.8"/>
          <path class="cls-12" d="M115.9,193.12c6.24,2.17,12.49,4.33,18.73,6.5,4.61-5.27,9.23-10.53,13.84-15.8"/>
          <path class="cls-12" d="M115.9,198.29c6.24,2.17,12.49,4.33,18.73,6.5,4.61-5.27,9.23-10.53,13.84-15.8"/>
          <path class="cls-12" d="M115.9,203.47c6.24,2.17,12.49,4.33,18.73,6.5,4.61-5.27,9.23-10.53,13.84-15.8"/>
          <g>
            <path class="cls-13" d="M124.68,169.48c3.52,2.46,7.58,3.36,9.71,2.55.86-.33,1.77-1.07,1.53-1.74-.58-1.65-7.41-1.24-8.18-3-.35-.81.71-1.75,1.8-2.15,2.16-.79,6.12-.01,8.85,2.43"/>
            <path class="cls-13" d="M138.05,164.04c-2.95,3.48-5.9,6.97-8.85,10.45"/>
            <path class="cls-13" d="M134.52,162.96c-2.9,3.37-5.81,6.74-8.71,10.11"/>
          </g>
        </g>
        <g>
          <path class="cls-13" d="M119.18,99.25c4.72-5.34,9.44-10.69,14.17-16.03v-35.23c-4.66,5.47-9.32,10.94-13.98,16.41-.06,11.62-.12,23.24-.19,34.86Z"/>
          <path class="cls-13" d="M119.37,64.4c-6.21-1.99-12.43-3.98-18.64-5.96-.37,10.69-.75,21.37-1.12,32.06,6.52,2.92,13.05,5.84,19.57,8.76.06-11.62.12-23.24.19-34.86Z"/>
          <path class="cls-13" d="M114.33,42.96c-4.54,5.16-9.07,10.31-13.61,15.47,6.21,1.99,12.43,3.98,18.64,5.96,4.66-5.47,9.32-10.94,13.98-16.41-6.34-1.68-12.67-3.35-19.01-5.03Z"/>
          <path class="cls-12" d="M100.7,62.56c6.24,2.17,12.49,4.33,18.73,6.5,4.61-5.27,9.23-10.53,13.84-15.8"/>
          <path class="cls-12" d="M100.7,67.73c6.24,2.17,12.49,4.33,18.73,6.5,4.61-5.27,9.23-10.53,13.84-15.8"/>
          <path class="cls-12" d="M100.7,72.9c6.24,2.17,12.49,4.33,18.73,6.5,4.61-5.27,9.23-10.53,13.84-15.8"/>
          <path class="cls-12" d="M100.7,78.08c6.24,2.17,12.49,4.33,18.73,6.5,4.61-5.27,9.23-10.53,13.84-15.8"/>
          <path class="cls-12" d="M100.7,83.25c6.24,2.17,12.49,4.33,18.73,6.5,4.61-5.27,9.23-10.53,13.84-15.8"/>
          <path class="cls-12" d="M100.7,88.42c6.24,2.17,12.49,4.33,18.73,6.5,4.61-5.27,9.23-10.53,13.84-15.8"/>
          <g>
            <path class="cls-13" d="M109.8,53.89c3.52,2.46,7.58,3.36,9.71,2.55.86-.33,1.77-1.07,1.53-1.74-.58-1.65-7.41-1.24-8.18-3-.35-.81.71-1.75,1.8-2.15,2.16-.79,6.12-.01,8.85,2.43"/>
            <path class="cls-13" d="M123.17,48.46c-2.95,3.48-5.9,6.97-8.85,10.45"/>
            <path class="cls-13" d="M119.64,47.38c-2.9,3.37-5.81,6.74-8.71,10.11"/>
          </g>
        </g>
        <g>
          <path class="cls-13" d="M185.72,231.37c4.72-5.34,9.44-10.69,14.17-16.03v-35.23c-4.66,5.47-9.32,10.94-13.98,16.41-.06,11.62-.12,23.24-.19,34.86Z"/>
          <path class="cls-13" d="M185.91,196.51c-6.21-1.99-12.43-3.98-18.64-5.96-.37,10.69-.75,21.37-1.12,32.06,6.52,2.92,13.05,5.84,19.57,8.76.06-11.62.12-23.24.19-34.86Z"/>
          <path class="cls-13" d="M180.87,175.08c-4.54,5.16-9.07,10.31-13.61,15.47,6.21,1.99,12.43,3.98,18.64,5.96,4.66-5.47,9.32-10.94,13.98-16.41-6.34-1.68-12.67-3.35-19.01-5.03Z"/>
          <path class="cls-12" d="M167.24,194.67c6.24,2.17,12.49,4.33,18.73,6.5,4.61-5.27,9.23-10.53,13.84-15.8"/>
          <path class="cls-12" d="M167.24,199.84c6.24,2.17,12.49,4.33,18.73,6.5,4.61-5.27,9.23-10.53,13.84-15.8"/>
          <path class="cls-12" d="M167.24,205.02c6.24,2.17,12.49,4.33,18.73,6.5,4.61-5.27,9.23-10.53,13.84-15.8"/>
          <path class="cls-12" d="M167.24,210.19c6.24,2.17,12.49,4.33,18.73,6.5,4.61-5.27,9.23-10.53,13.84-15.8"/>
          <path class="cls-12" d="M167.24,215.36c6.24,2.17,12.49,4.33,18.73,6.5,4.61-5.27,9.23-10.53,13.84-15.8"/>
          <path class="cls-12" d="M167.24,220.53c6.24,2.17,12.49,4.33,18.73,6.5,4.61-5.27,9.23-10.53,13.84-15.8"/>
          <g>
            <path class="cls-13" d="M176.34,186.01c3.52,2.46,7.58,3.36,9.71,2.55.86-.33,1.77-1.07,1.53-1.74-.58-1.65-7.41-1.24-8.18-3-.35-.81.71-1.75,1.8-2.15,2.16-.79,6.12-.01,8.85,2.43"/>
            <path class="cls-13" d="M189.71,180.57c-2.95,3.48-5.9,6.97-8.85,10.45"/>
            <path class="cls-13" d="M186.18,179.49c-2.9,3.37-5.81,6.74-8.71,10.11"/>
          </g>
        </g>
        <g>
          <path class="cls-13" d="M143.12,110.28c4.72-5.34,9.44-10.69,14.17-16.03-.02-8.26-.05-16.53-.07-24.79-4.58,5.4-9.16,10.8-13.75,16.2-.12,8.21-.23,16.41-.35,24.62Z"/>
          <path class="cls-13" d="M143.37,85.26c-6.24-2.17-12.49-4.33-18.73-6.5-.37,7.59-.73,15.18-1.1,22.76,6.52,2.92,13.05,5.84,19.57,8.76.09-8.34.17-16.68.26-25.02Z"/>
          <path class="cls-13" d="M138.27,63.59c-4.54,5.16-9.07,10.31-13.61,15.47,6.21,1.99,12.43,3.98,18.64,5.96,4.66-5.47,9.32-10.94,13.98-16.41-6.34-1.68-12.67-3.35-19.01-5.03Z"/>
          <path class="cls-12" d="M124.64,83.93c6.24,2.17,12.49,4.33,18.73,6.5,4.61-5.27,9.23-10.53,13.84-15.8"/>
          <path class="cls-12" d="M124.64,89.1c6.24,2.17,12.49,4.33,18.73,6.5,4.61-5.27,9.23-10.53,13.84-15.8"/>
          <path class="cls-12" d="M124.64,94.27c6.24,2.17,12.49,4.33,18.73,6.5,4.61-5.27,9.23-10.53,13.84-15.8"/>
          <path class="cls-12" d="M124.64,99.44c6.24,2.17,12.49,4.33,18.73,6.5,4.61-5.27,9.23-10.53,13.84-15.8"/>
          <g>
            <path class="cls-13" d="M133.38,75.05c3.52,2.46,7.58,3.36,9.71,2.55.86-.33,1.77-1.07,1.53-1.74-.58-1.65-7.41-1.24-8.18-3-.35-.81.71-1.75,1.8-2.15,2.16-.79,6.12-.01,8.85,2.43"/>
            <path class="cls-13" d="M146.75,69.62c-2.95,3.48-5.9,6.97-8.85,10.45"/>
            <path class="cls-13" d="M143.22,68.54c-2.9,3.37-5.81,6.74-8.71,10.11"/>
          </g>
        </g>
        <g>
          <path class="cls-13" d="M178.16,92.72c4.72-5.34,9.44-10.69,14.17-16.03-.02-6.54-.05-13.08-.07-19.62-4.61,5.27-9.23,10.53-13.84,15.8-.09,6.62-.17,13.23-.26,19.85Z"/>
          <path class="cls-13" d="M178.41,72.87c-6.24-2.17-12.49-4.33-18.73-6.5l-1.1,17.59c6.52,2.92,13.05,5.84,19.57,8.76.09-6.62.17-13.23.26-19.85Z"/>
          <path class="cls-13" d="M175.22,50.71c-5.18,5.22-10.36,10.44-15.54,15.66,6.24,2.17,12.49,4.33,18.73,6.5,4.61-5.27,9.23-10.53,13.84-15.8-5.68-2.12-11.35-4.24-17.03-6.36Z"/>
          <path class="cls-13" d="M159.68,66.37c6.24,2.17,12.49,4.33,18.73,6.5,4.61-5.27,9.23-10.53,13.84-15.8"/>
          <path class="cls-12" d="M159.68,71.54c6.24,2.17,12.49,4.33,18.73,6.5,4.61-5.27,9.23-10.53,13.84-15.8"/>
          <path class="cls-12" d="M159.68,76.72c6.24,2.17,12.49,4.33,18.73,6.5,4.61-5.27,9.23-10.53,13.84-15.8"/>
          <path class="cls-12" d="M159.68,81.89c6.24,2.17,12.49,4.33,18.73,6.5,4.61-5.27,9.23-10.53,13.84-15.8"/>
          <g>
            <path class="cls-13" d="M168.76,62.11c3.52,2.46,7.58,3.36,9.71,2.55.86-.33,1.77-1.07,1.53-1.74-.58-1.65-7.41-1.24-8.18-3-.35-.81.71-1.75,1.8-2.15,2.16-.79,6.12-.01,8.85,2.43"/>
            <path class="cls-13" d="M182.13,56.67c-2.95,3.48-5.9,6.97-8.85,10.45"/>
            <path class="cls-13" d="M178.6,55.59c-2.9,3.37-5.81,6.74-8.71,10.11"/>
          </g>
        </g>
        <g>
          <path class="cls-13" d="M20.32,164.27c4.72-5.34,9.44-10.69,14.17-16.03-.02-6.54-.05-13.08-.07-19.62-4.61,5.27-9.23,10.53-13.84,15.8-.09,6.62-.17,13.23-.26,19.85Z"/>
          <path class="cls-13" d="M20.58,144.42c-6.24-2.17-12.49-4.33-18.73-6.5l-1.1,17.59c6.52,2.92,13.05,5.84,19.57,8.76.09-6.62.17-13.23.26-19.85Z"/>
          <path class="cls-13" d="M17.39,122.26c-5.18,5.22-10.36,10.44-15.54,15.66,6.24,2.17,12.49,4.33,18.73,6.5,4.61-5.27,9.23-10.53,13.84-15.8-5.68-2.12-11.35-4.24-17.03-6.36Z"/>
          <path class="cls-13" d="M1.85,137.92c6.24,2.17,12.49,4.33,18.73,6.5,4.61-5.27,9.23-10.53,13.84-15.8"/>
          <path class="cls-12" d="M1.85,143.09c6.24,2.17,12.49,4.33,18.73,6.5,4.61-5.27,9.23-10.53,13.84-15.8"/>
          <path class="cls-12" d="M1.85,148.26c6.24,2.17,12.49,4.33,18.73,6.5,4.61-5.27,9.23-10.53,13.84-15.8"/>
          <path class="cls-12" d="M1.85,153.44c6.24,2.17,12.49,4.33,18.73,6.5,4.61-5.27,9.23-10.53,13.84-15.8"/>
          <g>
            <path class="cls-13" d="M10.92,133.65c3.52,2.46,7.58,3.36,9.71,2.55.86-.33,1.77-1.07,1.53-1.74-.58-1.65-7.41-1.24-8.18-3-.35-.81.71-1.75,1.8-2.15,2.16-.79,6.12-.01,8.85,2.43"/>
            <path class="cls-13" d="M24.29,128.22c-2.95,3.48-5.9,6.97-8.85,10.45"/>
            <path class="cls-13" d="M20.76,127.14c-2.9,3.37-5.81,6.74-8.71,10.11"/>
          </g>
        </g>
        <g>
          <path class="cls-13" d="M156.55,223.07c4.72-5.34,9.44-10.69,14.17-16.03-.02-6.54-.05-13.08-.07-19.62-4.61,5.27-9.23,10.53-13.84,15.8-.09,6.62-.17,13.23-.26,19.85Z"/>
          <path class="cls-13" d="M156.8,203.22c-6.24-2.17-12.49-4.33-18.73-6.5-.37,5.86-.73,11.73-1.1,17.59,6.52,2.92,13.05,5.84,19.57,8.76.09-6.62.17-13.23.26-19.85Z"/>
          <path class="cls-13" d="M153.61,181.06c-5.18,5.22-10.36,10.44-15.54,15.66,6.24,2.17,12.49,4.33,18.73,6.5,4.61-5.27,9.23-10.53,13.84-15.8-5.68-2.12-11.35-4.24-17.03-6.36Z"/>
          <path class="cls-13" d="M138.07,196.72c6.24,2.17,12.49,4.33,18.73,6.5,4.61-5.27,9.23-10.53,13.84-15.8"/>
          <path class="cls-12" d="M138.07,201.89c6.24,2.17,12.49,4.33,18.73,6.5,4.61-5.27,9.23-10.53,13.84-15.8"/>
          <path class="cls-12" d="M138.07,207.07c6.24,2.17,12.49,4.33,18.73,6.5,4.61-5.27,9.23-10.53,13.84-15.8"/>
          <path class="cls-13" d="M138.07,212.24c6.24,2.17,12.49,4.33,18.73,6.5,4.61-5.27,9.23-10.53,13.84-15.8"/>
          <g>
            <path class="cls-13" d="M147.15,192.46c3.52,2.46,7.58,3.36,9.71,2.55.86-.33,1.77-1.07,1.53-1.74-.58-1.65-7.41-1.24-8.18-3-.35-.81.71-1.75,1.8-2.15,2.16-.79,6.12-.01,8.85,2.43"/>
            <path class="cls-13" d="M160.52,187.02c-2.95,3.48-5.9,6.97-8.85,10.45"/>
            <path class="cls-13" d="M156.99,185.94c-2.9,3.37-5.81,6.74-8.71,10.11"/>
          </g>
        </g>
        <g>
          <path class="cls-13" d="M166.65,119.9c4.72-5.34,9.44-10.69,14.17-16.03-.02-6.54-.05-13.08-.07-19.62-4.61,5.27-9.23,10.53-13.84,15.8-.09,6.62-.17,13.23-.26,19.85Z"/>
          <path class="cls-13" d="M166.91,100.05c-6.24-2.17-12.49-4.33-18.73-6.5-.37,5.86-.73,11.73-1.1,17.59,6.52,2.92,13.05,5.84,19.57,8.76.09-6.62.17-13.23.26-19.85Z"/>
          <path class="cls-13" d="M163.71,77.89c-5.18,5.22-10.36,10.44-15.54,15.66,6.24,2.17,12.49,4.33,18.73,6.5,4.61-5.27,9.23-10.53,13.84-15.8-5.68-2.12-11.35-4.24-17.03-6.36Z"/>
          <path class="cls-13" d="M148.17,93.55c6.24,2.17,12.49,4.33,18.73,6.5,4.61-5.27,9.23-10.53,13.84-15.8"/>
          <path class="cls-12" d="M148.17,98.72c6.24,2.17,12.49,4.33,18.73,6.5,4.61-5.27,9.23-10.53,13.84-15.8"/>
          <path class="cls-12" d="M148.17,103.89c6.24,2.17,12.49,4.33,18.73,6.5,4.61-5.27,9.23-10.53,13.84-15.8"/>
          <path class="cls-12" d="M148.17,109.06c6.24,2.17,12.49,4.33,18.73,6.5,4.61-5.27,9.23-10.53,13.84-15.8"/>
          <g>
            <path class="cls-13" d="M158.07,89.72c3.52,2.46,7.58,3.36,9.71,2.55.86-.33,1.77-1.07,1.53-1.74-.58-1.65-7.41-1.24-8.18-3-.35-.81.71-1.75,1.8-2.15,2.16-.79,6.12-.01,8.85,2.43"/>
            <path class="cls-13" d="M171.43,84.28c-2.95,3.48-5.9,6.97-8.85,10.45"/>
            <path class="cls-13" d="M167.91,83.2c-2.9,3.37-5.81,6.74-8.71,10.11"/>
          </g>
        </g>
        <g>
          <path class="cls-13" d="M76.79,244.08c4.72-5.34,9.44-10.69,14.17-16.03-.02-6.54-.05-13.08-.07-19.62-4.61,5.27-9.23,10.53-13.84,15.8-.09,6.62-.17,13.23-.26,19.85Z"/>
          <path class="cls-13" d="M77.04,224.23c-6.24-2.17-12.49-4.33-18.73-6.5l-1.1,17.59c6.52,2.92,13.05,5.84,19.57,8.76.09-6.62.17-13.23.26-19.85Z"/>
          <path class="cls-13" d="M73.85,202.07c-5.18,5.22-10.36,10.44-15.54,15.66,6.24,2.17,12.49,4.33,18.73,6.5,4.61-5.27,9.23-10.53,13.84-15.8-5.68-2.12-11.35-4.24-17.03-6.36Z"/>
          <path class="cls-13" d="M58.31,217.72c6.24,2.17,12.49,4.33,18.73,6.5,4.61-5.27,9.23-10.53,13.84-15.8"/>
          <path class="cls-12" d="M58.31,222.9c6.24,2.17,12.49,4.33,18.73,6.5,4.61-5.27,9.23-10.53,13.84-15.8"/>
          <path class="cls-12" d="M58.31,228.07c6.24,2.17,12.49,4.33,18.73,6.5,4.61-5.27,9.23-10.53,13.84-15.8"/>
          <path class="cls-12" d="M58.31,233.24c6.24,2.17,12.49,4.33,18.73,6.5,4.61-5.27,9.23-10.53,13.84-15.8"/>
          <g>
            <path class="cls-13" d="M68.2,213.9c3.52,2.46,7.58,3.36,9.71,2.55.86-.33,1.77-1.07,1.53-1.74-.58-1.65-7.41-1.24-8.18-3-.35-.81.71-1.75,1.8-2.15,2.16-.79,6.12-.01,8.85,2.43"/>
            <path class="cls-13" d="M81.57,208.46c-2.95,3.48-5.9,6.97-8.85,10.45"/>
            <path class="cls-13" d="M78.04,207.38c-2.9,3.37-5.81,6.74-8.71,10.11"/>
          </g>
        </g>
        <g>
          <path class="cls-13" d="M384.6,245.25c3.98-5.91,7.97-11.83,11.95-17.74-.88-6.48-1.76-12.96-2.63-19.44-3.89,5.82-7.77,11.65-11.66,17.47.78,6.57,1.56,13.14,2.34,19.71Z"/>
          <path class="cls-13" d="M382.26,225.54c-6.47-1.33-12.95-2.66-19.42-4,.4,5.86.81,11.72,1.21,17.58,6.85,2.04,13.7,4.08,20.55,6.13-.78-6.57-1.56-13.14-2.34-19.71Z"/>
          <path class="cls-13" d="M376.2,203.99c-4.45,5.85-8.91,11.7-13.36,17.55,6.47,1.33,12.95,2.66,19.42,4,3.89-5.82,7.77-11.65,11.66-17.47-5.91-1.36-11.81-2.72-17.72-4.08Z"/>
          <path class="cls-13" d="M362.84,221.54c6.47,1.33,12.95,2.66,19.42,4,3.89-5.82,7.77-11.65,11.66-17.47"/>
          <path class="cls-12" d="M363.51,226.67c6.47,1.33,12.95,2.66,19.42,4,3.89-5.82,7.77-11.65,11.66-17.47"/>
          <path class="cls-12" d="M364.19,231.8c6.47,1.33,12.95,2.66,19.42,4,3.89-5.82,7.77-11.65,11.66-17.47"/>
          <path class="cls-12" d="M364.86,236.93c6.47,1.33,12.95,2.66,19.42,4,3.89-5.82,7.77-11.65,11.66-17.47"/>
          <g>
            <path class="cls-13" d="M372.14,216.45c3.82,1.98,7.95,2.34,9.96,1.26.81-.44,1.61-1.29,1.29-1.93-.79-1.56-7.51-.26-8.5-1.9-.46-.76.48-1.83,1.5-2.36,2.04-1.06,6.07-.81,9.09,1.26"/>
            <path class="cls-13" d="M384.69,209.32c-2.47,3.84-4.94,7.68-7.4,11.52"/>
            <path class="cls-13" d="M381.05,208.71c-2.44,3.72-4.88,7.44-7.32,11.16"/>
          </g>
        </g>
        <g>
          <path class="cls-13" d="M137.72,239.46c4.72-5.34,9.44-10.69,14.17-16.03-.02-6.54-.05-13.08-.07-19.62-4.61,5.27-9.23,10.53-13.84,15.8-.09,6.62-.17,13.23-.26,19.85Z"/>
          <path class="cls-13" d="M137.98,219.61c-6.24-2.17-12.49-4.33-18.73-6.5-.37,5.86-.73,11.73-1.1,17.59,6.52,2.92,13.05,5.84,19.57,8.76.09-6.62.17-13.23.26-19.85Z"/>
          <path class="cls-13" d="M134.79,197.45c-5.18,5.22-10.36,10.44-15.54,15.66,6.24,2.17,12.49,4.33,18.73,6.5,4.61-5.27,9.23-10.53,13.84-15.8-5.68-2.12-11.35-4.24-17.03-6.36Z"/>
          <path class="cls-13" d="M119.25,213.11c6.24,2.17,12.49,4.33,18.73,6.5l13.84-15.8"/>
          <path class="cls-12" d="M119.25,218.28c6.24,2.17,12.49,4.33,18.73,6.5,4.61-5.27,9.23-10.53,13.84-15.8"/>
          <path class="cls-12" d="M119.25,223.46c6.24,2.17,12.49,4.33,18.73,6.5l13.84-15.8"/>
          <path class="cls-12" d="M119.25,228.63c6.24,2.17,12.49,4.33,18.73,6.5,4.61-5.27,9.23-10.53,13.84-15.8"/>
          <g>
            <path class="cls-13" d="M129.14,209.28c3.52,2.46,7.58,3.36,9.71,2.55.86-.33,1.77-1.07,1.53-1.74-.58-1.65-7.41-1.24-8.18-3-.35-.81.71-1.75,1.8-2.15,2.16-.79,6.12-.01,8.85,2.43"/>
            <path class="cls-13" d="M142.51,203.85c-2.95,3.48-5.9,6.97-8.85,10.45"/>
            <path class="cls-13" d="M138.98,202.77c-2.9,3.37-5.81,6.74-8.71,10.11"/>
          </g>
        </g>
        <g>
          <path class="cls-13" d="M168.29,251.22c4.72-5.34,9.44-10.69,14.17-16.03v-35.23c-4.66,5.47-9.32,10.94-13.98,16.41-.06,11.62-.12,23.24-.19,34.86Z"/>
          <path class="cls-13" d="M168.48,216.36c-6.21-1.99-12.43-3.98-18.64-5.96-.37,10.69-.75,21.37-1.12,32.06,6.52,2.92,13.05,5.84,19.57,8.76.06-11.62.12-23.24.19-34.86Z"/>
          <path class="cls-13" d="M163.45,194.93c-4.54,5.16-9.07,10.31-13.61,15.47,6.21,1.99,12.43,3.98,18.64,5.96,4.66-5.47,9.32-10.94,13.98-16.41-6.34-1.68-12.67-3.35-19.01-5.03Z"/>
          <path class="cls-12" d="M149.82,214.52c6.24,2.17,12.49,4.33,18.73,6.5,4.61-5.27,9.23-10.53,13.84-15.8"/>
          <path class="cls-12" d="M149.82,219.69c6.24,2.17,12.49,4.33,18.73,6.5,4.61-5.27,9.23-10.53,13.84-15.8"/>
          <path class="cls-12" d="M149.82,224.87c6.24,2.17,12.49,4.33,18.73,6.5,4.61-5.27,9.23-10.53,13.84-15.8"/>
          <path class="cls-12" d="M149.82,230.04c6.24,2.17,12.49,4.33,18.73,6.5,4.61-5.27,9.23-10.53,13.84-15.8"/>
          <path class="cls-12" d="M149.82,235.21c6.24,2.17,12.49,4.33,18.73,6.5,4.61-5.27,9.23-10.53,13.84-15.8"/>
          <path class="cls-12" d="M149.82,240.38c6.24,2.17,12.49,4.33,18.73,6.5,4.61-5.27,9.23-10.53,13.84-15.8"/>
          <g>
            <path class="cls-13" d="M158.72,205.97c3.52,2.46,7.58,3.36,9.71,2.55.86-.33,1.77-1.07,1.53-1.74-.58-1.65-7.41-1.24-8.18-3-.35-.81.71-1.75,1.8-2.15,2.16-.79,6.12-.01,8.85,2.43"/>
            <path class="cls-13" d="M172.08,200.54c-2.95,3.48-5.9,6.97-8.85,10.45"/>
            <path class="cls-13" d="M168.56,199.46c-2.9,3.37-5.81,6.74-8.71,10.11"/>
          </g>
        </g>
        <g>
          <path class="cls-13" d="M226.06,253.14c4.72-5.34,9.44-10.69,14.17-16.03-.02-6.54-.05-13.08-.07-19.62-4.61,5.27-9.23,10.53-13.84,15.8-.09,6.62-.17,13.23-.26,19.85Z"/>
          <path class="cls-13" d="M226.32,233.29c-6.24-2.17-12.49-4.33-18.73-6.5-.37,5.86-.73,11.73-1.1,17.59,6.52,2.92,13.05,5.84,19.57,8.76.09-6.62.17-13.23.26-19.85Z"/>
          <path class="cls-13" d="M223.13,211.13c-5.18,5.22-10.36,10.44-15.54,15.66,6.24,2.17,12.49,4.33,18.73,6.5,4.61-5.27,9.23-10.53,13.84-15.8-5.68-2.12-11.35-4.24-17.03-6.36Z"/>
          <path class="cls-13" d="M207.59,226.79c6.24,2.17,12.49,4.33,18.73,6.5,4.61-5.27,9.23-10.53,13.84-15.8"/>
          <path class="cls-12" d="M207.59,231.96c6.24,2.17,12.49,4.33,18.73,6.5,4.61-5.27,9.23-10.53,13.84-15.8"/>
          <path class="cls-12" d="M207.59,237.13c6.24,2.17,12.49,4.33,18.73,6.5,4.61-5.27,9.23-10.53,13.84-15.8"/>
          <path class="cls-13" d="M207.59,242.31c6.24,2.17,12.49,4.33,18.73,6.5,4.61-5.27,9.23-10.53,13.84-15.8"/>
          <g>
            <path class="cls-13" d="M217.39,222.96c3.52,2.46,7.58,3.36,9.71,2.55.86-.33,1.77-1.07,1.53-1.74-.58-1.65-7.41-1.24-8.18-3-.35-.81.71-1.75,1.8-2.15,2.16-.79,6.12-.01,8.85,2.43"/>
            <path class="cls-13" d="M230.76,217.52c-2.95,3.48-5.9,6.97-8.85,10.45"/>
            <path class="cls-13" d="M227.24,216.44c-2.9,3.37-5.81,6.74-8.71,10.11"/>
          </g>
        </g>
        <g>
          <path class="cls-13" d="M196.9,260.43c4.72-5.34,9.44-10.69,14.17-16.03-.02-8.26-.05-16.53-.07-24.79-4.58,5.4-9.16,10.8-13.75,16.2-.12,8.21-.23,16.41-.35,24.62Z"/>
          <path class="cls-13" d="M197.16,235.41c-6.24-2.17-12.49-4.33-18.73-6.5-.37,7.59-.73,15.18-1.1,22.76,6.52,2.92,13.05,5.84,19.57,8.76.09-8.34.17-16.68.26-25.02Z"/>
          <path class="cls-13" d="M192.06,213.74c-4.54,5.16-9.07,10.31-13.61,15.47,6.21,1.99,12.43,3.98,18.64,5.96,4.66-5.47,9.32-10.94,13.98-16.41-6.34-1.68-12.67-3.35-19.01-5.03Z"/>
          <path class="cls-12" d="M178.43,234.08c6.24,2.17,12.49,4.33,18.73,6.5,4.61-5.27,9.23-10.53,13.84-15.8"/>
          <path class="cls-12" d="M178.43,239.25c6.24,2.17,12.49,4.33,18.73,6.5,4.61-5.27,9.23-10.53,13.84-15.8"/>
          <path class="cls-12" d="M178.43,244.43c6.24,2.17,12.49,4.33,18.73,6.5,4.61-5.27,9.23-10.53,13.84-15.8"/>
          <path class="cls-12" d="M178.43,249.6c6.24,2.17,12.49,4.33,18.73,6.5,4.61-5.27,9.23-10.53,13.84-15.8"/>
          <g>
            <path class="cls-13" d="M187.44,224.71c3.52,2.46,7.58,3.36,9.71,2.55.86-.33,1.77-1.07,1.53-1.74-.58-1.65-7.41-1.24-8.18-3-.35-.81.71-1.75,1.8-2.15,2.16-.79,6.12-.01,8.85,2.43"/>
            <path class="cls-13" d="M200.81,219.27c-2.95,3.48-5.9,6.97-8.85,10.45"/>
            <path class="cls-13" d="M197.29,218.19c-2.9,3.37-5.81,6.74-8.71,10.11"/>
          </g>
        </g>
        <g>
          <path class="cls-13" d="M112.82,274.59c4.72-5.34,9.44-10.69,14.17-16.03v-35.23c-4.66,5.47-9.32,10.94-13.98,16.41-.06,11.62-.12,23.24-.19,34.86Z"/>
          <path class="cls-13" d="M113,239.73c-6.21-1.99-12.43-3.98-18.64-5.96-.37,10.69-.75,21.37-1.12,32.06,6.52,2.92,13.05,5.84,19.57,8.76.06-11.62.12-23.24.19-34.86Z"/>
          <path class="cls-13" d="M107.97,218.3c-4.54,5.16-9.07,10.31-13.61,15.47,6.21,1.99,12.43,3.98,18.64,5.96,4.66-5.47,9.32-10.94,13.98-16.41-6.34-1.68-12.67-3.35-19.01-5.03Z"/>
          <path class="cls-12" d="M94.34,237.89c6.24,2.17,12.49,4.33,18.73,6.5,4.61-5.27,9.23-10.53,13.84-15.8"/>
          <path class="cls-12" d="M94.34,243.06c6.24,2.17,12.49,4.33,18.73,6.5,4.61-5.27,9.23-10.53,13.84-15.8"/>
          <path class="cls-12" d="M94.34,248.24c6.24,2.17,12.49,4.33,18.73,6.5,4.61-5.27,9.23-10.53,13.84-15.8"/>
          <path class="cls-12" d="M94.34,253.41c6.24,2.17,12.49,4.33,18.73,6.5l13.84-15.8"/>
          <path class="cls-12" d="M94.34,258.58c6.24,2.17,12.49,4.33,18.73,6.5,4.61-5.27,9.23-10.53,13.84-15.8"/>
          <path class="cls-12" d="M94.34,263.75c6.24,2.17,12.49,4.33,18.73,6.5l13.84-15.8"/>
          <g>
            <path class="cls-13" d="M103.13,229.76c3.52,2.46,7.58,3.36,9.71,2.55.86-.33,1.77-1.07,1.53-1.74-.58-1.65-7.41-1.24-8.18-3-.35-.81.71-1.75,1.8-2.15,2.16-.79,6.12-.01,8.85,2.43"/>
            <path class="cls-13" d="M116.49,224.33c-2.95,3.48-5.9,6.97-8.85,10.45"/>
            <path class="cls-13" d="M112.97,223.25c-2.9,3.37-5.81,6.74-8.71,10.11"/>
          </g>
        </g>
        <g>
          <path class="cls-13" d="M231,280.13c4.72-5.34,9.44-10.69,14.17-16.03v-35.23c-4.66,5.47-9.32,10.94-13.98,16.41-.06,11.62-.12,23.24-.19,34.86Z"/>
          <path class="cls-13" d="M231.19,245.28c-6.21-1.99-12.43-3.98-18.64-5.96-.37,10.69-.75,21.37-1.12,32.06,6.52,2.92,13.05,5.84,19.57,8.76.06-11.62.12-23.24.19-34.86Z"/>
          <path class="cls-13" d="M226.15,223.84c-4.54,5.16-9.07,10.31-13.61,15.47,6.21,1.99,12.43,3.98,18.64,5.96,4.66-5.47,9.32-10.94,13.98-16.41-6.34-1.68-12.67-3.35-19.01-5.03Z"/>
          <path class="cls-12" d="M212.52,243.44c6.24,2.17,12.49,4.33,18.73,6.5,4.61-5.27,9.23-10.53,13.84-15.8"/>
          <path class="cls-12" d="M212.52,248.61c6.24,2.17,12.49,4.33,18.73,6.5,4.61-5.27,9.23-10.53,13.84-15.8"/>
          <path class="cls-12" d="M212.52,253.78c6.24,2.17,12.49,4.33,18.73,6.5,4.61-5.27,9.23-10.53,13.84-15.8"/>
          <path class="cls-12" d="M212.52,258.95c6.24,2.17,12.49,4.33,18.73,6.5l13.84-15.8"/>
          <path class="cls-12" d="M212.52,264.13c6.24,2.17,12.49,4.33,18.73,6.5,4.61-5.27,9.23-10.53,13.84-15.8"/>
          <path class="cls-12" d="M212.52,269.3c6.24,2.17,12.49,4.33,18.73,6.5l13.84-15.8"/>
          <g>
            <path class="cls-13" d="M221.35,235.12c3.52,2.46,7.58,3.36,9.71,2.55.86-.33,1.77-1.07,1.53-1.74-.58-1.65-7.41-1.24-8.18-3-.35-.81.71-1.75,1.8-2.15,2.16-.79,6.12-.01,8.85,2.43"/>
            <path class="cls-13" d="M234.72,229.69c-2.95,3.48-5.9,6.97-8.85,10.45"/>
            <path class="cls-13" d="M231.2,228.61c-2.9,3.37-5.81,6.74-8.71,10.11"/>
          </g>
        </g>
        <g>
          <path class="cls-13" d="M261.63,288.61c4.72-5.34,9.44-10.69,14.17-16.03v-35.23c-4.66,5.47-9.32,10.94-13.98,16.41-.06,11.62-.12,23.24-.19,34.86Z"/>
          <path class="cls-13" d="M261.82,253.76c-6.21-1.99-12.43-3.98-18.64-5.96-.37,10.69-.75,21.37-1.12,32.06,6.52,2.92,13.05,5.84,19.57,8.76.06-11.62.12-23.24.19-34.86Z"/>
          <path class="cls-13" d="M256.79,232.32c-4.54,5.16-9.07,10.31-13.61,15.47,6.21,1.99,12.43,3.98,18.64,5.96,4.66-5.47,9.32-10.94,13.98-16.41-6.34-1.68-12.67-3.35-19.01-5.03Z"/>
          <path class="cls-12" d="M243.16,251.92c6.24,2.17,12.49,4.33,18.73,6.5,4.61-5.27,9.23-10.53,13.84-15.8"/>
          <path class="cls-12" d="M243.16,257.09c6.24,2.17,12.49,4.33,18.73,6.5,4.61-5.27,9.23-10.53,13.84-15.8"/>
          <path class="cls-12" d="M243.16,262.26c6.24,2.17,12.49,4.33,18.73,6.5,4.61-5.27,9.23-10.53,13.84-15.8"/>
          <path class="cls-12" d="M243.16,267.43c6.24,2.17,12.49,4.33,18.73,6.5,4.61-5.27,9.23-10.53,13.84-15.8"/>
          <path class="cls-12" d="M243.16,272.61c6.24,2.17,12.49,4.33,18.73,6.5l13.84-15.8"/>
          <path class="cls-12" d="M243.16,277.78c6.24,2.17,12.49,4.33,18.73,6.5,4.61-5.27,9.23-10.53,13.84-15.8"/>
          <g>
            <path class="cls-13" d="M251.99,243.6c3.52,2.46,7.58,3.36,9.71,2.55.86-.33,1.77-1.07,1.53-1.74-.58-1.65-7.41-1.24-8.18-3-.35-.81.71-1.75,1.8-2.15,2.16-.79,6.12-.01,8.85,2.43"/>
            <path class="cls-13" d="M265.36,238.17c-2.95,3.48-5.9,6.97-8.85,10.45"/>
            <path class="cls-13" d="M261.83,237.09c-2.9,3.37-5.81,6.74-8.71,10.11"/>
          </g>
        </g>
        <g>
          <path class="cls-13" d="M182.42,288.89c4.72-5.34,9.44-10.69,14.17-16.03-.02-6.54-.05-13.08-.07-19.62-4.61,5.27-9.23,10.53-13.84,15.8-.09,6.62-.17,13.23-.26,19.85Z"/>
          <path class="cls-13" d="M182.68,269.04c-6.24-2.17-12.49-4.33-18.73-6.5-.37,5.86-.73,11.73-1.1,17.59,6.52,2.92,13.05,5.84,19.57,8.76.09-6.62.17-13.23.26-19.85Z"/>
          <path class="cls-13" d="M179.49,246.88c-5.18,5.22-10.36,10.44-15.54,15.66,6.24,2.17,12.49,4.33,18.73,6.5,4.61-5.27,9.23-10.53,13.84-15.8-5.68-2.12-11.35-4.24-17.03-6.36Z"/>
          <path class="cls-13" d="M163.95,262.54c6.24,2.17,12.49,4.33,18.73,6.5l13.84-15.8"/>
          <path class="cls-12" d="M163.95,267.71c6.24,2.17,12.49,4.33,18.73,6.5,4.61-5.27,9.23-10.53,13.84-15.8"/>
          <path class="cls-12" d="M163.95,272.89c6.24,2.17,12.49,4.33,18.73,6.5l13.84-15.8"/>
          <path class="cls-12" d="M163.95,278.06c6.24,2.17,12.49,4.33,18.73,6.5,4.61-5.27,9.23-10.53,13.84-15.8"/>
          <g>
            <path class="cls-13" d="M173.59,258.71c3.52,2.46,7.58,3.36,9.71,2.55.86-.33,1.77-1.07,1.53-1.74-.58-1.65-7.41-1.24-8.18-3-.35-.81.71-1.75,1.8-2.15,2.16-.79,6.12-.01,8.85,2.43"/>
            <path class="cls-13" d="M186.96,253.28c-2.95,3.48-5.9,6.97-8.85,10.45"/>
            <path class="cls-13" d="M183.43,252.2c-2.9,3.37-5.81,6.74-8.71,10.11"/>
          </g>
        </g>
        <g>
          <path class="cls-13" d="M309.74,311.27c4.72-5.34,9.44-10.69,14.17-16.03-.02-6.54-.05-13.08-.07-19.62-4.61,5.27-9.23,10.53-13.84,15.8-.09,6.62-.17,13.23-.26,19.85Z"/>
          <path class="cls-13" d="M310,291.42c-6.24-2.17-12.49-4.33-18.73-6.5-.37,5.86-.73,11.73-1.1,17.59,6.52,2.92,13.05,5.84,19.57,8.76.09-6.62.17-13.23.26-19.85Z"/>
          <path class="cls-13" d="M306.81,269.26c-5.18,5.22-10.36,10.44-15.54,15.66,6.24,2.17,12.49,4.33,18.73,6.5,4.61-5.27,9.23-10.53,13.84-15.8-5.68-2.12-11.35-4.24-17.03-6.36Z"/>
          <path class="cls-13" d="M291.27,284.92c6.24,2.17,12.49,4.33,18.73,6.5,4.61-5.27,9.23-10.53,13.84-15.8"/>
          <path class="cls-12" d="M291.27,290.09c6.24,2.17,12.49,4.33,18.73,6.5,4.61-5.27,9.23-10.53,13.84-15.8"/>
          <path class="cls-12" d="M291.27,295.26c6.24,2.17,12.49,4.33,18.73,6.5,4.61-5.27,9.23-10.53,13.84-15.8"/>
          <path class="cls-12" d="M291.27,300.44c6.24,2.17,12.49,4.33,18.73,6.5,4.61-5.27,9.23-10.53,13.84-15.8"/>
          <g>
            <path class="cls-13" d="M300.91,281.09c3.52,2.46,7.58,3.36,9.71,2.55.86-.33,1.77-1.07,1.53-1.74-.58-1.65-7.41-1.24-8.18-3-.35-.81.71-1.75,1.8-2.15,2.16-.79,6.12-.01,8.85,2.43"/>
            <path class="cls-13" d="M314.28,275.65c-2.95,3.48-5.9,6.97-8.85,10.45"/>
            <path class="cls-13" d="M310.75,274.57c-2.9,3.37-5.81,6.74-8.71,10.11"/>
          </g>
        </g>
        <g>
          <path class="cls-13" d="M325.52,274.76c4.72-5.34,9.44-10.69,14.17-16.03-.02-6.54-.05-13.08-.07-19.62-4.61,5.27-9.23,10.53-13.84,15.8-.09,6.62-.17,13.23-.26,19.85Z"/>
          <path class="cls-13" d="M325.77,254.91c-6.24-2.17-12.49-4.33-18.73-6.5-.37,5.86-.73,11.73-1.1,17.59,6.52,2.92,13.05,5.84,19.57,8.76.09-6.62.17-13.23.26-19.85Z"/>
          <path class="cls-13" d="M322.58,232.75c-5.18,5.22-10.36,10.44-15.54,15.66,6.24,2.17,12.49,4.33,18.73,6.5,4.61-5.27,9.23-10.53,13.84-15.8-5.68-2.12-11.35-4.24-17.03-6.36Z"/>
          <path class="cls-13" d="M307.04,248.41c6.24,2.17,12.49,4.33,18.73,6.5,4.61-5.27,9.23-10.53,13.84-15.8"/>
          <path class="cls-12" d="M307.04,253.58c6.24,2.17,12.49,4.33,18.73,6.5,4.61-5.27,9.23-10.53,13.84-15.8"/>
          <path class="cls-12" d="M307.04,258.75c6.24,2.17,12.49,4.33,18.73,6.5,4.61-5.27,9.23-10.53,13.84-15.8"/>
          <path class="cls-12" d="M307.04,263.93c6.24,2.17,12.49,4.33,18.73,6.5,4.61-5.27,9.23-10.53,13.84-15.8"/>
          <g>
            <path class="cls-13" d="M316.85,244.58c3.52,2.46,7.58,3.36,9.71,2.55.86-.33,1.77-1.07,1.53-1.74-.58-1.65-7.41-1.24-8.18-3-.35-.81.71-1.75,1.8-2.15,2.16-.79,6.12-.01,8.85,2.43"/>
            <path class="cls-13" d="M330.21,239.14c-2.95,3.48-5.9,6.97-8.85,10.45"/>
            <path class="cls-13" d="M326.69,238.06c-2.9,3.37-5.81,6.74-8.71,10.11"/>
          </g>
        </g>
        <g>
          <path class="cls-13" d="M348.06,244.23c4.72-5.34,9.44-10.69,14.17-16.03v-35.23c-4.66,5.47-9.32,10.94-13.98,16.41-.06,11.62-.12,23.24-.19,34.86Z"/>
          <path class="cls-13" d="M348.25,209.37c-6.21-1.99-12.43-3.98-18.64-5.96-.37,10.69-.75,21.37-1.12,32.06,6.52,2.92,13.05,5.84,19.57,8.76.06-11.62.12-23.24.19-34.86Z"/>
          <path class="cls-13" d="M343.22,187.93c-4.54,5.16-9.07,10.31-13.61,15.47,6.21,1.99,12.43,3.98,18.64,5.96,4.66-5.47,9.32-10.94,13.98-16.41-6.34-1.68-12.67-3.35-19.01-5.03Z"/>
          <path class="cls-12" d="M329.59,207.53c6.24,2.17,12.49,4.33,18.73,6.5,4.61-5.27,9.23-10.53,13.84-15.8"/>
          <path class="cls-12" d="M329.59,212.7c6.24,2.17,12.49,4.33,18.73,6.5,4.61-5.27,9.23-10.53,13.84-15.8"/>
          <path class="cls-12" d="M329.59,217.87c6.24,2.17,12.49,4.33,18.73,6.5l13.84-15.8"/>
          <path class="cls-12" d="M329.59,223.05c6.24,2.17,12.49,4.33,18.73,6.5,4.61-5.27,9.23-10.53,13.84-15.8"/>
          <path class="cls-12" d="M329.59,228.22c6.24,2.17,12.49,4.33,18.73,6.5,4.61-5.27,9.23-10.53,13.84-15.8"/>
          <path class="cls-12" d="M329.59,233.39c6.24,2.17,12.49,4.33,18.73,6.5,4.61-5.27,9.23-10.53,13.84-15.8"/>
          <g>
            <path class="cls-13" d="M338.42,199.21c3.52,2.46,7.58,3.36,9.71,2.55.86-.33,1.77-1.07,1.53-1.74-.58-1.65-7.41-1.24-8.18-3-.35-.81.71-1.75,1.8-2.15,2.16-.79,6.12-.01,8.85,2.43"/>
            <path class="cls-13" d="M351.78,193.78c-2.95,3.48-5.9,6.97-8.85,10.45"/>
            <path class="cls-13" d="M348.26,192.7c-2.9,3.37-5.81,6.74-8.71,10.11"/>
          </g>
        </g>
        <g>
          <path class="cls-13" d="M356.15,290.87c4.72-5.34,9.44-10.69,14.17-16.03v-35.23c-4.66,5.47-9.32,10.94-13.98,16.41-.06,11.62-.12,23.24-.19,34.86Z"/>
          <path class="cls-13" d="M356.34,256.02c-6.21-1.99-12.43-3.98-18.64-5.96-.37,10.69-.75,21.37-1.12,32.06,6.52,2.92,13.05,5.84,19.57,8.76.06-11.62.12-23.24.19-34.86Z"/>
          <path class="cls-13" d="M351.3,234.58c-4.54,5.16-9.07,10.31-13.61,15.47,6.21,1.99,12.43,3.98,18.64,5.96,4.66-5.47,9.32-10.94,13.98-16.41-6.34-1.68-12.67-3.35-19.01-5.03Z"/>
          <path class="cls-12" d="M337.67,254.18c6.24,2.17,12.49,4.33,18.73,6.5l13.84-15.8"/>
          <path class="cls-12" d="M337.67,259.35c6.24,2.17,12.49,4.33,18.73,6.5,4.61-5.27,9.23-10.53,13.84-15.8"/>
          <path class="cls-12" d="M337.67,264.52c6.24,2.17,12.49,4.33,18.73,6.5,4.61-5.27,9.23-10.53,13.84-15.8"/>
          <path class="cls-12" d="M337.67,269.69c6.24,2.17,12.49,4.33,18.73,6.5,4.61-5.27,9.23-10.53,13.84-15.8"/>
          <path class="cls-12" d="M337.67,274.87c6.24,2.17,12.49,4.33,18.73,6.5,4.61-5.27,9.23-10.53,13.84-15.8"/>
          <path class="cls-12" d="M337.67,280.04c6.24,2.17,12.49,4.33,18.73,6.5,4.61-5.27,9.23-10.53,13.84-15.8"/>
          <g>
            <path class="cls-13" d="M346.46,246.05c3.52,2.46,7.58,3.36,9.71,2.55.86-.33,1.77-1.07,1.53-1.74-.58-1.65-7.41-1.24-8.18-3-.35-.81.71-1.75,1.8-2.15,2.16-.79,6.12-.01,8.85,2.43"/>
            <path class="cls-13" d="M359.82,240.61c-2.95,3.48-5.9,6.97-8.85,10.45"/>
            <path class="cls-13" d="M356.3,239.53c-2.9,3.37-5.81,6.74-8.71,10.11"/>
          </g>
        </g>
      </g>
      <polyline class="cls-9" points="261.63 181.08 271.63 184.94 271.63 198.56"/>
      <path class="cls-9" d="M286.57,191c.3-.62,2.16-7.65,2.16-7.65l12.18-9.47"/>
      <line class="cls-9" x1="339.82" y1="151.61" x2="340.16" y2="173.62"/>
      <polyline class="cls-9" points="318.37 114.74 331.25 122.03 320.16 130.86"/>
      <path class="cls-9" d="M348.13,111.25c.48-.27,4.7,2.6,4.7,2.6"/>
      <line class="cls-9" x1="350.98" y1="102.23" x2="356.31" y2="101.02"/>
      <line class="cls-9" x1="352.12" y1="74.84" x2="356.31" y2="73.59"/>
      <line class="cls-9" x1="377.12" y1="56.67" x2="378.38" y2="61.26"/>
      <path class="cls-9" d="M338.37,60.65c.73-.99,8.6-7.39,8.6-7.39"/>
      <line class="cls-9" x1="339.61" y1="71.5" x2="345.89" y2="64.34"/>
      <path class="cls-9" d="M338.37,85.59s.84,16.55-4.04,26.25"/>
      <path class="cls-9" d="M312.72,66.33c-1.09,1.02-1.1,7.62-1.1,7.62l-10.68,10.22"/>
      <line class="cls-9" x1="259.63" y1="70.37" x2="263.48" y2="61.32"/>
      <line class="cls-9" x1="280.52" y1="33.15" x2="283.21" y2="41.02"/>
      <line class="cls-9" x1="284.87" y1="61.79" x2="288.73" y2="57.47"/>
      <path class="cls-9" d="M293.58,70.9c0,.68-2.86,7.52,1.29,5.34l4.15-2.18"/>
      <line class="cls-9" x1="320.53" y1="13.11" x2="321.89" y2="15.81"/>
      <line class="cls-9" x1="323.93" y1="13.11" x2="325.66" y2="16.36"/>
      <line class="cls-9" x1="318.37" y1="14.74" x2="326.57" y2="14"/>
      <path class="cls-9" d="M270.95,21.39c.23,0,3.47.54,6.04-1.62"/>
      <line class="cls-9" x1="277.51" y1="7.06" x2="277.51" y2="10.11"/>
      <path class="cls-9" d="M359.63,40.33c.23-.14,3.35-3.24,3.35-3.24"/>
      <path class="cls-6" d="M210.8,72.64c3.77,1.91,7.55,3.82,11.32,5.74"/>
      <polyline class="cls-9" points="186.18 101.25 184.23 93.31 193.74 84.98"/>
      <line class="cls-9" x1="186.95" y1="129.02" x2="195.4" y2="131.62"/>
      <line class="cls-9" x1="136.98" y1="127.64" x2="151.67" y2="134.95"/>
      <line class="cls-9" x1="180.86" y1="152.04" x2="184.23" y2="163.96"/>
      <path class="cls-9" d="M188.57,155.34c-.57.61,1.47,9.64,1.47,9.64"/>
      <line class="cls-9" x1="178.6" y1="160.44" x2="192.68" y2="162.9"/>
      <line class="cls-9" x1="179.08" y1="153.3" x2="194.29" y2="158.47"/>
      <path class="cls-9" d="M232.2,199.62c-.88.56-.28,7.66-.28,7.66l8.3,1.3"/>
      <line class="cls-9" x1="226.84" y1="167.86" x2="243.73" y2="173.99"/>
      <path class="cls-9" d="M286.8,217.52c.07,1.23,0,9.71,0,9.71"/>
      <line class="cls-8" x1="83.89" y1="117.03" x2="85.21" y2="105.96"/>
      <line class="cls-8" x1="109.49" y1="115.02" x2="123.17" y2="122.72"/>
      <path class="cls-8" d="M98.03,96.19c.77.45,10.59,5.89,10.59,5.89"/>
      <line class="cls-8" x1="247.95" y1="192.07" x2="256.51" y2="207.82"/>
      <line class="cls-8" x1="325.52" y1="156.24" x2="323.7" y2="168.82"/>
      <line class="cls-8" x1="163.24" y1="172.95" x2="164.2" y2="159.84"/>
      <line class="cls-8" x1="209.19" y1="100.05" x2="226.84" y2="85.59"/>
      <polygon class="cls-10" points="300.68 142.68 306.34 145.59 314.41 137.7 311.24 134.15 305.62 132.27 302.26 133.77 299.99 137.81 300.68 142.68"/>
      <path class="cls-9" d="M306.34,145.94c-.6-7.23.23-12.42,2.34-13,1.81-.49,4.23,2.52,5.66,4.6"/>
      <path class="cls-9" d="M301.21,142.6c-1.98-2.77-1.5-6.63,1.06-8.83,2.6-2.23,6.55-2.08,8.98.38"/>
    </g>
  </g>
</svg>