<?xml version="1.0" encoding="UTF-8"?>
<svg id="Livello_2" data-name="Livello 2" xmlns="http://www.w3.org/2000/svg" viewBox="0 0 943.93 1146.06">
  <defs>
    <style>
      .cls-1 {
        fill: #723300;
      }

      .cls-1, .cls-2, .cls-3, .cls-4, .cls-5, .cls-6, .cls-7, .cls-8, .cls-9, .cls-10, .cls-11, .cls-12, .cls-13, .cls-14, .cls-15, .cls-16, .cls-17, .cls-18, .cls-19, .cls-20, .cls-21, .cls-22, .cls-23, .cls-24, .cls-25, .cls-26, .cls-27, .cls-28, .cls-29, .cls-30, .cls-31, .cls-32, .cls-33, .cls-34, .cls-35, .cls-36, .cls-37, .cls-38, .cls-39, .cls-40 {
        stroke: #000;
        stroke-width: 2px;
      }

      .cls-1, .cls-2, .cls-3, .cls-4, .cls-5, .cls-8, .cls-9, .cls-10, .cls-12, .cls-13, .cls-14, .cls-15, .cls-17, .cls-19, .cls-20, .cls-21, .cls-22, .cls-23, .cls-24, .cls-25, .cls-26, .cls-27, .cls-28, .cls-29, .cls-30, .cls-31, .cls-32, .cls-33, .cls-34, .cls-35, .cls-36, .cls-37, .cls-38, .cls-39, .cls-40 {
        stroke-linecap: round;
        stroke-linejoin: round;
      }

      .cls-2 {
        fill: #373944;
      }

      .cls-3 {
        fill: #2c0f4c;
      }

      .cls-4 {
        fill: #151e12;
      }

      .cls-5 {
        fill: #6cc7ff;
      }

      .cls-6 {
        fill: #9b9b9b;
      }

      .cls-6, .cls-7, .cls-11, .cls-16, .cls-18 {
        stroke-miterlimit: 10;
      }

      .cls-7 {
        fill: #c9c9c9;
      }

      .cls-8 {
        fill: #110c19;
      }

      .cls-9 {
        fill: #b6f0ff;
      }

      .cls-10 {
        fill: #0e0f11;
      }

      .cls-11 {
        fill: #707070;
      }

      .cls-12 {
        fill: #492f02;
      }

      .cls-13 {
        fill: #180f28;
      }

      .cls-14 {
        fill: #4848ff;
      }

      .cls-15 {
        fill: #6d2020;
      }

      .cls-16, .cls-19 {
        fill: #fff;
      }

      .cls-17 {
        fill: #aaa;
      }

      .cls-18, .cls-21 {
        fill: none;
      }

      .cls-20 {
        fill: #72758c;
      }

      .cls-22 {
        fill: #8c6239;
      }

      .cls-23 {
        fill: #d1b824;
      }

      .cls-24 {
        fill: #ffcfe3;
      }

      .cls-25 {
        fill: #5b3618;
      }

      .cls-26 {
        fill: #262626;
      }

      .cls-27 {
        fill: #c69c6d;
      }

      .cls-28 {
        fill: #05094f;
      }

      .cls-29 {
        fill: #230707;
      }

      .cls-30 {
        fill: #d3ffb6;
      }

      .cls-31 {
        fill: #07050a;
      }

      .cls-32 {
        fill: #242814;
      }

      .cls-33 {
        fill: #3a2b03;
      }

      .cls-34 {
        fill: #1f2026;
      }

      .cls-35 {
        fill: #31323d;
      }

      .cls-36 {
        fill: #721f41;
      }

      .cls-37 {
        fill: #2b1500;
      }

      .cls-38 {
        fill: #777;
      }

      .cls-39 {
        fill: #2d0054;
      }

      .cls-40 {
        fill: #141c00;
      }
    </style>
  </defs>
  <g id="Personaggi">
    <polygon class="cls-27" points="24 232.24 83.5 194.31 76.14 185.56 18.76 220.11 24 232.24"/>
    <polygon class="cls-22" points="18.76 220.11 18.76 236.09 24.88 243.06 24 232.24 18.76 220.11"/>
    <polygon class="cls-22" points="24.88 243.06 83.5 204.09 83.5 194.31 24 232.24 24.88 243.06"/>
    <polygon class="cls-27" points="2.01 182.48 6.72 194.31 67.57 169.53 64.21 159.11 2.01 182.48"/>
    <polygon class="cls-22" points="2.01 182.48 1 193.24 5.03 201.31 6.72 194.31 2.01 182.48"/>
    <polygon class="cls-22" points="5.03 201.31 67.57 177.77 67.57 169.53 6.72 194.31 5.03 201.31"/>
    <polygon class="cls-27" points="2.01 146.52 59.26 141.2 59.26 128.79 3.86 133.04 2.01 146.52"/>
    <polygon class="cls-22" points="2.01 146.52 2.01 151.36 59.26 145.93 59.26 141.2 2.01 146.52"/>
    <polygon class="cls-27" points="11.2 95.95 62.03 102.99 64.61 94.23 16.53 88.22 11.2 95.95"/>
    <polygon class="cls-22" points="11.2 95.95 11.2 102.3 61 108.48 62.03 102.99 11.2 95.95"/>
    <polygon class="cls-27" points="29.06 66.41 73.54 81.7 77.66 74.83 37.91 60.58 29.06 66.41"/>
    <polygon class="cls-22" points="29.06 66.41 29.06 73.63 72.16 88.22 73.54 81.7 29.06 66.41"/>
    <polygon class="cls-22" points="72.16 88.22 77.66 81.7 77.66 74.83 73.54 81.7 72.16 88.22"/>
    <polygon class="cls-27" points="55.51 46.86 82.81 65.56 87.14 60.58 63.4 43.06 55.51 46.86"/>
    <polygon class="cls-22" points="55.51 46.86 55.51 53.71 82.81 71.14 82.81 65.56 55.51 46.86"/>
    <polygon class="cls-27" points="59.26 275.45 74.41 281.11 107.75 212.62 95.19 205.01 59.26 275.45"/>
    <polygon class="cls-22" points="59.26 275.45 59.26 285.8 76.14 291.57 74.41 281.11 59.26 275.45"/>
    <polygon class="cls-22" points="76.14 291.57 107.75 225.13 107.75 212.62 74.41 281.11 76.14 291.57"/>
    <polygon class="cls-27" points="113.96 304.05 132.69 306.56 138.57 231.69 126.26 227.11 113.96 304.05"/>
    <polygon class="cls-22" points="113.96 315.66 131.59 318.3 132.69 306.56 113.96 304.05 113.96 315.66"/>
    <polygon class="cls-22" points="180.26 316.93 197.89 316.93 197.89 324.31 180.26 326.14 180.26 316.93"/>
    <polygon class="cls-27" points="197.89 316.93 178.42 232.98 168.14 232.98 180.26 316.93 197.89 316.93"/>
    <polygon class="cls-22" points="180.26 326.14 178.62 317.23 164.46 240.08 168.14 232.98 180.26 326.14"/>
    <polygon class="cls-22" points="388.82 365.87 452.13 333.04 452.13 320.64 388.56 355.09 388.82 365.87"/>
    <polygon class="cls-27" points="377.34 347.35 388.56 355.09 452.13 320.64 435.01 308.27 377.34 347.35"/>
    <polygon class="cls-22" points="377.34 347.35 377.34 357.05 388.82 365.87 388.56 355.09 377.34 347.35"/>
    <polygon class="cls-27" points="334.36 324.31 345.3 331.77 396.5 281.86 379.54 270.43 334.36 324.31"/>
    <polygon class="cls-22" points="334.36 324.31 332.91 336 344.88 343 345.3 331.77 334.36 324.31"/>
    <polygon class="cls-22" points="344.88 343 396.5 293.6 396.5 281.86 345.3 331.77 344.88 343"/>
    <polygon class="cls-27" points="445.02 427.72 439.82 416.46 529.31 398.99 534.66 409.91 445.02 427.72"/>
    <polygon class="cls-22" points="445.02 427.72 445.02 437.17 532.91 418.64 534.66 409.91 445.02 427.72"/>
    <polygon class="cls-22" points="439.82 416.46 439.82 425.54 445.02 437.17 445.02 427.72 439.82 416.46"/>
    <polygon class="cls-27" points="413.82 379.29 420.36 389.82 495.93 355.09 487.94 345.51 413.82 379.29"/>
    <polygon class="cls-22" points="413.82 379.29 411.68 386.17 418.61 397.09 420.36 389.82 413.82 379.29"/>
    <polygon class="cls-22" points="418.61 397.09 495.93 364.46 495.93 355.09 420.36 389.82 418.61 397.09"/>
    <polygon class="cls-27" points="461.06 457.68 468.28 466.58 573.14 446.62 564 434.35 461.06 457.68"/>
    <polygon class="cls-22" points="461.06 457.68 461.06 467.78 467.56 474.28 468.28 466.58 461.06 457.68"/>
    <polygon class="cls-22" points="467.56 474.28 573.14 457.68 573.14 446.62 468.28 466.58 467.56 474.28"/>
    <polygon class="cls-27" points="783.32 1136.76 862.39 1060.43 870.2 1065.02 794.06 1145.06 783.32 1136.76"/>
    <polygon class="cls-27" points="741.84 1111.11 822.37 1035.74 831.15 1041.11 753.07 1120.17 741.84 1111.11"/>
    <polygon class="cls-22" points="870.2 1065.02 870.2 1074.29 826.76 1132.89 823.59 1114.01 870.2 1065.02"/>
    <polygon class="cls-22" points="831.15 1041.11 831.15 1047.93 765.45 1117.52 763.41 1109.69 831.15 1041.11"/>
    <polygon class="cls-27" points="716.5 1094.01 797.28 1011.74 803.53 1017.65 721.65 1099.92 716.5 1094.01"/>
    <polygon class="cls-22" points="803.53 1017.65 803.53 1025.13 724.14 1102.74 721.65 1099.92 803.53 1017.65"/>
    <polygon class="cls-27" points="691.15 1063.48 698.62 1072.61 775.82 994.94 768.15 986.1 691.15 1063.48"/>
    <polygon class="cls-22" points="775.82 994.94 775.82 1003.54 703.04 1077.95 698.62 1072.61 775.82 994.94"/>
    <polygon class="cls-27" points="673.82 1037.81 749.86 967.12 743.81 956.66 669.17 1027.93 673.82 1037.81"/>
    <polygon class="cls-22" points="749.86 967.12 749.86 975.26 680.8 1040.6 678.64 1033.33 749.86 967.12"/>
    <polygon class="cls-27" points="636.04 981.84 741.84 934.75 737.22 921.23 625.99 964.91 636.04 981.84"/>
    <polygon class="cls-22" points="741.84 934.75 741.84 943.14 642.49 992.75 646.86 977.03 741.84 934.75"/>
    <polygon class="cls-27" points="728 896.72 729.14 883.46 623.97 875.46 622.6 889.18 728 896.72"/>
    <polygon class="cls-22" points="728 896.72 728 905.64 622.6 899.01 647.94 890.99 728 896.72"/>
    <polygon class="cls-27" points="725.88 838.16 725.88 822.84 632.21 818.89 632.21 832.21 725.88 838.16"/>
    <polygon class="cls-22" points="725.88 838.16 725.88 844.56 635.57 839.76 642.43 832.86 725.88 838.16"/>
    <polygon class="cls-27" points="725.88 784.15 725.88 768.97 640.83 766.82 640.83 777.34 725.88 784.15"/>
    <polygon class="cls-22" points="725.88 784.15 725.88 790.14 641.59 784.15 640.83 777.34 725.88 784.15"/>
    <polygon class="cls-27" points="629.03 735.77 626.15 723.76 713.31 716.32 715.71 729.53 629.03 735.77"/>
    <polygon class="cls-22" points="715.71 729.53 715.71 737.93 629.03 742.97 629.03 735.77 715.71 729.53"/>
    <polygon class="cls-22" points="626.15 723.76 625.19 734.15 629.03 742.97 629.03 735.77 626.15 723.76"/>
    <polygon class="cls-27" points="609.69 684.59 601.65 671.59 701.08 655.98 705.19 670.28 609.69 684.59"/>
    <polygon class="cls-22" points="609.69 684.59 609.69 694.53 705.19 680.27 705.19 670.28 609.69 684.59"/>
    <polygon class="cls-22" points="601.65 671.59 601.65 681.61 609.69 694.53 609.69 684.59 601.65 671.59"/>
    <polygon class="cls-27" points="581.51 627.74 589.17 636.73 680.1 620.75 672.77 610.75 581.51 627.74"/>
    <polygon class="cls-22" points="581.51 627.74 581.51 640.54 589.85 647.67 589.17 636.73 581.51 627.74"/>
    <polygon class="cls-22" points="589.85 647.67 678.96 630.15 680.1 620.75 589.17 636.73 589.85 647.67"/>
    <polygon class="cls-27" points="554.68 584.31 561.44 592.7 651.53 577.55 644.27 567.11 554.68 584.31"/>
    <polygon class="cls-22" points="554.68 584.31 554.68 595.68 559.82 602.45 561.44 592.7 554.68 584.31"/>
    <polygon class="cls-22" points="559.82 602.45 651.53 586.48 651.53 577.55 561.44 592.7 559.82 602.45"/>
    <polygon class="cls-27" points="525.97 547.24 532.46 554.19 620.31 532.86 611.97 523.13 525.97 547.24"/>
    <polygon class="cls-22" points="525.97 547.24 524.81 554.19 531.76 560.68 532.46 554.19 525.97 547.24"/>
    <polygon class="cls-22" points="620.31 532.86 620.31 540.51 531.76 560.68 532.46 554.19 620.31 532.86"/>
    <polygon class="cls-27" points="493.01 501.69 500.09 509.22 596.59 486.22 587.75 476.54 493.01 501.69"/>
    <polygon class="cls-22" points="493.01 501.69 493.01 511.58 500.84 517.17 500.09 509.22 493.01 501.69"/>
    <polygon class="cls-22" points="500.84 517.17 596.59 496.8 596.59 486.22 500.09 509.22 500.84 517.17"/>
    <polygon class="cls-22" points="250.5 312.81 248.93 324.18 269.36 328.46 271 316.93 250.5 312.81"/>
    <polygon class="cls-27" points="271 316.93 223.57 232.24 206.1 232.98 250.5 312.81 271 316.93"/>
    <polygon class="cls-22" points="250.5 312.81 248.93 324.18 206.1 248.29 206.1 232.98 250.5 312.81"/>
    <polygon class="cls-22" points="295.59 318.22 310.08 319.62 310.08 329.75 295.59 329.75 295.59 318.22"/>
    <polygon class="cls-27" points="310.54 320.64 299.8 246.02 284.84 246.02 296.04 319.24 310.54 320.64"/>
    <polygon class="cls-22" points="296.04 330.77 282.21 259.71 284.84 246.02 296.04 319.24 296.04 330.77"/>
    <path class="cls-17" d="M87.77,46.86c-7.42,3.58-17.21,9.54-25.6,19.57-30.96,37.02-20.42,102.62-.68,136.53,48.92,84.05,177.7,13.54,326.04,98.49,65.89,37.73,103.7,89.91,179.32,194.26,59.11,81.57,100.92,139.27,124.3,226.19,32.09,119.28-6.59,159.53,29.89,235.7,23.85,49.81,77.62,110.32,211.25,150.79,3.55-2.34,7.09-4.68,10.64-7.02-38.83-9-89.75-27.28-138.34-65.66-29.85-23.57-71.69-56.62-85.13-111.4-6.33-25.8-1.82-37.89-1.13-73.58.91-37.95-2.15-95.05-24.23-159.17-13.59-39.47-31.43-68.81-66.57-125.89-38.55-62.63-78.51-126.73-146.04-196.3-43.24-44.55-65.13-66.3-100.08-84.68-66.63-35.04-140.19-38.85-163.47-39.85-48.54-2.08-71.94,5.17-104.6-12.91-11.07-6.13-38.73-23.75-52.98-58.64-1.92-4.7-15.52-39.29-3.85-74.26,2.62-7.84,8.58-25.71,25.36-38.26,2.19-1.64,4.11-2.85,5.42-3.62.16-3.43.32-6.86.48-10.29Z"/>
    <path class="cls-17" d="M89.32,43.28c-8.24,3.16-19.87,8.79-31,19.03-36.69,33.76-33.44,85.81-32.6,95.55,4.54,52.84,44.14,94.94,83.32,114.57,51.69,25.89,78.22.42,156.68,11.77,17.86,2.59,95.02,13.76,158.04,65.66,60.35,49.71,43.19,83.62,134.49,201.06,34.48,44.35,41.69,45.63,59.32,76.53,38.29,67.09,45.6,133.38,48.91,166.19,7.36,73.09-8.31,74.11,1.81,135.85,7.05,42.99,15.77,96.14,58.42,138.11,41.56,40.91,93.85,50.06,119.55,52.53-3.77,3.17-7.55,6.34-11.32,9.51-9.63-.92-23.49-3-39.4-8.15-75.34-24.42-111.05-90.34-116.38-100.53-21.08-40.36-22.81-77.16-24.91-121.81-2.51-53.42,7.52-52.22,3.51-100.76-1.11-13.42-6.15-65.33-32.94-125.65-14.6-32.87-30.01-55.51-34.87-62.49-17.09-24.52-26.16-30.95-44.38-52.53-12.02-14.24-30.67-44.55-67.47-104.6-43.08-70.3-45.58-74.41-54.79-83.32-34.32-33.2-72.95-47.03-90.11-52.98-33.14-11.49-60.83-13.79-81.96-15.4-53.06-4.04-62.86,5.93-101.43-1.36-16.21-3.06-45.53-8.61-73.81-29.89-39.11-29.43-63.63-79.5-61.13-129.51.74-14.76,2.39-47.8,27.62-75.17,16.74-18.16,36.43-25.75,47.22-28.97-.13,2.26-.25,4.51-.38,6.77Z"/>
    <polygon class="cls-22" points="82.81 71.14 87.14 66.41 87.14 60.58 82.81 65.56 82.81 71.14"/>
    <path class="cls-11" d="M276.13,273.4s-12.26,15.09,2.96,19.19c15.23,4.1,20.71-12.39,20.71-12.39l-23.67-6.8Z"/>
    <path class="cls-11" d="M381.05,309.31s-12.26,15.09,2.96,19.19c15.23,4.1,20.71-12.39,20.71-12.39l-23.67-6.8Z"/>
    <path class="cls-11" d="M436.83,343.2s-18.31,6.56-7.41,17.95c10.9,11.39,24.13.12,24.13.12l-16.73-18.07Z"/>
    <path class="cls-11" d="M490.36,413.97s-22.62,9.08-14.14,22.96,26.97-.92,26.97-.92l-12.84-22.04Z"/>
    <g>
      <path class="cls-7" d="M419.1,332.76c14.23,13.25,29.67,29.44,44.96,48.93,23.06,29.4,39.11,57.86,50.31,81.64,2.12,2.72,5.87,6.53,11.08,7.16,5.06.62,9.23-2.03,11.22-3.37,9-6.02,36.64-27.35,73.42-57.15.87-.68,3.82-3.16,4.75-7.55,1.16-5.5-1.77-9.69-2.26-10.37-7.13-12.17-14.25-24.34-21.38-36.52-15.67-20.08-35.87-42.77-61.45-65.46-34.33-30.45-67.97-51.69-95.54-66.36-5.04,36.35-10.07,72.69-15.11,109.04Z"/>
      <path class="cls-6" d="M411.68,326.03c.62,1.17,2.81,4.99,7.42,6.74,4.91,1.86,10.64.65,14.9-3.07,10.57-20.34,21.13-40.68,31.7-61.02.72-1.33,3.03-5.95,1.98-11.99-1.08-6.14-4.93-9.73-6.06-10.71-9.14-7.41-18.27-14.83-27.41-22.24-1.53-.56-3.97-1.25-7.02-1.21-3.81.05-6.73,1.22-8.32,1.99-2.4,33.84-4.79,67.68-7.19,101.52Z"/>
      <path class="cls-18" d="M481.21,275.38c17.08,12.43,36.23,28.25,55.66,48.09,24.35,24.86,42.58,49.37,56.03,70.28"/>
      <path class="cls-9" d="M473.62,295.76c2.04-3.1,6.13-4.08,9.36-2.25,3.73,2.11,7.82,4.77,12.01,8.13,4.67,3.74,8.48,7.57,11.55,11.08,2.47,2.84,2.23,7.13-.51,9.71-3.08,2.9-6.15,5.8-9.23,8.7-2.98,2.81-7.69,2.47-10.29-.69s-5.35-6.16-8.68-9.34c-2.88-2.74-5.71-5.14-8.42-7.22-2.9-2.23-3.55-6.34-1.54-9.4s3.82-5.82,5.74-8.73Z"/>
      <path class="cls-6" d="M481.49,369.37c5.64,10.18,11.29,20.35,16.93,30.53,13.84-12.16,27.69-24.32,41.53-36.48-.06-2.44-.56-10.56-6.73-17.96-5.64-6.77-12.68-8.91-15.15-9.54-12.19,11.15-24.38,22.3-36.58,33.45Z"/>
      <path class="cls-9" d="M540.86,388.25c-2.56,2.9-2.28,7.3.58,9.89,2.75,2.49,5.71,5.57,8.58,9.32,2.51,3.28,4.5,6.5,6.08,9.46,2.05,3.85,7.03,4.97,10.49,2.32,3.19-2.44,6.38-4.87,9.58-7.31,2.83-2.16,3.58-6.08,1.79-9.16-2.2-3.8-4.98-7.97-8.47-12.25-3.8-4.65-7.66-8.47-11.23-11.55-2.9-2.51-7.3-2.19-9.84.69l-7.57,8.58Z"/>
      <path class="cls-16" d="M490.33,384.4c14.78-12.35,29.56-24.7,44.33-37.05"/>
      <path class="cls-9" d="M505.32,354.42l10.24-8.24c.93-.75,2.22-.88,3.29-.32l2.24,1.18c1.94,1.02,2.17,3.7.44,5.04l-11.09,8.57c-1.23.95-2.99.81-4.05-.34l-1.38-1.5c-1.18-1.28-1.03-3.29.33-4.38Z"/>
      <path class="cls-9" d="M516.54,373.16h0c1.02,1.46,3.08,1.72,4.43.56l10.9-9.37c.81-.7,1.19-1.78.99-2.84l-.14-.72c-.44-2.33-3.28-3.26-5.01-1.64l-10.76,10.1c-1.09,1.02-1.26,2.69-.41,3.91Z"/>
    </g>
    <g>
      <path class="cls-7" d="M241.96,170.44c26.78,4.08,56.55,10.05,88.51,18.83,32.84,9.02,62.21,19.41,87.85,29.89,15.4,11.39,27.2,20.44,34.11,25.66,1.77,1.34,5.4,4.08,6.04,8.45.46,3.18-.85,5.95-1.81,7.55-11.77,19.72-23.55,39.45-35.32,59.17-.61.87-3.85,5.26-9.66,6.04-3.11.42-5.63-.38-6.94-.91-25.14-14.88-47.51-23.64-64.08-28.98-12.98-4.18-38.51-12.41-71.55-15.62-9.9-.96-14.72-.92-23.09-3.17-21.28-5.72-36.46-18.48-46.19-28.75-1.29-2.73-3-7.29-3.17-13.13-.27-9.24,3.49-16.04,5.22-18.79"/>
      <path class="cls-9" d="M203.23,230.67c13.34,10.72,26.67,21.43,40.01,32.15,2.25.46,10.51,1.96,19.58-.55,6.33-1.75,9.95-4.61,11.49-5.99,7.66-16.17,15.32-32.33,22.98-48.5.81-.92,3.51-4.25,2.13-8.45-1.98-6.01-10.62-8.48-11.49-8.72-14.47-6.18-28.94-12.35-43.41-18.53-.98-.21-5.16-1.03-9.79.27-5.09,1.43-6.92,4.36-7.24,4.9-8.23,12.81-16.46,25.61-24.69,38.42-1.08,2.36-2.19,6.01-1.28,10.35.37,1.77,1.01,3.32,1.7,4.63Z"/>
      <path class="cls-9" d="M300.59,222.56l-2.24,11.52c-.61,3.13,1.31,6.19,4.39,7l26.38,6.97c3.65.96,7.43-1.02,8.72-4.57l3.9-10.74c1.23-3.4-.77-7.12-4.3-7.95l-29.53-6.96c-3.34-.79-6.67,1.36-7.32,4.73Z"/>
      <path class="cls-9" d="M394.46,264.59c2.18-3.23,4.81-7.28,6.72-10.23,1.49-2.31,4.44-3.18,6.94-2.06l21.02,9.38c3.1,1.38,4.25,5.19,2.44,8.06-2.13,3.36-5.03,7.54-7.15,10.53-1.61,2.27-4.59,3.07-7.11,1.92-5.39-2.46-14.63-6.68-20.59-9.45-3.1-1.44-4.18-5.31-2.27-8.15Z"/>
      <path class="cls-21" d="M306.25,204.09s76.98,12.68,142.19,51.4"/>
      <path class="cls-6" d="M330.77,283.71c-.15-1.06,23.55-51.47,23.55-51.47,4.87.09,12.64.84,21.28,4.53,6.72,2.86,11.67,6.52,14.94,9.36-8.3,17.21-16.6,34.42-24.91,51.62l-34.87-14.04Z"/>
      <line class="cls-16" x1="348.04" y1="290.66" x2="373.94" y2="236.09"/>
      <path class="cls-9" d="M347.89,261.32l8.67-19.39c.58-1.29,1.94-2.03,3.34-1.81l2.18.34c2.04.32,3.21,2.51,2.35,4.38l-9.06,19.74c-.69,1.5-2.43,2.21-3.97,1.61l-1.79-.7c-1.66-.65-2.45-2.55-1.72-4.18Z"/>
      <path class="cls-9" d="M366.5,271.33l3.29,1.72c1.62.85,3.62.12,4.33-1.57l7.92-19.08c.51-1.22.19-2.63-.8-3.52l-2.29-2.05c-1.57-1.4-4.04-.89-4.92,1.02l-8.92,19.41c-.7,1.51-.08,3.3,1.39,4.07Z"/>
    </g>
    <path class="cls-21" d="M494.85,435.6c-1.73,2.49-4.69,3.77-7.58,3.28-3.86-.65-5.52-4.12-5.66-4.42"/>
    <path class="cls-21" d="M483.64,425.52c1.09-.98,2.19-1.96,3.28-2.94"/>
    <path class="cls-21" d="M443.11,362.24c-1.31-.02-3.65-.23-6.23-1.47-2.37-1.14-3.92-2.66-4.75-3.62"/>
    <path class="cls-21" d="M381.87,321.71c.46.61,1.59,1.91,3.51,2.6,3.05,1.1,5.73-.2,6.23-.45"/>
    <path class="cls-21" d="M278.51,285.37c.06.32.55,2.59,2.6,3.62,2.02,1.02,4.72.42,6.45-1.58"/>
    <path class="cls-21" d="M243.76,255.03c1.06.87,3.05,2.26,5.89,2.83,5.37,1.08,9.6-1.64,10.53-2.26"/>
    <path class="cls-21" d="M311.68,237.14c-2.12.43-4.02-.91-4.3-2.6-.21-1.27.51-2.65,1.81-3.4"/>
    <path class="cls-21" d="M412.77,273.71c1.24,2.84,4.25,4,6.34,3.06,1.44-.65,2.38-2.26,2.49-4.08"/>
    <path class="cls-21" d="M477.76,303.48c.37-1.93,1.49-3.38,2.72-3.51,1.4-.14,2.56,1.48,3.51,2.83.79,1.12,1.23,2.19,1.47,2.94"/>
    <path class="cls-21" d="M489.08,325.67c.27,1.51,1.61,2.57,3.06,2.49,1.3-.07,2.43-1.04,2.72-2.38"/>
    <path class="cls-21" d="M551,386.47c.26-.36,2.09-2.82,4.53-2.6.95.08,1.63.54,2.49,1.13.91.62,2.37,1.82,3.62,3.96"/>
    <path class="cls-21" d="M559.49,412.28c-.03,1.46.98,2.74,2.38,3.06,1.44.33,2.93-.44,3.51-1.81"/>
    <path class="cls-21" d="M604.89,391.67c1.08,1.59,2.72,4.46,3.28,8.38.32,2.2.2,4.11,0,5.55"/>
    <path class="cls-21" d="M472.1,253.9c.6,3.09,1.21,6.19,1.81,9.28"/>
    <path class="cls-21" d="M450.25,250.5c1.13,1.25,2.26,2.49,3.4,3.74"/>
    <path class="cls-21" d="M296.85,190.39c.53.14,4.2,1.17,5.77,4.75.84,1.91.7,3.67.57,4.53"/>
    <path class="cls-21" d="M226.32,191.3c.09-1.2.53-5.29,3.85-8.83,3-3.21,6.57-4.06,7.81-4.3"/>
    <path class="cls-21" d="M287.79,195.82c.86.23,2.89.91,4.19,2.83,1.83,2.71,1.44,6.78-1.13,9.96"/>
    <path class="cls-21" d="M222.36,262.28c-3.97-2.32-9.33-6.16-14.15-12.23-2.17-2.74-3.83-5.41-5.09-7.81"/>
    <line class="cls-21" x1="284.06" y1="249.6" x2="287.79" y2="239.52"/>
    <line class="cls-21" x1="275.11" y1="238.84" x2="280.32" y2="228.99"/>
    <line class="cls-21" x1="238.55" y1="212.47" x2="243.76" y2="223.72"/>
    <line class="cls-21" x1="244.44" y1="207.71" x2="250.5" y2="219.94"/>
    <line class="cls-21" x1="236.51" y1="219.94" x2="254.62" y2="205.11"/>
    <line class="cls-21" x1="239.45" y1="223.72" x2="251.96" y2="211.67"/>
    <line class="cls-21" x1="291.64" y1="279.37" x2="310.54" y2="283.33"/>
    <path class="cls-21" d="M350.85,274.58c-.79.37-3.24,6.77-3.24,6.77l-5.51.51"/>
    <polyline class="cls-21" points="359.23 291.37 364.7 292.59 370.69 282.72"/>
    <path class="cls-21" d="M377.79,242.24c.68,1.02,5.29,3.06,5.29,3.06"/>
    <line class="cls-21" x1="361.94" y1="237.23" x2="367.83" y2="238.84"/>
    <line class="cls-21" x1="409.38" y1="231.14" x2="417.19" y2="236.09"/>
    <path class="cls-21" d="M387.98,212.47c0,.23,23.7,8.49,23.7,8.49"/>
    <line class="cls-21" x1="343.83" y1="208.62" x2="353.91" y2="210.2"/>
    <polyline class="cls-21" points="401 315.94 408.93 320.64 420.93 309.31"/>
    <path class="cls-21" d="M448.44,292.59c-.34-.09-9.74,17.46-9.74,17.46"/>
    <line class="cls-21" x1="460.44" y1="367.91" x2="482.28" y2="398.13"/>
    <polyline class="cls-21" points="497.11 387.03 499.27 390.99 503.19 385.79"/>
    <polyline class="cls-21" points="488.76 373.9 487.24 370.05 492.93 366.39"/>
    <path class="cls-21" d="M534.66,341.07s10.34,9.5,9.32,20.2"/>
    <line class="cls-21" x1="532.91" y1="299.97" x2="545.45" y2="312.81"/>
    <line class="cls-21" x1="528.81" y1="465.98" x2="557.57" y2="446.01"/>
    <path class="cls-21" d="M543.19,407.18c.57.45,5.66,8.23,5.66,8.23"/>
    <path class="cls-21" d="M581.91,398.64c0,.28,7.36,10.81-1.36,17.26"/>
    <line class="cls-21" x1="504.2" y1="331.77" x2="514.66" y2="324.75"/>
    <polyline class="cls-21" points="583.49 354.73 587.79 361.27 592.21 367.91"/>
    <line class="cls-21" x1="436.21" y1="333.66" x2="445.6" y2="319.24"/>
    <line class="cls-21" x1="467.95" y1="321.71" x2="474.81" y2="328.17"/>
    <path class="cls-21" d="M494.28,400.84s-.79,7.36,3.96,3.74l4.75-3.62"/>
    <path class="cls-21" d="M433.72,259.11c-.23-.34,7.92,5.21,1.81,11.89"/>
    <line class="cls-21" x1="314.4" y1="190.39" x2="329.79" y2="194.47"/>
    <line class="cls-21" x1="570.93" y1="369.6" x2="576.36" y2="376.62"/>
    <line class="cls-21" x1="509.43" y1="435.82" x2="514.1" y2="447.37"/>
    <line class="cls-21" x1="526.55" y1="433.9" x2="525.97" y2="416.46"/>
    <line class="cls-21" x1="534.13" y1="422.58" x2="534.66" y2="433.45"/>
    <line class="cls-21" x1="521.23" y1="428.42" x2="544.8" y2="428.42"/>
    <path class="cls-21" d="M521.79,422.58c.68-.34,21.85,1.47,21.85,1.47"/>
    <line class="cls-21" x1="543.19" y1="504.54" x2="556.77" y2="500.92"/>
    <line class="cls-21" x1="546.81" y1="491.64" x2="553.15" y2="491.07"/>
    <polyline class="cls-21" points="583.83 481.56 587.11 481.79 588.93 484.05"/>
    <line class="cls-21" x1="588.36" y1="493.9" x2="593.34" y2="492.88"/>
    <line class="cls-21" x1="499.38" y1="503.75" x2="501.53" y2="505.56"/>
    <path class="cls-21" d="M468.28,459.94s-.48,3.51,3.08,2.38l3.57-1.13"/>
    <line class="cls-21" x1="503" y1="463.67" x2="505.72" y2="462.31"/>
    <polyline class="cls-21" points="564.13 456 569.23 454.62 569.45 452.58"/>
    <path class="cls-21" d="M445.6,420.69c.57.75-2.83,4.94,2.83,2.85"/>
    <line class="cls-21" x1="451.38" y1="431.75" x2="458.06" y2="430.73"/>
    <path class="cls-21" d="M477.87,413.35c-.23.17,2.49,0,2.49,0l1.47-1.3"/>
    <path class="cls-21" d="M424.77,392.47c0-.34,6.57-3.51,6.57-3.51"/>
    <line class="cls-21" x1="421.72" y1="383.02" x2="425.96" y2="380.58"/>
    <line class="cls-21" x1="382.28" y1="356.01" x2="387.76" y2="358.73"/>
    <line class="cls-21" x1="395.45" y1="356.01" x2="399.87" y2="353.97"/>
    <line class="cls-21" x1="385.49" y1="346.28" x2="389.91" y2="350.01"/>
    <path class="cls-21" d="M347.61,335.07c.29-.34,3.24-5.32,3.24-5.32"/>
    <line class="cls-21" x1="337.27" y1="333.04" x2="342.1" y2="337.11"/>
    <line class="cls-21" x1="358.55" y1="305.75" x2="362.51" y2="307.56"/>
    <path class="cls-21" d="M302.84,326.92c.13,0,3.86-.79,3.86-.79"/>
    <path class="cls-21" d="M305.45,312.43s6.11,6.06.57,4.5l-5.55-1.56"/>
    <line class="cls-21" x1="256.44" y1="320.01" x2="264.81" y2="323.98"/>
    <line class="cls-21" x1="259.97" y1="305.3" x2="263.68" y2="311.18"/>
    <line class="cls-21" x1="243.19" y1="305.3" x2="247.47" y2="313.79"/>
    <line class="cls-21" x1="223.6" y1="273.4" x2="225.64" y2="276.65"/>
    <path class="cls-21" d="M183.01,276.65s.54-21.62-2.75-21.62h-3.29"/>
    <line class="cls-21" x1="176.51" y1="237.23" x2="177.53" y2="240.09"/>
    <path class="cls-21" d="M184.32,308.24s-2.49,3.74,2.38,3.63l4.87-.11"/>
    <line class="cls-21" x1="184.21" y1="322" x2="194.96" y2="320.64"/>
    <polyline class="cls-21" points="122.51 312.81 127.6 312.81 128.4 309.54"/>
    <line class="cls-21" x1="120.47" y1="299.64" x2="117.98" y2="296.47"/>
    <line class="cls-21" x1="132.13" y1="277.33" x2="130.55" y2="258.11"/>
    <path class="cls-21" d="M129.64,235.67s-3.74-5.89.91-4.53l4.64,1.36"/>
    <polyline class="cls-21" points="84.93 251.3 90.25 241.22 84.81 237.23"/>
    <polyline class="cls-21" points="94.32 215.41 97.49 209.64 101.91 213.37"/>
    <line class="cls-21" x1="64.77" y1="284.13" x2="70.89" y2="284.01"/>
    <path class="cls-21" d="M27.64,233.31c0,.67.68,5.35.68,5.35l6.47-4.91"/>
    <line class="cls-21" x1="55.72" y1="219.14" x2="62.03" y2="213.94"/>
    <line class="cls-21" x1="46.77" y1="209.64" x2="54.59" y2="204.09"/>
    <polyline class="cls-21" points="24 221.52 25.94 225.82 31.04 223.67"/>
    <path class="cls-21" d="M33.53,175.11c.34-.11,6.68-3.96,6.68-3.96"/>
    <path class="cls-21" d="M8.17,186.77c.11.34,1.7,2.6,1.7,2.6l4.42-2.6"/>
    <path class="cls-21" d="M30.02,139.33c0-.34,6.6-.45,6.6-.45"/>
    <line class="cls-21" x1="56.28" y1="137.18" x2="56.28" y2="132.54"/>
    <path class="cls-21" d="M7.49,138.2c-.23.34-5.17,3.74-.78,3.74h4.4"/>
    <path class="cls-21" d="M40.21,94.39c.11.23,3.28,1.22,3.28,1.22"/>
    <line class="cls-21" x1="60.81" y1="97.11" x2="59.26" y2="101.07"/>
    <path class="cls-21" d="M17.34,94.39s-1.13-3.51,1.42-2.38l2.55,1.13"/>
    <polyline class="cls-21" points="38.96 65.86 36.62 64.5 38.85 63.94"/>
    <line class="cls-21" x1="55.51" y1="71.75" x2="54.81" y2="69.26"/>
    <line class="cls-21" x1="71.32" y1="77.32" x2="73.54" y2="77.32"/>
    <path class="cls-21" d="M531.76,549.22s1.88,2.11,2.33,1.43l.45-.68"/>
    <line class="cls-21" x1="563.6" y1="543.94" x2="579.45" y2="538.66"/>
    <polyline class="cls-21" points="608.51 527.71 611.53 527.86 613.79 530.96"/>
    <line class="cls-21" x1="583" y1="545.67" x2="587.68" y2="543.94"/>
    <polyline class="cls-21" points="562.62 585.9 565.64 588.47 567.6 587.94"/>
    <line class="cls-21" x1="598.1" y1="584.31" x2="610.4" y2="581.14"/>
    <line class="cls-21" x1="611.15" y1="577.22" x2="616.36" y2="576.62"/>
    <line class="cls-21" x1="609.49" y1="590.65" x2="621.27" y2="588.47"/>
    <polyline class="cls-21" points="637.94 571.18 642.7 571.18 644.81 574.43"/>
    <path class="cls-21" d="M565.11,595.79s-4.68,4.6,0,2.87l4.68-1.74"/>
    <polyline class="cls-21" points="557.49 594.5 558.77 596.92 558.4 593.38"/>
    <path class="cls-21" d="M585.11,639.56s3.32,6.79,2.64,2.26l-.68-4.53"/>
    <line class="cls-21" x1="597.19" y1="643.38" x2="605.67" y2="641.75"/>
    <line class="cls-21" x1="628.51" y1="637.71" x2="651" y2="632.16"/>
    <polyline class="cls-21" points="667.91 626.35 669.57 628.54 675.38 627.03"/>
    <path class="cls-21" d="M665.94,620.16c.53,0,6.19-1.06,6.19-1.06l-1.13-5.81"/>
    <line class="cls-21" x1="645.72" y1="619.48" x2="626.4" y2="623.74"/>
    <line class="cls-21" x1="590.7" y1="628.92" x2="595.53" y2="627.74"/>
    <polyline class="cls-21" points="609.49 675.48 612.59 679.33 618.62 679.03"/>
    <line class="cls-21" x1="647.98" y1="668.84" x2="658.85" y2="666.13"/>
    <line class="cls-21" x1="664.28" y1="671.59" x2="668.51" y2="670.75"/>
    <polyline class="cls-21" points="690.62 661.14 696.96 660.24 699.45 664.83"/>
    <polyline class="cls-21" points="696.36 678.73 701.11 677.41 701.87 674.43"/>
    <line class="cls-21" x1="672.13" y1="681.9" x2="660.28" y2="683.48"/>
    <line class="cls-21" x1="625.19" y1="689.6" x2="617.27" y2="688.92"/>
    <path class="cls-21" d="M632.06,728.01s.15,5.21,3.47,3.77l3.32-1.43"/>
    <line class="cls-21" x1="663.3" y1="730.02" x2="676.74" y2="728.01"/>
    <line class="cls-21" x1="677.72" y1="723.26" x2="684.59" y2="723.26"/>
    <polyline class="cls-21" points="707.76 720.77 709.34 721.97 710.32 726.05"/>
    <line class="cls-21" x1="681.15" y1="736.92" x2="687.53" y2="736.77"/>
    <line class="cls-21" x1="637.11" y1="740.09" x2="642.32" y2="740.24"/>
    <polyline class="cls-21" points="644.89 771.03 644.96 774.2 650.77 774.6"/>
    <line class="cls-21" x1="680.66" y1="772.82" x2="691.3" y2="771.48"/>
    <polyline class="cls-21" points="718.47 779.48 721.79 780.31 721.49 776.31"/>
    <line class="cls-21" x1="680.66" y1="784.77" x2="689.94" y2="784.77"/>
    <line class="cls-21" x1="672.89" y1="831.33" x2="685.98" y2="832.86"/>
    <line class="cls-21" x1="691.98" y1="826.28" x2="699.3" y2="826.28"/>
    <polyline class="cls-21" points="721.79 826.58 722.93 828.24 722.85 831.33"/>
    <line class="cls-21" x1="691.53" y1="840.31" x2="698.77" y2="840.47"/>
    <polyline class="cls-21" points="700.21 888.24 699.38 882.88 694.32 884.09 687.3 881.75"/>
    <polyline class="cls-21" points="720.89 885.67 725.11 886.77 724.89 892.09"/>
    <line class="cls-21" x1="691.98" y1="900.69" x2="700.21" y2="900.31"/>
    <line class="cls-21" x1="722.36" y1="899.26" x2="725.88" y2="900.31"/>
    <line class="cls-21" x1="693.81" y1="944.13" x2="702.02" y2="940.46"/>
    <path class="cls-21" d="M731.45,933.82c.45-.23,5.21-.57,5.21-.57l-4.3-10.12"/>
    <polyline class="cls-21" points="741.84 964.84 745.38 962.58 746.85 966.2"/>
    <line class="cls-21" x1="713.57" y1="995.52" x2="721.65" y2="989.75"/>
    <line class="cls-21" x1="718.89" y1="1000.96" x2="725.88" y2="994.94"/>
    <line class="cls-21" x1="729.14" y1="1032.43" x2="735.98" y2="1023.82"/>
    <path class="cls-21" d="M749.86,1011.26s-.07-5.43,2.2-1.7l2.26,3.74"/>
    <polyline class="cls-21" points="765.64 993.71 768.59 990.88 771.53 994.05"/>
    <line class="cls-21" x1="741.84" y1="1034.58" x2="744.35" y2="1030.73"/>
    <line class="cls-21" x1="758.74" y1="1066.3" x2="781.72" y2="1044.09"/>
    <line class="cls-21" x1="770.23" y1="1044.65" x2="776.4" y2="1037.81"/>
    <path class="cls-21" d="M793.94,1020.77c-.34,0,1.7-3.96,3.34-3.62l1.64.34"/>
    <line class="cls-21" x1="779.73" y1="1083.47" x2="787.99" y2="1073.17"/>
    <polyline class="cls-21" points="820.82 1042.61 823.54 1040.57 825.46 1042.61"/>
    <line class="cls-21" x1="800.56" y1="1067.29" x2="806.1" y2="1060.2"/>
    <line class="cls-21" x1="789.46" y1="1089.36" x2="794.9" y2="1084.27"/>
    <polyline class="cls-21" points="841.09 1086.08 846.25 1079.31 849.58 1081.44"/>
    <polyline class="cls-21" points="862.71 1064.23 864.63 1066.3 861.8 1069.55"/>
    <line class="cls-21" x1="856.71" y1="1087.55" x2="858.18" y2="1085.51"/>
    <g>
      <path class="cls-14" d="M455.23,226.78c-1.01,3.07-2.01,6.14-3.02,9.21-5.74-1.81-11.47-3.62-17.21-5.43.22-1.3.73-2.94,1.92-4.43,2.61-3.28,7.44-4.53,12.42-3.42"/>
      <path class="cls-14" d="M434.09,217.1c-1.01,3.07-2.01,6.14-3.02,9.21-5.74-1.81-11.47-3.62-17.21-5.43.22-1.3.73-2.94,1.92-4.43,2.61-3.28,7.44-4.53,12.42-3.42"/>
      <path class="cls-33" d="M445.62,114.48c.28.31.7.82,1.03,1.54.89,1.96.07,3.24.62,5.12.04.15.69,2.26,2.42,3.28,1.94,1.14,4.75.64,7.14-1.11-.03.53-.13,1.3-.42,2.17-.38,1.13-.71,1.32-.75,1.76-.17,1.68,4,4.57,8.39,4.33.81-.04,4.33-.24,6.01-2.77,1.13-1.71.94-3.8.69-6.57-.18-1.99-.5-2.25-.67-4.31-.19-2.4.07-4.09.22-5.31.11-.97.65-6.04-.27-10.2-.35-1.62-2.12-8.53-6.91-10.12-2.35-.78-3.16.47-8.58,1.5-8.48,1.61-11.14-.57-13.38,1.76-2.11,2.21-1.46,5.96-.38,12.17.54,3.12,1.28,7.35,3.08,7.59,1.66.22,3.4-3.05,3.96-4.18"/>
      <path class="cls-8" d="M470.07,85.91c-.17-.52-.51-1.35-1.15-2.18-1.26-1.61-2.55-1.79-3.23-3.21-.23-.49-.48-1.29-.28-2.52-1.19.64-1.98,1.35-2.49,1.91-.85.94-1,1.53-1.68,1.67-.87.19-1.32-.5-2.47-.69-1.23-.21-1.75.46-3.1.82-1.66.45-1.98-.23-5.94-.66-2.59-.28-3.9-.41-4.76.28-.64.51-.36.77-1.8,3.1-.84,1.37-1.17,1.65-1.17,2.31,0,1.38,1.38,2.36,1.55,2.48,1.36.93,2.96.69,4.01.52,2.02-.31,1.94-.98,3.57-1.2,2.1-.28,2.82.75,5.25.79,1.51.03,2.79-.34,3.73-.73"/>
      <path class="cls-33" d="M432.09,109.62c-.98-.49-1.52-.32-1.72-.23-1.08.49-1.49,2.74-.6,5.57"/>
      <path class="cls-33" d="M437.5,110.88c.27-2.18.6-6.09-.23-8.3-.13-.34-.43-1.14-.89-1.17-.18-.01-.57.08-1.17,1.37-.49,1.05-1.13,2.92-1.11,5.92-.34.03-1.29.16-2,.92-.91.97-1.06,2.57-.34,3.98"/>
      <path class="cls-30" d="M434.04,216.66c-.46.07-1.4.19-2.57.2-7.82.1-16.62-4.48-16.7-8.99-.02-1.13.51-1.96.99-2.7,0,0,5.84-9.18,12.8-22.75.79-1.54,1.99-4.01,3.26-7.18,4.65.15,11.6.91,19.44,3.88,8.12,3.08,13.96,7.31,17.57,10.36-2.83,12.95-5.67,25.9-8.5,38.86-5.28,1.52-9.17.7-10.98.16-4.68-1.39-8.21-4.62-11.13-7.29-.92-.84-1.65-1.59-2.16-2.11"/>
      <path class="cls-30" d="M437.8,220.37c-1.48-.68-2.96-1.36-4.44-2.04,2.41-8.99,4.82-17.98,7.23-26.97"/>
      <path class="cls-5" d="M468.35,192.69c1.02-.16,2.4-.56,3.2-1.69.96-1.36.61-3.12.53-3.58-.82-4.96,3.77-16.22,4.62-32.42.43-8.09,1.09-20.63-4.32-23.08-2.31-1.05-4.35.38-9.2-.91-3.39-.9-5.93-2.53-7.54-3.77-3.45,6.47-7.07,13.04-10.89,19.7-5.77,10.07-11.58,19.67-17.38,28.81.41,1.11,1.19,2.64,2.71,3.71,4.81,3.37,10.62-2.49,19.24-.43.97.23,3.74,1.72,9.29,4.68,4.37,2.33,7.94,4.34,10.44,5.76-.23,1.07-.47,2.14-.7,3.21Z"/>
      <path class="cls-33" d="M464.78,154.92l-1.08,3.08c-4.41-1.02-9.02-2.21-13.78-3.58-4.95-1.43-9.65-2.94-14.07-4.48-.08-.84-.75-1.47-1.49-1.47-.57,0-1.11.36-1.37.92-.67-.48-1.56-.23-1.87.36-.3.58,0,1.43.76,1.71l.22.07c-.83-.31-1.63-.08-1.92.43-.24.43-.05.93.01,1.07.26.6.94.98,1.73.98-.81.06-1.5.47-1.73,1.07-.42,1.11.99,2.19,1.06,2.24,1.47,1.09,3.49.16,3.6.11,19.18,6.28,27.35,9.9,30.33,12.07.63.46,3.09,2.36,4.94,1.54,1.07-.47,1.5-1.65,1.83-2.58.82-2.33,1.87-5.59,2.97-9.72"/>
      <path class="cls-33" d="M438.72,143.48c-.76.35-1.88.81-3.27,1.24-3.12.96-6.22,1.91-7.59.72-.84-.73-.72-2,.6-8.45,1.41-6.86,2-8.91,2.21-12.23.17-2.69.02-4.87-.12-6.18-.34-.13-1.25-.52-1.73-1.46-.75-1.47-.1-3.57,1.43-4.34,1.26-.63,2.57-.07,2.79.02.15-1.18.9-2.17,1.94-2.56,1.71-.63,3.16.76,3.26.85,1.41,1.38,1.24,3.86.16,5.4-.78,1.11-1.91,1.54-2.39,1.69-.23,1.01-.49,2.51-.45,4.35.05,2.33.55,3.69.86,5.42.32,1.77.53,4.34-.09,7.67.99-.37,1.97-.75,2.96-1.12-.19,2.99-.38,5.98-.57,8.97Z"/>
      <path class="cls-33" d="M436.02,112.43c-.09,1.03-.44,1.73-.68,2.12-.24.39-.45.71-.84.86-.55.2-1.29,0-1.68-.54-.43-.59-.35-1.49.24-2.07"/>
      <path class="cls-5" d="M465.17,138.61c-1.36,4.85-2.73,9.71-4.09,14.56,1.4,1.37,6.48,6.02,13.59,5.63,1.9-.11,2.99-.17,4.03-.97,5.81-4.51-2.23-23.44-3.67-26.83-1.53-3.61-3.08-6.49-4.21-8.46-.46,1.48-1.16,2.47-1.76,3.11-2.81,3.03-8.09,3.57-13.41,1.6.28-.65.56-1.31.84-1.96-6.22,2.43-12.43,4.85-18.65,7.28-.36.46-.75,1.12-.6,1.78.16.71.8.82,1.21,1.33,1.31,1.61-1.66,4.72-1.17,8.51.13,1.02.23,2.34,1.12,2.96,1.52,1.06,4.72-.28,8.2-3.42"/>
      <path class="cls-33" d="M463.33,115.2c.02.84-.08,1.92-.52,3.06-1.47,3.79-5.45,5.06-6.12,5.26"/>
      <path class="cls-33" d="M447.26,116.73c.68-.11,1.72-.37,2.78-1.04,2.06-1.3,2.84-3.27,3.08-3.97"/>
      <path class="cls-19" d="M446.74,106.76c.86.76,2.35.67,3.33.09,1.89-1.11,2.34-4.28.91-5.57-.78-.7-2.03-.78-2.94-.38-2.09.92-2.78,4.54-1.3,5.86Z"/>
      <path class="cls-31" d="M450.76,97.23c.68,1-.75,3.2-2.02,4.47-1.65,1.65-4.56,3.18-5.54,2.29-.95-.86.06-3.9,1.79-5.63.36-.36,2.05-1.97,4.22-1.75.51.05,1.21.13,1.54.62Z"/>
      <path class="cls-8" d="M474.71,95.66c.3-.53.81-1.62.7-2.98-.12-1.56-.99-2.62-1.73-3.51-.99-1.19-2.02-1.9-3.52-2.81-3.5-2.13-5.21-3.27-6.2-3.31-3.07-.14-5.48,2.62-6.32,3.68.02-.58-.02-1.55-.5-2.61-.22-.48-1.3-2.72-3.63-3.15-1.8-.33-3.53.57-4.5,1.6-1.47,1.56-.93,3.14-2.45,4-.11.06-1.33.73-2.61.18-1.48-.63-1.77-2.33-1.8-2.46-.46.39-1.13,1.07-1.38,2.06-.44,1.76.84,2.9.17,4.22-.48.96-1.29.64-1.85,1.71-.74,1.44.11,3.2.29,3.58.35.73.64,1.34,1.24,1.53,1.06.34,1.79-1.04,3.65-1.82.97-.41,2.34-.35,5.07-.24,2.7.11,4.06.17,5.56.63,1.87.58,2.46,1.2,3.72,1.04,1.57-.2,2.09-2.11,2.99-1.86.41.12.74.61.8,1.07.2,1.6-2.9,2.53-2.74,4.05.05.52.44.68,1.56,1.65,0,0,1.94,1.69,3.38,3.56.65.85,1.18,2.01,2.23,4.34,1.41,3.11,1.68,4.25,2.44,4.31.62.05.75-.69,2.46-1.95.96-.71,1.82-1.13,2.5-1.47,2.22-1.1,2.72-.83,3.28-1.47.45-.52.45-1.06-.06-4.99-.99-7.53-.52-2.05-1.77-7.34-.06-.25-.19-.8-.64-1.07-.57-.34-1.32-.04-1.64.1"/>
      <path class="cls-19" d="M448.5,105.86c.16-.04.28-.24.27-.43-.02-.27-.32-.46-.56-.4-.1.02-.23.1-.27.22-.09.27.28.68.56.61Z"/>
    </g>
    <g>
      <path class="cls-24" d="M436.51,165.56c.52,1.04,1.27,2.72,1.82,4.89.49,1.94,1.57,6.17.03,7.16-.65.42-1.73.25-2.39-.34-.94-.83-.69-2.21-.67-2.3.7,2.06.39,3.72-.44,4.13-.55.27-1.22-.07-1.32-.12-.98-.5-1.5-1.84-1.21-3.37.41,1.79-.11,3.2-.89,3.45-.66.21-1.47-.44-1.85-.92-1.14-1.41-.31-3.39-.26-3.49-.58.98-1.48,1.48-2.17,1.28-.69-.2-.97-1.03-1.08-1.39-.45-1.36.07-2.94.92-3.98.64-.79,1.02-.72,1.46-1.39.7-1.07.51-2.43.25-3.4"/>
      <path class="cls-28" d="M429.97,126.83c3.26,7.2,5.84,13.96,7.92,20.11,5.47,16.24,4.4,19.43,2.92,21-2.43,2.59-7.35,2.58-10.53,1.38-8.87-3.35-12.94-19.08-11.22-39.17"/>
      <path class="cls-38" d="M415.21,221.32c-.92,2.74-1.83,5.48-2.75,8.22-5.25-1.68-10.51-3.36-15.76-5.05.32-.84,1.58-3.8,4.81-5.49,4.69-2.46,9.39-.09,9.83.15"/>
      <path class="cls-38" d="M402.48,221.25c-1.36,2.72-2.72,5.43-4.08,8.15-5.53-1.36-11.07-2.72-16.6-4.08-.23-.92-.86-3.9.75-6.34,2.18-3.28,7.66-4.46,12.83-1.81"/>
      <path class="cls-24" d="M378.03,82.58c-.52-1.04-1.27-2.72-1.82-4.89-.49-1.94-1.57-6.17-.03-7.16.65-.42,1.73-.25,2.39.34.94.83.69,2.21.67,2.3-.7-2.06-.39-3.72.44-4.13.55-.27,1.22.07,1.32.12.98.5,1.5,1.84,1.21,3.37-.41-1.79.11-3.2.89-3.45.66-.21,1.47.44,1.85.92,1.14,1.41.31,3.39.26,3.49.58-.98,1.48-1.48,2.17-1.28.69.2.97,1.03,1.08,1.39.45,1.36-.07,2.94-.92,3.98-.64.79-1.02.72-1.46,1.39-.7,1.07-.51,2.43-.25,3.4"/>
      <path class="cls-24" d="M401.36,102.87c-1.02,1.87-1.85,3.53-2.5,4.9-.41.87-.83,1.78-.49,2.68.22.58.66.93,1.28,1.32,1.94,1.23,3.16,2.01,4.6,1.92,2.91-.18,5.69-3.86,5.38-7.41-.24-2.76-2.25-4.49-2.77-4.91"/>
      <path class="cls-39" d="M404.91,119.49c-.47-.87-.53-2.51-.65-5.8-.24-6.52.76-8.68-.81-10.27-1.67-1.7-3.97-.39-5-2.01-1.19-1.88.75-5.5,2.87-7.49,1.92-1.8,3.02-1.22,6.06-2.73,5.8-2.87,6.4-6.99,9.28-6.76,1.58.13,2.86,1.96,5.4,5.63,4.14,5.96,3.31,7.5,6.34,9.91,1.72,1.37,3.15,1.8,4.79,3.98.67.89,1.6,2.16,1.88,4.02.32,2.21-.28,5.24-2.14,6.18-1,.5-1.89.16-2.05.58-.37.95,4.03,3.17,3.72,3.9-.25.6-3.13-1.11-5.98.15-.57.25-.55.36-3.72,2.43-.94.61-1.68,1.08-1.75,1.12-3.18,2-15.16,2.86-18.24-2.83Z"/>
      <path class="cls-4" d="M405.54,219.08c.66.97,1.4,1.54,1.95,1.87,3.56,2.16,7.98-.26,8.33-.46,3.34-14.34,6.69-28.67,10.03-43.01-10.17-.43-20.33-.86-30.5-1.29-1.83,13.84-3.66,27.67-5.49,41.51,1.93.84,4.75,2.03,8.23,3.35,3.43,1.3,3.81,1.33,4.08,1.31,4.47-.29,7.32-15.18,8.94-27.69"/>
      <path class="cls-28" d="M394.81,176.77c-3.03-3.65-1.84-8.12-1.92-16.56-.07-6.82-.9-8.89-7.64-35.95-2.19-8.78-5.56-22.45-9.8-40.24.73-.64,3.01-2.48,6.46-2.69,2.55-.16,4.5.65,5.41,1.1,2.1,6.82,3.59,12.33,4.53,15.96,2.47,9.51,3.16,13.76,7,17.78.72.75,2.41,2.39,7.39,4.89,4.72,2.37,12.1,5.38,22.18,6.84.32,6.52.64,13.04.96,19.56,0,7.11.01,14.22.02,21.33-1.19,2.9-2.37,5.79-3.56,8.69-2.1.56-25.4,6.08-31.04-.71Z"/>
      <path class="cls-28" d="M402.87,121.99c6.28-1.9,12.56-3.8,18.84-5.7,2.26,1.17,4.52,2.34,6.78,3.51.47.84,2.34,4.43,1.14,8.64-1.68,5.89-7.86,7.63-8.52,7.8-5.5,1.45-11.85-1.32-15.64-7.01"/>
      <path class="cls-39" d="M411.12,96.12c-.74-.84-3.26-3.93-2.58-7.44.93-4.88,7.32-6.91,11.26-7.1,4.51-.21,7.87,1.91,9.14,2.8-.63.42-1.53,1.15-2.02,2.31-1.24,2.94,1.44,5.46,1.26,9.35-.07,1.45-.55,3.55-2.59,6.04"/>
    </g>
    <g>
      <path class="cls-24" d="M492.15,189.22c.42,1.09,1.02,2.83,1.37,5.04.31,1.97,1,6.29-.63,7.14-.68.36-1.75.09-2.35-.55-.86-.92-.48-2.27-.45-2.35.5,2.11.05,3.74-.82,4.07-.57.22-1.21-.18-1.3-.24-.93-.58-1.32-1.97-.9-3.47.25,1.82-.4,3.18-1.2,3.35-.68.15-1.42-.57-1.76-1.08-1-1.5,0-3.4.06-3.5-.66.92-1.61,1.33-2.27,1.08-.67-.26-.87-1.12-.95-1.48-.32-1.4.34-2.92,1.29-3.88.71-.73,1.09-.62,1.58-1.25.79-1.01.73-2.38.56-3.36"/>
      <path class="cls-36" d="M488.26,149.97c2.58,7.46,4.54,14.43,6.04,20.75,3.96,16.67,2.6,19.75.98,21.18-1.06.94-3.79,2.55-10.61.41"/>
      <path class="cls-24" d="M453.77,126.99c-1.19,1.77-2.16,3.34-2.93,4.65-.49.83-.99,1.7-.73,2.62.16.59.58.98,1.15,1.43,1.82,1.4,2.97,2.29,4.4,2.33,2.91.08,6.02-3.32,6.04-6.89.02-2.77-1.83-4.68-2.31-5.15"/>
      <path class="cls-40" d="M455.78,143.86c-.39-.91-.3-2.55-.12-5.83.36-6.51,1.55-8.58.14-10.3-1.51-1.85-3.92-.76-4.79-2.46-1.02-1.98,1.25-5.4,3.55-7.2,2.08-1.62,3.12-.94,6.29-2.16,6.04-2.33,7.01-6.38,9.86-5.88,1.56.27,2.66,2.22,4.86,6.1,3.57,6.32,2.61,7.78,5.4,10.45,1.58,1.52,2.97,2.08,4.4,4.4.59.95,1.4,2.3,1.5,4.18.12,2.23-.76,5.2-2.69,5.95-1.04.41-1.9-.02-2.1.39-.45.91,3.72,3.52,3.35,4.22-.31.58-3.02-1.4-5.97-.4-.59.2-.58.31-3.93,2.07-1,.52-1.77.92-1.85.96-3.35,1.7-15.36,1.46-17.9-4.49Z"/>
      <path class="cls-36" d="M492.65,133.32c.63,1.51,1.44,4.14.93,7.25-.96,5.81-6.19,11.05-11.48,11.11-2.85.03-5.5-1.45-5.66-1.54-2.07-1.19-2.08-2.1-4.14-3.22-3.19-1.75-5.04-.58-5.85-1.9-.89-1.45,1.13-3.17,2.89-9.17.55-1.86.28-1.44.91-3.67,1.12-3.97,1.95-6.81,4.16-9.39.66-.77,1.72-1.85,3.33-2.88"/>
      <path class="cls-19" d="M466.79,122.01c-.66-.91-2.88-4.21-1.89-7.64,1.38-4.77,7.92-6.21,11.86-6.04,4.51.2,7.67,2.62,8.84,3.63-.66.36-1.63,1-2.22,2.12-1.51,2.81.93,5.57.4,9.42-.2,1.44-.87,3.48-3.13,5.78"/>
      <path class="cls-36" d="M478.8,125.03c.56,4.15,3.48,7.56,7.39,8.64,3.81,1.05,8.25-.19,10.29-3.15,2.38-3.43.65-7.89-1.49-13.44-2.38-6.14-4.09-10.58-8.82-12.86-5.45-2.63-12.47-1.25-16.7,2.33-4.1,3.47-5.05,8.59-6.95,18.69-.7,3.75-1.22,8.4-1.26,8.75-.53,4.83-.83,7.23-.65,8.35,1.21,7.57,20.59,10.6,25.8,11.33"/>
      <path class="cls-32" d="M465.83,242.8c-1.16,2.65-2.33,5.29-3.49,7.94-5.08-2.16-10.16-4.31-15.24-6.47.4-.81,1.92-3.64,5.29-5.03,4.9-2.02,9.35.77,9.77,1.05"/>
      <path class="cls-32" d="M447.26,239.02c-1.6,2.58-3.2,5.16-4.8,7.74-5.39-1.86-10.77-3.72-16.16-5.58-.15-.94-.5-3.96,1.33-6.24,2.47-3.07,8.04-3.74,12.94-.63"/>
      <path class="cls-24" d="M447.08,185.6c.42,1.09,1.02,2.83,1.37,5.04.31,1.97,1,6.29-.63,7.14-.68.36-1.75.09-2.35-.55-.86-.92-.48-2.27-.45-2.35.5,2.11.05,3.74-.82,4.07-.57.22-1.21-.18-1.3-.24-.93-.58-1.32-1.97-.9-3.47.25,1.82-.4,3.18-1.2,3.35-.68.15-1.42-.57-1.76-1.08-1-1.5,0-3.4.06-3.5-.66.92-1.61,1.33-2.27,1.08-.67-.26-.87-1.12-.95-1.48-.32-1.4.34-2.92,1.29-3.88.71-.73,1.09-.62,1.58-1.25.79-1.01.73-2.38.56-3.36"/>
      <path class="cls-25" d="M455.35,239.06c.54.77,1.44,1.82,2.83,2.66,3.28,2,6.75,1.29,7.65,1.08,4.87-14.23,9.74-28.46,14.61-42.68-10.08-1.36-20.17-2.72-30.25-4.07-5.47,12.53-10.94,25.05-16.41,37.58.48,1.06,1.91,3.88,5.17,5.86,3.13,1.91,6.15,1.96,7.33,1.92,4.03-7.97,8.06-15.93,12.09-23.9-1,7.18-2,14.37-3,21.55Z"/>
      <path class="cls-36" d="M449.6,196.57c-2.12-3.08-1.5-7.7-.4-16.67,1.11-9.03,2.91-16.36,4.35-21.38-1.82,8.7-3.65,17.4-5.47,26.1-.46.62-1.85,2.3-4.25,2.91-4.24,1.07-7.57-2.25-7.74-2.42-.25-4.27-.84-19.91,5.75-31.64,1.73-3.09,4.52-7.89,10.02-10.11,1.2-.48,3.1-1.07,6.02-1.15,11.08-.32,25.94,6.91,29.66,8.78-.28,6.52-.55,13.04-.83,19.57-.65,7.08-1.29,14.16-1.94,21.24-1.45,2.78-2.89,5.55-4.34,8.33-2.15.37-25.85,3.73-30.84-3.55Z"/>
    </g>
    <g>
      <path class="cls-35" d="M332.86,89.06c2.33-1.81,5.52-1.63,7.36.23,1.5,1.51,2.11,4.15.79,6.23-1.29,2.03-4,2.86-6.35,1.84"/>
      <path class="cls-19" d="M320.66,150.07c-.84,17.3-1.69,34.59-2.53,51.89"/>
      <path class="cls-13" d="M322.43,111.33c-3.34,21.89-6.67,43.78-10.01,65.67-.9.18-2.05.31-3.38.23-2.64-.17-4.64-1.11-5.78-1.76.82-18.46,1.65-36.91,2.47-55.37-5.53,18.09-11.07,36.18-16.6,54.27-1.91.21-4.7.25-7.86-.64-1.34-.38-2.5-.86-3.48-1.35,3.36-22.16,6.72-44.31,10.08-66.47,11.52,1.81,23.04,3.61,34.56,5.42Z"/>
      <path class="cls-24" d="M339.32,34.37c-.21.8-.5,2.09-.7,3.7-.42,3.34-.22,6.32-.07,8.29.21,2.89.42,2.97.24,4.06-.2,1.16-.73,2.74-3.15,5.52-2.52,2.89-4.03,4.63-6.85,5.94-5.58,2.6-11.01.91-12.32.51-1.25-.38-2.25-.84-2.93-1.19,0,.92,0,1.85,0,2.77-.67.28-1.55.53-2.59.55-3.55.06-5.92-2.69-6.34-3.19.46-3.01.79-6.5.75-10.39-.03-2.88-.25-4.69-.39-6.42-.5-6.03-1-12.15.62-17.37.17-.54,4.07-12.48,13.84-13.98,6.81-1.04,12.24,3.63,13.27,4.52,4.74,4.09,5.93,9.4,6.26,10.96.49,2.34.47,4.34.37,5.72Z"/>
      <path class="cls-23" d="M313.54,63.97c1.82.58,13.77,4.21,22.05-2.5,1.15-.93,2.4-2.2,3.54-3.95,3.98,5.06,7.95,10.11,11.93,15.17-2.17,1.92-5.36,4.32-9.62,6.29-3.38,1.56-6.48,2.42-8.95,2.91-1.38,10.32-2.76,20.63-4.14,30.95-2.28.93-4.47,1.57-6.53,1.98-18.54,3.78-34.86-8.07-40.38-12.49,1.8-7.65,5.43-18.47,13.21-29.43,3.31-4.65,6.75-8.47,9.97-11.57.38.52,1.79,2.3,4.38,2.93,2.15.52,3.9-.04,4.55-.29Z"/>
      <path class="cls-37" d="M340.15,33.46c.98.95,2.32,1.16,3.15.62,1.11-.73.84-2.51.56-3.33-.34-1-.92-1.27-1.53-2.1-1.12-1.5-.84-2.83-1.16-4.81-.06-.38-.89-5.1-4.4-7.9-.8-.64-2.22-1.56-4.44-2.03-.68-1.1-1.98-2.78-4.16-3.84-3.73-1.82-8.46-1.06-12.3,1.81-4.83.32-6.74,1.83-7.59,3.19-1.24,1.98-.61,4.27-2.64,5.86-1.09.85-1.84.64-2.78,1.73-.83.97-1.62,2.75-.9,3.88.73,1.14,2.94,1.53,5.05.31"/>
      <path class="cls-37" d="M315.28,28.31c.19,2.31-.39,3.3-.98,3.78-.71.59-1.48.44-2.12,1.14-.7.76-.7,1.89-.59,2.72-.47,1.84-.87,1.92-.99,1.92-.27,0-.5-.47-1.05-2.15-.89-2.73-.71-2.77-1.06-3.49-.96-2-2.4-1.8-3.26-3.49-.42-.82-.74-2.15-.06-4.33"/>
      <path class="cls-24" d="M320.84,40.99c-.53,0-1.72-.08-2.85-.87-.46-.32-.79-.68-1.02-.98"/>
      <path class="cls-19" d="M325.23,40.48c-2.87-1.74-5.74-3.49-8.62-5.23"/>
      <path class="cls-24" d="M336.35,41.35c-.32.47-.64.94-.95,1.41"/>
      <path class="cls-19" d="M332.39,41.16c1.66-1.14,3.32-2.28,4.98-3.42"/>
      <path class="cls-24" d="M325.33,45.95c-.66-.44-1.48-.42-1.99,0-.67.55-.76,1.76.04,2.56"/>
      <path class="cls-24" d="M330.4,32.51c.1,1.38.3,3.54.73,6.17.88,5.41,1.83,7.21.66,8.88-.98,1.39-3.14,2.29-5,1.82-.79-.2-1.37-.61-1.72-.91"/>
      <path class="cls-19" d="M326.7,51.29c-3.27-.15-3.03-.02-3.63-.12-1.61-.26-3.11-1.35-6.12-3.52-1.09-.78-1.51-1.15-2.27-1.18-1.37-.05-2.91,1.04-3.29,2.44-.37,1.38.51,2.61,1.55,4,2.56,3.42,5.97,4.73,6.49,4.93,1.46.54,4.73,1.75,7.97.37.88-.37,2.65-1.12,3.1-2.85.34-1.29-.12-2.89-1.18-3.62-.45-.31-.87-.36-2.63-.45Z"/>
      <path class="cls-21" d="M330.54,54.24c-2.72.78-4.97.72-6.34.57-1.45-.15-5.93-.63-9.17-4.22-1.13-1.25-1.77-2.51-2.14-3.38"/>
      <path class="cls-19" d="M324.47,53.77c-.18.73-.36,1.47-.54,2.2"/>
      <path class="cls-24" d="M315,44.41c-.09-.09-.97-.94-2.26-.74-1.34.21-1.91,1.37-1.96,1.47"/>
      <path class="cls-24" d="M333.06,53.02c.03-.14.13-.73-.23-1.29-.35-.54-1.01-.84-1.69-.78"/>
      <path class="cls-24" d="M319.39,60.62c-.67-.07-1.87-.3-3.02-1.16-.41-.31-.73-.63-.98-.93"/>
      <path class="cls-24" d="M346.39,66.91c7.21-6.92,9.97-13.94,11.09-17.59,3.23-10.56.81-19.57-2.33-31.44-.51-1.92-1.85-4.88-4.52-10.79-1.34-2.96-2.38-5.07-4.55-5.84-1.35-.48-2.52-.21-4.47.23-2.73.62-2.99,1.35-7.88,3.62-2.56,1.19-3.92,1.65-3.89,2.4.03.78,1.54,1.31,1.96,1.46,1.92.67,3.69.05,4.47-.23,1.03-.36,1.24-.74,1.88-1.11,0,0,.35-.2.71-.33.61-.22,1.99.33,3.64,2.41,2.65,3.34,3.71,7.71,3.96,8.8,1.13,4.88,1.62,8.27,2.14,14.12.55,6.19.29,8.76-.64,11.34-.53,1.49-1.03,2.55-2.2,4.36-1.36,2.08-3.52,5.24-6.62,9.21,2.42,3.13,4.83,6.26,7.25,9.4Z"/>
      <path class="cls-19" d="M317.94,51.16c-.47.65-.93,1.29-1.4,1.94"/>
      <path class="cls-24" d="M324.45,94.05c-5.54-.45-10.04-.42-13.08-.31-8.28.29-16.59-.63-24.86-.04-.91.06-3.01.23-4.08-1.04-1.11-1.32-.41-3.38.29-6.67.46-2.2,1-5.35,1.27-9.29l12.46-.06c-.32,1.99-.64,3.98-.95,5.96,2.3.17,23.44,1.74,33.04,4.6,1.61.48,4.23,1.39,5.79,3.82,1.37,2.14,1.01,4.7.75,7.04-.04.38-.14,1.15-.69,1.85-.39.51-1.27,1.31-1.89,1.03-.51-.23-.78-1.18-.44-2.25-.02.42-.12,1.51-.93,2.18-1.29,1.07-3.39.22-4.33-.4-1.84-1.2-2.69-3.72-2.34-6.45Z"/>
      <path class="cls-24" d="M340.17,5.15c-.82.53-1.5,1-2.03,1.39-.83.6-1.12.86-1.3,1.3-.27.69-.06,1.33,0,1.5.45,1.26,1.89,1.56,1.98,1.57"/>
      <path class="cls-23" d="M304.61,61.33c-1.6.04-3.31.26-5.09.77-9.65,2.75-14.31,11.96-15.54,14.61l12.46-.06c.7-.7,1.4-1.41,2.1-2.11"/>
      <path class="cls-37" d="M318.25,20.51c-.15.59-.45,1.47-1.1,2.34-.7.94-1.42,1.33-4.07,3.09-2.09,1.39-2.49,1.71-2.55,2.24-.12,1.03,1.1,2.08,2.06,2.61,2.35,1.29,3.76-.27,10.23-1.01,2.61-.3,4.22-.25,6.24-1.45,1.12-.67,1.9-1.45,2.39-2.01.52.42,1.09,1.03,1.03,1.69-.07.81-.98.97-1.18,1.78-.3,1.2,1.22,2.62,2.18,3.23,1.63,1.05,3.38.89,4.03.8"/>
      <path class="cls-1" d="M339.98,32.82c.65.35,1.03.56,1.07.9.09.85-2.01,1.83-3.57,2.24-.72.19-4.59,1.22-5.6-.55-.56-.99-.09-2.61.9-3.37.66-.51,1.73-.4,3.86-.17.97.1,2.12.3,3.34.95Z"/>
      <path class="cls-1" d="M324.22,36.66c.62.25,1.73.45,2.35-.14.59-.56.43-1.55.36-2.02-.35-2.26-2.48-3.48-2.58-3.53-1.92-1.07-3.96-.59-5.09-.05-.45.22-1.44.7-1.46,1.39-.02.77,1.15,1.38,1.68,1.65,1.22.64,1.54.26,2.53.81,1.22.68,1.07,1.44,2.21,1.89Z"/>
      <path class="cls-24" d="M340.74,6.45c-.43.29-1.48,1.07-1.85,2.45-.14.52-.39,1.44.13,2.12.58.75,1.77.91,2.65.52.73-.33,1.07-.97,1.18-1.19"/>
      <path class="cls-24" d="M345.98,9.48c.59-.19,1.11-.15,1.28.11.04.05.18.3-.21,1-.3.54-1.42,2.55-3.3,2.31-.92-.12-1.99-.77-2.32-1.95-.3-1.05.08-2.21.97-2.91"/>
      <path class="cls-24" d="M346.73,8.16c-.59.82-1.18,1.64-1.77,2.46"/>
      <path class="cls-24" d="M331.9,99.88c-.08.17-.67,1.35-2.02,1.68-1.12.27-2.32-.14-3.09-1.06"/>
      <path class="cls-24" d="M329.12,96.85c-.03.41-.15,1.17-.67,1.91-.12.17-1.2,1.69-2.36,1.48-1.28-.23-1.68-2.35-1.82-3.11-.08-.44-.47-2.46.4-2.94.4-.22,1.07-.12,1.42.34.28.36.31.88.08,1.34"/>
      <path class="cls-29" d="M277.79,172.38l-2.32,6.88c5.89,2.52,11.77,5.03,17.66,7.55,1.68-2.98,1.63-6.5-.15-9.06-1.62-2.32-4.08-3-4.83-3.17-3.45-.73-6.91-1.47-10.36-2.2Z"/>
      <path class="cls-20" d="M318.86,93.7c-.13,1.26-.25,2.52-.38,3.77.88,0,7.08-.05,7.67-1.6.27-.71.03-1.16.03-1.16-.26-.48-.85-.6-1.01-.63-2.11-.13-4.21-.26-6.32-.39Z"/>
    </g>
    <g>
      <path class="cls-24" d="M635.2,311.17c.79.87,2.37,2.32,4.2,2.15,2.12-.2,3.28-2.68,5.04-6.35,1.74-3.62,2.58-5.56,2.52-8.4-.03-1.42-.38-6.79-4.85-10.17-4.27-3.23-9.2-2.32-10.17-2.15-5.83,1.06-10.73,5.95-11.85,11.11-.99,4.56,1.37,6.73-.19,11.01-1.24,3.43-4.03,5.55-6.06,6.77,1.11,9.95,5.69,16.03,9.23,15.81,3.49-.21,7.67-5.71,6.66-8.86-.52-1.61-2.33-2.4-2.76-4.98-.18-1.09-.04-2.04.11-2.68,1.51,2,4,2.95,6.35,2.43,3.06-.68,4.27-3.52,4.37-3.78-.4-.2-.8-.4-1.2-.61"/>
      <path class="cls-24" d="M547.38,339.63c-.49.88.12,2.28,1.35,5.09,1.21,2.75,2.24,3.61,2.66,3.92.65.49,1.71,1.28,3.08,1.07.77-.12,1.42-.53,2.24-1.4.97-1.03,3.91-4.14,3.17-6.63-1.17-3.94-11.07-4.62-12.51-2.05Z"/>
      <path class="cls-24" d="M554.11,349.59c-.17,1.92.05,3.38.26,4.32.13.57.24.86.51,1.03.9.55,2.77-.83,3.69-1.82,2.06-2.22,1.94-5.33,1.91-6.3-.15-4.83-3.42-8.11-4.43-9.05-1.26-.31-3.26-.65-5.69-.42-2.05.2-6.27.99-6.44,2.57-.09.81.92,1.57,1.63,1.87,1.45.61,3.38-.03,4.57-1.73"/>
      <path class="cls-26" d="M563.12,392.91c-2.3,3.05-4.6,6.1-6.91,9.15,3.05,7.22,6.1,14.44,9.15,21.65.68-.28,7.52-3.21,9.33-10.83,1.67-7.01-2.26-12.36-2.8-13.07"/>
      <path class="cls-26" d="M601.72,372.96c-.72,1.83-1.45,3.67-2.18,5.5,3.24,5.66,6.47,11.32,9.71,16.99,4.22-1.52,7.26-5.2,7.84-9.52.66-4.9-1.96-9.8-6.53-12.13"/>
      <path class="cls-3" d="M569.15,350.37c.08,3.73,11.3,9.72,21.5,7.48,5.84-1.28,7.62-4.44,13.94-4.2,4.39.17,5.74,1.78,8.22.72,4.16-1.77,6.83-9.05,4.81-14.18-1.75-4.44-5.52-3.51-12.56-10.91-3.44-3.62-3.61-4.97-5.83-5.67-5.35-1.67-11.55,3.95-13.52,5.75-4.91,4.46-5.28,7.96-10.27,12.63-.27.26-1.92,1.79-3.72,4.14-1.73,2.25-2.59,3.38-2.57,4.23Z"/>
      <path class="cls-3" d="M596.7,329.59c-11.06,7.02-22.12,14.04-33.17,21.06-.62-.21-4.72-1.7-6.53-6.16-1.91-4.69.27-8.8.56-9.33,11.68-5.44,23.73-10.72,36.14-15.83,2.05-.84,4.09-1.67,6.13-2.49.23-.07.75-.22,1.49-.41,0,0,1.37-.35,2.85-.61,1.53-.27,5.02-.64,9.68-.68-.04.6-.26,4.97,2.85,7.71,3.26,2.86,8.89,2.79,13.04-.76,1.06.36,2.55,1.07,3.4,2.53,1.35,2.33.28,5.24-.06,6.22-1.68,4.83-4.89,18.18-9.16,36.82-1.46-1.13-2.93-2.26-4.39-3.39"/>
      <path class="cls-15" d="M598.68,349.14c4.64-.63,10.52-.96,17.25-.2,7.51.85,8.54,2.21,8.89,2.79,1.91,3.19-2.68,6.31-5.84,17.69-1.37,4.94-1.35,7.38-3.62,8.7-3.62,2.11-9.05-.96-9.37-1.14-2.21-1.28-3.55-2.97-4.26-4.02,1.72-3.14,3.44-6.29,5.17-9.43-4.94-.9-9.88-1.79-14.83-2.69.56,1.72,1.28,3.98,2.04,6.66,1.28,4.49,1.43,5.64,1.34,6.84-.23,3.01-1.85,5.16-2.81,6.41-12.54,16.26-18.81,24.39-24.33,23.48-3.25-.53-6.37-3.14-6.99-6-.52-2.42.82-4.71,5.11-9.88,2.9-3.5,6.92-8.03,12.13-13.03-9.32-10.29-13.1-19.72-10.34-22.91,3.31-3.83,15.65,1.81,16.69,2.29,4.59-1.85,9.18-3.7,13.77-5.55Z"/>
      <path class="cls-24" d="M548.31,341.92c-1.78,1.2-2.67,2.87-2.29,4.2.06.21.21.74.65.98,1.04.57,3.14-.76,5.32-3.41"/>
      <path class="cls-24" d="M550.32,346.07c-.38.58-1.71,2.73-.98,4.76.12.34.35.97.89,1.17.77.29,1.69-.47,2.8-1.4.65-.54,1.53-1.38,2.43-2.57"/>
      <path class="cls-19" d="M635.2,303.79c-.44-1.03-.12-2.22.56-2.99.07-.08,1.17-1.28,2.61-.93.97.23,1.47,1.02,1.59,1.21.69,1.16.69,3.25-.84,4.11-1.44.8-3.32,0-3.92-1.4Z"/>
      <path class="cls-19" d="M638.36,303.01s0,.07-.03.09c0,0-.05.04-.12.03-.04,0-.07-.03-.07-.04-.03-.03-.03-.1.04-.12.07-.02.15,0,.18.04Z"/>
      <path class="cls-12" d="M635.07,295.97c-.59,1.41,2.72,4.73,6.01,5.28.59.1,1.64.26,2.24-.37.79-.83.42-2.64-.24-3.68-1.77-2.81-7.38-2.76-8.02-1.23Z"/>
      <path class="cls-12" d="M621.58,309.02c-1.1.3-3.79-2.8-4.29-6.44-.23-1.67.13-2.48,1.49-7.75,1.59-6.15,1.25-5.62,1.68-6.72.46-1.18,2.55-6.5,7.93-9.24,5.55-2.83,13.42-2.32,16.99,1.68,2.31,2.6,1.87,5.6,4.2,6.25,0,0,1.02.28,6.72-2.15h0c-.03.22.64,6.41-2.05,8.49-1.28.99-2.99.81-6.35.47-1.44-.15-2.73-.28-4.29-.93-2.44-1.02-2.66-2.09-4.48-2.43-.34-.06-.88-.13-4.39.84-4.55,1.26-5.41,1.85-5.97,2.33-.35.29-2.37,2.03-1.96,3.45.28.96,1.4.87,1.68,1.87.36,1.26-.92,3.12-2.43,3.64-.83.29-1.15-.03-1.68.37-.51.38-.41.82-1.03,2.89-.31,1.06-.53,1.6-.84,2.15-.43.76-.64,1.13-.93,1.21Z"/>
      <path class="cls-3" d="M617.88,348.64l2.11-8.6"/>
      <path class="cls-19" d="M631.37,309.87c.12.71.34,1.59.74,2.55.63,1.5,1.46,2.58,2.09,3.28"/>
    </g>
    <g>
      <path class="cls-20" d="M355.47,140.3l-7.59,5.47-23.61-6.63-5.2-12.5c3.02-.06,6.04-.11,9.06-.17,4.07.75,9.79,2.28,15.97,5.62,4.96,2.68,8.71,5.71,11.37,8.21Z"/>
      <path class="cls-35" d="M325,130.22c-.41-.6-1.27-1.68-2.73-2.51-1.36-.76-2.62-.96-3.33-1.02-10.2,20.1-20.4,40.2-30.59,60.3,7.29,5.27,14.58,10.54,21.86,15.81,5.91-.6,11.81-1.19,17.72-1.79,6.22-9.02,13.01-20.55,18.85-34.58,3.92-9.42,6.7-18.26,8.7-26.14-4.42-2.32-7.7-2.45-9.94-2.08-2.17.36-4.52,1.38-6.36.11-.81-.56-1.24-1.37-2.7-2.13-.95-.49-1.83-.7-2.45-.79"/>
      <path class="cls-20" d="M334.02,135.41c-.74.85-1.48,1.7-2.22,2.55-2.83-1.54-5.67-3.08-8.5-4.62l1.7-3.13"/>
      <path class="cls-19" d="M339.31,138.28c-9.66,21.49-19.31,42.98-28.97,64.47"/>
      <path class="cls-2" d="M307.14,194.28c.41,0,1.2.14,2.18,1.34-.75,1.64-1.49,3.29-2.24,4.93.6.44,1.2.89,1.8,1.33-.16.17-1.36,1.38-3.06,1.19-.11-.01-1.52-.19-2.23-1.21-1.58-2.27,1.07-7.58,3.55-7.58Z"/>
      <path class="cls-2" d="M294.93,185.48c.41,0,1.2.14,2.18,1.34-.75,1.64-1.49,3.29-2.24,4.93.6.44,1.2.89,1.8,1.33-.16.17-1.36,1.38-3.06,1.19-.11-.01-1.52-.19-2.23-1.21-1.58-2.27,1.07-7.58,3.55-7.58Z"/>
      <path class="cls-10" d="M307.76,199.22c-.27-.25-.46-.26-.55-.24-.61.08-1.05,1.5-.62,1.88.04.04.28.24.94,0"/>
      <path class="cls-10" d="M295.57,190.37c-.27-.25-.46-.26-.55-.24-.61.08-1.05,1.5-.62,1.88.04.04.28.24.94,0"/>
      <path class="cls-35" d="M331.75,137.94c3.94-8.65,7.87-17.31,11.81-25.96-.63-.67-1.25-1.35-1.88-2.02-4.18,8.7-8.36,17.39-12.53,26.09.87.63,1.74,1.26,2.6,1.89Z"/>
      <path class="cls-35" d="M326.14,134.95c4.06-8.93,8.12-17.87,12.18-26.8-.62-.68-1.24-1.37-1.87-2.05-4.3,8.98-8.6,17.96-12.91,26.94.87.64,1.73,1.28,2.6,1.91Z"/>
      <path class="cls-35" d="M333.09,105.7c4.2,2.46,8.4,4.91,12.6,7.37.58-.16,1.16-.31,1.74-.47l.91-3.13c-4.17-2.19-8.33-4.37-12.5-6.56-.56-.04-1.12-.08-1.68-.12-.36.97-.72,1.94-1.08,2.91Z"/>
      <path class="cls-35" d="M345.69,113.07c.28-1.16.56-2.32.83-3.48-4.12-2.27-8.23-4.53-12.35-6.8"/>
      <path class="cls-34" d="M314.26,146.41c.22-.39,2.82-4.83,7.53-4.99.61-.02,3.18-.11,4.91,1.64,2.12,2.14,2.23,6.29-.12,9.97-4.95,9.93-9.9,19.86-14.85,29.79-1.69,3.67-4.9,5.71-7.6,5.18-2.35-.46-3.64-2.73-4.1-3.54-2.17-3.8-.71-7.88-.43-8.61,4.88-9.82,9.77-19.63,14.65-29.45Z"/>
      <path class="cls-10" d="M309.37,166.72c.07-.12.97-1.55,2.96-1.38.26.02,1.35.11,2.17.81,1.01.85,1.25,2.31.43,3.48-1.63,3.23-3.26,6.46-4.89,9.7-.54,1.2-1.81,1.76-2.98,1.45-1.02-.27-1.68-1.13-1.91-1.43-1.1-1.43-.68-2.79-.6-3.03,1.61-3.2,3.21-6.39,4.82-9.59Z"/>
      <path class="cls-21" d="M292.84,193.59c-.24-.3-.62-.84-.79-1.61-.31-1.4.27-2.53.45-2.85"/>
      <path class="cls-21" d="M294,189.51c-.11-.37.09-.76.45-.89.36-.13.77.05.91.4"/>
      <path class="cls-21" d="M306.79,202.12c-.16.05-.92.28-1.73-.12-.62-.31-.9-.83-.99-1.01"/>
      <path class="cls-21" d="M305.74,198.73c.1-.5.45-.88.89-.99.39-.09.71.07.81.12"/>
      <path class="cls-21" d="M304.55,197.92c.14-.44.54-1.41,1.52-2.15.46-.35.92-.54,1.26-.65"/>
      <path class="cls-21" d="M299.3,193.78c1.05.54,2.09,1.07,3.14,1.61"/>
      <path class="cls-21" d="M290.77,187.46c-.39-.29-.78-.57-1.17-.86.68-1.08,1.37-2.16,2.05-3.23"/>
      <path class="cls-21" d="M298.34,183.54c.11.56.36,1.44.99,2.33,1.09,1.55,2.61,2.13,3.18,2.31"/>
      <path class="cls-21" d="M308.95,191.7c1.09-.4,2.19-.8,3.28-1.2"/>
      <path class="cls-21" d="M310.23,192.83c1-.31,1.99-.62,2.99-.93"/>
      <path class="cls-21" d="M309.68,190.41c.8,1.02,1.59,2.04,2.39,3.06"/>
      <path class="cls-21" d="M310.82,190.05c.69.99,1.39,1.99,2.08,2.98"/>
      <path class="cls-21" d="M300.24,180.53c-.13-.49-.28-1.31-.14-2.3.11-.76.35-1.36.55-1.77"/>
      <path class="cls-21" d="M296.54,173.11c.94-1.88,1.88-3.77,2.82-5.65"/>
      <path class="cls-21" d="M302.5,168.83c1.64-3.3,3.28-6.6,4.92-9.9"/>
      <path class="cls-21" d="M306.06,153.63c.38-.79.77-1.58,1.15-2.37"/>
      <path class="cls-21" d="M312.88,146.46c.29-.69.76-1.59,1.55-2.48,1.5-1.71,3.27-2.42,4.17-2.71"/>
      <path class="cls-35" d="M314.11,138.95c.56-1.19,1.12-2.38,1.68-3.57"/>
      <path class="cls-35" d="M320.32,128.19c.47.15,1.01.38,1.59.7.83.46,1.46.98,1.91,1.41"/>
      <path class="cls-35" d="M323.16,134.02c1.21.74,2.41,1.48,3.62,2.22"/>
      <path class="cls-35" d="M334.98,136.8c.4.09.94.27,1.51.61.81.48,1.32,1.06,1.6,1.45"/>
      <path class="cls-35" d="M334.03,147.86c-.79,1.72-1.58,3.44-2.38,5.16"/>
      <path class="cls-35" d="M329.69,146.48c-.05-.52-.21-1.38-.71-2.32-.5-.94-1.13-1.54-1.53-1.88"/>
      <path class="cls-35" d="M324.35,167.48c-.65,1.44-1.31,2.88-1.96,4.32"/>
      <path class="cls-35" d="M323.77,160.83c.82-1.5,1.63-3.01,2.45-4.51"/>
      <path class="cls-35" d="M318.17,180.38c-.96,2.34-1.92,4.68-2.88,7.02"/>
      <path class="cls-35" d="M314.46,198.03c-.44.92-.87,1.84-1.31,2.76,1.25-.02,2.51-.04,3.76-.07"/>
      <path class="cls-35" d="M326.47,199.66c.41-.02.83-.04,1.24-.06l1.37-2.43"/>
      <path class="cls-35" d="M321.37,186.42c.61-1.62,1.22-3.24,1.83-4.85"/>
      <path class="cls-35" d="M335.05,186.77c1.49-2.63,3.03-5.65,4.47-9.04,1.49-3.5,2.62-6.8,3.48-9.78"/>
      <path class="cls-35" d="M330.07,161.77l1.71-3.89"/>
      <path class="cls-35" d="M352.21,145.34c-.46,2.05-.92,4.1-1.39,6.16"/>
      <path class="cls-35" d="M340.32,140.22c1.3.75,2.24.76,2.85.64.96-.19,1.31-.74,2.39-1.07,1.08-.33,2.08-.18,2.73-.01"/>
      <path class="cls-35" d="M337.93,129.21c4.56,3.11,9.12,6.22,13.68,9.34"/>
      <path class="cls-35" d="M335.45,129.82c3.82,2.75,7.64,5.5,11.46,8.26"/>
      <path class="cls-35" d="M334.47,131.96c2.99,2.14,5.98,4.29,8.97,6.43"/>
      <path class="cls-35" d="M332.73,128.16c-.43-.27-.86-.55-1.29-.82"/>
      <path class="cls-35" d="M332.09,130.29c-.98-.66-1.96-1.31-2.94-1.97"/>
      <path class="cls-35" d="M336.17,135.92l-2.66-1.84"/>
      <path class="cls-35" d="M331.03,132.52c-.96-.66-1.92-1.32-2.89-1.98"/>
      <path class="cls-35" d="M325.8,128.75c-.94-.68-1.88-1.36-2.82-2.04"/>
      <path class="cls-35" d="M327.65,131.93c.93.47,1.86.94,2.79,1.42"/>
      <path class="cls-35" d="M338.97,158c1.92-1.35,3.84-2.7,5.76-4.04"/>
      <path class="cls-35" d="M341.82,159.17c1.4-1.34,2.79-2.69,4.19-4.03"/>
      <path class="cls-35" d="M340.63,154.74c1.24,1.46,2.48,2.91,3.72,4.37"/>
      <path class="cls-35" d="M342.2,153.31c.99,1.24,1.99,2.49,2.98,3.73"/>
      <path class="cls-35" d="M330.57,188.97c-.07-1.14-.13-2.27-.2-3.41"/>
      <path class="cls-35" d="M332.11,188.5l-.17-3.33"/>
      <path class="cls-35" d="M329.35,187.89c1.25-.01,2.51-.03,3.76-.04"/>
      <path class="cls-35" d="M329.36,186.63c1.18-.21,2.36-.42,3.53-.62"/>
    </g>
    <path class="cls-21" d="M290.18,122.53c-.75,4.48-1.51,8.96-2.26,13.43"/>
    <path class="cls-21" d="M301.5,106.08c5.08,1.11,10.16,2.21,15.25,3.32"/>
    <path class="cls-21" d="M288.97,81.62c-1.09,1.8-1.35,3.91-.45,5.28,1.32,2.02,5.29,2.64,8.45,0"/>
    <path class="cls-21" d="M309.65,68.64c1.7-.04,4.22,0,7.25.45,4.49.67,6.02,1.63,8.75,1.81,2.48.16,6.05-.31,10.57-3.32"/>
    <path class="cls-21" d="M354.78,33.17c.68,2.43,1.47,6.43.91,11.32-.45,3.9-1.6,6.99-2.57,9.06"/>
    <path class="cls-21" d="M323.69,16.27c.35.03,4.68.47,5.89,3.47.16.39.29.89.3,1.51"/>
    <path class="cls-21" d="M385.12,104.27c1.76,4.48,3.52,8.96,5.28,13.43"/>
    <path class="cls-21" d="M395.84,148.04c.9,3.59,1.76,7.26,2.57,11.02.21.96.41,1.92.6,2.87"/>
    <path class="cls-21" d="M412.75,172.19c7.49.32,9.6-.98,10.11-2.26.42-1.07-.19-2.28.15-5.58.12-1.18.32-2.13.45-2.72"/>
    <path class="cls-21" d="M416.52,112.12c-1.19-.33-2.12-1.25-2.42-2.42-.34-1.34.19-2.79,1.36-3.62"/>
    <path class="cls-21" d="M421.65,87.96c-.19.55-1.04,3.18.3,5.89.78,1.57,1.94,2.46,2.57,2.87"/>
    <path class="cls-21" d="M411.09,144.12c1.86,2.52,3.72,5.03,5.58,7.55"/>
    <path class="cls-21" d="M417.12,141.85c2.46,1.94,6.88,5.71,6.04,7.55-1.14,2.48-11.78,1.18-12.38-1.66-.6-2.87,9.14-7.16,12.98-8.75"/>
    <path class="cls-21" d="M397.95,189.25c.1,2.62.2,5.23.3,7.85"/>
    <path class="cls-21" d="M417.12,202.98c.4-5.03.8-10.06,1.21-15.09"/>
    <path class="cls-21" d="M396.14,214.61c1.76.55,3.52,1.11,5.28,1.66"/>
    <path class="cls-21" d="M425.27,210.08c2.01.2,4.03.4,6.04.6"/>
    <path class="cls-21" d="M428.75,200.12c1.01-2.21,2.01-4.43,3.02-6.64"/>
    <path class="cls-21" d="M459.39,111.36c.25-1.76.5-3.52.75-5.28"/>
    <path class="cls-21" d="M443.09,138.83l1.36-4.23"/>
    <path class="cls-21" d="M472.22,113.17c1.15-1.39,3.71-4.06,7.55-4.68.97-.16,2.05-.32,3.17.15,2.33.98,3.65,4.19,3.47,8.15"/>
    <path class="cls-21" d="M474.18,140.34c1.6-.19,4.63-.31,7.9,1.15,1.37.61,2.45,1.35,3.27,2.02"/>
    <path class="cls-21" d="M455.31,183.66c-.17.36-2.69,6.09.15,9.66,1.31,1.65,3.34,2.3,5.13,2.87,2.53.81,4.76.84,6.19.75"/>
    <path class="cls-21" d="M470.56,150.46c4.2-1.71,8.78-.73,11.32,2.26,2.39,2.82,2.05,6.35,1.96,7.09"/>
    <path class="cls-21" d="M469.5,165.55c.4,2.87.8,5.74,1.21,8.6"/>
    <path class="cls-21" d="M443.69,166.15c1.76-2.87,3.52-5.74,5.28-8.6"/>
    <path class="cls-21" d="M469.05,223.66c1.46-4.58,2.92-9.16,4.38-13.74"/>
    <path class="cls-21" d="M443.24,222.91c2.16-3.87,4.33-7.75,6.49-11.62"/>
    <path class="cls-21" d="M564.75,337.93c4.93-2.52,9.86-5.03,14.79-7.55"/>
    <path class="cls-21" d="M587.84,351.21c1.79-1.61,4.29-3.52,7.55-5.13,5.64-2.79,10.86-3.38,14.04-3.47"/>
    <path class="cls-21" d="M627.39,335.81c.1-.2,1.21-2.65.15-4.08-1.11-1.49-4.48-1.73-7.4.75"/>
    <path class="cls-21" d="M626.78,321.02c-2.16-.5-4.33-1.01-6.49-1.51"/>
    <path class="cls-21" d="M627.09,287.66c.39-.66,1.7-2.72,4.38-3.77,2.14-.84,4.02-.6,4.83-.45"/>
    <path class="cls-21" d="M629.8,305.47l.45-3.62"/>
    <path class="cls-21" d="M574.86,395.74c4.23-3.67,8.45-7.35,12.68-11.02"/>
    <path class="cls-21" d="M612.9,366.61c1.41-3.32,2.82-6.64,4.23-9.96"/>
  </g>
</svg>