<?xml version="1.0" encoding="UTF-8"?>
<svg id="Livello_2" data-name="Livello 2" xmlns="http://www.w3.org/2000/svg" viewBox="0 0 177.22 401.47">
  <defs>
    <style>
      .cls-1 {
        fill: #aaa;
      }

      .cls-1, .cls-2, .cls-3, .cls-4 {
        stroke: #000;
        stroke-linecap: round;
        stroke-linejoin: round;
        stroke-width: 2px;
      }

      .cls-2 {
        fill: none;
      }

      .cls-3 {
        fill: #d1d1d1;
      }

      .cls-4 {
        fill: #777;
      }
    </style>
  </defs>
  <g id="Personaggi">
    <g>
      <polygon class="cls-3" points="39 116.68 17.24 1 68.93 108.21 67.57 123.6 50.69 126.78 39 116.68"/>
      <path class="cls-3" d="M35.74,147.79s-5.01-16.88,3.26-31.11l22.61,3.73,7.31-12.2s10.18-.22,16.58,22.22l-10.4,26.93-13.49,1.86-25.87-11.44Z"/>
      <polyline class="cls-3" points="43.67 173.42 35.74 147.79 69.13 155.17 85.5 130.43 93.72 159.23 79.29 185.96 51.09 179.6"/>
      <polygon class="cls-3" points="12.9 327.2 1 333.56 6.62 365.25 96.64 400.47 176.22 323.8 174.09 301.41 154.34 294.84 12.9 327.2"/>
      <polyline class="cls-3" points="153.77 307.41 174.09 301.41 93.35 369.99 1 333.56"/>
      <path class="cls-3" d="M78.29,195.4l-32.39-10.33S2,224.38,12.9,327.2l79.29,30.96,15.82-58.29-29.72-104.47Z"/>
      <path class="cls-1" d="M92.18,358.16l61.58-50.75s10.44-113.72-55.35-138.25l-20.13,26.23s-13.12,59.36,13.89,162.76Z"/>
      <polygon class="cls-3" points="45.91 185.06 43.67 173.42 76.89 182.64 93.72 159.23 98.42 169.16 78.29 195.4 45.91 185.06"/>
      <path class="cls-3" d="M76.89,182.64l-7.76-27.47c-7.22-20.52-7.52-34.76-7.52-34.76"/>
      <polyline class="cls-3" points="92.18 358.16 93.35 369.99 96.64 400.47"/>
      <line class="cls-3" x1="17.24" y1="1" x2="61.61" y2="120.41"/>
      <polygon class="cls-1" points="93.72 159.23 98.42 169.16 78.29 195.4 76.89 182.64 93.72 159.23"/>
      <polygon class="cls-1" points="85.5 130.43 69.13 155.17 76.89 182.64 93.72 159.23 85.5 130.43"/>
      <polygon class="cls-1" points="146.18 313.67 153.77 307.41 174.09 301.41 93.35 369.99 92.18 358.16 146.18 313.67"/>
      <path class="cls-2" d="M53.64,187.53s-31.96,58.69-26.86,145.09"/>
      <path class="cls-2" d="M64.73,191.07s-23.07,48.01-7.58,153.41"/>
      <path class="cls-2" d="M83.3,191.07s10.36,131.16,27.4,151.83"/>
      <path class="cls-2" d="M91.15,178.63s41.58,44.06,44.96,143.33"/>
      <line class="cls-2" x1="41.35" y1="149.03" x2="49" y2="174.9"/>
      <line class="cls-2" x1="49" y1="151.53" x2="57.69" y2="177.31"/>
      <line class="cls-2" x1="59.87" y1="153.12" x2="66.7" y2="179.81"/>
      <line class="cls-2" x1="73.19" y1="149.03" x2="81.42" y2="174.9"/>
      <line class="cls-2" x1="77.31" y1="142.81" x2="86.58" y2="169.16"/>
      <line class="cls-2" x1="81.42" y1="136.6" x2="91.15" y2="162.8"/>
      <polyline class="cls-2" points="35.74 99.35 53.64 99.57 59.58 88.83"/>
      <polyline class="cls-2" points="29.07 63.89 40.61 63.89 43.67 55.83"/>
      <polygon class="cls-1" points="93.35 369.99 96.64 400.47 176.22 323.8 174.09 301.41 93.35 369.99"/>
      <path class="cls-2" d="M6.62,365.25c2.99-10.12,7.29-18.04,11.03-17.79,4.13.28,7.89,10.59,8.74,25.53,2.94-10.35,7.57-18.54,11.83-18.39,4.83.17,9.83,11.07,10.98,27.32,3-17.16,6.53-19.04,8.16-19.17,5.77-.46,11.72,19.25,14.11,27.88,2.72-17.21,6.39-19.52,8.29-19.74,6.4-.74,13.68,19.77,16.87,29.58"/>
      <path class="cls-2" d="M96.64,400.47c-.66-18.53,5.69-31.04,12.61-31.9,5.5-.68,10.72,6.08,12.17,8.02-1.61-13.85.27-23.8,4.4-24.93,4.24-1.16,10.09,7.19,11.63,9.48-3.76-13.18.73-23.46,6.26-24.91,5.58-1.46,12.06,6.11,12.59,6.74-1.7-14.66,3.34-24.93,9.01-25.87,4.68-.78,9.43,4.83,10.9,6.69"/>
      <polygon class="cls-4" points="154.34 294.84 174.09 301.41 153.77 307.41 154.34 294.84"/>
      <line class="cls-2" x1="70.06" y1="356.49" x2="81.49" y2="359.78"/>
      <line class="cls-2" x1="56.58" y1="377.89" x2="58.26" y2="372.12"/>
      <line class="cls-2" x1="77.98" y1="389.1" x2="86.58" y2="393.51"/>
      <line class="cls-2" x1="105.72" y1="387.17" x2="112.4" y2="381.85"/>
      <line class="cls-2" x1="118.06" y1="363.85" x2="119.19" y2="355.59"/>
      <path class="cls-2" d="M124.62,338.95c.23-.57,9.4-9.4,9.4-9.4"/>
      <line class="cls-2" x1="158.02" y1="300" x2="161.87" y2="301.13"/>
      <line class="cls-2" x1="171.04" y1="310.08" x2="172.4" y2="315.51"/>
      <line class="cls-2" x1="32.81" y1="368.49" x2="36.09" y2="361.93"/>
      <line class="cls-2" x1="17.87" y1="353.55" x2="22.85" y2="365.89"/>
      <line class="cls-2" x1="9.26" y1="341.78" x2="23.87" y2="344.48"/>
      <line class="cls-2" x1="23.87" y1="336.34" x2="50.83" y2="342.01"/>
      <line class="cls-2" x1="48.55" y1="350.15" x2="55.34" y2="351.85"/>
      <line class="cls-2" x1="69.04" y1="365.89" x2="71.75" y2="373.96"/>
      <polyline class="cls-2" points="97.79 361.93 96.09 358.75 102.66 352.87"/>
      <polyline class="cls-2" points="151.91 314.38 156.09 310.08 160.74 309.4"/>
      <path class="cls-2" d="M127,322.87c-.45-.11,5.09-3.28,5.09-3.28l-3.74-23.09"/>
      <line class="cls-2" x1="135.26" y1="273.51" x2="139.45" y2="294.84"/>
      <line class="cls-2" x1="140.36" y1="232.98" x2="144.89" y2="250.3"/>
      <polyline class="cls-2" points="97.68 258.79 107.07 269.32 104.24 254.95 110.7 260.95"/>
      <polyline class="cls-2" points="98.42 266.15 109.34 254.27 99.72 270"/>
      <line class="cls-2" x1="107.07" y1="323.66" x2="110.13" y2="332.62"/>
      <path class="cls-2" d="M116.13,285.62c.23.57,4.3,11.77,4.3,11.77"/>
      <line class="cls-2" x1="104.19" y1="212.38" x2="110.7" y2="226.87"/>
      <line class="cls-2" x1="124.28" y1="199.59" x2="132.66" y2="209.1"/>
      <line class="cls-2" x1="89.64" y1="207.4" x2="88.17" y2="196.3"/>
      <path class="cls-2" d="M81.42,183.4c-.5.34,0,2.56,0,2.56l6.23-9.24"/>
      <line class="cls-2" x1="90.66" y1="172.76" x2="92.81" y2="167.1"/>
      <path class="cls-2" d="M54.21,185.06c.68.37,8.04,2.47,8.04,2.47"/>
      <path class="cls-2" d="M64.73,183.4c1.03.34,8.47,2.56,8.47,2.56"/>
      <line class="cls-2" x1="49" y1="183.4" x2="48.43" y2="179.1"/>
      <path class="cls-2" d="M93.35,342.01c.25.78,2.07,7.69,2.07,7.69l3.17-3.62"/>
      <path class="cls-2" d="M101.07,337.93c-.23-.57-5.11-18.57-5.11-18.57"/>
      <line class="cls-2" x1="86.58" y1="301.41" x2="84.66" y2="283.13"/>
      <line class="cls-2" x1="85.62" y1="258.34" x2="84.66" y2="232.98"/>
      <polyline class="cls-2" points="60.77 332.62 61.79 341.21 71.75 345.86"/>
      <path class="cls-2" d="M77.98,324.34c.23.68,2.38,12,2.38,12"/>
      <line class="cls-2" x1="62.7" y1="314.38" x2="61.57" y2="297.4"/>
      <line class="cls-2" x1="69.04" y1="285.62" x2="71.64" y2="228.57"/>
      <line class="cls-2" x1="58.85" y1="238.19" x2="58.85" y2="246.91"/>
      <path class="cls-2" d="M67.34,205.13s-.11-7.7,2.49-7.02l2.6.68"/>
      <polyline class="cls-2" points="100.28 180.45 101.07 176.72 113.63 181.34"/>
      <polyline class="cls-2" points="55.79 194.61 57.69 195.4 54.21 210.23"/>
      <line class="cls-2" x1="35.74" y1="263.66" x2="34.17" y2="278.72"/>
      <polyline class="cls-2" points="48.43 295.36 49.91 313.59 44.24 314.83"/>
      <polyline class="cls-2" points="36.09 328.14 48.55 334.25 47.07 326.04"/>
      <line class="cls-2" x1="34.17" y1="295.36" x2="33.6" y2="306.57"/>
      <path class="cls-2" d="M45.26,231.62s-2.15,12.68-1.02,11.43"/>
      <line class="cls-2" x1="21.49" y1="325.59" x2="21.49" y2="311.1"/>
      <line class="cls-2" x1="16.57" y1="271.19" x2="17.07" y2="254.27"/>
      <polyline class="cls-2" points="45.18 191.66 48.43 191.89 42.77 198.07 42.32 206.27"/>
      <line class="cls-2" x1="27.6" y1="241.64" x2="27.6" y2="231.62"/>
      <polyline class="cls-2" points="55.95 159.85 57.69 167.1 61.61 174.9"/>
      <path class="cls-2" d="M68.47,170.95s.05,5.55,2.57,5.32,2.97-.45,2.97-.45"/>
      <line class="cls-2" x1="75.11" y1="165.28" x2="77.31" y2="170.95"/>
      <line class="cls-2" x1="84.66" y1="139.02" x2="86.58" y2="144"/>
      <path class="cls-2" d="M68.47,140.61c-.11.45,1.7,4.42,1.7,4.42l3.02-6"/>
      <polyline class="cls-2" points="70.34 114.34 75.11 113.89 80.24 123.28"/>
      <polyline class="cls-2" points="51.8 124.87 59.58 125.1 57.69 130.43"/>
      <path class="cls-2" d="M43.92,145.81c-1.03.23-5.44-.68-5.44-.68l-.23-3.62"/>
      <path class="cls-2" d="M49,133.72s3.28,13.34,4.87,7.79,1.82-5.55,1.82-5.55l3.89,3.96"/>
      <path class="cls-2" d="M46.51,137.66c.57.11,7.36,3.85,7.36,3.85"/>
      <line class="cls-2" x1="41.08" y1="106.3" x2="43.08" y2="112.42"/>
      <path class="cls-2" d="M58.78,99.06s-.72-7.7,2.22-1.81l2.94,5.89"/>
      <polyline class="cls-2" points="42.08 92.83 46.51 93.74 39.42 72.68"/>
      <line class="cls-2" x1="49" y1="73.7" x2="53.34" y2="83.66"/>
      <polyline class="cls-2" points="31.57 58.98 35.74 58.98 30.32 48.23"/>
    </g>
  </g>
</svg>