<?xml version="1.0" encoding="UTF-8"?>
<svg id="Livello_2" data-name="Livello 2" xmlns="http://www.w3.org/2000/svg" viewBox="0 0 253.79 302.1">
  <defs>
    <style>
      .cls-1 {
        fill: #e8e8e8;
      }

      .cls-1, .cls-2, .cls-3, .cls-4, .cls-5, .cls-6, .cls-7, .cls-8, .cls-9 {
        stroke: #000;
        stroke-linecap: round;
        stroke-linejoin: round;
        stroke-width: 2px;
      }

      .cls-2 {
        fill: #d6d6d6;
      }

      .cls-3 {
        fill: #fff;
      }

      .cls-4 {
        fill: #eaeaea;
      }

      .cls-5 {
        fill: none;
      }

      .cls-6 {
        fill: #b2b2b2;
      }

      .cls-7 {
        fill: #939393;
      }

      .cls-8 {
        fill: #ff4545;
      }

      .cls-9 {
        fill: #bab6b6;
      }
    </style>
  </defs>
  <g id="Personaggi">
    <g>
      <polyline class="cls-2" points="49.12 145.33 66.39 71.63 76.03 75.65 60.18 146.59"/>
      <polyline class="cls-7" points="9.53 140.82 23.17 151.62 159.01 161.28 231.19 202.49 204.85 245.83 120.93 289.17 15.78 202.49"/>
      <polygon class="cls-1" points="15.78 202.49 120.93 289.17 143.09 277.8 40.22 202.49 15.78 202.49"/>
      <polygon class="cls-6" points="120.93 289.17 134 301.1 139.11 236.31 125.47 224.94 120.93 289.17"/>
      <polygon class="cls-7" points="252.79 207.89 139.11 236.31 134 301.1 241.99 257.34 252.79 207.89"/>
      <polygon class="cls-6" points="15.78 202.49 23.17 151.62 159.01 161.28 231.19 202.49 125.47 224.94 139.11 236.31 252.79 207.89 164.12 158.44 9.53 140.82 1 188.56 15.78 202.49"/>
      <line class="cls-3" x1="9.53" y1="140.82" x2="23.17" y2="151.62"/>
      <polygon class="cls-1" points="60.18 217.1 79.44 217.1 123.67 250.47 122.78 263.02 60.18 217.1"/>
      <polygon class="cls-1" points="91.92 226.52 104.87 226.52 124.32 241.28 123.67 250.47 91.92 226.52"/>
      <polygon class="cls-4" points="37.38 59.54 98.76 85.12 114.67 24.3 52.72 1 37.38 59.54"/>
      <polygon class="cls-9" points="98.76 85.12 114.67 82.28 126.89 22.6 114.67 24.3 98.76 85.12"/>
      <polygon class="cls-9" points="52.72 1 72.05 1 126.89 22.6 114.67 24.3 52.72 1"/>
      <polygon class="cls-8" points="51.35 53.2 61.39 57.34 69.26 32.54 74.08 52.06 89.12 38.74 80.97 64.69 91.07 68.47 101.98 31.28 85.68 25.31 78.79 34.15 76.95 21.98 61.39 15.09 51.35 53.2"/>
      <line class="cls-7" x1="159.01" y1="161.28" x2="146.88" y2="220.39"/>
      <polyline class="cls-5" points="145.06 243.83 146.31 250.47 153.66 248.92"/>
      <path class="cls-5" d="M158.42,241.34c1.81,0,8.83-1.28,8.83-1.28l.68,5.02"/>
      <path class="cls-5" d="M177.21,236.31c0,.84.57,4.69.57,4.69l5.66-.91"/>
      <path class="cls-5" d="M187.97,233.42c.68,0,8.04-.68,8.04-.68v5.76"/>
      <polyline class="cls-5" points="213.44 232.17 207.89 233.87 206.98 226.4"/>
      <polyline class="cls-5" points="216.49 224.47 223.74 224.47 223.63 230.7"/>
      <line class="cls-5" x1="148.91" y1="257.08" x2="241.51" y2="227.58"/>
      <path class="cls-5" d="M146.88,269.19c-.01-.34,2.48-7.13,2.48-7.13l3.58,3.96,8.19-4.64,8.38,1.92s4.08-14.72,7.13-9.4l3.06,5.32s5.21-13.92,8.26-8.04l3.06,5.89"/>
      <polyline class="cls-5" points="182.87 273.49 189.89 267.04 195.21 271.79 196.68 272.7 205.85 261.83"/>
      <path class="cls-5" d="M143.09,281.75c-.3,1.47-8.45,12.91-.98,9.85l7.47-3.06"/>
      <path class="cls-5" d="M233.81,255.72c.57-.68,5.21-1.25,5.21-1.25l-1.92-10.64"/>
      <path class="cls-5" d="M207.55,251.19l1.47-6.57,7.47,3.4s-.68,9.28,6.23-.23l6.91-9.51"/>
      <polyline class="cls-5" points="236.42 218.13 244.34 214.99 244.68 220.39"/>
      <polyline class="cls-5" points="128.76 236.31 133.17 240.06 132.49 245.83"/>
      <path class="cls-5" d="M126.89,281.3c-.4.68,0,6.91,0,6.91l5.03,3.28"/>
      <line class="cls-5" x1="131.93" y1="261.83" x2="131.93" y2="270.09"/>
      <polyline class="cls-5" points="138.15 228.66 142.23 231.72 146.88 227.58"/>
      <line class="cls-5" x1="163.17" y1="226.96" x2="194.36" y2="218.47"/>
      <line class="cls-5" x1="206.42" y1="212.02" x2="224.87" y2="207.38"/>
      <path class="cls-5" d="M238.57,205.23c.34.11,4.08,2.15,4.08,2.15l-6.91,3.51"/>
      <line class="cls-5" x1="231.19" y1="199.57" x2="206.42" y2="185.3"/>
      <line class="cls-5" x1="173.25" y1="166.06" x2="167.93" y2="162.55"/>
      <polyline class="cls-5" points="146.88 166.06 152.08 165.26 150.95 171.04"/>
      <polyline class="cls-5" points="161.47 175.11 161.93 166.62 188.76 185.3"/>
      <line class="cls-5" x1="159.78" y1="194.47" x2="157.74" y2="205.23"/>
      <line class="cls-5" x1="173.7" y1="190.84" x2="174.27" y2="200.92"/>
      <line class="cls-5" x1="179.47" y1="190.84" x2="179.47" y2="200.25"/>
      <path class="cls-5" d="M168.72,194.47l16.19-1.92"/>
      <line class="cls-5" x1="170.59" y1="199.85" x2="184.91" y2="195.54"/>
      <line class="cls-5" x1="187.06" y1="207.38" x2="197.59" y2="203.64"/>
      <line class="cls-5" x1="206.98" y1="196.62" x2="214.46" y2="201.38"/>
      <polyline class="cls-5" points="141.66 209.7 142 217.1 126.15 223.57"/>
      <path class="cls-5" d="M99.32,224.94c.34-.01,8.8-1.03,8.8-1.03l4.34,6.79"/>
      <path class="cls-5" d="M74.64,212.47s-12.23.23-2.49,0c9.74-.23,6.91-6,9.74-.23l2.83,5.77"/>
      <path class="cls-5" d="M34.57,199c.68-.34,8.04.57,8.04.57l5.66,4.08"/>
      <polyline class="cls-5" points="27.44 167.08 28.12 158.81 39.55 159.15"/>
      <line class="cls-5" x1="68.39" y1="165.26" x2="107.7" y2="163.68"/>
      <line class="cls-5" x1="71.81" y1="174.43" x2="75.21" y2="188.56"/>
      <line class="cls-5" x1="114.27" y1="200.92" x2="121.74" y2="189.15"/>
      <polyline class="cls-5" points="8.53 188.56 12.38 192.43 11.59 180.77"/>
      <path class="cls-5" d="M10.46,161.87s.68-8.94,2.6-9.17l1.92-.23"/>
      <line class="cls-5" x1="18.15" y1="161.87" x2="14.98" y2="171.04"/>
      <line class="cls-5" x1="26.31" y1="147.72" x2="37.06" y2="147.72"/>
      <line class="cls-5" x1="53.25" y1="148.28" x2="60.18" y2="149.64"/>
      <line class="cls-5" x1="81.44" y1="153.26" x2="101.47" y2="154.28"/>
      <line class="cls-5" x1="126.15" y1="157.17" x2="131.93" y2="157.17"/>
      <path class="cls-5" d="M54.31,139.87s2.04,2.11,4.08,1.96"/>
      <path class="cls-5" d="M61.47,100.77s.45,2.72,4.91.68"/>
      <path class="cls-5" d="M69.1,78.06s1.06,3.17,4.38,1.28"/>
      <polyline class="cls-5" points="104.87 74.06 103.36 79.34 107.29 78.66"/>
      <line class="cls-5" x1="113.63" y1="71.26" x2="115.36" y2="64.4"/>
      <line class="cls-5" x1="113.63" y1="37" x2="111.66" y2="45.3"/>
      <polyline class="cls-5" points="119.51 28.09 122.98 28.09 120.95 34.06"/>
      <line class="cls-5" x1="69.1" y1="47.72" x2="71.81" y2="55.19"/>
      <path class="cls-5" d="M80.95,19.87c-.38.53.53,5.13.53,5.13"/>
      <polyline class="cls-5" points="99.74 25.75 106.31 28.09 106.31 39.57"/>
      <path class="cls-5" d="M98.76,72.55c-.46,0-4.3,6.45-4.3,6.45l-3.09-3.43"/>
      <polyline class="cls-5" points="46.08 59.57 40.87 56.7 43.89 52.25"/>
      <path class="cls-5" d="M54.08,15.09s-1.21-7.97,1.36-7.45l2.57.53"/>
      <line class="cls-5" x1="73.47" y1="5.15" x2="85.17" y2="8.85"/>
      <polyline class="cls-5" points="65.1 35.72 68.19 26.51 70.08 27.34 73.85 34.43"/>
      <path class="cls-5" d="M94.76,40.25c-.08-.38-3.4,12.3-3.4,12.3"/>
      <path class="cls-5" d="M186.99,276.31c.38-2.75.75-5.51,1.13-8.26"/>
      <path class="cls-5" d="M231.14,226.39c.75,5.21,1.51,10.42,2.26,15.62"/>
    </g>
  </g>
</svg>