<?xml version="1.0" encoding="UTF-8"?>
<svg id="Livello_2" data-name="Livello 2" xmlns="http://www.w3.org/2000/svg" viewBox="0 0 505.85 274.04">
  <defs>
    <style>
      .cls-1 {
        stroke-miterlimit: 10;
      }

      .cls-1, .cls-2 {
        fill: #fff;
      }

      .cls-1, .cls-2, .cls-3, .cls-4, .cls-5, .cls-6 {
        stroke: #000;
        stroke-width: 2px;
      }

      .cls-2, .cls-3, .cls-4, .cls-5, .cls-6 {
        stroke-linecap: round;
        stroke-linejoin: round;
      }

      .cls-3 {
        fill: #ffcfe3;
      }

      .cls-4 {
        fill: #474747;
      }

      .cls-5 {
        fill: #2d2d2d;
      }

      .cls-6 {
        fill: #2b86e0;
      }
    </style>
  </defs>
  <g id="Personaggi">
    <g>
      <path class="cls-5" d="M94.28,123.93c-17.4,6.46-22.33,6.06-23.4,4.29-1.4-2.3,3.36-7.59,3.88-8.17,4.87-5.41,11.38-6.31,13.43-6.51,1.85-.14,3.69-.28,5.54-.42.18,3.6.37,7.2.55,10.8Z"/>
      <path class="cls-5" d="M104.94,113.96c-.28,3.42-.55,6.83-.83,10.25,4.1,2.37,13.9,7.76,15.79,5.54,1.52-1.8-2.17-8.5-7.34-12.32-2.81-2.08-5.66-3.01-7.62-3.46Z"/>
      <g>
        <path class="cls-3" d="M83.95,20.18c-.27-5.28,6.46-10.22,11.81-11.95,9.58-3.1,17.53,3.22,18.37,3.91,5.64,4.65,6.94,10.92,7.25,12.73-1.4,2.06-4.02,5.23-8.23,7.04-11.79,5.08-28.79-3.61-29.21-11.73Z"/>
        <path class="cls-1" d="M91.97,20.18c.92-1.96,3.19-2.44,3.41-2.48,2.25-.44,4.7.72,5.49,2.54,1.32,3.06-2.26,7.58-5.24,7.23-2.63-.31-5-4.44-3.66-7.29Z"/>
        <path class="cls-1" d="M102.94,21.53c.92-1.96,3.19-2.44,3.41-2.48,2.25-.44,4.7.72,5.49,2.54,1.32,3.06-2.26,7.58-5.24,7.23-2.63-.31-5-4.44-3.66-7.29Z"/>
        <path d="M93.94,23.97c-.97-.82.08-4.12,1.14-4.21.85-.08,2.46,1.85,1.67,3.31-.58,1.06-2.18,1.42-2.8.9Z"/>
        <path d="M104.82,25.31c-.97-.82.08-4.12,1.14-4.21.85-.08,2.46,1.85,1.67,3.31-.58,1.06-2.18,1.42-2.8.9Z"/>
        <path class="cls-6" d="M80.46,20.04c-.15,1.43-.67,6.51,2.37,8.68,1.21.86,2.89,1.19,4.24.75,2.9-.95,4.84-5.61,3.68-11.41,7.62.48,15.24.96,22.86,1.44-2.87,5.7-2.78,10.71-.47,12.42,1.63,1.21,4,.49,4.37.37,4.78-1.46,7.69-8.43,7.38-13.69-.52-8.87-10.42-16.95-20.42-17.56-12.58-.77-23.13,10.39-24.02,19Z"/>
      </g>
      <g>
        <path class="cls-4" d="M62.21,104.18c-.03,1.63.96,3.23,2.49,3.98,7.76,3.8,18.97,8.26,32.71,10.43,12.73,2.01,23.39,1.38,31.05.26,1.68-.25,2.86-1.62,2.86-3.36V27.73c0-2.75-2.8-4.94-5.33-4.18-6.77,2.01-17.14,3.87-29.92,1.88-11.29-1.75-20.42-5.87-26.66-9.41-2.49-1.42-5.31.06-5.37,2.78l-1.83,85.38Z"/>
        <path class="cls-2" d="M67.52,67.61c6.41,3.2,17.14,7.66,30.68,9.08,12.97,1.36,23.2-.62,29.45-2.37.14-6.53.29-13.06.43-19.6-6.14,1.64-16.34,3.49-29.23,1.86-13.88-1.75-24.7-6.76-30.93-10.17-.13,7.07-.27,14.13-.4,21.2Z"/>
        <g>
          <path d="M71.44,57.92c1.81.44,2.72.65,4.54,1.04.74.16,1.38.38,1.93.68.55.29.97.63,1.27,1.01.3.38.45.79.45,1.23s-.15.78-.46,1.04c-.31.27-.74.43-1.29.5s-1.2.02-1.92-.13c-.71-.15-1.07-.23-1.78-.39,0,.76,0,1.14-.01,1.9-1.09-.25-1.64-.37-2.73-.64,0-2.5,0-3.74,0-6.24ZM75.49,61.83c.29.06.54.08.74.06.21-.03.37-.09.48-.19.11-.1.17-.23.17-.38,0-.25-.13-.48-.37-.68-.25-.2-.59-.35-1.01-.44-.53-.11-.79-.17-1.32-.29,0,.66,0,.98.01,1.64.52.12.78.18,1.31.29Z"/>
          <path d="M82.68,66.31c-.78-.41-1.38-.91-1.8-1.49-.42-.59-.63-1.21-.63-1.87s.21-1.2.64-1.63c.43-.43,1.03-.71,1.8-.85.77-.14,1.67-.13,2.69.03,1.02.16,1.92.43,2.7.82.78.39,1.38.86,1.81,1.42.43.56.64,1.17.64,1.83s-.21,1.22-.63,1.67c-.42.45-1.02.76-1.81.92-.78.16-1.68.17-2.71,0-1.02-.16-1.92-.45-2.7-.86ZM86.63,65.54c.36-.09.63-.25.83-.48.2-.23.29-.52.29-.87s-.1-.67-.29-.96c-.2-.28-.47-.52-.83-.72-.36-.2-.77-.34-1.25-.41-.47-.07-.88-.07-1.24.02-.36.09-.64.24-.84.46-.2.22-.29.51-.29.86s.1.67.29.96c.2.29.47.54.84.75.36.2.78.34,1.24.42.48.08.89.07,1.25-.02Z"/>
          <path d="M91.55,61.56c1.11.13,1.66.2,2.77.31,0,1.86,0,2.78,0,4.64,1.33.14,1.99.2,3.32.31v1.6c-2.44-.21-3.66-.33-6.1-.63,0-2.5,0-3.74,0-6.24Z"/>
          <path d="M98.55,62.26c1.11.09,1.66.13,2.77.2,0,2.5,0,3.74,0,6.24-1.11-.07-1.66-.11-2.77-.2,0-2.5,0-3.74,0-6.24Z"/>
          <path d="M102.4,67.13c1.73-1.16,2.59-1.75,4.32-2.95-1.68-.05-2.51-.09-4.19-.18v-1.47c2.91.16,4.36.21,7.27.25v1.67c-1.72,1.22-2.59,1.82-4.31,3,1.78.07,2.67.09,4.44.11v1.46c-3.01-.04-4.51-.09-7.52-.26,0-.65,0-.98,0-1.64Z"/>
          <path d="M111,62.79c1.11,0,1.66,0,2.77,0v6.24c-1.11.01-1.66.01-2.77,0,0-2.5,0-3.74,0-6.24Z"/>
          <path d="M117.65,62.69c1.35-.05,2.02-.08,3.37-.15,1.26,2.43,1.9,3.63,3.16,6.04-1.15.08-1.73.12-2.88.19-.19-.42-.28-.63-.47-1.05-1.21.06-1.81.09-3.02.13-.19.44-.29.66-.48,1.1-1.14.04-1.71.05-2.85.07,1.27-2.52,1.91-3.78,3.18-6.32ZM120.39,66.45c-.42-.95-.63-1.43-1.05-2.39-.01,0-.02,0-.03,0-.43.99-.65,1.49-1.08,2.48.86-.03,1.3-.05,2.16-.1Z"/>
        </g>
      </g>
      <path class="cls-5" d="M141.16,145.7l1.26,16.19s-14.87,9.97-22.13,9.7-2.34-9.85,4.21-14.89c6.55-5.03,16.66-11,16.66-11Z"/>
      <path class="cls-5" d="M17.45,121.78c-3.52.31-5.49,1-7.74,2.37-2.95,1.78-6.61,5.42-5.9,7.26.65,1.68,5.26,2.63,23.58-1.13-.23-3.1-.45-6.2-.68-9.3-3.09.27-6.18.54-9.26.81Z"/>
      <path class="cls-5" d="M37.72,131.4c13.23,10.23,17.53,11.2,18.89,9.99,1.77-1.57-.64-7.47-2.82-10.68-3.12-4.59-7.56-6.3-9.04-6.8-2.02-.68-3.79-.86-4.99-.91-.68,2.8-1.36,5.59-2.04,8.39Z"/>
      <g>
        <path class="cls-3" d="M132.68,59.86c-.27-5.28,6.46-10.22,11.81-11.95,9.58-3.1,17.53,3.22,18.37,3.91,5.64,4.65,6.94,10.92,7.25,12.73-1.4,2.06-4.02,5.23-8.23,7.04-11.79,5.08-28.79-3.61-29.21-11.73Z"/>
        <path class="cls-1" d="M140.7,59.85c.92-1.96,3.19-2.44,3.41-2.48,2.25-.44,4.7.72,5.49,2.54,1.32,3.06-2.26,7.58-5.24,7.23-2.63-.31-5-4.44-3.66-7.29Z"/>
        <path class="cls-1" d="M151.67,61.2c.92-1.96,3.19-2.44,3.41-2.48,2.25-.44,4.7.72,5.49,2.54,1.32,3.06-2.26,7.58-5.24,7.23-2.63-.31-5-4.44-3.66-7.29Z"/>
        <path d="M144.68,63.64c-.97-.82.08-4.12,1.14-4.21.85-.08,2.46,1.85,1.67,3.31-.58,1.06-2.18,1.42-2.8.9Z"/>
        <path d="M155.55,64.98c-.97-.82.08-4.12,1.14-4.21.85-.08,2.46,1.85,1.67,3.31-.58,1.06-2.18,1.42-2.8.9Z"/>
        <path class="cls-6" d="M129.2,59.71c-.15,1.43-.67,6.51,2.37,8.68,1.21.86,2.89,1.19,4.24.75,2.9-.95,4.84-5.61,3.68-11.41,7.62.48,15.24.96,22.86,1.44-2.87,5.7-2.78,10.71-.47,12.42,1.63,1.21,4,.49,4.37.37,4.78-1.46,7.69-8.43,7.38-13.69-.52-8.87-10.42-16.95-20.42-17.56-12.58-.77-23.13,10.39-24.02,19Z"/>
      </g>
      <g>
        <path class="cls-3" d="M21.74,26.28c-.27-5.28,6.46-10.22,11.81-11.95,9.58-3.1,17.53,3.22,18.37,3.91,5.64,4.65,6.94,10.92,7.25,12.73-1.4,2.06-4.02,5.23-8.23,7.04-11.79,5.08-28.79-3.61-29.21-11.73Z"/>
        <path class="cls-1" d="M29.76,26.28c.92-1.96,3.19-2.44,3.41-2.48,2.25-.44,4.7.72,5.49,2.54,1.32,3.06-2.26,7.58-5.24,7.23-2.63-.31-5-4.44-3.66-7.29Z"/>
        <path class="cls-1" d="M40.73,27.62c.92-1.96,3.19-2.44,3.41-2.48,2.25-.44,4.7.72,5.49,2.54,1.32,3.06-2.26,7.58-5.24,7.23-2.63-.31-5-4.44-3.66-7.29Z"/>
        <path d="M31.74,32.07c-.97-.82.08-4.12,1.14-4.21.85-.08,2.46,1.85,1.67,3.31-.58,1.06-2.18,1.42-2.8.9Z"/>
        <path d="M42.61,33.4c-.97-.82.08-4.12,1.14-4.21.85-.08,2.46,1.85,1.67,3.31-.58,1.06-2.18,1.42-2.8.9Z"/>
        <path class="cls-6" d="M18.26,26.13c-.15,1.43-.67,6.51,2.37,8.68,1.21.86,2.89,1.19,4.24.75,2.9-.95,4.84-5.61,3.68-11.41,7.62.48,15.24.96,22.86,1.44-2.87,5.7-2.78,10.71-.47,12.42,1.63,1.21,4,.49,4.37.37,4.78-1.46,7.69-8.43,7.38-13.69-.52-8.87-10.42-16.95-20.42-17.56-12.58-.77-23.13,10.39-24.02,19Z"/>
      </g>
      <g>
        <path class="cls-4" d="M114.97,145.03c-.03,1.63.96,3.23,2.49,3.98,7.76,3.8,18.97,8.26,32.71,10.43,12.73,2.01,23.39,1.38,31.05.26,1.68-.25,2.86-1.62,2.86-3.36v-87.77c0-2.75-2.8-4.94-5.33-4.18-6.77,2.01-17.14,3.87-29.92,1.88-11.29-1.75-20.42-5.87-26.66-9.41-2.49-1.42-5.31.06-5.37,2.78l-1.83,85.38Z"/>
        <path class="cls-2" d="M120.28,108.45c6.41,3.2,17.14,7.66,30.68,9.08,12.97,1.36,23.2-.62,29.45-2.37.14-6.53.29-13.06.43-19.6-6.14,1.64-16.34,3.49-29.23,1.86-13.88-1.75-24.7-6.76-30.93-10.17-.13,7.07-.27,14.13-.4,21.2Z"/>
        <g>
          <path d="M129.44,100.42c1.92.46,2.88.68,4.8,1.08.78.16,1.46.39,2.04.7.58.3,1.03.65,1.35,1.04.32.39.48.81.48,1.26s-.16.8-.48,1.07c-.32.27-.78.44-1.37.51-.59.07-1.27.02-2.04-.14-.75-.16-1.13-.24-1.88-.41,0,.78,0,1.17-.01,1.95-1.15-.26-1.73-.39-2.88-.67,0-2.55,0-3.83,0-6.38ZM133.71,104.44c.3.06.57.08.79.06.22-.03.39-.09.5-.19.12-.1.17-.23.17-.39,0-.26-.13-.49-.4-.7-.26-.21-.62-.36-1.07-.46-.56-.12-.84-.18-1.4-.3,0,.67,0,1.01.01,1.68.55.12.83.18,1.38.3Z"/>
          <path d="M141.32,109.02c-.83-.42-1.46-.93-1.91-1.53-.44-.6-.67-1.24-.67-1.91s.23-1.23.68-1.67c.45-.43,1.09-.72,1.91-.87s1.77-.13,2.85.03c1.08.16,2.03.44,2.85.83.82.39,1.46.87,1.91,1.44.45.57.68,1.19.68,1.87s-.22,1.25-.67,1.71-1.08.79-1.91.95c-.83.17-1.78.18-2.86.01-1.08-.16-2.03-.45-2.86-.87ZM145.5,108.23c.38-.09.67-.26.88-.5.21-.24.31-.53.31-.89s-.1-.69-.31-.98c-.21-.29-.5-.53-.88-.74-.38-.2-.82-.34-1.32-.42-.49-.07-.93-.07-1.32.02-.38.09-.68.25-.88.47-.21.23-.31.52-.31.88s.1.68.31.98c.21.3.5.55.88.76.38.21.82.35,1.32.43.5.08.95.07,1.32-.03Z"/>
          <path d="M150.7,104.14c1.17.13,1.76.19,2.93.3v4.75c1.41.13,2.11.19,3.51.29,0,.66,0,.98,0,1.64-2.58-.19-3.87-.31-6.45-.59,0-2.55,0-3.83,0-6.38Z"/>
          <path d="M158.1,104.8c1.17.08,1.76.11,2.93.17,0,2.55,0,3.83,0,6.38-1.17-.06-1.76-.09-2.93-.17,0-2.55,0-3.83,0-6.38Z"/>
          <path d="M162.17,109.74c1.83-1.2,2.74-1.82,4.56-3.07-1.77-.03-2.66-.05-4.43-.13v-1.5c3.07.13,4.61.16,7.68.15v1.71c-1.82,1.28-2.73,1.9-4.56,3.13,1.88.04,2.82.05,4.69.05,0,.6,0,.9,0,1.5-3.18.01-4.77-.02-7.95-.15v-1.67Z"/>
          <path d="M171.27,105.17c2.75-.03,4.13-.07,6.87-.22v1.51c-1.63.09-2.44.12-4.07.16v.97c1.42-.04,2.12-.07,3.54-.14v1.31c-1.41.07-2.12.1-3.54.14v1.08c1.68-.05,2.53-.08,4.21-.17v1.51c-2.8.15-4.2.19-7.01.22v-6.38Z"/>
          <path d="M179.25,104.89c1.16-.07,1.75-.11,2.91-.2v6.38c-1.16.09-1.74.13-2.91.2v-6.38Z"/>
        </g>
      </g>
      <g>
        <path class="cls-4" d="M1,112.02c-.03,1.63.96,3.23,2.49,3.98,7.76,3.8,18.97,8.26,32.71,10.43,12.73,2.01,23.39,1.38,31.05.26,1.68-.25,2.86-1.62,2.86-3.36V35.57c0-2.75-2.8-4.94-5.33-4.18-6.77,2.01-17.14,3.87-29.92,1.88-11.29-1.75-20.42-5.87-26.66-9.41-2.49-1.42-5.31.06-5.37,2.78l-1.83,85.38Z"/>
        <path class="cls-2" d="M6.32,75.45c6.41,3.2,17.14,7.66,30.68,9.08,12.97,1.36,23.2-.62,29.45-2.37.14-6.53.29-13.06.43-19.6-6.14,1.64-16.34,3.49-29.23,1.86-13.88-1.75-24.7-6.76-30.93-10.17-.13,7.07-.27,14.13-.4,21.2Z"/>
        <g>
          <path d="M10.19,62.87c1.97.55,2.96.82,4.94,1.31.8.2,1.5.52,2.1.95.6.43,1.06.94,1.38,1.54.33.59.49,1.24.49,1.93s-.17,1.25-.5,1.69c-.33.44-.8.73-1.41.88-.6.14-1.3.12-2.1-.08-.77-.19-1.16-.29-1.93-.5,0,1.21,0,1.82-.01,3.03-1.19-.31-1.78-.47-2.97-.81,0-3.98,0-5.97,0-9.94ZM14.59,68.8c.31.08.58.09.81.04.23-.05.4-.16.52-.33.12-.16.18-.37.18-.62,0-.4-.14-.75-.41-1.06-.27-.31-.64-.52-1.1-.64-.58-.15-.86-.22-1.44-.37,0,1.04,0,1.57.01,2.61.57.15.85.22,1.42.37Z"/>
          <path d="M22.42,75.49c-.85-.61-1.5-1.37-1.96-2.28-.46-.91-.69-1.89-.69-2.95s.23-1.93.7-2.63c.47-.7,1.12-1.18,1.96-1.45.84-.26,1.82-.29,2.93-.08,1.11.21,2.09.6,2.94,1.19.85.58,1.5,1.31,1.97,2.19.46.88.7,1.84.7,2.9s-.23,1.95-.69,2.69c-.46.74-1.11,1.25-1.97,1.54-.85.29-1.83.33-2.95.12-1.11-.21-2.09-.62-2.94-1.23ZM26.72,74.07c.39-.16.69-.43.9-.8.21-.37.32-.84.32-1.39s-.11-1.07-.32-1.51-.51-.82-.9-1.12c-.39-.3-.84-.5-1.36-.6-.51-.1-.96-.07-1.35.09-.39.15-.7.41-.91.78-.21.36-.32.83-.32,1.39s.11,1.06.32,1.51c.21.45.52.84.91,1.15.39.31.84.51,1.35.61.52.1.97.07,1.36-.1Z"/>
          <path d="M32.07,67.57c1.21.18,1.81.26,3.02.42,0,2.96,0,4.43,0,7.39,1.45.19,2.17.28,3.62.43,0,1.02,0,1.53,0,2.55-2.65-.29-3.98-.46-6.63-.86,0-3.98,0-5.96,0-9.94Z"/>
          <path d="M39.7,68.53c1.21.12,1.81.18,3.02.29,0,3.98,0,5.97,0,9.94-1.21-.1-1.81-.16-3.02-.29,0-3.98,0-5.96,0-9.94Z"/>
          <path d="M46.4,78.72c-.82-.49-1.46-1.15-1.91-1.98s-.67-1.79-.67-2.86.21-1.99.64-2.76c.43-.77,1.03-1.34,1.82-1.72.79-.38,1.71-.55,2.76-.5.85.04,1.62.23,2.3.56.68.33,1.23.78,1.65,1.35s.69,1.23.81,1.99c-1.1.26-1.65.38-2.74.62-.07-.4-.19-.74-.37-1.03-.19-.28-.41-.51-.68-.67-.27-.16-.58-.25-.94-.27-.45-.02-.85.07-1.18.28-.33.21-.59.51-.77.91-.18.4-.27.88-.27,1.45s.1,1.05.31,1.47c.2.43.49.76.87,1.01.38.24.81.38,1.31.4.43.02.81-.06,1.16-.23.35-.17.64-.42.87-.75.23-.32.37-.71.42-1.15,1.12.17,1.68.26,2.8.41-.08.9-.36,1.68-.82,2.34-.46.66-1.07,1.16-1.84,1.5-.76.34-1.64.49-2.63.44-1.09-.05-2.05-.32-2.87-.81Z"/>
          <path d="M55.52,69.42c2.83.02,4.24,0,7.06-.09v2.36c-1.67.06-2.51.08-4.18.09v1.51c1.45-.01,2.18-.03,3.63-.07v2.04c-1.45.05-2.18.06-3.63.07v1.68c1.73-.02,2.59-.03,4.32-.1v2.36c-2.87.1-4.31.12-7.2.1,0-3.98,0-5.96,0-9.94Z"/>
        </g>
      </g>
      <path class="cls-5" d="M182.68,197.84c-.05,4.36-.1,8.72-.15,13.08-6.12,4.22-15.7,10.11-18.5,7.52-2.11-1.96.19-8.25,2.86-12.03,5.14-7.28,13.85-8.37,15.79-8.57Z"/>
      <path class="cls-5" d="M195.62,200.55v11.88c1.43,1.35,3.66,3.32,6.62,5.41,4.73,3.35,8.87,6.28,10.53,5.11,2.07-1.45.19-9.27-4.06-14.59-4.41-5.52-10.52-7.25-13.08-7.82Z"/>
      <path class="cls-5" d="M253.12,235.4c.47,4.22.94,8.44,1.41,12.66-3.23,1.73-17.59,9.23-20.86,5.39-2.07-2.43.83-8.8,4.22-12.42,5.67-6.08,13.85-5.71,15.24-5.63Z"/>
      <path class="cls-5" d="M264.37,235.16v12.89c8.05,5.41,14.98,8.03,17.11,5.86,2.14-2.18-.59-9.21-4.69-13.36-4.59-4.65-10.48-5.27-12.42-5.39Z"/>
      <path class="cls-5" d="M324.38,250.59c.23,4.38.47,8.75.7,13.13-17.21,7.09-22.33,6.61-23.68,4.69-1.68-2.41,2.04-7.8,3.99-10.08,6.6-7.73,16.84-7.77,18.99-7.74Z"/>
      <path class="cls-5" d="M340.32,252.51v13.13c3.06,1.57,17.29,8.74,20.16,5.16,1.98-2.47-1.8-9.6-6.56-13.6-5.28-4.43-11.42-4.7-13.6-4.69Z"/>
      <path class="cls-5" d="M393.06,236.57c.16,4.53.31,9.06.47,13.6-14.72,6.76-19.06,6.67-20.16,5.16-1.57-2.16,2.84-8.18,5.86-11.25,4.96-5.04,10.79-6.82,13.83-7.5Z"/>
      <path class="cls-5" d="M405.95,236.25v12.42c7.73,4.76,17.21,9.77,19.93,7.03,2.12-2.13-.83-8-1.17-8.67-4.77-9.3-16.97-10.62-18.75-10.78Z"/>
      <path class="cls-5" d="M454.48,255.09c-.23,4.38-.47,8.75-.7,13.13-18.49,4.49-23.79,3.36-24.85,1.17-1.35-2.79,3.76-8.25,7.68-10.93,7.38-5.06,15.64-3.79,17.87-3.37Z"/>
      <path class="cls-5" d="M470.65,255.56c.08,3.91.16,7.81.23,11.72,18.23,6.88,23.78,6.5,25.08,4.45,1.64-2.58-2.9-8.71-7.03-11.96-7.39-5.8-16.29-4.55-18.28-4.22Z"/>
      <g>
        <path class="cls-3" d="M177.15,111.5c-.27-5.28,6.46-10.22,11.81-11.95,9.58-3.1,17.53,3.22,18.37,3.91,5.64,4.65,6.94,10.92,7.25,12.73-1.4,2.06-4.02,5.23-8.23,7.04-11.79,5.08-28.79-3.61-29.21-11.73Z"/>
        <path class="cls-1" d="M185.17,111.5c.92-1.96,3.19-2.44,3.41-2.48,2.25-.44,4.7.72,5.49,2.54,1.32,3.06-2.26,7.58-5.24,7.23-2.63-.31-5-4.44-3.66-7.29Z"/>
        <path class="cls-1" d="M196.14,112.84c.92-1.96,3.19-2.44,3.41-2.48,2.25-.44,4.7.72,5.49,2.54,1.32,3.06-2.26,7.58-5.24,7.23-2.63-.31-5-4.44-3.66-7.29Z"/>
        <path d="M188.15,116.29c-.97-.82.08-4.12,1.14-4.21.85-.08,2.46,1.85,1.67,3.31-.58,1.06-2.18,1.42-2.8.9Z"/>
        <path d="M199.02,117.62c-.97-.82.08-4.12,1.14-4.21.85-.08,2.46,1.85,1.67,3.31-.58,1.06-2.18,1.42-2.8.9Z"/>
        <path class="cls-6" d="M173.67,111.35c-.15,1.43-.67,6.51,2.37,8.68,1.21.86,2.89,1.19,4.24.75,2.9-.95,4.84-5.61,3.68-11.41,7.62.48,15.24.96,22.86,1.44-2.87,5.7-2.78,10.71-.47,12.42,1.63,1.21,4,.49,4.37.37,4.78-1.46,7.69-8.43,7.38-13.69-.52-8.87-10.42-16.95-20.42-17.56-12.58-.77-23.13,10.39-24.02,19Z"/>
      </g>
      <g>
        <path class="cls-3" d="M380.43,136.83c-.91-5.21,5.17-10.93,10.27-13.3,9.14-4.25,17.79,1.06,18.71,1.65,6.17,3.92,8.22,9.99,8.75,11.75-1.14,2.22-3.35,5.68-7.31,7.99-11.08,6.48-29.02-.07-30.42-8.08Z"/>
        <path class="cls-1" d="M388.39,135.85c.67-2.06,2.86-2.81,3.08-2.88,2.18-.71,4.76.14,5.76,1.85,1.69,2.88-1.32,7.8-4.32,7.81-2.65.01-5.5-3.8-4.52-6.79Z"/>
        <path class="cls-1" d="M399.45,135.85c.67-2.06,2.86-2.81,3.08-2.88,2.18-.71,4.76.14,5.76,1.85,1.69,2.88-1.32,7.8-4.32,7.81-2.65.01-5.5-3.8-4.52-6.79Z"/>
        <path d="M393.93,139.24c-1.06-.69-.42-4.1.62-4.32.84-.18,2.67,1.54,2.06,3.08-.44,1.13-1.99,1.67-2.67,1.23Z"/>
        <path d="M404.89,139.24c-1.06-.69-.42-4.1.62-4.32.84-.18,2.67,1.54,2.06,3.08-.44,1.13-1.99,1.67-2.67,1.23Z"/>
        <path class="cls-6" d="M376.96,137.11c.03,1.43.13,6.54,3.41,8.32,1.31.71,3.01.83,4.3.23,2.76-1.29,4.12-6.15,2.26-11.77,7.62-.45,15.24-.91,22.87-1.36-2.15,6-1.46,10.97,1.05,12.39,1.77,1,4.03,0,4.38-.16,4.57-2.03,6.61-9.3,5.66-14.49-1.6-8.74-12.4-15.55-22.41-14.94-12.59.77-21.69,13.13-21.52,21.79Z"/>
      </g>
      <g>
        <path class="cls-3" d="M315.18,151.46c-.91-5.21,5.17-10.93,10.27-13.3,9.14-4.25,17.79,1.06,18.71,1.65,6.17,3.92,8.22,9.99,8.75,11.75-1.14,2.22-3.35,5.68-7.31,7.99-11.08,6.48-29.02-.07-30.42-8.08Z"/>
        <path class="cls-1" d="M323.14,150.48c.67-2.06,2.86-2.81,3.08-2.88,2.18-.71,4.76.14,5.76,1.85,1.69,2.88-1.32,7.8-4.32,7.81-2.65.01-5.5-3.8-4.52-6.79Z"/>
        <path class="cls-1" d="M334.19,150.48c.67-2.06,2.86-2.81,3.08-2.88,2.18-.71,4.76.14,5.76,1.85,1.69,2.88-1.32,7.8-4.32,7.81-2.65.01-5.5-3.8-4.52-6.79Z"/>
        <path d="M325.68,154.87c-1.06-.69-.42-4.1.62-4.32.84-.18,2.67,1.54,2.06,3.08-.44,1.13-1.99,1.67-2.67,1.23Z"/>
        <path d="M336.63,154.87c-1.06-.69-.42-4.1.62-4.32.84-.18,2.67,1.54,2.06,3.08-.44,1.13-1.99,1.67-2.67,1.23Z"/>
        <path class="cls-6" d="M311.7,151.74c.03,1.43.13,6.54,3.41,8.32,1.31.71,3.01.83,4.3.23,2.76-1.29,4.12-6.15,2.26-11.77,7.62-.45,15.24-.91,22.87-1.36-2.15,6-1.46,10.97,1.05,12.39,1.77,1,4.03,0,4.38-.16,4.57-2.03,6.61-9.3,5.66-14.49-1.6-8.74-12.4-15.55-22.41-14.94-12.59.77-21.69,13.13-21.52,21.79Z"/>
      </g>
      <g>
        <path class="cls-3" d="M242.6,131.92c-.91-5.21,5.17-10.93,10.27-13.3,9.14-4.25,17.79,1.06,18.71,1.65,6.17,3.92,8.22,9.99,8.75,11.75-1.14,2.22-3.35,5.68-7.31,7.99-11.08,6.48-29.02-.07-30.42-8.08Z"/>
        <path class="cls-1" d="M250.56,130.94c.67-2.06,2.86-2.81,3.08-2.88,2.18-.71,4.76.14,5.76,1.85,1.69,2.88-1.32,7.8-4.32,7.81-2.65.01-5.5-3.8-4.52-6.79Z"/>
        <path class="cls-1" d="M261.62,130.94c.67-2.06,2.86-2.81,3.08-2.88,2.18-.71,4.76.14,5.76,1.85,1.69,2.88-1.32,7.8-4.32,7.81-2.65.01-5.5-3.8-4.52-6.79Z"/>
        <path d="M254.1,137.33c-1.06-.69-.42-4.1.62-4.32.84-.18,2.67,1.54,2.06,3.08-.44,1.13-1.99,1.67-2.67,1.23Z"/>
        <path d="M265.06,137.33c-1.06-.69-.42-4.1.62-4.32.84-.18,2.67,1.54,2.06,3.08-.44,1.13-1.99,1.67-2.67,1.23Z"/>
        <path class="cls-6" d="M239.13,132.2c.03,1.43.13,6.54,3.41,8.32,1.31.71,3.01.83,4.3.23,2.76-1.29,4.12-6.15,2.26-11.77,7.62-.45,15.24-.91,22.87-1.36-2.15,6-1.46,10.97,1.05,12.39,1.77,1,4.03,0,4.38-.16,4.57-2.03,6.61-9.3,5.66-14.49-1.6-8.74-12.4-15.55-22.41-14.94-12.59.77-21.69,13.13-21.52,21.79Z"/>
      </g>
      <g>
        <path class="cls-4" d="M157.71,193.91c-.03,1.63.96,3.23,2.49,3.98,7.76,3.8,18.97,8.26,32.71,10.43,12.73,2.01,23.39,1.38,31.05.26,1.68-.25,2.86-1.62,2.86-3.36v-87.77c0-2.75-2.8-4.94-5.33-4.18-6.77,2.01-17.14,3.87-29.92,1.88-11.29-1.75-20.42-5.87-26.66-9.41-2.49-1.42-5.31.06-5.37,2.78l-1.83,85.38Z"/>
        <path class="cls-2" d="M163.03,157.34c6.41,3.2,17.14,7.66,30.68,9.08,12.97,1.36,23.2-.62,29.45-2.37.14-6.53.29-13.06.43-19.6-6.14,1.64-16.34,3.49-29.23,1.86-13.88-1.75-24.7-6.76-30.93-10.17-.13,7.07-.27,14.13-.4,21.2Z"/>
        <g>
          <path d="M174.63,147.9c1.74.43,2.62.63,4.37,1.01.71.15,1.33.37,1.85.66.53.29.93.62,1.22,1,.29.38.43.78.43,1.21s-.15.76-.44,1.03-.71.43-1.24.49c-.53.07-1.15.03-1.85-.13-.68-.15-1.03-.23-1.71-.38,0,.75,0,1.12-.01,1.87-1.05-.24-1.57-.36-2.62-.62,0-2.46,0-3.68,0-6.14ZM178.52,151.74c.28.06.51.08.71.05.2-.03.35-.09.46-.18.11-.1.16-.22.16-.38,0-.25-.12-.47-.36-.67-.24-.2-.56-.34-.97-.43-.51-.11-.76-.17-1.27-.28,0,.65,0,.97.01,1.61.5.11.75.17,1.26.28Z"/>
          <path d="M185.43,156.14c-.75-.4-1.33-.89-1.73-1.47-.4-.58-.61-1.19-.61-1.84s.21-1.18.62-1.6c.41-.42.99-.69,1.73-.83.74-.14,1.61-.13,2.59.03.98.16,1.85.43,2.6.81.75.38,1.33.85,1.74,1.4.41.55.61,1.15.61,1.8s-.2,1.2-.61,1.64c-.41.44-.98.75-1.74.9-.75.16-1.62.16-2.6,0-.98-.16-1.85-.44-2.6-.85ZM189.23,155.38c.34-.09.61-.25.8-.47.19-.23.28-.51.28-.85s-.09-.66-.28-.94c-.19-.28-.45-.52-.8-.71-.34-.2-.74-.33-1.2-.41-.45-.07-.85-.07-1.2.02-.35.08-.61.23-.8.45-.19.22-.28.5-.28.85s.09.66.28.94c.19.29.46.53.8.73.35.2.75.34,1.2.41.46.07.86.07,1.2-.02Z"/>
          <path d="M193.96,151.49c1.07.14,1.6.2,2.67.32v4.56c1.28.14,1.92.21,3.2.33v1.58c-2.35-.22-3.52-.35-5.86-.64,0-2.46,0-3.68,0-6.14Z"/>
          <path d="M200.7,152.21c1.07.09,1.6.14,2.67.21,0,2.46,0,3.68,0,6.14-1.07-.08-1.6-.12-2.67-.21,0-2.46,0-3.68,0-6.14Z"/>
          <path d="M206.62,158.58c-.73-.31-1.29-.72-1.69-1.24-.4-.52-.6-1.11-.6-1.77s.19-1.23.57-1.7c.38-.47.91-.82,1.61-1.05.7-.23,1.51-.33,2.44-.29.75.03,1.43.15,2.03.35.6.21,1.09.49,1.46.84.37.35.61.76.72,1.23-.97.16-1.46.23-2.43.38-.06-.25-.17-.46-.33-.63-.16-.18-.36-.32-.6-.42-.24-.1-.52-.16-.83-.17-.4-.02-.75.04-1.04.17-.29.13-.52.31-.68.56-.16.25-.24.54-.24.89s.09.65.27.91c.18.27.44.47.77.63.33.15.72.24,1.16.25.38.01.72-.03,1.03-.14s.56-.26.77-.46c.2-.2.33-.44.37-.71.99.11,1.49.16,2.48.26-.07.55-.32,1.03-.72,1.44-.41.41-.95.72-1.63.92-.67.21-1.45.3-2.33.26-.97-.04-1.81-.21-2.54-.52Z"/>
          <path d="M214.7,152.85c1.06,0,1.6,0,2.66,0v6.14c-1.06.01-1.59.01-2.66,0v-6.14ZM215.38,152.06c.76-.41,1.14-.62,1.9-1.04.12.11.18.16.29.26-.75.42-1.13.63-1.89,1.04-.12-.11-.18-.16-.31-.27Z"/>
          <path d="M221.09,152.76c1.3-.04,1.94-.07,3.24-.14,1.22,2.39,1.82,3.58,3.04,5.95-1.11.08-1.66.11-2.77.18-.18-.41-.27-.62-.45-1.04-1.16.06-1.74.09-2.91.13-.19.43-.28.65-.46,1.08-1.1.04-1.64.05-2.74.07,1.22-2.47,1.84-3.72,3.06-6.21ZM223.73,156.46c-.41-.94-.61-1.41-1.01-2.35,0,0-.01,0-.02,0-.42.98-.62,1.46-1.04,2.44.83-.03,1.25-.05,2.08-.09Z"/>
        </g>
      </g>
      <g>
        <path class="cls-4" d="M358.52,232.65c-.04,1.81,1.06,3.45,2.76,4.08,8.61,3.16,21.06,6.59,36.32,7.12,14.13.49,25.97-1.66,34.48-3.95,1.87-.5,3.17-2.18,3.17-4.12v-97.45c0-3.05-3.1-5.1-5.92-3.92-7.52,3.16-19.03,6.63-33.22,6.17-12.53-.41-22.68-3.73-29.6-6.81-2.77-1.23-5.9.79-5.96,3.82l-2.03,95.05Z"/>
        <path class="cls-2" d="M364.42,191.32c7.12,2.68,19.03,6.17,34.06,5.9,14.4-.26,25.76-3.85,32.7-6.64.16-7.27.32-14.54.48-21.82-6.82,2.66-18.14,6.1-32.45,6.05-15.41-.06-27.43-4.13-34.35-7.08-.15,7.86-.29,15.73-.44,23.59Z"/>
        <g>
          <path d="M368.69,176.82c2.12.34,3.18.49,5.31.76.86.11,1.61.36,2.25.76.64.4,1.14.9,1.49,1.52.35.61.53,1.3.53,2.07s-.18,1.41-.54,1.94c-.36.54-.86.93-1.51,1.17s-1.4.31-2.25.2c-.83-.11-1.25-.16-2.08-.28,0,1.35,0,2.02-.02,3.37-1.28-.18-1.91-.27-3.19-.48,0-4.42,0-6.62,0-11.04ZM373.42,182.79c.34.04.63.02.87-.07.24-.09.43-.24.56-.44.13-.2.19-.44.19-.71,0-.44-.15-.81-.44-1.12-.29-.3-.69-.49-1.18-.55-.62-.08-.93-.12-1.54-.21,0,1.16,0,1.74.02,2.9.61.09.92.13,1.53.21Z"/>
          <path d="M381.83,189.13c-.91-.56-1.62-1.32-2.11-2.27-.49-.95-.74-2.01-.74-3.18s.25-2.17.75-3.02c.5-.84,1.2-1.47,2.11-1.88.9-.41,1.95-.57,3.15-.49,1.19.08,2.25.39,3.16.92.91.54,1.62,1.26,2.11,2.17.5.91.75,1.95.75,3.12s-.25,2.2-.74,3.07c-.49.88-1.2,1.54-2.11,1.97-.92.43-1.97.61-3.17.53-1.19-.08-2.25-.41-3.16-.97ZM386.46,186.97c.42-.23.74-.57.97-1.01.23-.44.34-.97.34-1.59s-.11-1.17-.34-1.63c-.23-.46-.55-.84-.97-1.12s-.91-.44-1.46-.48c-.55-.04-1.03.05-1.46.28-.42.22-.75.55-.98.98-.23.43-.34.96-.34,1.59s.11,1.16.34,1.64c.23.48.55.86.98,1.15.42.29.91.45,1.46.49.56.04,1.04-.06,1.46-.29Z"/>
          <path d="M392.21,179.03c1.3.04,1.95.05,3.24.07,0,3.28,0,4.92,0,8.21,1.55.02,2.33.02,3.89,0,0,1.13,0,1.7,0,2.83-2.85.02-4.28,0-7.13-.08,0-4.42,0-6.62,0-11.04Z"/>
          <path d="M400.4,179.1c1.3-.02,1.95-.03,3.24-.07,0,4.42,0,6.62,0,11.04-1.3.04-1.95.06-3.24.07,0-4.42,0-6.62,0-11.04Z"/>
          <path d="M404.9,187.13c2.02-2.29,3.03-3.45,5.05-5.8-1.96.13-2.94.18-4.9.25,0-1.04,0-1.56,0-2.6,3.4-.13,5.1-.24,8.5-.52v2.96c-2.02,2.37-3.03,3.54-5.04,5.85,2.08-.12,3.12-.19,5.19-.37,0,1.03,0,1.55,0,2.59-3.51.3-5.27.41-8.79.54,0-1.16,0-1.74,0-2.89Z"/>
          <path d="M414.96,178.33c3.05-.28,4.57-.45,7.6-.86v2.62c-1.8.24-2.7.35-4.51.55v1.68c1.57-.17,2.35-.26,3.91-.47v2.26c-1.56.2-2.35.3-3.91.47v1.86c1.86-.2,2.79-.32,4.65-.57v2.62c-3.1.42-4.65.59-7.75.88,0-4.42,0-6.62,0-11.04Z"/>
          <path d="M423.8,177.3c1.29-.18,1.93-.28,3.22-.48v11.04c-1.29.2-1.93.3-3.22.48v-11.04Z"/>
        </g>
      </g>
      <path class="cls-3" d="M446.19,155.96c-.91-5.21,5.17-10.93,10.27-13.3,9.14-4.25,17.79,1.06,18.71,1.65,6.17,3.92,8.22,9.99,8.75,11.75-1.14,2.22-3.35,5.68-7.31,7.99-11.08,6.48-29.02-.07-30.42-8.08Z"/>
      <path class="cls-1" d="M454.15,154.98c.67-2.06,2.86-2.81,3.08-2.88,2.18-.71,4.76.14,5.76,1.85,1.69,2.88-1.32,7.8-4.32,7.81-2.65.01-5.5-3.8-4.52-6.79Z"/>
      <path class="cls-1" d="M465.21,154.98c.67-2.06,2.86-2.81,3.08-2.88,2.18-.71,4.76.14,5.76,1.85,1.69,2.88-1.32,7.8-4.32,7.81-2.65.01-5.5-3.8-4.52-6.79Z"/>
      <path d="M459.27,159.37c-1.06-.69-.42-4.1.62-4.32.84-.18,2.67,1.54,2.06,3.08-.44,1.13-1.99,1.67-2.67,1.23Z"/>
      <path d="M470.22,159.37c-1.06-.69-.42-4.1.62-4.32.84-.18,2.67,1.54,2.06,3.08-.44,1.13-1.99,1.67-2.67,1.23Z"/>
      <path class="cls-6" d="M442.72,156.24c.03,1.43.13,6.54,3.41,8.32,1.31.71,3.01.83,4.3.23,2.76-1.29,4.12-6.15,2.26-11.77,7.62-.45,15.24-.91,22.87-1.36-2.15,6-1.46,10.97,1.05,12.39,1.77,1,4.03,0,4.38-.16,4.57-2.03,6.61-9.3,5.66-14.49-1.6-8.74-12.4-15.55-22.41-14.94-12.59.77-21.69,13.13-21.52,21.79Z"/>
      <g>
        <path class="cls-4" d="M219.21,230.77c-.04,1.81,1.06,3.45,2.76,4.08,8.61,3.16,21.06,6.59,36.32,7.12,14.13.49,25.97-1.66,34.48-3.95,1.87-.5,3.17-2.18,3.17-4.12v-97.45c0-3.05-3.1-5.1-5.92-3.92-7.52,3.16-19.03,6.63-33.22,6.17-12.53-.41-22.68-3.73-29.6-6.81-2.77-1.23-5.9.79-5.96,3.82l-2.03,95.05Z"/>
        <path class="cls-2" d="M225.11,189.44c7.12,2.68,19.03,6.17,34.06,5.9,14.4-.26,25.76-3.85,32.7-6.64.16-7.27.32-14.54.48-21.82-6.82,2.66-18.14,6.1-32.45,6.05-15.41-.06-27.43-4.13-34.35-7.08-.15,7.86-.29,15.73-.44,23.59Z"/>
        <g>
          <path d="M229.41,174.95c2.19.35,3.29.5,5.49.79.89.11,1.67.37,2.33.77.66.4,1.17.91,1.54,1.52.36.61.55,1.3.55,2.08,0,.76-.18,1.41-.55,1.94-.37.54-.89.93-1.56,1.17-.67.24-1.45.31-2.33.19-.86-.11-1.29-.17-2.15-.29,0,1.35,0,2.02-.02,3.37-1.32-.18-1.98-.28-3.29-.49,0-4.42,0-6.62,0-11.04ZM234.3,180.93c.35.05.65.02.9-.07.25-.09.44-.24.58-.44.13-.2.2-.44.2-.71,0-.44-.15-.81-.45-1.12-.3-.31-.71-.49-1.22-.56-.64-.08-.96-.13-1.6-.22,0,1.16,0,1.74.02,2.9.63.09.95.13,1.58.21Z"/>
          <path d="M242.99,187.29c-.95-.56-1.67-1.32-2.18-2.27-.51-.95-.76-2.01-.76-3.18s.26-2.17.78-3.02c.52-.84,1.24-1.47,2.18-1.88.93-.41,2.02-.57,3.25-.49s2.32.39,3.26.92c.94.53,1.67,1.25,2.18,2.16.51.91.77,1.95.77,3.12s-.25,2.2-.76,3.08c-.51.88-1.24,1.54-2.18,1.98-.95.44-2.04.62-3.27.54s-2.32-.41-3.27-.97ZM247.77,185.13c.43-.23.77-.57,1-1.01.24-.44.35-.97.35-1.59s-.12-1.17-.35-1.63c-.24-.46-.57-.84-1-1.12-.43-.28-.94-.44-1.51-.48-.57-.04-1.07.05-1.5.28-.44.22-.77.55-1.01.98-.24.43-.35.96-.35,1.59s.12,1.16.35,1.64c.24.48.57.86,1.01,1.15.44.29.94.45,1.5.49.58.04,1.08-.06,1.51-.29Z"/>
          <path d="M253.71,177.18c1.34.04,2.01.05,3.35.06,0,3.28,0,4.92,0,8.21,1.61.01,2.41.01,4.02-.01,0,1.13,0,1.7,0,2.83-2.95.04-4.42.03-7.37-.05,0-4.42,0-6.62,0-11.04Z"/>
          <path d="M262.17,177.21c1.34-.03,2.01-.04,3.35-.09,0,4.42,0,6.62,0,11.04-1.34.05-2.01.07-3.35.09,0-4.42,0-6.62,0-11.04Z"/>
          <path d="M269.61,187.61c-.92-.43-1.62-1.08-2.12-1.94-.5-.86-.75-1.89-.75-3.08s.24-2.24.71-3.15c.47-.91,1.15-1.63,2.02-2.16.87-.53,1.9-.84,3.07-.93.94-.07,1.79.03,2.55.31.75.28,1.36.7,1.83,1.28.47.57.77,1.28.9,2.1-1.22.43-1.83.65-3.05,1.06-.07-.44-.21-.8-.42-1.09-.21-.29-.46-.51-.76-.65-.3-.15-.65-.2-1.05-.17-.5.04-.94.19-1.31.47-.37.28-.66.65-.86,1.12-.2.47-.3,1.02-.3,1.64s.11,1.15.34,1.6c.23.45.55.78.96,1,.42.22.9.31,1.46.26.47-.04.9-.17,1.29-.41.39-.24.71-.55.96-.95.26-.39.41-.84.46-1.34,1.24.04,1.87.06,3.11.07-.09,1.01-.39,1.91-.91,2.71-.51.8-1.19,1.44-2.04,1.92-.85.48-1.82.76-2.92.85-1.21.09-2.28-.08-3.19-.51Z"/>
          <path d="M279.75,176.03c3.14-.36,4.71-.57,7.84-1.07v2.62c-1.85.29-2.78.43-4.64.67v1.68c1.61-.21,2.42-.33,4.03-.58v2.26c-1.61.25-2.42.36-4.03.58v1.86c1.92-.25,2.88-.39,4.8-.7v2.62c-3.19.5-4.79.72-7.99,1.09,0-4.42,0-6.62,0-11.04Z"/>
        </g>
      </g>
      <g>
        <path class="cls-4" d="M294.26,248.84c-.04,1.81,1.06,3.45,2.76,4.08,8.61,3.16,21.06,6.59,36.32,7.12,14.13.49,25.97-1.66,34.48-3.95,1.87-.5,3.17-2.18,3.17-4.12v-97.45c0-3.05-3.1-5.1-5.92-3.92-7.52,3.16-19.03,6.63-33.22,6.17-12.53-.41-22.68-3.73-29.6-6.81-2.77-1.23-5.9.79-5.96,3.82l-2.03,95.05Z"/>
        <path class="cls-2" d="M300.16,207.51c7.12,2.68,19.03,6.17,34.06,5.9,14.4-.26,25.76-3.85,32.7-6.64.16-7.27.32-14.54.48-21.82-6.82,2.66-18.14,6.1-32.45,6.05-15.41-.06-27.43-4.13-34.35-7.08-.15,7.86-.29,15.73-.44,23.59Z"/>
        <g>
          <path d="M311.02,193.01c2.01.32,3.01.46,5.02.73.81.11,1.52.35,2.13.75.6.4,1.07.9,1.41,1.51.33.61.5,1.3.5,2.07s-.17,1.41-.51,1.95c-.34.54-.81.93-1.43,1.18-.61.25-1.32.32-2.13.21-.79-.1-1.18-.16-1.97-.27,0,1.35,0,2.02-.01,3.37-1.21-.17-1.81-.26-3.01-.45,0-4.42,0-6.62,0-11.04ZM315.49,198.95c.32.04.59.02.82-.08.23-.09.41-.24.53-.44.12-.2.18-.44.18-.72,0-.44-.14-.81-.41-1.11-.28-.3-.65-.48-1.12-.55-.58-.08-.88-.12-1.46-.2,0,1.16,0,1.74.01,2.9.58.08.87.12,1.45.2Z"/>
          <path d="M323.45,205.26c-.86-.56-1.53-1.32-1.99-2.26-.46-.94-.7-2-.7-3.17s.24-2.18.71-3.02c.47-.84,1.14-1.47,1.99-1.88.86-.41,1.85-.57,2.98-.49,1.13.08,2.12.39,2.99.93.86.54,1.53,1.26,2,2.18.47.92.71,1.96.71,3.13s-.23,2.2-.7,3.07c-.47.88-1.13,1.53-2,1.97-.87.43-1.86.61-2.99.53-1.13-.08-2.13-.41-2.99-.97ZM327.82,203.1c.4-.23.7-.57.92-1.01.22-.44.32-.97.32-1.59s-.11-1.17-.32-1.64c-.22-.47-.52-.84-.92-1.12s-.86-.44-1.38-.48c-.52-.04-.98.05-1.38.28-.4.22-.71.55-.92.98-.22.43-.32.96-.32,1.59s.11,1.16.32,1.64c.22.48.52.86.92,1.15.4.29.86.45,1.38.49.53.04.99-.06,1.38-.29Z"/>
          <path d="M333.26,195.18c1.23.05,1.84.06,3.07.09,0,3.28,0,4.92,0,8.21,1.47.03,2.21.04,3.68.04,0,1.13,0,1.7,0,2.83-2.7,0-4.05-.03-6.74-.13,0-4.42,0-6.62,0-11.04Z"/>
          <path d="M341,195.31c1.23,0,1.84-.01,3.07-.04,0,4.42,0,6.62,0,11.04-1.23.03-1.84.03-3.07.04,0-4.42,0-6.62,0-11.04Z"/>
          <path d="M345.26,203.38c1.91-2.27,2.87-3.42,4.78-5.74-1.85.1-2.78.14-4.64.19v-2.6c3.22-.09,4.83-.17,8.04-.4v2.96c-1.91,2.33-2.86,3.49-4.77,5.78,1.97-.09,2.95-.15,4.91-.29,0,1.03,0,1.55,0,2.59-3.32.24-4.99.32-8.32.41,0-1.16,0-1.74,0-2.89Z"/>
          <path d="M354.78,194.74c1.22-.1,1.84-.15,3.06-.27,0,4.42,0,6.62,0,11.04-1.22.12-1.83.17-3.06.27,0-4.42,0-6.62,0-11.04Z"/>
          <path d="M362.13,194.01c1.49-.18,2.24-.27,3.72-.48,1.4,4.22,2.1,6.32,3.49,10.52-1.27.2-1.91.3-3.18.48-.21-.73-.31-1.1-.52-1.84-1.34.18-2.01.27-3.34.43-.21.79-.32,1.18-.53,1.97-1.26.15-1.89.21-3.15.34,1.41-4.56,2.11-6.84,3.52-11.42ZM365.17,200.48c-.47-1.66-.7-2.49-1.17-4.16-.01,0-.02,0-.03,0-.48,1.79-.72,2.68-1.19,4.46.96-.12,1.43-.18,2.39-.31Z"/>
        </g>
      </g>
      <g>
        <path class="cls-4" d="M425.12,251.56c-.04,1.81,1.06,3.45,2.76,4.08,8.61,3.16,21.06,6.59,36.32,7.12,14.13.49,25.97-1.66,34.48-3.95,1.87-.5,3.17-2.18,3.17-4.12v-97.45c0-3.05-3.1-5.1-5.92-3.92-7.52,3.16-19.03,6.63-33.22,6.17-12.53-.41-22.68-3.73-29.6-6.81-2.77-1.23-5.9.79-5.96,3.82l-2.03,95.05Z"/>
        <path class="cls-2" d="M431.02,210.23c7.12,2.68,19.03,6.17,34.06,5.9,14.4-.26,25.76-3.85,32.7-6.64.16-7.27.32-14.54.48-21.82-6.82,2.66-18.14,6.1-32.45,6.05-15.41-.06-27.43-4.13-34.35-7.08-.15,7.86-.29,15.73-.44,23.59Z"/>
        <g>
          <path d="M443.13,196.83c1.93.31,2.9.45,4.83.7.78.1,1.47.32,2.05.65.58.33,1.03.74,1.35,1.24.32.5.48,1.05.48,1.67s-.16,1.13-.49,1.55c-.32.42-.78.73-1.37.91-.59.18-1.27.23-2.05.12-.76-.1-1.13-.15-1.89-.26,0,1.08,0,1.62-.01,2.7-1.16-.17-1.74-.25-2.9-.44,0-3.54,0-5.31,0-8.85ZM447.44,201.7c.31.04.57.03.79-.04.22-.07.39-.18.51-.34.12-.16.18-.35.18-.57,0-.35-.13-.66-.4-.9-.27-.25-.62-.4-1.07-.46-.56-.08-.84-.11-1.4-.19,0,.93,0,1.39.01,2.32.56.08.83.12,1.39.19Z"/>
          <path d="M455.08,206.92c-.83-.46-1.47-1.08-1.92-1.85-.45-.77-.67-1.62-.67-2.56s.23-1.74.68-2.41c.46-.67,1.09-1.16,1.92-1.47.82-.31,1.78-.43,2.86-.34s2.04.34,2.87.79c.83.44,1.47,1.03,1.92,1.77.45.74.68,1.58.68,2.52,0,.94-.22,1.76-.67,2.45-.45.7-1.09,1.22-1.92,1.55-.83.34-1.79.46-2.88.38-1.09-.08-2.04-.36-2.87-.82ZM459.28,205.26c.38-.18.67-.45.88-.8.21-.35.31-.78.31-1.27s-.1-.94-.31-1.32c-.21-.38-.5-.68-.88-.91-.38-.23-.82-.37-1.33-.41-.5-.04-.94.03-1.32.2s-.68.43-.89.78c-.21.34-.31.77-.31,1.27s.1.93.31,1.32c.21.39.5.7.89.94.38.24.83.38,1.32.42.51.04.95-.03,1.33-.21Z"/>
          <path d="M464.51,198.97c1.18.05,1.77.07,2.95.1,0,2.63,0,3.95,0,6.58,1.41.04,2.12.05,3.53.06,0,.91,0,1.36,0,2.27-2.59-.02-3.89-.05-6.48-.16,0-3.54,0-5.31,0-8.85Z"/>
          <path d="M471.96,199.13c1.18,0,1.77,0,2.95-.02,0,3.54,0,5.31,0,8.85-1.18.02-1.77.02-2.95.02,0-3.54,0-5.31,0-8.85Z"/>
          <path d="M478.52,207.61c-.81-.36-1.43-.89-1.87-1.6-.44-.7-.66-1.53-.66-2.49s.21-1.79.63-2.51c.42-.72,1.01-1.29,1.78-1.7.77-.41,1.67-.64,2.7-.69.83-.04,1.58.06,2.25.29.67.24,1.2.59,1.62,1.06.41.47.68,1.04.79,1.7-1.07.32-1.61.48-2.69.79-.06-.35-.19-.64-.37-.88-.18-.24-.4-.42-.67-.54-.26-.12-.57-.17-.92-.16-.44.02-.83.14-1.15.35-.33.22-.58.51-.75.88-.18.37-.27.81-.27,1.31s.1.92.3,1.29.48.64.85.82c.37.18.79.26,1.28.24.42-.02.79-.12,1.13-.31.34-.18.62-.43.85-.74.23-.31.36-.66.41-1.06,1.1.06,1.65.08,2.74.12-.08.8-.35,1.52-.8,2.15-.45.63-1.05,1.13-1.8,1.5-.75.37-1.6.58-2.57.62-1.07.05-2.01-.1-2.81-.46Z"/>
          <path d="M487.45,198.51c1.18-.1,1.77-.15,2.94-.26,0,3.54,0,5.31,0,8.85-1.18.11-1.76.17-2.94.26,0-3.54,0-5.31,0-8.85ZM488.21,197.3c.84-.66,1.26-1,2.1-1.67.13.14.2.21.33.35-.83.68-1.25,1.01-2.09,1.68-.14-.14-.2-.21-.34-.35Z"/>
          <path d="M494.52,197.8c1.43-.17,2.15-.27,3.58-.47,1.34,3.35,2.02,5.02,3.36,8.35-1.22.19-1.84.29-3.06.46-.2-.58-.3-.88-.5-1.46-1.29.18-1.93.26-3.22.42-.21.64-.31.96-.51,1.59-1.21.14-1.82.21-3.03.33,1.35-3.68,2.03-5.53,3.38-9.23ZM497.44,202.92c-.45-1.32-.67-1.98-1.12-3.31-.01,0-.02,0-.03,0-.46,1.44-.69,2.16-1.15,3.6.92-.11,1.38-.17,2.3-.3Z"/>
        </g>
      </g>
    </g>
  </g>
</svg>