<?xml version="1.0" encoding="UTF-8"?>
<svg id="Livello_2" data-name="Livello 2" xmlns="http://www.w3.org/2000/svg" xmlns:xlink="http://www.w3.org/1999/xlink" viewBox="0 0 3100.75 3184.41">
  <defs>
    <style>
      .cls-1 {
        clip-path: url(#clippath-6);
      }

      .cls-2 {
        clip-path: url(#clippath-7);
      }

      .cls-3, .cls-4 {
        fill: #0071bc;
      }

      .cls-5 {
        clip-path: url(#clippath-4);
      }

      .cls-6, .cls-7, .cls-8 {
        fill: none;
      }

      .cls-9 {
        fill: url(#Sfumatura_senza_nome_7);
      }

      .cls-9, .cls-10, .cls-7, .cls-8, .cls-11, .cls-4, .cls-12 {
        stroke: #000;
        stroke-width: 2px;
      }

      .cls-9, .cls-8 {
        stroke-linecap: round;
        stroke-linejoin: round;
      }

      .cls-10 {
        fill: #009245;
      }

      .cls-10, .cls-7, .cls-11, .cls-4, .cls-12 {
        stroke-miterlimit: 10;
      }

      .cls-13 {
        clip-path: url(#clippath-1);
      }

      .cls-14 {
        clip-path: url(#clippath-5);
      }

      .cls-15 {
        clip-path: url(#clippath-8);
      }

      .cls-16 {
        clip-path: url(#clippath-3);
      }

      .cls-11 {
        fill: #fbb03b;
      }

      .cls-17 {
        clip-path: url(#clippath-2);
      }

      .cls-12 {
        fill: #b0ffff;
      }

      .cls-18 {
        clip-path: url(#clippath);
      }
    </style>
    <clipPath id="clippath">
      <path class="cls-4" d="M1008.19,2986.38c-435.07-168.99-611.9-604.02-651.7-712.38-189.54-516.04,25.81-982.31,74.16-1037.1,4.63-5.25,38.54-41.64,73.04-98.88,21.24-35.24,33.4-62.95,35.96-68.54,34.95-76.44,207.41-244.97,334.84-321.36,223.44-133.94,870.94-321.75,1387.68,35.96,246.18,170.41,428.62,441.06,451.7,596.64,2.12,14.31,13.2,97.06,37.08,208.99,22.51,105.47,43.68,177.27,49.44,198.88,52.42,196.53-34.55,496.13-176.41,713.5-126.72,194.18-309.62,341.73-409,368.55-10.59,2.86-64.24,16.22-132.59,46.07-53.2,23.23-86.5,43.87-106.74,55.06-83.52,46.16-166.29,53.89-262.93,62.92-242.25,22.64-467.63,43.69-704.51-48.32Z"/>
    </clipPath>
    <clipPath id="clippath-1">
      <path class="cls-7" d="M1008.23,2986.38c-435.07-168.99-611.9-604.02-651.7-712.38-189.54-516.04,25.81-982.31,74.16-1037.1,4.63-5.25,38.54-41.64,73.04-98.88,21.24-35.24,33.4-62.95,35.96-68.54,34.95-76.44,207.41-244.97,334.84-321.36,223.44-133.94,870.94-321.75,1387.68,35.96,246.18,170.41,428.62,441.06,451.7,596.64,2.12,14.31,13.2,97.06,37.08,208.99,22.51,105.47,43.71,177.26,49.44,198.88,52.93,199.55-37.43,503.22-176.41,713.5-127.85,193.44-309.62,341.73-409,368.55-10.59,2.86-64.24,16.22-132.59,46.07-53.2,23.23-86.5,43.87-106.74,55.06-83.52,46.16-166.29,53.89-262.93,62.92-242.25,22.63-467.63,43.69-704.51-48.32Z"/>
    </clipPath>
    <clipPath id="clippath-2">
      <path class="cls-7" d="M1997.14,1739.1c50.85.36,54.11,6.21,72.28,0,28.65-9.79,32.53-28.44,53.69-28.91,17.88-.4,27.78,12.62,47.5,28.91,43.96,36.31,113.64,69.77,142.49,49.56,12.67-8.87,8.52-21.83,22.72-28.91,18.25-9.09,37.29,6.24,66.08,16.52,39.13,13.97,101.56,20.47,121.84-6.2,16.42-21.59,6.6-66.73-12.39-72.28-9.09-2.65-14.51,13.42-33.04,16.52-14.56,2.44-26.89-4.42-37.17-10.32-36.17-20.77-49.63-54.5-55.76-51.63-5.14,2.41,7.07,24.89-4.13,45.43-.47.87-9.64,17.26-20.65,16.52-17.77-1.2-27.4-46.21-28.91-53.69-7.06-35.02,3.85-40.96-4.13-61.95-12.47-32.8-49.79-46.43-64.02-51.63-25.55-9.33-65.61-15.27-72.28-2.06-6.79,13.45,22.82,43.32,39.24,59.89,25.55,25.78,41.05,31.36,45.43,51.63,3.98,18.4-3.75,37.16-8.26,37.17-6.35.02-9.11-37.18-16.52-37.17-5.71,0-4.39,22.05-20.65,35.11-8.57,6.88-23.24,12.23-33.04,6.2-13.45-8.28-13.22-35.24-2.06-45.43,11.68-10.67,33.5-1.32,35.11-6.2,1.84-5.59-28.88-11.88-45.43-39.24-4.03-6.66-3.93-9.13-14.45-28.91-12.41-23.31-14.97-24.43-16.52-24.78-11.91-2.7-23.97,26.25-49.56,61.95-11.85,16.53-37.4,51.57-76.41,74.34-15.53,9.06-74.42,43.45-116.67,16.52-20.97-13.36-32.99-38.73-34.07-61.95-.32-6.88-1.73-36.94,16.52-49.56,20.2-13.97,42.12,8.92,64.02-4.13,12.22-7.28,17.1-24.82,26.85-59.89,10.99-39.53,6.24-46.01,16.52-57.82,14.31-16.44,33.81-20.52,64.02-26.85,38.47-8.05,44.97-.39,59.89-10.33,23.95-15.95,13.04-39.59,37.17-59.89,21.84-18.36,52.53-17.29,74.34-16.52,38.62,1.36,41.53,14.54,66.08,10.32,33.74-5.8,61.89-36.48,70.21-68.15,3.27-12.44,6.76-25.73,0-37.17-14.51-24.55-56.57-7.25-74.34-30.98-7.96-10.63-5.31-31.87,0-74.34,4.83-38.66,10.39-51.51,2.07-59.89-9.98-10.03-33.93-7.62-47.5,4.13-8.19,7.09-11.96,17.02-14.46,64.02-2.73,51.38.31,67.05-8.26,97.06-4.08,14.28-9.94,28.86-22.71,41.3-5.07,4.94-21.58,21.02-35.11,16.52-14.63-4.87-19.32-31.68-18.59-49.56,1.27-31.02,18.97-37.89,18.59-70.21-.21-18.05-7.71-35.33-12.39-35.11-5.22.26-4.37,22.19-15.49,57.82-8.69,27.84-12.98,26.52-20.65,51.63-12.96,42.39-4.54,58.6-16.52,66.08-16.65,10.39-52.88-8.43-71.24-35.11-17.52-25.44-15.74-53.59-14.46-70.21,6.43-83.3,80.66-137.34,90.86-144.55,27.01-19.08,31.42-10.62,64.02-33.04,36.15-24.87,42.82-42.03,77.44-55.76,10.18-4.04,28.66-11.16,52.66-10.32,10.94.38,11.65,2.02,49.56,10.32,27.88,6.11,42.09,9.31,55.76,10.33,5.92.44,7.96.37,39.24,2.06,24.45,1.32,26.11,1.52,28.91,2.07,10.48,2.05,37.4,7.31,43.37,24.78,4.47,13.1-4.9,27.04-6.2,28.91-10.24,14.79-26.71,17.78-78.47,28.91-48.19,10.36-56.57,12.64-57.82,18.59-2.78,13.24,32.71,30.98,47.5,37.17,17.67,7.4,31.08,13,45.43,8.26,3.81-1.26,10.77-4.27,37.17-39.24,18.65-24.7,19.99-29.58,28.91-35.11,0,0,17.97-11.13,47.5-6.19,86.59,14.48,273.4,562.52,223.02,718.63-1.31,4.05-15.08,45.59-33.04,45.43-19.22-.17-24.45-47.95-61.95-59.89-10.17-3.24-26.25-4.97-30.97,2.07-7.83,11.67,16.02,46.85,47.5,66.08,11.66,7.12,22.39,10.35,43.37,16.52,55.6,16.35,77.15,11.69,82.6,24.78,5.95,14.29-12.29,37.71-28.91,49.56-20.67,14.74-33.12,7.52-72.28,24.78-15.35,6.77-27.86,14.23-35.11,18.59-31.54,18.95-38.67,29.71-55.76,30.97-15.4,1.14-27.36-6.29-37.17-12.39-20.93-13.01-29.73-29.57-53.69-72.28-24.95-44.47-23.75-47.99-35.11-61.95-17.9-22.01-50.25-50.63-61.95-43.37-13.44,8.35-3.47,66.48,28.91,107.38,24.25,30.64,39.04,23.77,64.02,59.89,23.82,34.45,37.17,64.02,37.17,64.02,8.57,18.98,11.47,29.85,22.71,35.1,4.22,1.97,11.25,3.92,47.5-6.19,33.35-9.31,41.27-14.83,53.69-10.32,8.83,3.2,17.88,10.73,20.65,20.65,1.78,6.36-.85,13.97-6.2,28.91-3.5,9.8-7.76,21.53-16.52,37.17-3.69,6.59-7.33,12.05-14.46,22.72-17.38,26-34.74,49.2-34.74,49.2-12.15,16.24-12.97,16.44-14.82,21.01-6.24,15.42-1.48,24.43-6.2,41.3-3.57,12.79-10.11,21.23-14.45,26.85-24.54,31.7-69.18,43.37-69.18,43.37,1,20.17-1.72,35.59-4.13,45.43-4.39,17.92-10.54,28.68-33.04,82.6-5.91,14.15-9.81,24.19-6.2,35.1,4.77,14.39,15.6,14.02,18.59,24.78,5.77,20.81-30.92,41.91-64.02,84.67-6.29,8.13-10.78,14.16-19.84,25.15-11.62,14.11-14.91,16.84-23.53,30.6-8.8,14.05-9.68,18.07-16.52,22.71-15.57,10.58-25.97-.06-49.56,6.2-26.97,7.15-33.57,26.42-51.63,22.72-7.07-1.45-11.31-5.48-18.59-12.39-10.43-9.91-13.1-17.72-28.91-51.63-8.62-18.49-18.58-39.24-18.59-39.24-17.01-58.1-28.91-92.93-28.91-92.93-33.89-99.15-58.17-116.22-45.43-144.55,8.5-18.89,21.54-16.31,45.43-53.69,23.56-36.87,18.01-50.55,16.52-53.69-4.72-9.98-13.33-8.62-26.85-18.59-25.25-18.62-19.15-41.04-39.24-66.08-16.34-20.37-42.06-32.58-64.02-35.11-38.34-4.42-48.84,22.56-92.93,28.91-47.17,6.8-86.73-16.67-107.38-28.91-14.53-8.62-63.94-38.92-86.73-101.19-4.16-11.37-15.32-42.95-10.33-82.6,4.32-34.27,19.01-61.1,33.04-86.73,23.8-43.48,38.81-51.12,37.17-74.34-1.88-26.56-22.72-33.49-18.59-53.69,5.1-24.92,41.47-37.18,53.69-41.3,19.09-6.43,36.73-6.44,71.24-6.19Z"/>
    </clipPath>
    <clipPath id="clippath-3">
      <path class="cls-7" d="M1099.89,3096.85c11.04,29.99,28.49,75.64,64.02,84.67,11.48,2.92,30.95,3.56,37.17-6.2,4.02-6.31,1.19-14.94-8.26-35.1-23.38-49.88-32.01-52.44-33.04-68.15-1.78-27.08,23.23-29,28.91-61.95,6.65-38.62-24.98-51.74-20.65-90.86,2.38-21.52,13.05-27.43,45.43-72.28,18.49-25.61,7.74-13.62,57.82-90.86,50.24-77.49,68.58-101.17,78.47-113.58,31.65-39.72,47.94-59.75,70.21-68.15,38.13-14.38,62.89,2.95,82.6-16.52,10.71-10.58,7.28-19.52,16.52-72.28,5.11-29.17,8.85-50.51,16.52-74.34,17.92-55.69,35.94-58.56,35.11-88.8-.88-31.92-21.72-56.28-37.17-74.34-9.54-11.15-27.17-31.32-55.76-43.37-40.23-16.95-52.05,3.3-92.93-8.26-39.51-11.18-36.08-32.26-105.32-72.28-29.62-17.12-44.44-25.68-64.02-28.91-42.19-6.97-63.8,11.51-86.73-4.13-19.78-13.49-10.45-31.83-30.98-47.5-24.17-18.45-64.96-14.25-90.86,0-7.15,3.93-3.9,3.53-49.56,37.17-11.37,8.38-18.15,13.24-28.91,16.52-7.69,2.34-32.64,9.94-45.43-4.13-7.54-8.29-9.76-22.91-4.13-33.04,9.32-16.78,35.74-13.3,37.17-22.72,1.06-6.97-12.31-16.09-24.78-20.65-31.51-11.52-50.54,8.57-80.54-4.13-6.67-2.82-16.45-6.96-20.65-16.52-9.41-21.39,17.07-51.74,20.65-55.76,17.27-19.37,31.66-20.73,30.98-28.91-1.02-12.24-34.69-26.22-55.76-15.49-11.65,5.94-9.19,14.21-26.85,33.04-7.03,7.5-18.79,19.79-37.17,26.85-8.28,3.18-32.06,12.31-43.37,2.06-10.55-9.55-5.1-31.31,2.06-59.89,6.49-25.89,10.45-25.46,16.52-49.56,9.21-36.57,3.05-49.3,14.46-57.82,13.17-9.84,35.12-3.15,45.43,0,15.25,4.65,15.9,9.51,35.11,16.52,17.99,6.57,29.06,10.61,39.24,6.2,16.23-7.04,11.56-27.52,26.85-35.11,15.05-7.47,41.33,1.59,51.63,18.59,13.7,22.61-9.39,45.25,4.13,66.08,11.17,17.22,41.53,24.24,51.63,14.45,16.42-15.92-32.92-64.6-12.39-109.45,5.74-12.54,18.81-28.87,33.04-41.3,13.61-11.89,15.03-8.64,22.72-16.52,25.04-25.7,7.51-57.77,30.98-80.54,8.38-8.14,18.33-11.52,33.04-16.52,22.75-7.74,28.16-2.74,43.37-10.33,18.05-9,14.82-18.21,35.11-30.98,18.95-11.92,37.72-13.92,43.37-14.46,18.73-1.78,22.1,3.45,51.63,6.19,28.92,2.69,43.38,4.03,53.69-4.13,15.85-12.54,18.3-41.58,8.26-61.95-13.33-27.04-47.63-36.68-70.21-30.98-15.19,3.83-15.81,12.27-28.91,12.39-14.35.13-26.09-10.92-49.56-33.04-16.54-15.58-16.72-18.87-16.52-20.65,1.59-14.09,37.88-28.32,68.15-20.65,11.59,2.94,23.56,10.91,47.5,26.85,20.03,13.34,23.8,18.09,35.11,20.65,12.95,2.93,34.7,2.75,45.43-10.33,16.76-20.41-4.41-58.81-6.19-61.95-20.41-36.04-48.71-28.87-61.95-57.82-16-34.98,15.68-66.51-1.03-84.67-16.89-18.35-53.08,9.72-78.47-10.32-24.06-19-7.31-56.66-35.11-76.41-11.29-8.02-28.21-11.86-41.3-6.19-21.5,9.31-26.19,41.49-30.98,74.34-5.79,39.74,1.36,48.13-8.26,80.54-5.19,17.48-10.07,33.15-24.78,45.43-10.27,8.57-22.68,11.91-47.5,18.59-21.47,5.77-26.11,4.17-28.91,2.06-8.09-6.07-7.12-21.03-6.19-35.11.96-14.63,3.82-16.07,4.13-28.91.29-11.72.59-24.24-6.19-33.04-11.2-14.53-29.92-3.68-47.5-16.52-15.59-11.39-22.04-35.41-18.59-53.69,2-10.59,7.04-17.72,51.63-59.89,18.76-17.74,28.14-26.61,30.97-28.91,55.89-45.38,95.82-26.51,128.03-61.95,21.59-23.76,34.14-65.79,16.52-90.86-15.72-22.36-51.89-26.17-76.41-18.59-21.38,6.61-21.73,18.13-41.3,26.85-15.37,6.84-28.09,5.49-109.45-16.52-56.36-15.25-81.63-23.09-113.58-20.65-4.49.34-12.64,1.16-26.85,2.06-24.63,1.57-48.46,3.09-61.95,2.07-51.67-3.94-89.55-55.81-97.06-66.08-30.79-42.15-19.12-65.01-39.24-76.41-41.55-23.53-126.18,54.26-181.72,105.32-89.38,82.16-143.01,131.46-138.36,200.31.44,6.44,5.42,67.62,49.56,103.25,30.96,24.99,53.56,15.12,74.34,41.3,19.59,24.69,18.38,57.27,16.52,107.38-1.77,47.76-11.03,54.51-4.13,84.67,6.96,30.43,19.46,37.01,18.59,61.95-.92,26.04-14.94,30.14-24.78,59.89-6.01,18.16-2.71,48.84,4.13,109.45,5.23,46.38,7.98,69.88,14.46,84.67,15,34.28,28.55,32.96,35.11,61.95,6.85,30.27-4.98,44.66,8.26,72.28,3.31,6.9,12.7,26.49,26.85,26.85,13.13.33,25.47-16.06,28.91-30.98,3.02-13.1-1.05-24.06-20.65-61.95-24.99-48.3-26.8-46.78-30.98-59.89-11.71-36.76-7.3-79.7,4.13-82.6,6.28-1.59,17.35,15.44,39.24,49.56,21.33,33.26,32.1,50.29,37.17,70.21,3.73,14.63,3.86,28.34,4.13,55.76.46,46.77-4.96,55.83-2.06,82.6,1.91,17.68,4.85,44.81,20.65,66.08,0,0,22.29,30,173.46,49.56,68.34,6.87,84.67,18.59,84.67,18.59,4.96,3.56,12.32,13.43,26.85,33.04,37.04,50.01,36.68,57.43,49.56,64.02,32.31,16.51,73.73-10.23,76.41-4.13,2.47,5.63-37.92,16.46-57.82,51.63-18.93,33.46-10.82,73.94-6.2,97.06,6.5,32.47,13.76,28.69,20.65,61.95,10.66,51.41-4.82,69.38,12.39,92.93,7.5,10.26,11.03,7.66,49.56,30.98,36.52,22.1,54.78,33.15,61.95,45.43,17.52,30.01-8.28,66.19-22.72,109.45-18.08,54.17-5.51,115.62,19.62,238.51,9.14,44.68,29.5,100,70.21,210.63Z"/>
    </clipPath>
    <clipPath id="clippath-4">
      <path class="cls-7" d="M659.01,740.66c-5.9,32.89,17.46,61.48,33.04,80.54,25.61,31.33,55.05,45.21,82.6,57.82,23.01,10.54,74.75,33.48,140.42,26.85,25.72-2.6,44.33-4.48,61.95-18.59,37.13-29.74,46.37-95.02,22.72-115.64-13.74-11.98-37.94-8.35-66.08-4.13-36.4,5.46-43.41,16.19-57.82,10.33-9.67-3.94-14.17-11.89-37.17-68.15-18-44.02-19.97-50.73-28.91-55.76-21.48-12.09-51.3,3.44-76.41,16.52-33.06,17.22-68.11,35.47-74.34,70.21Z"/>
    </clipPath>
    <clipPath id="clippath-5">
      <path class="cls-7" d="M877.9,643.61c-8.01,17.35,7.75,43.23,22.72,57.82,18.6,18.12,33.59,16.49,94.99,33.04,54.2,14.61,53.36,18.8,92.93,26.85,21.51,4.37,49.98,8.87,84.67,8.26,20.56-.36,59.45-1.05,61.95-12.39,3.21-14.55-56.66-32.22-53.69-49.56,2.25-13.12,37.01-5.98,72.28-30.98,24.11-17.09,18.16-27.73,49.56-57.82,10.36-9.93,27.7-21.9,61.95-45.43,46.25-31.77,64.19-42.02,61.95-51.63-1.92-8.24-17.59-11.21-24.78-12.39-83.48-13.72-194.11,18.59-194.11,18.59-40.75,11.9-92.56,29.27-196.18,64.02-24.98,8.38-49.02,19.57-74.34,26.85-37.05,10.64-53.74,11.47-59.89,24.78Z"/>
    </clipPath>
    <clipPath id="clippath-6">
      <path class="cls-7" d="M1113.31,831.53c-26.56,9.02-63.64,32.37-59.89,49.56,2.73,12.49,24.35,9.58,72.28,30.98,27.56,12.3,46.85,21.18,61.95,41.3,2.89,3.85,28.15,37.5,16.52,59.89-10.03,19.3-37.98,11.88-51.63,35.11-6.47,11.01-7.69,25.44-4.13,37.17,8.39,27.66,38.13,22.98,59.89,55.76,14.79,22.28,8.94,36.33,22.72,43.37,16.61,8.48,44.92-1.86,55.76-20.65,12.64-21.92-1.11-50.83-10.32-70.21-14.46-30.4-31.05-40.32-26.85-47.5,5.29-9.02,39.12-6.31,59.89,12.39,18.18,16.37,15.94,35.61,26.85,37.17,13.27,1.9,29.7-24.7,35.11-47.5,1.59-6.7,9.84-41.47-8.26-57.82-19.78-17.86-54.63,1.06-64.02-14.46-4.67-7.72,3.27-13.54,4.13-33.04.12-2.67,1.1-35.74-20.65-57.82-11.9-12.08-25.81-16.01-49.56-22.72-25.01-7.06-28.14-2.77-43.37-10.33-19.69-9.77-20.83-20.1-37.17-24.78-14.4-4.12-27.11.01-39.24,4.13Z"/>
    </clipPath>
    <clipPath id="clippath-7">
      <path class="cls-7" d="M1604.79,561.01c-18.4,11.32-57.39,40.8-113.58,74.34-24.86,14.84-38.22,21.6-55.76,26.85-22.27,6.66-32.43,5.24-53.69,14.46-19.77,8.57-37.25,16.15-41.3,30.98-6.76,24.76,28.11,54.52,39.24,64.02,23.11,19.73,32.28,16.12,49.56,35.11,11.62,12.76,16.85,25.2,26.85,49.56,14.3,34.86,22.7,55.32,22.72,82.6.01,22.41-6.19,39.03-18.59,72.28-15.25,40.88-23.15,44.11-35.11,80.54-10.49,31.97-15.74,47.96-12.39,68.15,3.07,18.52,17.19,37.13,45.43,74.34,26.06,34.34,33.06,37.73,39.24,39.24,22.65,5.51,52.91-9.85,64.02-33.04,16.69-34.86-21.89-62.35-6.19-99.12,4.13-9.68,23.4-22.97,61.95-49.56,23.57-16.26,21.84-13.43,64.02-41.3,30.93-20.44,33.05-22.74,43.37-26.85,27.54-10.96,37.83-4.65,57.82-16.52,4.56-2.7,24.95-14.81,33.04-37.17,11.75-32.46-16.56-47.51-6.19-82.6,1.46-4.96,1.2-1.86,30.98-53.69,13.03-22.68,13.95-24.79,14.46-28.91,3.22-26.22-22.3-35.7-22.72-64.02-.32-22.07,14.85-39.16,18.59-43.37,20.34-22.91,42.8-17.81,55.76-39.24,8.4-13.88,7.17-29.59,6.19-35.11-10.48-59.6-201.03-127.54-307.69-61.95Z"/>
    </clipPath>
    <clipPath id="clippath-8">
      <path class="cls-6" d="M1008.23,2986.38c-435.07-168.99-611.9-604.02-651.7-712.38-189.54-516.04,25.81-982.31,74.16-1037.1,4.63-5.25,38.54-41.64,73.04-98.88,21.24-35.24,33.4-62.95,35.96-68.54,34.95-76.44,207.41-244.97,334.84-321.36,223.44-133.94,870.94-321.75,1387.68,35.96,246.18,170.41,428.62,441.06,451.7,596.64,2.12,14.31,13.2,97.06,37.08,208.99,22.51,105.47,43.71,177.26,49.44,198.88,52.93,199.55-37.43,503.22-176.41,713.5-127.85,193.44-309.62,341.73-409,368.55-10.59,2.86-64.24,16.22-132.59,46.07-53.2,23.23-86.5,43.87-106.74,55.06-83.52,46.16-166.29,53.89-262.93,62.92-242.25,22.63-467.63,43.69-704.51-48.32Z"/>
    </clipPath>
    <radialGradient id="Sfumatura_senza_nome_7" data-name="Sfumatura senza nome 7" cx="1550.38" cy="1550.38" fx="1550.38" fy="2103.3" r="2235.33" gradientUnits="userSpaceOnUse">
      <stop offset=".39" stop-color="#100025" stop-opacity="0"/>
      <stop offset="1" stop-color="#100025" stop-opacity=".8"/>
    </radialGradient>
  </defs>
  <g id="Mondo_Export" data-name="Mondo Export">
    <g>
      <g>
        <path class="cls-3" d="M1008.19,2986.38c-435.07-168.99-611.9-604.02-651.7-712.38-189.54-516.04,25.81-982.31,74.16-1037.1,4.63-5.25,38.54-41.64,73.04-98.88,21.24-35.24,33.4-62.95,35.96-68.54,34.95-76.44,207.41-244.97,334.84-321.36,223.44-133.94,870.94-321.75,1387.68,35.96,246.18,170.41,428.62,441.06,451.7,596.64,2.12,14.31,13.2,97.06,37.08,208.99,22.51,105.47,43.68,177.27,49.44,198.88,52.42,196.53-34.55,496.13-176.41,713.5-126.72,194.18-309.62,341.73-409,368.55-10.59,2.86-64.24,16.22-132.59,46.07-53.2,23.23-86.5,43.87-106.74,55.06-83.52,46.16-166.29,53.89-262.93,62.92-242.25,22.64-467.63,43.69-704.51-48.32Z"/>
        <g class="cls-18">
          <path class="cls-10" d="M1997.1,1739.1c50.85.36,54.11,6.21,72.28,0,28.65-9.79,32.53-28.44,53.69-28.91,17.88-.4,27.78,12.62,47.5,28.91,43.96,36.31,113.64,69.77,142.49,49.56,12.67-8.87,8.52-21.83,22.72-28.91,18.25-9.09,37.29,6.24,66.08,16.52,39.13,13.97,101.56,20.47,121.84-6.2,16.42-21.59,6.6-66.73-12.39-72.28-9.09-2.65-14.51,13.42-33.04,16.52-14.56,2.44-26.89-4.42-37.17-10.32-36.17-20.77-49.63-54.5-55.76-51.63-5.14,2.41,7.07,24.89-4.13,45.43-.47.87-9.64,17.26-20.65,16.52-17.77-1.2-27.4-46.21-28.91-53.69-7.06-35.02,3.85-40.96-4.13-61.95-12.47-32.8-49.79-46.43-64.02-51.63-25.55-9.33-65.61-15.27-72.28-2.06-6.79,13.45,22.82,43.32,39.24,59.89,25.55,25.78,41.05,31.36,45.43,51.63,3.98,18.4-3.75,37.16-8.26,37.17-6.35.02-9.11-37.18-16.52-37.17-5.71,0-4.39,22.05-20.65,35.11-8.57,6.88-23.24,12.23-33.04,6.2-13.45-8.28-13.22-35.24-2.06-45.43,11.68-10.67,33.5-1.32,35.11-6.2,1.84-5.59-28.88-11.88-45.43-39.24-4.03-6.66-3.93-9.13-14.45-28.91-12.41-23.31-14.97-24.43-16.52-24.78-11.91-2.7-23.97,26.25-49.56,61.95-11.85,16.53-37.4,51.57-76.41,74.34-15.53,9.06-74.42,43.45-116.67,16.52-20.97-13.36-32.99-38.73-34.07-61.95-.32-6.88-1.73-36.94,16.52-49.56,20.2-13.97,42.12,8.92,64.02-4.13,12.22-7.28,17.1-24.82,26.85-59.89,10.99-39.53,6.24-46.01,16.52-57.82,14.31-16.44,33.81-20.52,64.02-26.85,38.47-8.05,44.97-.39,59.89-10.33,23.95-15.95,13.04-39.59,37.17-59.89,21.84-18.36,52.53-17.29,74.34-16.52,38.62,1.36,41.53,14.54,66.08,10.32,33.74-5.8,61.89-36.48,70.21-68.15,3.27-12.44,6.76-25.73,0-37.17-14.51-24.55-56.57-7.25-74.34-30.98-7.96-10.63-5.31-31.87,0-74.34,4.83-38.66,10.39-51.51,2.07-59.89-9.98-10.03-33.93-7.62-47.5,4.13-8.19,7.09-11.96,17.02-14.46,64.02-2.73,51.38.31,67.05-8.26,97.06-4.08,14.28-9.94,28.86-22.71,41.3-5.07,4.94-21.58,21.02-35.11,16.52-14.63-4.87-19.32-31.68-18.59-49.56,1.27-31.02,18.97-37.89,18.59-70.21-.21-18.05-7.71-35.33-12.39-35.11-5.22.26-4.37,22.19-15.49,57.82-8.69,27.84-12.98,26.52-20.65,51.63-12.96,42.39-4.54,58.6-16.52,66.08-16.65,10.39-52.88-8.43-71.24-35.11-17.52-25.44-15.74-53.59-14.46-70.21,6.43-83.3,80.66-137.34,90.86-144.55,27.01-19.08,31.42-10.62,64.02-33.04,36.15-24.87,42.82-42.03,77.44-55.76,10.18-4.04,28.66-11.16,52.66-10.32,10.94.38,11.65,2.02,49.56,10.32,27.88,6.11,42.09,9.31,55.76,10.33,5.92.44,7.96.37,39.24,2.06,24.45,1.32,26.11,1.52,28.91,2.07,10.48,2.05,37.4,7.31,43.37,24.78,4.47,13.1-4.9,27.04-6.2,28.91-10.24,14.79-26.71,17.78-78.47,28.91-48.19,10.36-56.57,12.64-57.82,18.59-2.78,13.24,32.71,30.98,47.5,37.17,17.67,7.4,31.08,13,45.43,8.26,3.81-1.26,10.77-4.27,37.17-39.24,18.65-24.7,19.99-29.58,28.91-35.11,0,0,17.97-11.13,47.5-6.19,86.59,14.48,273.4,562.52,223.02,718.63-1.31,4.05-15.08,45.59-33.04,45.43-19.22-.17-24.45-47.95-61.95-59.89-10.17-3.24-26.25-4.97-30.97,2.07-7.83,11.67,16.02,46.85,47.5,66.08,11.66,7.12,22.39,10.35,43.37,16.52,55.6,16.35,77.15,11.69,82.6,24.78,5.95,14.29-12.29,37.71-28.91,49.56-20.67,14.74-33.12,7.52-72.28,24.78-15.35,6.77-27.86,14.23-35.11,18.59-31.54,18.95-38.67,29.71-55.76,30.97-15.4,1.14-27.36-6.29-37.17-12.39-20.93-13.01-29.73-29.57-53.69-72.28-24.95-44.47-23.75-47.99-35.11-61.95-17.9-22.01-50.25-50.63-61.95-43.37-13.44,8.35-3.47,66.48,28.91,107.38,24.25,30.64,39.04,23.77,64.02,59.89,23.82,34.45,37.17,64.02,37.17,64.02,8.57,18.98,11.47,29.85,22.71,35.1,4.22,1.97,11.25,3.92,47.5-6.19,33.35-9.31,41.27-14.83,53.69-10.32,8.83,3.2,17.88,10.73,20.65,20.65,1.78,6.36-.85,13.97-6.2,28.91-3.5,9.8-7.76,21.53-16.52,37.17-3.69,6.59-7.33,12.05-14.46,22.72-17.38,26-34.74,49.2-34.74,49.2-12.15,16.24-12.97,16.44-14.82,21.01-6.24,15.42-1.48,24.43-6.2,41.3-3.57,12.79-10.11,21.23-14.45,26.85-24.54,31.7-69.18,43.37-69.18,43.37,1,20.17-1.72,35.59-4.13,45.43-4.39,17.92-10.54,28.68-33.04,82.6-5.91,14.15-9.81,24.19-6.2,35.1,4.77,14.39,15.6,14.02,18.59,24.78,5.77,20.81-30.92,41.91-64.02,84.67-6.29,8.13-10.78,14.16-19.84,25.15-11.62,14.11-14.91,16.84-23.53,30.6-8.8,14.05-9.68,18.07-16.52,22.71-15.57,10.58-25.97-.06-49.56,6.2-26.97,7.15-33.57,26.42-51.63,22.72-7.07-1.45-11.31-5.48-18.59-12.39-10.43-9.91-13.1-17.72-28.91-51.63-8.62-18.49-18.58-39.24-18.59-39.24-17.01-58.1-28.91-92.93-28.91-92.93-33.89-99.15-58.17-116.22-45.43-144.55,8.5-18.89,21.54-16.31,45.43-53.69,23.56-36.87,18.01-50.55,16.52-53.69-4.72-9.98-13.33-8.62-26.85-18.59-25.25-18.62-19.15-41.04-39.24-66.08-16.34-20.37-42.06-32.58-64.02-35.11-38.34-4.42-48.84,22.56-92.93,28.91-47.17,6.8-86.73-16.67-107.38-28.91-14.53-8.62-63.94-38.92-86.73-101.19-4.16-11.37-15.32-42.95-10.33-82.6,4.32-34.27,19.01-61.1,33.04-86.73,23.8-43.48,38.81-51.12,37.17-74.34-1.88-26.56-22.72-33.49-18.59-53.69,5.1-24.92,41.47-37.18,53.69-41.3,19.09-6.43,36.73-6.44,71.24-6.19Z"/>
          <path class="cls-10" d="M1944.45,1427.28c30-6.91,55.27-12.74,57.82-26.85,1.22-6.75-3.42-11.78-24.78-35.11-25.66-28.02-38.5-42.05-39.24-43.37-18.63-33.22,4.67-55.6-14.46-84.67-12.69-19.27-36.92-30.68-45.43-24.78-5.83,4.04-1.29,14.15,2.06,51.63,3.52,39.34-.15,43.14,6.19,53.69,13.54,22.52,38.35,18.7,41.3,35.11,2.21,12.25-11.19,16.85-18.59,45.43-2.84,10.96-5.84,22.58,0,28.91,2.34,2.53,7.97,6.26,35.11,0Z"/>
          <path class="cls-10" d="M1808.15,1352.94c16.19,11.51,50.57,3.17,45.43-8.26-3.91-8.7-46.19-22.53-14.46-30.98,12.64-3.36-11.85-15.81-18.59-16.52-9.8-1.03-18.95,8.31-22.72,16.52-5.95,12.96-1.91,30.54,10.33,39.24Z"/>
          <path class="cls-10" d="M1099.85,3096.85c11.04,29.99,28.49,75.64,64.02,84.67,11.48,2.92,30.95,3.56,37.17-6.2,4.02-6.31,1.19-14.94-8.26-35.1-23.38-49.88-32.01-52.44-33.04-68.15-1.78-27.08,23.23-29,28.91-61.95,6.65-38.62-24.98-51.74-20.65-90.86,2.38-21.52,13.05-27.43,45.43-72.28,18.49-25.61,7.74-13.62,57.82-90.86,50.24-77.49,68.58-101.17,78.47-113.58,31.65-39.72,47.94-59.75,70.21-68.15,38.13-14.38,62.89,2.95,82.6-16.52,10.71-10.58,7.28-19.52,16.52-72.28,5.11-29.17,8.85-50.51,16.52-74.34,17.92-55.69,35.94-58.56,35.11-88.8-.88-31.92-21.72-56.28-37.17-74.34-9.54-11.15-27.17-31.32-55.76-43.37-40.23-16.95-52.05,3.3-92.93-8.26-39.51-11.18-36.08-32.26-105.32-72.28-29.62-17.12-44.44-25.68-64.02-28.91-42.19-6.97-63.8,11.51-86.73-4.13-19.78-13.49-10.45-31.83-30.98-47.5-24.17-18.45-64.96-14.25-90.86,0-7.15,3.93-3.9,3.53-49.56,37.17-11.37,8.38-18.15,13.24-28.91,16.52-7.69,2.34-32.64,9.94-45.43-4.13-7.54-8.29-9.76-22.91-4.13-33.04,9.32-16.78,35.74-13.3,37.17-22.72,1.06-6.97-12.31-16.09-24.78-20.65-31.51-11.52-50.54,8.57-80.54-4.13-6.67-2.82-16.45-6.96-20.65-16.52-9.41-21.39,17.07-51.74,20.65-55.76,17.27-19.37,31.66-20.73,30.98-28.91-1.02-12.24-34.69-26.22-55.76-15.49-11.65,5.94-9.19,14.21-26.85,33.04-7.03,7.5-18.79,19.79-37.17,26.85-8.28,3.18-32.06,12.31-43.37,2.06-10.55-9.55-5.1-31.31,2.06-59.89,6.49-25.89,10.45-25.46,16.52-49.56,9.21-36.57,3.05-49.3,14.46-57.82,13.17-9.84,35.12-3.15,45.43,0,15.25,4.65,15.9,9.51,35.11,16.52,17.99,6.57,29.06,10.61,39.24,6.2,16.23-7.04,11.56-27.52,26.85-35.11,15.05-7.47,41.33,1.59,51.63,18.59,13.7,22.61-9.39,45.25,4.13,66.08,11.17,17.22,41.53,24.24,51.63,14.45,16.42-15.92-32.92-64.6-12.39-109.45,5.74-12.54,18.81-28.87,33.04-41.3,13.61-11.89,15.03-8.64,22.72-16.52,25.04-25.7,7.51-57.77,30.98-80.54,8.38-8.14,18.33-11.52,33.04-16.52,22.75-7.74,28.16-2.74,43.37-10.33,18.05-9,14.82-18.21,35.11-30.98,18.95-11.92,37.72-13.92,43.37-14.46,18.73-1.78,22.1,3.45,51.63,6.19,28.92,2.69,43.38,4.03,53.69-4.13,15.85-12.54,18.3-41.58,8.26-61.95-13.33-27.04-47.63-36.68-70.21-30.98-15.19,3.83-15.81,12.27-28.91,12.39-14.35.13-26.09-10.92-49.56-33.04-16.54-15.58-16.72-18.87-16.52-20.65,1.59-14.09,37.88-28.32,68.15-20.65,11.59,2.94,23.56,10.91,47.5,26.85,20.03,13.34,23.8,18.09,35.11,20.65,12.95,2.93,34.7,2.75,45.43-10.33,16.76-20.41-4.41-58.81-6.19-61.95-20.41-36.04-48.71-28.87-61.95-57.82-16-34.98,15.68-66.51-1.03-84.67-16.89-18.35-53.08,9.72-78.47-10.32-24.06-19-7.31-56.66-35.11-76.41-11.29-8.02-28.21-11.86-41.3-6.19-21.5,9.31-26.19,41.49-30.98,74.34-5.79,39.74,1.36,48.13-8.26,80.54-5.19,17.48-10.07,33.15-24.78,45.43-10.27,8.57-22.68,11.91-47.5,18.59-21.47,5.77-26.11,4.17-28.91,2.06-8.09-6.07-7.12-21.03-6.19-35.11.96-14.63,3.82-16.07,4.13-28.91.29-11.72.59-24.24-6.19-33.04-11.2-14.53-29.92-3.68-47.5-16.52-15.59-11.39-22.04-35.41-18.59-53.69,2-10.59,7.04-17.72,51.63-59.89,18.76-17.74,28.14-26.61,30.97-28.91,55.89-45.38,95.82-26.51,128.03-61.95,21.59-23.76,34.14-65.79,16.52-90.86-15.72-22.36-51.89-26.17-76.41-18.59-21.38,6.61-21.73,18.13-41.3,26.85-15.37,6.84-28.09,5.49-109.45-16.52-56.36-15.25-81.63-23.09-113.58-20.65-4.49.34-12.64,1.16-26.85,2.06-24.63,1.57-48.46,3.09-61.95,2.07-51.67-3.94-89.55-55.81-97.06-66.08-30.79-42.15-19.12-65.01-39.24-76.41-41.55-23.53-126.18,54.26-181.72,105.32-89.38,82.16-143.01,131.46-138.36,200.31.44,6.44,5.42,67.62,49.56,103.25,30.96,24.99,53.56,15.12,74.34,41.3,19.59,24.69,18.38,57.27,16.52,107.38-1.77,47.76-11.03,54.51-4.13,84.67,6.96,30.43,19.46,37.01,18.59,61.95-.92,26.04-14.94,30.14-24.78,59.89-6.01,18.16-2.71,48.84,4.13,109.45,5.23,46.38,7.98,69.88,14.46,84.67,15,34.28,28.55,32.96,35.11,61.95,6.85,30.27-4.98,44.66,8.26,72.28,3.31,6.9,12.7,26.49,26.85,26.85,13.13.33,25.47-16.06,28.91-30.98,3.02-13.1-1.05-24.06-20.65-61.95-24.99-48.3-26.8-46.78-30.98-59.89-11.71-36.76-7.3-79.7,4.13-82.6,6.28-1.59,17.35,15.44,39.24,49.56,21.33,33.26,32.1,50.29,37.17,70.21,3.73,14.63,3.86,28.34,4.13,55.76.46,46.77-4.96,55.83-2.06,82.6,1.91,17.68,4.85,44.81,20.65,66.08,0,0,22.29,30,173.46,49.56,68.34,6.87,84.67,18.59,84.67,18.59,4.96,3.56,12.32,13.43,26.85,33.04,37.04,50.01,36.68,57.43,49.56,64.02,32.31,16.51,73.73-10.23,76.41-4.13,2.47,5.63-37.92,16.46-57.82,51.63-18.93,33.46-10.82,73.94-6.2,97.06,6.5,32.47,13.76,28.69,20.65,61.95,10.66,51.41-4.82,69.38,12.39,92.93,7.5,10.26,11.03,7.66,49.56,30.98,36.52,22.1,54.78,33.15,61.95,45.43,17.52,30.01-8.28,66.19-22.72,109.45-18.08,54.17-5.51,115.62,19.62,238.51,9.14,44.68,29.5,100,70.21,210.63Z"/>
          <path class="cls-10" d="M658.97,740.66c-5.9,32.89,17.46,61.48,33.04,80.54,25.61,31.33,55.05,45.21,82.6,57.82,23.01,10.54,74.75,33.48,140.42,26.85,25.72-2.6,44.33-4.48,61.95-18.59,37.13-29.74,46.37-95.02,22.72-115.64-13.74-11.98-37.94-8.35-66.08-4.13-36.4,5.46-43.41,16.19-57.82,10.33-9.67-3.94-14.17-11.89-37.17-68.15-18-44.02-19.97-50.73-28.91-55.76-21.48-12.09-51.3,3.44-76.41,16.52-33.06,17.22-68.11,35.47-74.34,70.21Z"/>
          <path class="cls-10" d="M877.86,643.61c-8.01,17.35,7.75,43.23,22.72,57.82,18.6,18.12,33.59,16.49,94.99,33.04,54.2,14.61,53.36,18.8,92.93,26.85,21.51,4.37,49.98,8.87,84.67,8.26,20.56-.36,59.45-1.05,61.95-12.39,3.21-14.55-56.66-32.22-53.69-49.56,2.25-13.12,37.01-5.98,72.28-30.98,24.11-17.09,18.16-27.73,49.56-57.82,10.36-9.93,27.7-21.9,61.95-45.43,46.25-31.77,64.19-42.02,61.95-51.63-1.92-8.24-17.59-11.21-24.78-12.39-83.48-13.72-194.11,18.59-194.11,18.59-40.75,11.9-92.56,29.27-196.18,64.02-24.98,8.38-49.02,19.57-74.34,26.85-37.05,10.64-53.74,11.47-59.89,24.78Z"/>
          <path class="cls-10" d="M1113.28,831.53c-26.56,9.02-63.64,32.37-59.89,49.56,2.73,12.49,24.35,9.58,72.28,30.98,27.56,12.3,46.85,21.18,61.95,41.3,2.89,3.85,28.15,37.5,16.52,59.89-10.03,19.3-37.98,11.88-51.63,35.11-6.47,11.01-7.69,25.44-4.13,37.17,8.39,27.66,38.13,22.98,59.89,55.76,14.79,22.28,8.94,36.33,22.72,43.37,16.61,8.48,44.92-1.86,55.76-20.65,12.64-21.92-1.11-50.83-10.32-70.21-14.46-30.4-31.05-40.32-26.85-47.5,5.29-9.02,39.12-6.31,59.89,12.39,18.18,16.37,15.94,35.61,26.85,37.17,13.27,1.9,29.7-24.7,35.11-47.5,1.59-6.7,9.84-41.47-8.26-57.82-19.78-17.86-54.63,1.06-64.02-14.46-4.67-7.72,3.27-13.54,4.13-33.04.12-2.67,1.1-35.74-20.65-57.82-11.9-12.08-25.81-16.01-49.56-22.72-25.01-7.06-28.14-2.77-43.37-10.33-19.69-9.77-20.83-20.1-37.17-24.78-14.4-4.12-27.11.01-39.24,4.13Z"/>
          <path class="cls-10" d="M1604.75,561.01c-18.4,11.32-57.39,40.8-113.58,74.34-24.86,14.84-38.22,21.6-55.76,26.85-22.27,6.66-32.43,5.24-53.69,14.46-19.77,8.57-37.25,16.15-41.3,30.98-6.76,24.76,28.11,54.52,39.24,64.02,23.11,19.73,32.28,16.12,49.56,35.11,11.62,12.76,16.85,25.2,26.85,49.56,14.3,34.86,22.7,55.32,22.72,82.6.01,22.41-6.19,39.03-18.59,72.28-15.25,40.88-23.15,44.11-35.11,80.54-10.49,31.97-15.74,47.96-12.39,68.15,3.07,18.52,17.19,37.13,45.43,74.34,26.06,34.34,33.06,37.73,39.24,39.24,22.65,5.51,52.91-9.85,64.02-33.04,16.69-34.86-21.89-62.35-6.19-99.12,4.13-9.68,23.4-22.97,61.95-49.56,23.57-16.26,21.84-13.43,64.02-41.3,30.93-20.44,33.05-22.74,43.37-26.85,27.54-10.96,37.83-4.65,57.82-16.52,4.56-2.7,24.95-14.81,33.04-37.17,11.75-32.46-16.56-47.51-6.19-82.6,1.46-4.96,1.2-1.86,30.98-53.69,13.03-22.68,13.95-24.79,14.46-28.91,3.22-26.22-22.3-35.7-22.72-64.02-.32-22.07,14.85-39.16,18.59-43.37,20.34-22.91,42.8-17.81,55.76-39.24,8.4-13.88,7.17-29.59,6.19-35.11-10.48-59.6-201.03-127.54-307.69-61.95Z"/>
        </g>
        <path class="cls-7" d="M1008.19,2986.38c-435.07-168.99-611.9-604.02-651.7-712.38-189.54-516.04,25.81-982.31,74.16-1037.1,4.63-5.25,38.54-41.64,73.04-98.88,21.24-35.24,33.4-62.95,35.96-68.54,34.95-76.44,207.41-244.97,334.84-321.36,223.44-133.94,870.94-321.75,1387.68,35.96,246.18,170.41,428.62,441.06,451.7,596.64,2.12,14.31,13.2,97.06,37.08,208.99,22.51,105.47,43.68,177.27,49.44,198.88,52.42,196.53-34.55,496.13-176.41,713.5-126.72,194.18-309.62,341.73-409,368.55-10.59,2.86-64.24,16.22-132.59,46.07-53.2,23.23-86.5,43.87-106.74,55.06-83.52,46.16-166.29,53.89-262.93,62.92-242.25,22.64-467.63,43.69-704.51-48.32Z"/>
      </g>
      <g>
        <g class="cls-13">
          <g>
            <g class="cls-17">
              <g>
                <path class="cls-11" d="M1849.34,2215.95c66.81,58.04,183.47,61.4,253.23,14.68,42.78-28.65,40.75-57.95,84.41-73.4,38.31-13.56,62.48.99,143.13,18.35,101.45,21.83,94.39,5.52,179.83,25.69,103.66,24.47,119.26,49.72,171.09,39.27,39.66-7.99,94.7-35.7,108.65-82.23,17.24-57.51-41.31-100.37-19.17-136.87,20.7-34.14,79.67-9.46,112.31-46.85,30-34.36,13.82-93.75,5.13-125.64-32.49-119.26-133.47-182.76-187.17-216.53-31.99-20.12-118.58-74.57-150.47-47.71-25.07,21.11.09,78.65-38.97,113.09-7.7,6.78-16.35,11.32-33.04,16.52-66.27,20.65-134.25,12.82-177.55,6.18-85.02-13.03-81.14-23.45-172.49-40.37-89.32-16.54-132.32-15.31-146.8-14.68-51.67,2.25-92.65,4.04-132.12,30.13-48.43,32.01-66.02,81.75-77.07,113-35.06,99.16-9.63,189.65,11.57,265.05,21.18,75.34,31.77,113.01,65.5,142.32Z"/>
                <path class="cls-11" d="M856,2208c51.08-12.73,92.93-23.16,136.46-56.74,44.2-34.1,83.09-86.64,101.33-77.01,9,4.75,5.87,20.87,17.56,25.67,11.32,4.65,28.78-4.48,36.48-16.21,18.26-27.83-5.04-90.73-41.88-102.68-36.76-11.92-59.19,35.9-110.79,29.72-43.16-5.17-79.91-44.91-74.31-63.5,5.33-17.67,45.74-5.68,74.31-35.13,26.96-27.79,22.1-70.55,21.62-74.31-7.72-60.16-76.99-107.61-132.4-104.03-39.41,2.54-44.67,29.14-93.22,31.07-41.74,1.66-49.58-17.53-83.76-10.81-41.4,8.15-41.36,38.56-79.71,43.23-39.85,4.86-75.46-23.63-86.47-32.43-15.73-12.58-20.37-21.76-33.78-37.83-30.7-36.79-55.39-62.05-87.82-72.96-29.07-9.78-78.57-11.65-101.33,13.51-35.67,39.42,7.93,130.15,78.24,272.77,68.02,137.98,102.04,206.97,152.78,239.28,118.32,75.32,265.21,38.71,306.69,28.37Z"/>
                <path class="cls-12" d="M535.2,741.86c-47.81,13.17-128.1,41.89-207.63,107.27-35.13,28.88-103.4,83.87-141.54,178.64-52.37,130.13-45.38,294.54,6.72,312.84,34.09,11.98,56.06-49.69,141.74-79.69,71.84-25.16,134.55-9.18,245.69,20.76,180.75,48.69,181.97,94.6,311.44,110.73,105.18,13.11,136.55-13.18,193.79,20.76,78.89,46.79,61.03,121.49,121.12,179.94,126.37,122.94,475.62,55.48,536.37-96.89,36.04-90.39-46.95-166.73,10.38-269.92,28.31-50.95,86.87-101.31,131.5-89.97,70.5,17.91,69.31,180.36,117.66,183.4,21.98,1.38,19.98-50.76,62.29-72.67,34.55-17.89,75.29-5.01,134.96,13.84,78.04,24.66,91.03,47.23,121.12,38.07,42.64-12.98,34.49-63.76,83.05-89.97,47.85-25.83,79.34,10.75,134.96-3.46,77.14-19.71,142.67-122.28,128.04-197.25-14.21-72.82-100.71-102.44-179.94-145.34-239.59-129.7-234.59-284.27-397.95-411.79-305.06-238.15-808.27-78.37-989.69-20.76-265.95,84.44-454.96,220.1-564.05,311.44Z"/>
                <path class="cls-11" d="M2185.6,1643.14c4.96-1.41,12.61-2.97,21.85-2.26,13.75,1.05,27.48,6.85,27.12,10.73-.32,3.4-11.16,2.13-18.08,11.12-2.34,3.04-1.6,3.85-4.52,8.29-5.75,8.75-12.6,11.7-12.05,12.81.96,1.94,19.75-11.6,36.91-6.03,7.74,2.51,15.8,9.12,16.57,16.57,1.32,12.71-18.53,26.64-36.16,28.63-26.53,2.99-60.04-19.71-58.01-45.95,1.57-20.3,23.6-32.43,26.37-33.9Z"/>
              </g>
            </g>
            <path class="cls-7" d="M1997.14,1739.1c50.85.36,54.11,6.21,72.28,0,28.65-9.79,32.53-28.44,53.69-28.91,17.88-.4,27.78,12.62,47.5,28.91,43.96,36.31,113.64,69.77,142.49,49.56,12.67-8.87,8.52-21.83,22.72-28.91,18.25-9.09,37.29,6.24,66.08,16.52,39.13,13.97,101.56,20.47,121.84-6.2,16.42-21.59,6.6-66.73-12.39-72.28-9.09-2.65-14.51,13.42-33.04,16.52-14.56,2.44-26.89-4.42-37.17-10.32-36.17-20.77-49.63-54.5-55.76-51.63-5.14,2.41,7.07,24.89-4.13,45.43-.47.87-9.64,17.26-20.65,16.52-17.77-1.2-27.4-46.21-28.91-53.69-7.06-35.02,3.85-40.96-4.13-61.95-12.47-32.8-49.79-46.43-64.02-51.63-25.55-9.33-65.61-15.27-72.28-2.06-6.79,13.45,22.82,43.32,39.24,59.89,25.55,25.78,41.05,31.36,45.43,51.63,3.98,18.4-3.75,37.16-8.26,37.17-6.35.02-9.11-37.18-16.52-37.17-5.71,0-4.39,22.05-20.65,35.11-8.57,6.88-23.24,12.23-33.04,6.2-13.45-8.28-13.22-35.24-2.06-45.43,11.68-10.67,33.5-1.32,35.11-6.2,1.84-5.59-28.88-11.88-45.43-39.24-4.03-6.66-3.93-9.13-14.45-28.91-12.41-23.31-14.97-24.43-16.52-24.78-11.91-2.7-23.97,26.25-49.56,61.95-11.85,16.53-37.4,51.57-76.41,74.34-15.53,9.06-74.42,43.45-116.67,16.52-20.97-13.36-32.99-38.73-34.07-61.95-.32-6.88-1.73-36.94,16.52-49.56,20.2-13.97,42.12,8.92,64.02-4.13,12.22-7.28,17.1-24.82,26.85-59.89,10.99-39.53,6.24-46.01,16.52-57.82,14.31-16.44,33.81-20.52,64.02-26.85,38.47-8.05,44.97-.39,59.89-10.33,23.95-15.95,13.04-39.59,37.17-59.89,21.84-18.36,52.53-17.29,74.34-16.52,38.62,1.36,41.53,14.54,66.08,10.32,33.74-5.8,61.89-36.48,70.21-68.15,3.27-12.44,6.76-25.73,0-37.17-14.51-24.55-56.57-7.25-74.34-30.98-7.96-10.63-5.31-31.87,0-74.34,4.83-38.66,10.39-51.51,2.07-59.89-9.98-10.03-33.93-7.62-47.5,4.13-8.19,7.09-11.96,17.02-14.46,64.02-2.73,51.38.31,67.05-8.26,97.06-4.08,14.28-9.94,28.86-22.71,41.3-5.07,4.94-21.58,21.02-35.11,16.52-14.63-4.87-19.32-31.68-18.59-49.56,1.27-31.02,18.97-37.89,18.59-70.21-.21-18.05-7.71-35.33-12.39-35.11-5.22.26-4.37,22.19-15.49,57.82-8.69,27.84-12.98,26.52-20.65,51.63-12.96,42.39-4.54,58.6-16.52,66.08-16.65,10.39-52.88-8.43-71.24-35.11-17.52-25.44-15.74-53.59-14.46-70.21,6.43-83.3,80.66-137.34,90.86-144.55,27.01-19.08,31.42-10.62,64.02-33.04,36.15-24.87,42.82-42.03,77.44-55.76,10.18-4.04,28.66-11.16,52.66-10.32,10.94.38,11.65,2.02,49.56,10.32,27.88,6.11,42.09,9.31,55.76,10.33,5.92.44,7.96.37,39.24,2.06,24.45,1.32,26.11,1.52,28.91,2.07,10.48,2.05,37.4,7.31,43.37,24.78,4.47,13.1-4.9,27.04-6.2,28.91-10.24,14.79-26.71,17.78-78.47,28.91-48.19,10.36-56.57,12.64-57.82,18.59-2.78,13.24,32.71,30.98,47.5,37.17,17.67,7.4,31.08,13,45.43,8.26,3.81-1.26,10.77-4.27,37.17-39.24,18.65-24.7,19.99-29.58,28.91-35.11,0,0,17.97-11.13,47.5-6.19,86.59,14.48,273.4,562.52,223.02,718.63-1.31,4.05-15.08,45.59-33.04,45.43-19.22-.17-24.45-47.95-61.95-59.89-10.17-3.24-26.25-4.97-30.97,2.07-7.83,11.67,16.02,46.85,47.5,66.08,11.66,7.12,22.39,10.35,43.37,16.52,55.6,16.35,77.15,11.69,82.6,24.78,5.95,14.29-12.29,37.71-28.91,49.56-20.67,14.74-33.12,7.52-72.28,24.78-15.35,6.77-27.86,14.23-35.11,18.59-31.54,18.95-38.67,29.71-55.76,30.97-15.4,1.14-27.36-6.29-37.17-12.39-20.93-13.01-29.73-29.57-53.69-72.28-24.95-44.47-23.75-47.99-35.11-61.95-17.9-22.01-50.25-50.63-61.95-43.37-13.44,8.35-3.47,66.48,28.91,107.38,24.25,30.64,39.04,23.77,64.02,59.89,23.82,34.45,37.17,64.02,37.17,64.02,8.57,18.98,11.47,29.85,22.71,35.1,4.22,1.97,11.25,3.92,47.5-6.19,33.35-9.31,41.27-14.83,53.69-10.32,8.83,3.2,17.88,10.73,20.65,20.65,1.78,6.36-.85,13.97-6.2,28.91-3.5,9.8-7.76,21.53-16.52,37.17-3.69,6.59-7.33,12.05-14.46,22.72-17.38,26-34.74,49.2-34.74,49.2-12.15,16.24-12.97,16.44-14.82,21.01-6.24,15.42-1.48,24.43-6.2,41.3-3.57,12.79-10.11,21.23-14.45,26.85-24.54,31.7-69.18,43.37-69.18,43.37,1,20.17-1.72,35.59-4.13,45.43-4.39,17.92-10.54,28.68-33.04,82.6-5.91,14.15-9.81,24.19-6.2,35.1,4.77,14.39,15.6,14.02,18.59,24.78,5.77,20.81-30.92,41.91-64.02,84.67-6.29,8.13-10.78,14.16-19.84,25.15-11.62,14.11-14.91,16.84-23.53,30.6-8.8,14.05-9.68,18.07-16.52,22.71-15.57,10.58-25.97-.06-49.56,6.2-26.97,7.15-33.57,26.42-51.63,22.72-7.07-1.45-11.31-5.48-18.59-12.39-10.43-9.91-13.1-17.72-28.91-51.63-8.62-18.49-18.58-39.24-18.59-39.24-17.01-58.1-28.91-92.93-28.91-92.93-33.89-99.15-58.17-116.22-45.43-144.55,8.5-18.89,21.54-16.31,45.43-53.69,23.56-36.87,18.01-50.55,16.52-53.69-4.72-9.98-13.33-8.62-26.85-18.59-25.25-18.62-19.15-41.04-39.24-66.08-16.34-20.37-42.06-32.58-64.02-35.11-38.34-4.42-48.84,22.56-92.93,28.91-47.17,6.8-86.73-16.67-107.38-28.91-14.53-8.62-63.94-38.92-86.73-101.19-4.16-11.37-15.32-42.95-10.33-82.6,4.32-34.27,19.01-61.1,33.04-86.73,23.8-43.48,38.81-51.12,37.17-74.34-1.88-26.56-22.72-33.49-18.59-53.69,5.1-24.92,41.47-37.18,53.69-41.3,19.09-6.43,36.73-6.44,71.24-6.19Z"/>
          </g>
          <g>
            <g class="cls-16">
              <g>
                <path class="cls-11" d="M1849.34,2215.95c66.81,58.04,183.47,61.4,253.23,14.68,42.78-28.65,40.75-57.95,84.41-73.4,38.31-13.56,62.48.99,143.13,18.35,101.45,21.83,94.39,5.52,179.83,25.69,103.66,24.47,119.26,49.72,171.09,39.27,39.66-7.99,94.7-35.7,108.65-82.23,17.24-57.51-41.31-100.37-19.17-136.87,20.7-34.14,79.67-9.46,112.31-46.85,30-34.36,13.82-93.75,5.13-125.64-32.49-119.26-133.47-182.76-187.17-216.53-31.99-20.12-118.58-74.57-150.47-47.71-25.07,21.11.09,78.65-38.97,113.09-7.7,6.78-16.35,11.32-33.04,16.52-66.27,20.65-134.25,12.82-177.55,6.18-85.02-13.03-81.14-23.45-172.49-40.37-89.32-16.54-132.32-15.31-146.8-14.68-51.67,2.25-92.65,4.04-132.12,30.13-48.43,32.01-66.02,81.75-77.07,113-35.06,99.16-9.63,189.65,11.57,265.05,21.18,75.34,31.77,113.01,65.5,142.32Z"/>
                <path class="cls-11" d="M856,2208c51.08-12.73,92.93-23.16,136.46-56.74,44.2-34.1,83.09-86.64,101.33-77.01,9,4.75,5.87,20.87,17.56,25.67,11.32,4.65,28.78-4.48,36.48-16.21,18.26-27.83-5.04-90.73-41.88-102.68-36.76-11.92-59.19,35.9-110.79,29.72-43.16-5.17-79.91-44.91-74.31-63.5,5.33-17.67,45.74-5.68,74.31-35.13,26.96-27.79,22.1-70.55,21.62-74.31-7.72-60.16-76.99-107.61-132.4-104.03-39.41,2.54-44.67,29.14-93.22,31.07-41.74,1.66-49.58-17.53-83.76-10.81-41.4,8.15-41.36,38.56-79.71,43.23-39.85,4.86-75.46-23.63-86.47-32.43-15.73-12.58-20.37-21.76-33.78-37.83-30.7-36.79-55.39-62.05-87.82-72.96-29.07-9.78-78.57-11.65-101.33,13.51-35.67,39.42,7.93,130.15,78.24,272.77,68.02,137.98,102.04,206.97,152.78,239.28,118.32,75.32,265.21,38.71,306.69,28.37Z"/>
                <path class="cls-7" d="M535.5,736.34c-47.81,13.17-128.1,41.89-207.63,107.27-35.13,28.88-103.4,83.87-141.54,178.64-52.37,130.13-45.38,294.54,6.72,312.84,34.09,11.98,56.06-49.69,141.74-79.69,71.84-25.16,134.55-9.18,245.69,20.76,180.75,48.69,181.97,94.6,311.44,110.73,105.18,13.11,136.55-13.18,193.79,20.76,78.89,46.79,61.03,121.49,121.12,179.94,126.37,122.94,475.62,55.48,536.37-96.89,36.04-90.39-46.95-166.73,10.38-269.92,28.31-50.95,86.87-101.31,131.5-89.97,70.5,17.91,69.31,180.36,117.66,183.4,21.98,1.38,19.98-50.76,62.29-72.67,34.55-17.89,75.29-5.01,134.96,13.84,78.04,24.66,91.03,47.23,121.12,38.07,42.64-12.98,34.49-63.76,83.05-89.97,47.85-25.83,79.34,10.75,134.96-3.46,77.14-19.71,142.67-122.28,128.04-197.25-14.21-72.82-100.71-102.44-179.94-145.34-239.59-129.7-234.59-284.27-397.95-411.79-305.06-238.15-808.27-78.37-989.69-20.76-265.95,84.44-454.96,220.1-564.05,311.44Z"/>
                <path class="cls-11" d="M2181.53,1637.71c4.96-1.41,12.61-2.97,21.85-2.26,13.75,1.05,27.48,6.85,27.12,10.73-.32,3.4-11.16,2.13-18.08,11.12-2.34,3.04-1.6,3.85-4.52,8.29-5.75,8.75-12.6,11.7-12.05,12.81.96,1.94,19.75-11.6,36.91-6.03,7.74,2.51,15.8,9.12,16.57,16.57,1.32,12.71-18.53,26.64-36.16,28.63-26.53,2.99-60.04-19.71-58.01-45.95,1.57-20.3,23.6-32.43,26.37-33.9Z"/>
              </g>
            </g>
            <path class="cls-7" d="M1099.89,3096.85c11.04,29.99,28.49,75.64,64.02,84.67,11.48,2.92,30.95,3.56,37.17-6.2,4.02-6.31,1.19-14.94-8.26-35.1-23.38-49.88-32.01-52.44-33.04-68.15-1.78-27.08,23.23-29,28.91-61.95,6.65-38.62-24.98-51.74-20.65-90.86,2.38-21.52,13.05-27.43,45.43-72.28,18.49-25.61,7.74-13.62,57.82-90.86,50.24-77.49,68.58-101.17,78.47-113.58,31.65-39.72,47.94-59.75,70.21-68.15,38.13-14.38,62.89,2.95,82.6-16.52,10.71-10.58,7.28-19.52,16.52-72.28,5.11-29.17,8.85-50.51,16.52-74.34,17.92-55.69,35.94-58.56,35.11-88.8-.88-31.92-21.72-56.28-37.17-74.34-9.54-11.15-27.17-31.32-55.76-43.37-40.23-16.95-52.05,3.3-92.93-8.26-39.51-11.18-36.08-32.26-105.32-72.28-29.62-17.12-44.44-25.68-64.02-28.91-42.19-6.97-63.8,11.51-86.73-4.13-19.78-13.49-10.45-31.83-30.98-47.5-24.17-18.45-64.96-14.25-90.86,0-7.15,3.93-3.9,3.53-49.56,37.17-11.37,8.38-18.15,13.24-28.91,16.52-7.69,2.34-32.64,9.94-45.43-4.13-7.54-8.29-9.76-22.91-4.13-33.04,9.32-16.78,35.74-13.3,37.17-22.72,1.06-6.97-12.31-16.09-24.78-20.65-31.51-11.52-50.54,8.57-80.54-4.13-6.67-2.82-16.45-6.96-20.65-16.52-9.41-21.39,17.07-51.74,20.65-55.76,17.27-19.37,31.66-20.73,30.98-28.91-1.02-12.24-34.69-26.22-55.76-15.49-11.65,5.94-9.19,14.21-26.85,33.04-7.03,7.5-18.79,19.79-37.17,26.85-8.28,3.18-32.06,12.31-43.37,2.06-10.55-9.55-5.1-31.31,2.06-59.89,6.49-25.89,10.45-25.46,16.52-49.56,9.21-36.57,3.05-49.3,14.46-57.82,13.17-9.84,35.12-3.15,45.43,0,15.25,4.65,15.9,9.51,35.11,16.52,17.99,6.57,29.06,10.61,39.24,6.2,16.23-7.04,11.56-27.52,26.85-35.11,15.05-7.47,41.33,1.59,51.63,18.59,13.7,22.61-9.39,45.25,4.13,66.08,11.17,17.22,41.53,24.24,51.63,14.45,16.42-15.92-32.92-64.6-12.39-109.45,5.74-12.54,18.81-28.87,33.04-41.3,13.61-11.89,15.03-8.64,22.72-16.52,25.04-25.7,7.51-57.77,30.98-80.54,8.38-8.14,18.33-11.52,33.04-16.52,22.75-7.74,28.16-2.74,43.37-10.33,18.05-9,14.82-18.21,35.11-30.98,18.95-11.92,37.72-13.92,43.37-14.46,18.73-1.78,22.1,3.45,51.63,6.19,28.92,2.69,43.38,4.03,53.69-4.13,15.85-12.54,18.3-41.58,8.26-61.95-13.33-27.04-47.63-36.68-70.21-30.98-15.19,3.83-15.81,12.27-28.91,12.39-14.35.13-26.09-10.92-49.56-33.04-16.54-15.58-16.72-18.87-16.52-20.65,1.59-14.09,37.88-28.32,68.15-20.65,11.59,2.94,23.56,10.91,47.5,26.85,20.03,13.34,23.8,18.09,35.11,20.65,12.95,2.93,34.7,2.75,45.43-10.33,16.76-20.41-4.41-58.81-6.19-61.95-20.41-36.04-48.71-28.87-61.95-57.82-16-34.98,15.68-66.51-1.03-84.67-16.89-18.35-53.08,9.72-78.47-10.32-24.06-19-7.31-56.66-35.11-76.41-11.29-8.02-28.21-11.86-41.3-6.19-21.5,9.31-26.19,41.49-30.98,74.34-5.79,39.74,1.36,48.13-8.26,80.54-5.19,17.48-10.07,33.15-24.78,45.43-10.27,8.57-22.68,11.91-47.5,18.59-21.47,5.77-26.11,4.17-28.91,2.06-8.09-6.07-7.12-21.03-6.19-35.11.96-14.63,3.82-16.07,4.13-28.91.29-11.72.59-24.24-6.19-33.04-11.2-14.53-29.92-3.68-47.5-16.52-15.59-11.39-22.04-35.41-18.59-53.69,2-10.59,7.04-17.72,51.63-59.89,18.76-17.74,28.14-26.61,30.97-28.91,55.89-45.38,95.82-26.51,128.03-61.95,21.59-23.76,34.14-65.79,16.52-90.86-15.72-22.36-51.89-26.17-76.41-18.59-21.38,6.61-21.73,18.13-41.3,26.85-15.37,6.84-28.09,5.49-109.45-16.52-56.36-15.25-81.63-23.09-113.58-20.65-4.49.34-12.64,1.16-26.85,2.06-24.63,1.57-48.46,3.09-61.95,2.07-51.67-3.94-89.55-55.81-97.06-66.08-30.79-42.15-19.12-65.01-39.24-76.41-41.55-23.53-126.18,54.26-181.72,105.32-89.38,82.16-143.01,131.46-138.36,200.31.44,6.44,5.42,67.62,49.56,103.25,30.96,24.99,53.56,15.12,74.34,41.3,19.59,24.69,18.38,57.27,16.52,107.38-1.77,47.76-11.03,54.51-4.13,84.67,6.96,30.43,19.46,37.01,18.59,61.95-.92,26.04-14.94,30.14-24.78,59.89-6.01,18.16-2.71,48.84,4.13,109.45,5.23,46.38,7.98,69.88,14.46,84.67,15,34.28,28.55,32.96,35.11,61.95,6.85,30.27-4.98,44.66,8.26,72.28,3.31,6.9,12.7,26.49,26.85,26.85,13.13.33,25.47-16.06,28.91-30.98,3.02-13.1-1.05-24.06-20.65-61.95-24.99-48.3-26.8-46.78-30.98-59.89-11.71-36.76-7.3-79.7,4.13-82.6,6.28-1.59,17.35,15.44,39.24,49.56,21.33,33.26,32.1,50.29,37.17,70.21,3.73,14.63,3.86,28.34,4.13,55.76.46,46.77-4.96,55.83-2.06,82.6,1.91,17.68,4.85,44.81,20.65,66.08,0,0,22.29,30,173.46,49.56,68.34,6.87,84.67,18.59,84.67,18.59,4.96,3.56,12.32,13.43,26.85,33.04,37.04,50.01,36.68,57.43,49.56,64.02,32.31,16.51,73.73-10.23,76.41-4.13,2.47,5.63-37.92,16.46-57.82,51.63-18.93,33.46-10.82,73.94-6.2,97.06,6.5,32.47,13.76,28.69,20.65,61.95,10.66,51.41-4.82,69.38,12.39,92.93,7.5,10.26,11.03,7.66,49.56,30.98,36.52,22.1,54.78,33.15,61.95,45.43,17.52,30.01-8.28,66.19-22.72,109.45-18.08,54.17-5.51,115.62,19.62,238.51,9.14,44.68,29.5,100,70.21,210.63Z"/>
          </g>
          <g>
            <g class="cls-5">
              <g>
                <path class="cls-11" d="M1849.34,2215.95c66.81,58.04,183.47,61.4,253.23,14.68,42.78-28.65,40.75-57.95,84.41-73.4,38.31-13.56,62.48.99,143.13,18.35,101.45,21.83,94.39,5.52,179.83,25.69,103.66,24.47,119.26,49.72,171.09,39.27,39.66-7.99,94.7-35.7,108.65-82.23,17.24-57.51-41.31-100.37-19.17-136.87,20.7-34.14,79.67-9.46,112.31-46.85,30-34.36,13.82-93.75,5.13-125.64-32.49-119.26-133.47-182.76-187.17-216.53-31.99-20.12-118.58-74.57-150.47-47.71-25.07,21.11.09,78.65-38.97,113.09-7.7,6.78-16.35,11.32-33.04,16.52-66.27,20.65-134.25,12.82-177.55,6.18-85.02-13.03-81.14-23.45-172.49-40.37-89.32-16.54-132.32-15.31-146.8-14.68-51.67,2.25-92.65,4.04-132.12,30.13-48.43,32.01-66.02,81.75-77.07,113-35.06,99.16-9.63,189.65,11.57,265.05,21.18,75.34,31.77,113.01,65.5,142.32Z"/>
                <path class="cls-11" d="M856,2208c51.08-12.73,92.93-23.16,136.46-56.74,44.2-34.1,83.09-86.64,101.33-77.01,9,4.75,5.87,20.87,17.56,25.67,11.32,4.65,28.78-4.48,36.48-16.21,18.26-27.83-5.04-90.73-41.88-102.68-36.76-11.92-59.19,35.9-110.79,29.72-43.16-5.17-79.91-44.91-74.31-63.5,5.33-17.67,45.74-5.68,74.31-35.13,26.96-27.79,22.1-70.55,21.62-74.31-7.72-60.16-76.99-107.61-132.4-104.03-39.41,2.54-44.67,29.14-93.22,31.07-41.74,1.66-49.58-17.53-83.76-10.81-41.4,8.15-41.36,38.56-79.71,43.23-39.85,4.86-75.46-23.63-86.47-32.43-15.73-12.58-20.37-21.76-33.78-37.83-30.7-36.79-55.39-62.05-87.82-72.96-29.07-9.78-78.57-11.65-101.33,13.51-35.67,39.42,7.93,130.15,78.24,272.77,68.02,137.98,102.04,206.97,152.78,239.28,118.32,75.32,265.21,38.71,306.69,28.37Z"/>
                <path class="cls-12" d="M535.2,741.86c-47.81,13.17-128.1,41.89-207.63,107.27-35.13,28.88-103.4,83.87-141.54,178.64-52.37,130.13-45.38,294.54,6.72,312.84,34.09,11.98,56.06-49.69,141.74-79.69,71.84-25.16,134.55-9.18,245.69,20.76,180.75,48.69,181.97,94.6,311.44,110.73,105.18,13.11,136.55-13.18,193.79,20.76,78.89,46.79,61.03,121.49,121.12,179.94,126.37,122.94,475.62,55.48,536.37-96.89,36.04-90.39-46.95-166.73,10.38-269.92,28.31-50.95,86.87-101.31,131.5-89.97,70.5,17.91,69.31,180.36,117.66,183.4,21.98,1.38,19.98-50.76,62.29-72.67,34.55-17.89,75.29-5.01,134.96,13.84,78.04,24.66,91.03,47.23,121.12,38.07,42.64-12.98,34.49-63.76,83.05-89.97,47.85-25.83,79.34,10.75,134.96-3.46,77.14-19.71,142.67-122.28,128.04-197.25-14.21-72.82-100.71-102.44-179.94-145.34-239.59-129.7-234.59-284.27-397.95-411.79-305.06-238.15-808.27-78.37-989.69-20.76-265.95,84.44-454.96,220.1-564.05,311.44Z"/>
                <path class="cls-11" d="M2181.53,1637.71c4.96-1.41,12.61-2.97,21.85-2.26,13.75,1.05,27.48,6.85,27.12,10.73-.32,3.4-11.16,2.13-18.08,11.12-2.34,3.04-1.6,3.85-4.52,8.29-5.75,8.75-12.6,11.7-12.05,12.81.96,1.94,19.75-11.6,36.91-6.03,7.74,2.51,15.8,9.12,16.57,16.57,1.32,12.71-18.53,26.64-36.16,28.63-26.53,2.99-60.04-19.71-58.01-45.95,1.57-20.3,23.6-32.43,26.37-33.9Z"/>
              </g>
            </g>
            <path class="cls-7" d="M659.01,740.66c-5.9,32.89,17.46,61.48,33.04,80.54,25.61,31.33,55.05,45.21,82.6,57.82,23.01,10.54,74.75,33.48,140.42,26.85,25.72-2.6,44.33-4.48,61.95-18.59,37.13-29.74,46.37-95.02,22.72-115.64-13.74-11.98-37.94-8.35-66.08-4.13-36.4,5.46-43.41,16.19-57.82,10.33-9.67-3.94-14.17-11.89-37.17-68.15-18-44.02-19.97-50.73-28.91-55.76-21.48-12.09-51.3,3.44-76.41,16.52-33.06,17.22-68.11,35.47-74.34,70.21Z"/>
          </g>
          <g>
            <g class="cls-14">
              <g>
                <path class="cls-11" d="M1849.34,2215.95c66.81,58.04,183.47,61.4,253.23,14.68,42.78-28.65,40.75-57.95,84.41-73.4,38.31-13.56,62.48.99,143.13,18.35,101.45,21.83,94.39,5.52,179.83,25.69,103.66,24.47,119.26,49.72,171.09,39.27,39.66-7.99,94.7-35.7,108.65-82.23,17.24-57.51-41.31-100.37-19.17-136.87,20.7-34.14,79.67-9.46,112.31-46.85,30-34.36,13.82-93.75,5.13-125.64-32.49-119.26-133.47-182.76-187.17-216.53-31.99-20.12-118.58-74.57-150.47-47.71-25.07,21.11.09,78.65-38.97,113.09-7.7,6.78-16.35,11.32-33.04,16.52-66.27,20.65-134.25,12.82-177.55,6.18-85.02-13.03-81.14-23.45-172.49-40.37-89.32-16.54-132.32-15.31-146.8-14.68-51.67,2.25-92.65,4.04-132.12,30.13-48.43,32.01-66.02,81.75-77.07,113-35.06,99.16-9.63,189.65,11.57,265.05,21.18,75.34,31.77,113.01,65.5,142.32Z"/>
                <path class="cls-11" d="M856,2208c51.08-12.73,92.93-23.16,136.46-56.74,44.2-34.1,83.09-86.64,101.33-77.01,9,4.75,5.87,20.87,17.56,25.67,11.32,4.65,28.78-4.48,36.48-16.21,18.26-27.83-5.04-90.73-41.88-102.68-36.76-11.92-59.19,35.9-110.79,29.72-43.16-5.17-79.91-44.91-74.31-63.5,5.33-17.67,45.74-5.68,74.31-35.13,26.96-27.79,22.1-70.55,21.62-74.31-7.72-60.16-76.99-107.61-132.4-104.03-39.41,2.54-44.67,29.14-93.22,31.07-41.74,1.66-49.58-17.53-83.76-10.81-41.4,8.15-41.36,38.56-79.71,43.23-39.85,4.86-75.46-23.63-86.47-32.43-15.73-12.58-20.37-21.76-33.78-37.83-30.7-36.79-55.39-62.05-87.82-72.96-29.07-9.78-78.57-11.65-101.33,13.51-35.67,39.42,7.93,130.15,78.24,272.77,68.02,137.98,102.04,206.97,152.78,239.28,118.32,75.32,265.21,38.71,306.69,28.37Z"/>
                <path class="cls-12" d="M535.2,741.86c-47.81,13.17-128.1,41.89-207.63,107.27-35.13,28.88-103.4,83.87-141.54,178.64-52.37,130.13-45.38,294.54,6.72,312.84,34.09,11.98,56.06-49.69,141.74-79.69,71.84-25.16,134.55-9.18,245.69,20.76,180.75,48.69,181.97,94.6,311.44,110.73,105.18,13.11,136.55-13.18,193.79,20.76,78.89,46.79,61.03,121.49,121.12,179.94,126.37,122.94,475.62,55.48,536.37-96.89,36.04-90.39-46.95-166.73,10.38-269.92,28.31-50.95,86.87-101.31,131.5-89.97,70.5,17.91,69.31,180.36,117.66,183.4,21.98,1.38,19.98-50.76,62.29-72.67,34.55-17.89,75.29-5.01,134.96,13.84,78.04,24.66,91.03,47.23,121.12,38.07,42.64-12.98,34.49-63.76,83.05-89.97,47.85-25.83,79.34,10.75,134.96-3.46,77.14-19.71,142.67-122.28,128.04-197.25-14.21-72.82-100.71-102.44-179.94-145.34-239.59-129.7-234.59-284.27-397.95-411.79-305.06-238.15-808.27-78.37-989.69-20.76-265.95,84.44-454.96,220.1-564.05,311.44Z"/>
                <path class="cls-11" d="M2181.53,1637.71c4.96-1.41,12.61-2.97,21.85-2.26,13.75,1.05,27.48,6.85,27.12,10.73-.32,3.4-11.16,2.13-18.08,11.12-2.34,3.04-1.6,3.85-4.52,8.29-5.75,8.75-12.6,11.7-12.05,12.81.96,1.94,19.75-11.6,36.91-6.03,7.74,2.51,15.8,9.12,16.57,16.57,1.32,12.71-18.53,26.64-36.16,28.63-26.53,2.99-60.04-19.71-58.01-45.95,1.57-20.3,23.6-32.43,26.37-33.9Z"/>
              </g>
            </g>
            <path class="cls-7" d="M877.9,643.61c-8.01,17.35,7.75,43.23,22.72,57.82,18.6,18.12,33.59,16.49,94.99,33.04,54.2,14.61,53.36,18.8,92.93,26.85,21.51,4.37,49.98,8.87,84.67,8.26,20.56-.36,59.45-1.05,61.95-12.39,3.21-14.55-56.66-32.22-53.69-49.56,2.25-13.12,37.01-5.98,72.28-30.98,24.11-17.09,18.16-27.73,49.56-57.82,10.36-9.93,27.7-21.9,61.95-45.43,46.25-31.77,64.19-42.02,61.95-51.63-1.92-8.24-17.59-11.21-24.78-12.39-83.48-13.72-194.11,18.59-194.11,18.59-40.75,11.9-92.56,29.27-196.18,64.02-24.98,8.38-49.02,19.57-74.34,26.85-37.05,10.64-53.74,11.47-59.89,24.78Z"/>
          </g>
          <g>
            <g class="cls-1">
              <g>
                <path class="cls-11" d="M1849.34,2215.95c66.81,58.04,183.47,61.4,253.23,14.68,42.78-28.65,40.75-57.95,84.41-73.4,38.31-13.56,62.48.99,143.13,18.35,101.45,21.83,94.39,5.52,179.83,25.69,103.66,24.47,119.26,49.72,171.09,39.27,39.66-7.99,94.7-35.7,108.65-82.23,17.24-57.51-41.31-100.37-19.17-136.87,20.7-34.14,79.67-9.46,112.31-46.85,30-34.36,13.82-93.75,5.13-125.64-32.49-119.26-133.47-182.76-187.17-216.53-31.99-20.12-118.58-74.57-150.47-47.71-25.07,21.11.09,78.65-38.97,113.09-7.7,6.78-16.35,11.32-33.04,16.52-66.27,20.65-134.25,12.82-177.55,6.18-85.02-13.03-81.14-23.45-172.49-40.37-89.32-16.54-132.32-15.31-146.8-14.68-51.67,2.25-92.65,4.04-132.12,30.13-48.43,32.01-66.02,81.75-77.07,113-35.06,99.16-9.63,189.65,11.57,265.05,21.18,75.34,31.77,113.01,65.5,142.32Z"/>
                <path class="cls-11" d="M856,2208c51.08-12.73,92.93-23.16,136.46-56.74,44.2-34.1,83.09-86.64,101.33-77.01,9,4.75,5.87,20.87,17.56,25.67,11.32,4.65,28.78-4.48,36.48-16.21,18.26-27.83-5.04-90.73-41.88-102.68-36.76-11.92-59.19,35.9-110.79,29.72-43.16-5.17-79.91-44.91-74.31-63.5,5.33-17.67,45.74-5.68,74.31-35.13,26.96-27.79,22.1-70.55,21.62-74.31-7.72-60.16-76.99-107.61-132.4-104.03-39.41,2.54-44.67,29.14-93.22,31.07-41.74,1.66-49.58-17.53-83.76-10.81-41.4,8.15-41.36,38.56-79.71,43.23-39.85,4.86-75.46-23.63-86.47-32.43-15.73-12.58-20.37-21.76-33.78-37.83-30.7-36.79-55.39-62.05-87.82-72.96-29.07-9.78-78.57-11.65-101.33,13.51-35.67,39.42,7.93,130.15,78.24,272.77,68.02,137.98,102.04,206.97,152.78,239.28,118.32,75.32,265.21,38.71,306.69,28.37Z"/>
                <path class="cls-12" d="M535.2,741.86c-47.81,13.17-128.1,41.89-207.63,107.27-35.13,28.88-103.4,83.87-141.54,178.64-52.37,130.13-45.38,294.54,6.72,312.84,34.09,11.98,56.06-49.69,141.74-79.69,71.84-25.16,134.55-9.18,245.69,20.76,180.75,48.69,181.97,94.6,311.44,110.73,105.18,13.11,136.55-13.18,193.79,20.76,78.89,46.79,61.03,121.49,121.12,179.94,126.37,122.94,475.62,55.48,536.37-96.89,36.04-90.39-46.95-166.73,10.38-269.92,28.31-50.95,86.87-101.31,131.5-89.97,70.5,17.91,69.31,180.36,117.66,183.4,21.98,1.38,19.98-50.76,62.29-72.67,34.55-17.89,75.29-5.01,134.96,13.84,78.04,24.66,91.03,47.23,121.12,38.07,42.64-12.98,34.49-63.76,83.05-89.97,47.85-25.83,79.34,10.75,134.96-3.46,77.14-19.71,142.67-122.28,128.04-197.25-14.21-72.82-100.71-102.44-179.94-145.34-239.59-129.7-234.59-284.27-397.95-411.79-305.06-238.15-808.27-78.37-989.69-20.76-265.95,84.44-454.96,220.1-564.05,311.44Z"/>
                <path class="cls-11" d="M2181.53,1637.71c4.96-1.41,12.61-2.97,21.85-2.26,13.75,1.05,27.48,6.85,27.12,10.73-.32,3.4-11.16,2.13-18.08,11.12-2.34,3.04-1.6,3.85-4.52,8.29-5.75,8.75-12.6,11.7-12.05,12.81.96,1.94,19.75-11.6,36.91-6.03,7.74,2.51,15.8,9.12,16.57,16.57,1.32,12.71-18.53,26.64-36.16,28.63-26.53,2.99-60.04-19.71-58.01-45.95,1.57-20.3,23.6-32.43,26.37-33.9Z"/>
              </g>
            </g>
            <path class="cls-7" d="M1113.31,831.53c-26.56,9.02-63.64,32.37-59.89,49.56,2.73,12.49,24.35,9.58,72.28,30.98,27.56,12.3,46.85,21.18,61.95,41.3,2.89,3.85,28.15,37.5,16.52,59.89-10.03,19.3-37.98,11.88-51.63,35.11-6.47,11.01-7.69,25.44-4.13,37.17,8.39,27.66,38.13,22.98,59.89,55.76,14.79,22.28,8.94,36.33,22.72,43.37,16.61,8.48,44.92-1.86,55.76-20.65,12.64-21.92-1.11-50.83-10.32-70.21-14.46-30.4-31.05-40.32-26.85-47.5,5.29-9.02,39.12-6.31,59.89,12.39,18.18,16.37,15.94,35.61,26.85,37.17,13.27,1.9,29.7-24.7,35.11-47.5,1.59-6.7,9.84-41.47-8.26-57.82-19.78-17.86-54.63,1.06-64.02-14.46-4.67-7.72,3.27-13.54,4.13-33.04.12-2.67,1.1-35.74-20.65-57.82-11.9-12.08-25.81-16.01-49.56-22.72-25.01-7.06-28.14-2.77-43.37-10.33-19.69-9.77-20.83-20.1-37.17-24.78-14.4-4.12-27.11.01-39.24,4.13Z"/>
          </g>
          <g>
            <g class="cls-2">
              <g>
                <path class="cls-11" d="M1849.34,2215.95c66.81,58.04,183.47,61.4,253.23,14.68,42.78-28.65,40.75-57.95,84.41-73.4,38.31-13.56,62.48.99,143.13,18.35,101.45,21.83,94.39,5.52,179.83,25.69,103.66,24.47,119.26,49.72,171.09,39.27,39.66-7.99,94.7-35.7,108.65-82.23,17.24-57.51-41.31-100.37-19.17-136.87,20.7-34.14,79.67-9.46,112.31-46.85,30-34.36,13.82-93.75,5.13-125.64-32.49-119.26-133.47-182.76-187.17-216.53-31.99-20.12-118.58-74.57-150.47-47.71-25.07,21.11.09,78.65-38.97,113.09-7.7,6.78-16.35,11.32-33.04,16.52-66.27,20.65-134.25,12.82-177.55,6.18-85.02-13.03-81.14-23.45-172.49-40.37-89.32-16.54-132.32-15.31-146.8-14.68-51.67,2.25-92.65,4.04-132.12,30.13-48.43,32.01-66.02,81.75-77.07,113-35.06,99.16-9.63,189.65,11.57,265.05,21.18,75.34,31.77,113.01,65.5,142.32Z"/>
                <path class="cls-11" d="M856,2208c51.08-12.73,92.93-23.16,136.46-56.74,44.2-34.1,83.09-86.64,101.33-77.01,9,4.75,5.87,20.87,17.56,25.67,11.32,4.65,28.78-4.48,36.48-16.21,18.26-27.83-5.04-90.73-41.88-102.68-36.76-11.92-59.19,35.9-110.79,29.72-43.16-5.17-79.91-44.91-74.31-63.5,5.33-17.67,45.74-5.68,74.31-35.13,26.96-27.79,22.1-70.55,21.62-74.31-7.72-60.16-76.99-107.61-132.4-104.03-39.41,2.54-44.67,29.14-93.22,31.07-41.74,1.66-49.58-17.53-83.76-10.81-41.4,8.15-41.36,38.56-79.71,43.23-39.85,4.86-75.46-23.63-86.47-32.43-15.73-12.58-20.37-21.76-33.78-37.83-30.7-36.79-55.39-62.05-87.82-72.96-29.07-9.78-78.57-11.65-101.33,13.51-35.67,39.42,7.93,130.15,78.24,272.77,68.02,137.98,102.04,206.97,152.78,239.28,118.32,75.32,265.21,38.71,306.69,28.37Z"/>
                <path class="cls-12" d="M535.2,741.86c-47.81,13.17-128.1,41.89-207.63,107.27-35.13,28.88-103.4,83.87-141.54,178.64-52.37,130.13-45.38,294.54,6.72,312.84,34.09,11.98,56.06-49.69,141.74-79.69,71.84-25.16,134.55-9.18,245.69,20.76,180.75,48.69,181.97,94.6,311.44,110.73,105.18,13.11,136.55-13.18,193.79,20.76,78.89,46.79,61.03,121.49,121.12,179.94,126.37,122.94,475.62,55.48,536.37-96.89,36.04-90.39-46.95-166.73,10.38-269.92,28.31-50.95,86.87-101.31,131.5-89.97,70.5,17.91,69.31,180.36,117.66,183.4,21.98,1.38,19.98-50.76,62.29-72.67,34.55-17.89,75.29-5.01,134.96,13.84,78.04,24.66,91.03,47.23,121.12,38.07,42.64-12.98,34.49-63.76,83.05-89.97,47.85-25.83,79.34,10.75,134.96-3.46,77.14-19.71,142.67-122.28,128.04-197.25-14.21-72.82-100.71-102.44-179.94-145.34-239.59-129.7-234.59-284.27-397.95-411.79-305.06-238.15-808.27-78.37-989.69-20.76-265.95,84.44-454.96,220.1-564.05,311.44Z"/>
                <path class="cls-11" d="M2181.53,1637.71c4.96-1.41,12.61-2.97,21.85-2.26,13.75,1.05,27.48,6.85,27.12,10.73-.32,3.4-11.16,2.13-18.08,11.12-2.34,3.04-1.6,3.85-4.52,8.29-5.75,8.75-12.6,11.7-12.05,12.81.96,1.94,19.75-11.6,36.91-6.03,7.74,2.51,15.8,9.12,16.57,16.57,1.32,12.71-18.53,26.64-36.16,28.63-26.53,2.99-60.04-19.71-58.01-45.95,1.57-20.3,23.6-32.43,26.37-33.9Z"/>
              </g>
            </g>
            <path class="cls-7" d="M1604.79,561.01c-18.4,11.32-57.39,40.8-113.58,74.34-24.86,14.84-38.22,21.6-55.76,26.85-22.27,6.66-32.43,5.24-53.69,14.46-19.77,8.57-37.25,16.15-41.3,30.98-6.76,24.76,28.11,54.52,39.24,64.02,23.11,19.73,32.28,16.12,49.56,35.11,11.62,12.76,16.85,25.2,26.85,49.56,14.3,34.86,22.7,55.32,22.72,82.6.01,22.41-6.19,39.03-18.59,72.28-15.25,40.88-23.15,44.11-35.11,80.54-10.49,31.97-15.74,47.96-12.39,68.15,3.07,18.52,17.19,37.13,45.43,74.34,26.06,34.34,33.06,37.73,39.24,39.24,22.65,5.51,52.91-9.85,64.02-33.04,16.69-34.86-21.89-62.35-6.19-99.12,4.13-9.68,23.4-22.97,61.95-49.56,23.57-16.26,21.84-13.43,64.02-41.3,30.93-20.44,33.05-22.74,43.37-26.85,27.54-10.96,37.83-4.65,57.82-16.52,4.56-2.7,24.95-14.81,33.04-37.17,11.75-32.46-16.56-47.51-6.19-82.6,1.46-4.96,1.2-1.86,30.98-53.69,13.03-22.68,13.95-24.79,14.46-28.91,3.22-26.22-22.3-35.7-22.72-64.02-.32-22.07,14.85-39.16,18.59-43.37,20.34-22.91,42.8-17.81,55.76-39.24,8.4-13.88,7.17-29.59,6.19-35.11-10.48-59.6-201.03-127.54-307.69-61.95Z"/>
          </g>
        </g>
        <path class="cls-7" d="M1008.23,2986.38c-435.07-168.99-611.9-604.02-651.7-712.38-189.54-516.04,25.81-982.31,74.16-1037.1,4.63-5.25,38.54-41.64,73.04-98.88,21.24-35.24,33.4-62.95,35.96-68.54,34.95-76.44,207.41-244.97,334.84-321.36,223.44-133.94,870.94-321.75,1387.68,35.96,246.18,170.41,428.62,441.06,451.7,596.64,2.12,14.31,13.2,97.06,37.08,208.99,22.51,105.47,43.71,177.26,49.44,198.88,52.93,199.55-37.43,503.22-176.41,713.5-127.85,193.44-309.62,341.73-409,368.55-10.59,2.86-64.24,16.22-132.59,46.07-53.2,23.23-86.5,43.87-106.74,55.06-83.52,46.16-166.29,53.89-262.93,62.92-242.25,22.63-467.63,43.69-704.51-48.32Z"/>
      </g>
      <path class="cls-8" d="M2100.81,1139.23c4.98-9.21,9.96-18.42,14.94-27.62l11.77,10.87,15.85-22.64,7.65,10.42,13.63-23.55,5.66,17.21"/>
      <path class="cls-8" d="M2135.48,1149.54s.89-30.44,10.51-18l9.62,12.44"/>
      <path class="cls-8" d="M2170.32,1130.62s-8.83-23.09,0-14.72l8.83,8.38"/>
      <polyline class="cls-8" points="2197.26 1072.43 2212.66 1050.25 2217.42 1060.43"/>
      <line class="cls-8" x1="2319.08" y1="1006.32" x2="2346.25" y2="1019.91"/>
      <path class="cls-8" d="M2472.63,1030.55s60.77,6.11,36.14,33.28"/>
      <path class="cls-8" d="M2390.85,1145.79s-39.85-28.08,4.75-39.85"/>
      <path class="cls-8" d="M2267.23,1125.87s14.26-44.15,26.26-8.83"/>
      <line class="cls-8" x1="2192.06" y1="1303.23" x2="2215.15" y2="1281.88"/>
      <polyline class="cls-8" points="2184.65 1147.14 2190.47 1130.62 2195.23 1137.19"/>
      <path class="cls-8" d="M2118.06,1190.17s-2.63-35.6,10.78-26.07l13.41,9.54"/>
      <path class="cls-8" d="M2313.87,1203.54s-15.17,20.84,5.21,30.11"/>
      <path class="cls-8" d="M2349.64,1368.37c1.13-1.6,38.94-20.16,38.94-49.82"/>
      <line class="cls-8" x1="2258.62" y1="1379.92" x2="2281.49" y2="1392.2"/>
      <path class="cls-8" d="M2214.74,1599.08c1.54,1.58,14.45,14.72,14.45,14.72"/>
      <path class="cls-8" d="M2222.24,1685.79c1.74-1.13,15.78-8.6,19.18-21.28"/>
      <line class="cls-8" x1="2264.06" y1="1644.58" x2="2272.89" y2="1659.75"/>
      <path class="cls-8" d="M2275.38,1535.35s51.4,25.01,62.26,60.1"/>
      <path class="cls-8" d="M2359.83,1685.79c0,1.13,8.38,24.23,14.49,2.49"/>
      <line class="cls-8" x1="2431.15" y1="1673.34" x2="2469.87" y2="1706.62"/>
      <path class="cls-8" d="M2584.61,1202.6s32.2-10.61,36.27-26.92"/>
      <path class="cls-8" d="M1962.25,1700.28s87.62-20.15,113.66-65.43"/>
      <path class="cls-8" d="M1944.36,1606.43s35.09,3.51,44.6-27.74c9.51-31.25,16.3-70.5,16.3-70.5"/>
      <line class="cls-8" x1="1895.91" y1="1649.11" x2="1898.62" y2="1667.57"/>
      <line class="cls-8" x1="2043.75" y1="1573.04" x2="2037.64" y2="1599.08"/>
      <line class="cls-8" x1="2052.58" y1="1573.04" x2="2044.66" y2="1597.49"/>
      <line class="cls-8" x1="2027.91" y1="1591.38" x2="2056.89" y2="1588.66"/>
      <line class="cls-8" x1="2033.79" y1="1582.32" x2="2060.06" y2="1581.19"/>
      <line class="cls-8" x1="2402.17" y1="1525.27" x2="2453.41" y2="1581.75"/>
      <polyline class="cls-8" points="2534.58 1535.35 2554.76 1485.26 2569.33 1521.43 2587.33 1482.99 2596.73 1518.7 2630.46 1472.97 2632.84 1517.35"/>
      <path class="cls-8" d="M2566.22,1472.97s11.1-35.99,22.7-18.68l11.59,17.31"/>
      <path class="cls-8" d="M2623.22,1946.41c2.42,1.35,30.62,41.93,30.62,41.93l45.84-14.01"/>
      <line class="cls-8" x1="2581.14" y1="1861.86" x2="2626.27" y2="1863.4"/>
      <path class="cls-8" d="M2219.55,1938.17s54.89-8.53,44.04-31.74c0,0,26.47-26.6,66.23,17.55"/>
      <path class="cls-8" d="M2301.45,1971.18s35.13-48.55,84.23-21.39"/>
      <path class="cls-8" d="M2319.79,2047.6s72.87-55.73,102.08-18.02"/>
      <path class="cls-8" d="M2521.26,1993.41s13.87,48.68,22.11,51.78"/>
      <path class="cls-8" d="M2307.62,1820.06c2.17,0,42.89,20.81,47.66-11.33"/>
      <polyline class="cls-8" points="2187.34 1776.77 2136.14 1739.91 2096.74 1771.15"/>
      <path class="cls-8" d="M1920.08,1875.77s25.78-45.52.58-63.86"/>
      <line class="cls-8" x1="1963.32" y1="1767.08" x2="2017.03" y2="1758.34"/>
      <line class="cls-8" x1="2084.24" y1="1904.13" x2="2116.25" y2="1932.74"/>
      <line class="cls-8" x1="2104.04" y1="1880.43" x2="2131.2" y2="1912.53"/>
      <path class="cls-8" d="M2081.86,1935.38c1.74-10.04,41.13-63.62,41.13-63.62"/>
      <line class="cls-8" x1="2102.69" y1="1947.75" x2="2142.65" y2="1883.93"/>
      <line class="cls-8" x1="2254.46" y1="2182.07" x2="2290.09" y2="2190.25"/>
      <line class="cls-8" x1="2589.56" y1="2340.93" x2="2626.13" y2="2314.53"/>
      <line class="cls-7" x1="2589.26" y1="2234.23" x2="2655.98" y2="2254.84"/>
      <line class="cls-7" x1="2521.55" y1="2469.3" x2="2549.86" y2="2415.77"/>
      <polyline class="cls-7" points="2375.75 2443.24 2390.77 2390.98 2402.17 2431.93"/>
      <path class="cls-7" d="M2331.45,2351.86l28.22-34.95,21.07,28.26,19.88-33.04,17.25,29.89,13.06,2.22,22.47-48.17,22.12,49.1s16.73-103.44,26.36-42.92c9.63,60.52,11.61,60.95,11.61,60.95"/>
      <line class="cls-7" x1="2554.39" y1="2266.3" x2="2500.66" y2="2256.13"/>
      <line class="cls-7" x1="2270.46" y1="2568.75" x2="2281.26" y2="2615.45"/>
      <line class="cls-7" x1="2281.26" y1="2465.55" x2="2306.51" y2="2415.45"/>
      <path class="cls-7" d="M2293.89,2348.25c-4.47,1.62-30.81,19.4-30.81,19.4"/>
      <line class="cls-7" x1="2222.21" y1="2460.37" x2="2217.28" y2="2423.14"/>
      <line class="cls-7" x1="1939.6" y1="1408.56" x2="1974.81" y2="1407.2"/>
      <line class="cls-7" x1="1920.08" y1="1312" x2="1920.08" y2="1274.66"/>
      <path class="cls-7" d="M1895.91,1226.75c1.58,1.01,18.57,17.31,18.57,17.31"/>
      <path class="cls-7" d="M1813.26,1331.56s1.49,24.82,15.69,16.54l14.2-8.27"/>
      <path class="cls-7" d="M1465.49,1185.64s11.55,79.93,35.32,54.91c23.77-25.02,36,23.88,23.77-25.02l-12.23-48.91"/>
      <line class="cls-7" x1="1571.45" y1="1112.96" x2="1656.36" y2="1057.8"/>
      <line class="cls-7" x1="1744.66" y1="994.77" x2="1779.83" y2="987.3"/>
      <line class="cls-12" x1="1791.11" y1="875.23" x2="1828.95" y2="818.17"/>
      <polyline class="cls-12" points="1485.87 994.77 1504.21 889.49 1476.27 823.63"/>
      <path class="cls-12" d="M1449.06,754.32c-6.67,1.36-113.31-34.94,16.43-63.32"/>
      <polyline class="cls-12" points="1589.79 931.6 1613.91 868.43 1632.23 909.2 1646.17 839.23 1668.64 871.15"/>
      <path class="cls-12" d="M1568.68,846.7s-4.02-48.23,21.11-28.53,10.19,58.42,25.13,19.7l14.94-38.72,26.05,19.02"/>
      <line class="cls-12" x1="1218.92" y1="921.42" x2="1237.94" y2="962.85"/>
      <line class="cls-12" x1="1237.94" y1="909.2" x2="1252.21" y2="942.13"/>
      <line class="cls-12" x1="1210.09" y1="942.13" x2="1245.08" y2="918.7"/>
      <line class="cls-12" x1="1223" y1="956.74" x2="1258.66" y2="921.42"/>
      <line class="cls-12" x1="1205.68" y1="1105.94" x2="1237.94" y2="1134.02"/>
      <path class="cls-12" d="M1320.81,1006.32s47.55-41.43,38.72,0l-8.83,41.43"/>
      <path class="cls-12" d="M1189.56,879.3c-5.28-.68-42.63-24.88-42.63-24.88"/>
      <polyline class="cls-12" points="931.72 885.97 979.64 851.49 994.77 806.62"/>
      <line class="cls-12" x1="1035.23" y1="715.57" x2="1105.71" y2="739.38"/>
      <path class="cls-12" d="M1166.54,730.64s-33.58-34.46,31.14-49.2"/>
      <path class="cls-12" d="M1105.71,687.7s51.4-41.78,122.72-58.9"/>
      <path class="cls-12" d="M785.34,846.7s33.54-26.47,63.39-47.55"/>
      <path class="cls-12" d="M869.2,882.71c4.67-2.05,23.01-2.73,23.01-2.73"/>
      <line class="cls-7" x1="711.2" y1="956.74" x2="810.23" y2="956.74"/>
      <path class="cls-7" d="M974.24,994.77c2.19.68,70.77-4.08,90.48-25.13,19.71-21.06,88.99,2.04,33.29,61.81"/>
      <path class="cls-7" d="M983.84,1085.38c4.82-1.63,41.5-24.72,41.5-24.72l14.14-2.86"/>
      <line class="cls-7" x1="894.25" y1="1169" x2="930.74" y2="1125.19"/>
      <polyline class="cls-7" points="661.84 1172.97 687.79 1125.19 705.61 1156.41 712.32 1125.19 729.19 1156.41 753.8 1112.96 773.24 1162.55 798.15 1079.85 818.04 1155.76"/>
      <polyline class="cls-7" points="599.14 1109.57 638.07 1047.75 657.31 1078.66 678.04 1035.75 697.29 1071.59"/>
      <polyline class="cls-7" points="697.29 1089.72 729.19 1031.45 753.8 1085.38 778.77 1020.58"/>
      <path class="cls-7" d="M1119.25,1255.86s8.06-119.76,38.59-40.31"/>
      <line class="cls-7" x1="1223" y1="1262.8" x2="1255.46" y2="1246.83"/>
      <line class="cls-7" x1="1252.21" y1="1347.04" x2="1283.46" y2="1371.09"/>
      <line class="cls-7" x1="1266.14" y1="1407.02" x2="1300.3" y2="1430.09"/>
      <path class="cls-7" d="M1239.23,1547.69l42.57-5s31.16-33.49-13.14-45.16"/>
      <line class="cls-7" x1="1098.02" y1="1572.84" x2="1128.58" y2="1545.56"/>
      <path class="cls-7" d="M935.8,1786.68s32.4,99.33,5.95,68.73"/>
      <path class="cls-7" d="M773.7,1941.08s8.38-34.86,33.9-23.26"/>
      <path class="cls-7" d="M801.75,1794.12c23.21,5.56,32.25-1.08,41.66-18.14"/>
      <line class="cls-7" x1="611.94" y1="1765.97" x2="670.95" y2="1807.12"/>
      <line class="cls-7" x1="510.82" y1="1641.34" x2="540.48" y2="1679.21"/>
      <line class="cls-7" x1="544.64" y1="1629.38" x2="566.69" y2="1660.27"/>
      <line class="cls-7" x1="496.53" y1="1667.57" x2="555.51" y2="1634.85"/>
      <line class="cls-7" x1="522.09" y1="1668.32" x2="574.73" y2="1641.34"/>
      <line class="cls-7" x1="397.56" y1="1615.8" x2="387.93" y2="1572.84"/>
      <line class="cls-7" x1="416.97" y1="1445.82" x2="403.87" y2="1366.96"/>
      <line class="cls-7" x1="545.28" y1="1305.16" x2="594.92" y2="1309.94"/>
      <path class="cls-7" d="M916.06,1438.31c4.8-1.05,103.85-51.55,134.42,5.48"/>
      <line class="cls-7" x1="945.15" y1="1515.09" x2="1015.15" y2="1542.31"/>
      <line class="cls-7" x1="793.19" y1="1515.09" x2="783.7" y2="1489.94"/>
      <polyline class="cls-7" points="524.51 1415.27 545.28 1375.79 565.26 1412.39"/>
      <path class="cls-7" d="M459.53,1495.78l30.06-39.66s1.37,1.3,27.12,29.75c25.75,28.45,27.34,27.62,27.34,27.62,0,0,4.89-85.27,16.17-39.73,11.28,45.53,13.91,46.27,13.91,46.27"/>
      <polyline class="cls-7" points="470.75 1373.75 496.5 1340.38 510.82 1377.18"/>
      <polyline class="cls-7" points="547.23 1356.82 567.53 1339.83 585.1 1374.54"/>
      <line class="cls-7" x1="659.14" y1="1904.13" x2="653.1" y2="1955.2"/>
      <line class="cls-7" x1="452.74" y1="1861.44" x2="467.86" y2="1855.41"/>
      <polyline class="cls-7" points="771.3 2040.82 816.88 2055.03 836.35 2085.5"/>
      <path class="cls-7" d="M939.83,2112.87c38.65-18.4,61.06-59.08,94.34-54.02"/>
      <path class="cls-7" d="M929.17,2304.02c-4.35,12.57,4.04,30.3,6.64,62.19"/>
      <path class="cls-7" d="M1164.41,2140.06c3.57-6.2,38.19-46.29,83.03-3.49"/>
      <path class="cls-7" d="M1349.34,2214.62s24.08,27.21,55.17,17.72"/>
      <line class="cls-7" x1="1110.14" y1="2234.43" x2="1134.22" y2="2280.71"/>
      <line class="cls-7" x1="1140" y1="2230.76" x2="1159.89" y2="2277.71"/>
      <line class="cls-7" x1="1086.47" y1="2269.04" x2="1153.85" y2="2244.77"/>
      <line class="cls-7" x1="1106.71" y1="2280.72" x2="1168.01" y2="2241.11"/>
      <path class="cls-7" d="M1227.03,2422.5c-1.31,4.13,4.13,44.38,4.13,44.38"/>
      <line class="cls-7" x1="1433.53" y1="2401.01" x2="1342.1" y2="2462.85"/>
      <line class="cls-7" x1="1462.03" y1="2249.26" x2="1507.77" y2="2277.71"/>
      <path class="cls-7" d="M977,2213.25c5.55-3.99,71.04-73.19,71.04-73.19"/>
      <path class="cls-7" d="M1043,2798.42c-.68-3.65,0-90.6,0-90.6l28.53-67.31"/>
      <line class="cls-7" x1="1225.73" y1="2654.63" x2="1189.7" y2="2735.45"/>
      <path class="cls-7" d="M2269.04,844.66c29.84,20.66,59.96,41.94,90.34,63.85,36.52,26.34,72.07,52.63,106.64,78.79"/>
      <path class="cls-7" d="M2189.57,788.28c-19.04-13.65-38.95-26.82-59.77-39.4-255.58-154.36-539.99-153.89-744.45-124.98"/>
      <path class="cls-7" d="M2626.32,2439.53c21.51-33.96,43.02-67.92,64.53-101.89"/>
      <path class="cls-7" d="M519.18,2493.71s-78.44-112.18-151.35-303.26"/>
      <path class="cls-7" d="M305.29,1782.93s7.74-150.55,30.39-213.84"/>
      <path class="cls-7" d="M1255.46,730.64c-1.44,2.62,33.85,42.18,13.94,50.93"/>
      <path class="cls-7" d="M1396,846.7c30.1,26.04,52.74,83.09,40.06,108.45"/>
      <path class="cls-7" d="M1336.59,956.74c3.46-.68,42.36,11.09,42.36,11.09"/>
      <path class="cls-7" d="M1411.23,1204.48c-3.25-2.08-51.48-35.59-9.7-110.76"/>
      <path class="cls-7" d="M1007.74,1286.69c-5.5,2.64,7.41,40.71,7.41,40.71l25.13-24.48,6.46-42.57"/>
      <path class="cls-7" d="M949.57,1193.01s40.12-66.24,94.4-80.05"/>
      <line class="cls-7" x1="722.34" y1="909.2" x2="874.49" y2="925.67"/>
      <path class="cls-7" d="M1019.74,891.75s50.53-47.09,35.99-85.13"/>
      <path class="cls-7" d="M1597.19,1273.03c.08-3.61,36.68-51.61,9.32-82.86"/>
      <path class="cls-7" d="M1797.69,1050.25c-2.08,0,83.28-77.66,61.43-108.11"/>
      <path class="cls-7" d="M2275.38,1331.14l38.38-6.53s50.6-60.62-8.27-46.13"/>
      <path class="cls-7" d="M2046.66,1089.72c-3.82-1.44,48.7-41.74,104.86-58.27,56.16-16.53,90.86-44.15,90.86-44.15"/>
      <path class="cls-7" d="M2027.91,1356.26c-11.32-4.43-60.68-67.02-48.23-99.57"/>
      <path class="cls-7" d="M1799.22,1847.23s44.69-12.79,28.23-47.15"/>
      <path class="cls-7" d="M1853.48,1685.79s-46.71-92.7,7.93-111.9c54.64-19.2,99.62-33.31,99.62-33.31"/>
      <path class="cls-7" d="M1885.38,1457.01s-52.94-25.54-34.68-53.58"/>
      <path class="cls-7" d="M1262.4,1595.45c5.22-.09,81.13,16.25,82.11-36.25"/>
      <path class="cls-7" d="M1026.56,1745.18s56-16.07,49.8-49.84"/>
      <path class="cls-7" d="M862.88,1976.74s69.43-41.72,84.93,3.6"/>
      <path class="cls-7" d="M918.96,1897.19c-6.38-2.87-54.4-38.34-43.52-69.96"/>
      <line class="cls-7" x1="724.78" y1="1904.96" x2="739.5" y2="1852.48"/>
      <line class="cls-7" x1="470.75" y1="1765.97" x2="493.32" y2="1811.91"/>
      <path class="cls-7" d="M862.88,2357.52c-.56-2.9-37.6-48.09-17.38-92.74"/>
      <path class="cls-7" d="M1207.12,2060.22s55.92-2.86,92.62,32"/>
      <line class="cls-7" x1="2527.52" y1="1922.64" x2="2561.71" y2="1958.47"/>
      <path class="cls-7" d="M2167.83,2278.98l33.32,45.78s-7.42,38.23-46.18,68.69"/>
      <path class="cls-7" d="M2183.52,2624.1s33.97,25.41,49.9,80.38"/>
      <path class="cls-7" d="M1305.99,2764.96s12.63-34.22,39.69-62.3"/>
      <line class="cls-7" x1="939.83" y1="2712.67" x2="961.85" y2="2636.54"/>
      <path class="cls-7" d="M1511.68,1481.79c5.87-6.99,14.79-15.39,24.45-14.26,12.56,1.46,16.06,17.81,27.17,17.66,10.66-.14,12.06-15.27,26.49-19.02,8.69-2.26,13.31,1.9,29.89,6.79,12.84,3.79,28.27,8.35,42.11,6.79,23.96-2.69,27.03-21.86,52.3-31.25,10.94-4.06,28.2-7.09,53.66.68"/>
      <path class="cls-7" d="M1516.43,1527.98c30.65-23.06,47.74-23.31,57.74-19.02,14.42,6.19,16.77,22.99,28.53,23.09,13.55.12,15.7-22.15,35.32-27.17,13.37-3.42,15.05,6.22,34.64,4.75,14.76-1.1,19.06-6.97,42.11-11.55,8.38-1.66,15.31-2.37,19.7-2.72"/>
      <path class="cls-7" d="M1477.04,1782.7c15.36-8.97,34.28-17.08,45.51-9.51,9.95,6.71,8.18,21.92,16.3,23.77,9.93,2.27,16.81-19.53,33.28-22.42,12.35-2.16,24.39,7.31,32.6,15.62"/>
      <path class="cls-7" d="M1387.38,1996.66c12.52-10.1,30.76-21.6,46.87-16.3,18.27,6.01,17.26,28.2,36,32.6,12.9,3.03,28.99-3.8,53.66-14.26,8.01-3.4,11.9-5.57,17.66-4.75,13.1,1.85,21.82,17.11,27.17,29.89"/>
      <path class="cls-7" d="M1102.77,1930.77c5.64-1.51,18.73-4.16,33.96.68,21.82,6.94,32.22,24.24,34.64,28.53"/>
      <path class="cls-7" d="M1974.92,2457.19c31.37-22.32,48.47-22.49,58.42-17.66,13.84,6.72,12.79,22.64,28.53,27.17,10.42,3,15.72-2.58,42.11-4.75,8.31-.69,15.17-.74,19.7-.68"/>
      <path class="cls-7" d="M1633.26,2654.85c1.05-.88,19.25-15.57,41.43-8.15,18.79,6.29,25.61,23.48,26.49,25.81"/>
      <path class="cls-7" d="M532.21,2349.87c10.2-13.54,23.33-27.13,34.64-24.45,9.63,2.28,10.18,14.5,19.7,16.3,15.66,2.96,26.39-27.78,42.79-25.13,9.78,1.58,11.15,13.36,26.49,17.66,6.69,1.88,12.76,1.42,16.98.68"/>
      <path class="cls-7" d="M436.43,2162.4c19.84-7.76,32.23-5.74,40.08-2.04,9.69,4.57,13.29,12.11,19.7,10.87,10.1-1.96,9.41-22.29,19.02-25.13,5.25-1.55,13.66,2.09,27.85,21.06"/>
      <path class="cls-7" d="M2036.74,924.81c4.14-20.83,20.27-35.68,38.04-36.68,12.8-.72,17.11,13.44,30.57,12.91,18.41-.74,23.07-26.06,38.72-25.81,16.98.27,25.22,30.31,36,27.85,10.21-2.33,8.25-30.54,17.66-32.6,7.25-1.59,16.75,13.31,23.77,26.49"/>
      <g class="cls-15">
        <rect class="cls-9" x="1" y="1" width="3098.75" height="3098.75"/>
      </g>
    </g>
  </g>
</svg>