<?xml version="1.0" encoding="UTF-8"?>
<svg id="Livello_2" data-name="Livello 2" xmlns="http://www.w3.org/2000/svg" viewBox="0 0 329.92 418.73">
  <defs>
    <style>
      .cls-1 {
        fill: #e8e8e8;
      }

      .cls-1, .cls-2, .cls-3, .cls-4, .cls-5, .cls-6, .cls-7, .cls-8, .cls-9, .cls-10, .cls-11, .cls-12, .cls-13, .cls-14, .cls-15, .cls-16, .cls-17, .cls-18, .cls-19, .cls-20, .cls-21 {
        stroke: #000;
        stroke-linecap: round;
        stroke-linejoin: round;
        stroke-width: 2px;
      }

      .cls-2 {
        fill: #0d160a;
      }

      .cls-3 {
        fill: #d6d6d6;
      }

      .cls-4 {
        fill: #494949;
      }

      .cls-5 {
        fill: #fff;
      }

      .cls-6 {
        fill: #0a1106;
      }

      .cls-7 {
        fill: #161616;
      }

      .cls-8 {
        fill: #eaeaea;
      }

      .cls-9 {
        fill: #ffcffc;
      }

      .cls-10 {
        fill: none;
      }

      .cls-11 {
        fill: #b2b2b2;
      }

      .cls-12 {
        fill: #0f0f0f;
      }

      .cls-13 {
        fill: #939393;
      }

      .cls-14 {
        fill: #1c1710;
      }

      .cls-15 {
        fill: #2d2d2d;
      }

      .cls-16 {
        fill: #351616;
      }

      .cls-17 {
        fill: #141414;
      }

      .cls-18 {
        fill: #ff4545;
      }

      .cls-19 {
        fill: #bab6b6;
      }

      .cls-20 {
        fill: #1a0e1e;
      }

      .cls-21 {
        fill: #190b0b;
      }
    </style>
  </defs>
  <g id="Personaggi">
    <g>
      <polyline class="cls-3" points="49.12 145.33 66.39 71.63 76.03 75.65 60.18 146.59"/>
      <polyline class="cls-13" points="9.53 140.82 23.17 151.62 159.01 161.28 231.19 202.49 204.85 245.83 120.93 289.17 15.78 202.49"/>
      <polygon class="cls-1" points="15.78 202.49 120.93 289.17 143.09 277.8 40.22 202.49 15.78 202.49"/>
      <polygon class="cls-11" points="120.93 289.17 134 301.1 139.11 236.31 125.47 224.94 120.93 289.17"/>
      <polygon class="cls-13" points="252.79 207.89 139.11 236.31 134 301.1 241.99 257.34 252.79 207.89"/>
      <polygon class="cls-11" points="15.78 202.49 23.17 151.62 159.01 161.28 231.19 202.49 125.47 224.94 139.11 236.31 252.79 207.89 164.12 158.44 9.53 140.82 1 188.56 15.78 202.49"/>
      <line class="cls-5" x1="9.53" y1="140.82" x2="23.17" y2="151.62"/>
      <polygon class="cls-1" points="60.18 217.1 79.44 217.1 123.67 250.47 122.78 263.02 60.18 217.1"/>
      <polygon class="cls-1" points="91.92 226.52 104.87 226.52 124.32 241.28 123.67 250.47 91.92 226.52"/>
      <polygon class="cls-8" points="37.38 59.54 98.76 85.12 114.67 24.3 52.72 1 37.38 59.54"/>
      <polygon class="cls-19" points="98.76 85.12 114.67 82.28 126.89 22.6 114.67 24.3 98.76 85.12"/>
      <polygon class="cls-19" points="52.72 1 72.05 1 126.89 22.6 114.67 24.3 52.72 1"/>
      <polygon class="cls-18" points="51.35 53.2 61.39 57.34 69.26 32.54 74.08 52.06 89.12 38.74 80.97 64.69 91.07 68.47 101.98 31.28 85.68 25.31 78.79 34.15 76.95 21.98 61.39 15.09 51.35 53.2"/>
      <line class="cls-13" x1="159.01" y1="161.28" x2="146.88" y2="220.39"/>
      <path d="M84.34,111.17c1.93,0,1.93-3,0-3s-1.93,3,0,3h0Z"/>
      <polyline class="cls-10" points="145.06 243.83 146.31 250.47 153.66 248.92"/>
      <path class="cls-10" d="M158.42,241.34c1.81,0,8.83-1.28,8.83-1.28l.68,5.02"/>
      <path class="cls-10" d="M177.21,236.31c0,.84.57,4.69.57,4.69l5.66-.91"/>
      <path class="cls-10" d="M187.97,233.42c.68,0,8.04-.68,8.04-.68v5.76"/>
      <polyline class="cls-10" points="213.44 232.17 207.89 233.87 206.98 226.4"/>
      <polyline class="cls-10" points="216.49 224.47 223.74 224.47 223.63 230.7"/>
      <line class="cls-10" x1="148.91" y1="257.08" x2="241.51" y2="227.58"/>
      <path class="cls-10" d="M146.88,269.19c-.01-.34,2.48-7.13,2.48-7.13l3.58,3.96,8.19-4.64,8.38,1.92s4.08-14.72,7.13-9.4l3.06,5.32s5.21-13.92,8.26-8.04l3.06,5.89"/>
      <polyline class="cls-10" points="182.87 273.49 189.89 267.04 195.21 271.79 196.68 272.7 205.85 261.83"/>
      <path class="cls-10" d="M143.09,281.75c-.3,1.47-8.45,12.91-.98,9.85l7.47-3.06"/>
      <path class="cls-10" d="M233.81,255.72c.57-.68,5.21-1.25,5.21-1.25l-1.92-10.64"/>
      <path class="cls-10" d="M207.55,251.19l1.47-6.57,7.47,3.4s-.68,9.28,6.23-.23l6.91-9.51"/>
      <polyline class="cls-10" points="236.42 218.13 244.34 214.99 244.68 220.39"/>
      <polyline class="cls-10" points="128.76 236.31 133.17 240.06 132.49 245.83"/>
      <path class="cls-10" d="M126.89,281.3c-.4.68,0,6.91,0,6.91l5.03,3.28"/>
      <line class="cls-10" x1="131.93" y1="261.83" x2="131.93" y2="270.09"/>
      <polyline class="cls-10" points="138.15 228.66 142.23 231.72 146.88 227.58"/>
      <line class="cls-10" x1="163.17" y1="226.96" x2="194.36" y2="218.47"/>
      <line class="cls-10" x1="206.42" y1="212.02" x2="224.87" y2="207.38"/>
      <path class="cls-10" d="M238.57,205.23c.34.11,4.08,2.15,4.08,2.15l-6.91,3.51"/>
      <line class="cls-10" x1="231.19" y1="199.57" x2="206.42" y2="185.3"/>
      <line class="cls-10" x1="173.25" y1="166.06" x2="167.93" y2="162.55"/>
      <polyline class="cls-10" points="146.88 166.06 152.08 165.26 150.95 171.04"/>
      <polyline class="cls-10" points="161.47 175.11 161.93 166.62 188.76 185.3"/>
      <line class="cls-10" x1="159.78" y1="194.47" x2="157.74" y2="205.23"/>
      <line class="cls-10" x1="173.7" y1="190.84" x2="174.27" y2="200.92"/>
      <line class="cls-10" x1="179.47" y1="190.84" x2="179.47" y2="200.25"/>
      <path class="cls-10" d="M168.72,194.47l16.19-1.92"/>
      <line class="cls-10" x1="170.59" y1="199.85" x2="184.91" y2="195.54"/>
      <line class="cls-10" x1="187.06" y1="207.38" x2="197.59" y2="203.64"/>
      <line class="cls-10" x1="206.98" y1="196.62" x2="214.46" y2="201.38"/>
      <polyline class="cls-10" points="141.66 209.7 142 217.1 126.15 223.57"/>
      <path class="cls-10" d="M99.32,224.94c.34-.01,8.8-1.03,8.8-1.03l4.34,6.79"/>
      <path class="cls-10" d="M74.64,212.47s-12.23.23-2.49,0c9.74-.23,6.91-6,9.74-.23l2.83,5.77"/>
      <path class="cls-10" d="M34.57,199c.68-.34,8.04.57,8.04.57l5.66,4.08"/>
      <polyline class="cls-10" points="27.44 167.08 28.12 158.81 39.55 159.15"/>
      <line class="cls-10" x1="68.39" y1="165.26" x2="107.7" y2="163.68"/>
      <line class="cls-10" x1="71.81" y1="174.43" x2="75.21" y2="188.56"/>
      <line class="cls-10" x1="114.27" y1="200.92" x2="121.74" y2="189.15"/>
      <polyline class="cls-10" points="8.53 188.56 12.38 192.43 11.59 180.77"/>
      <path class="cls-10" d="M10.46,161.87s.68-8.94,2.6-9.17l1.92-.23"/>
      <line class="cls-10" x1="18.15" y1="161.87" x2="14.98" y2="171.04"/>
      <line class="cls-10" x1="26.31" y1="147.72" x2="37.06" y2="147.72"/>
      <line class="cls-10" x1="53.25" y1="148.28" x2="60.18" y2="149.64"/>
      <line class="cls-10" x1="81.44" y1="153.26" x2="101.47" y2="154.28"/>
      <line class="cls-10" x1="126.15" y1="157.17" x2="131.93" y2="157.17"/>
      <path class="cls-10" d="M54.31,139.87s2.04,2.11,4.08,1.96"/>
      <path class="cls-10" d="M61.47,100.77s.45,2.72,4.91.68"/>
      <path class="cls-10" d="M69.1,78.06s1.06,3.17,4.38,1.28"/>
      <polyline class="cls-10" points="104.87 74.06 103.36 79.34 107.29 78.66"/>
      <line class="cls-10" x1="113.63" y1="71.26" x2="115.36" y2="64.4"/>
      <line class="cls-10" x1="113.63" y1="37" x2="111.66" y2="45.3"/>
      <polyline class="cls-10" points="119.51 28.09 122.98 28.09 120.95 34.06"/>
      <line class="cls-10" x1="69.1" y1="47.72" x2="71.81" y2="55.19"/>
      <path class="cls-10" d="M80.95,19.87c-.38.53.53,5.13.53,5.13"/>
      <polyline class="cls-10" points="99.74 25.75 106.31 28.09 106.31 39.57"/>
      <path class="cls-10" d="M98.76,72.55c-.46,0-4.3,6.45-4.3,6.45l-3.09-3.43"/>
      <polyline class="cls-10" points="46.08 59.57 40.87 56.7 43.89 52.25"/>
      <path class="cls-10" d="M54.08,15.09s-1.21-7.97,1.36-7.45l2.57.53"/>
      <line class="cls-10" x1="73.47" y1="5.15" x2="85.17" y2="8.85"/>
      <polyline class="cls-10" points="65.1 35.72 68.19 26.51 70.08 27.34 73.85 34.43"/>
      <path class="cls-10" d="M94.76,40.25c-.08-.38-3.4,12.3-3.4,12.3"/>
      <g>
        <path class="cls-9" d="M216.65,206.15c-1.88,1.63-2.04,4.06-2.18,6.27-.03.43-.49,9.19,3.95,10.75,2.31.81,4.92-.69,5.7-1.14.69-.4,2.14-1.26,3.03-3,.43-.85.59-1.62.67-2.28.41-3.21,1.04-8.14-2.23-10.65-2.43-1.86-6.53-2.03-8.94.05Z"/>
        <path class="cls-9" d="M225.1,168.52c-2.21,1.49-5.65,4.26-8.22,8.78-2.2,3.88-2.68,7.15-3.47,12.93-1.32,9.74-1.99,14.61.86,17.83,3.83,4.32,10.94,3.44,12.6,3.24,1.34-.17,7.99-1.15,11.85-6.78.44-.65.15-.36,1.86-3.81,3.3-6.65,3.65-6.31,4.53-8.8,1.58-4.44,1.39-8.1,1.28-9.82-.11-1.73-.19-2.77-.77-3.98-1.7-3.5-5.81-4.56-7.1-4.84"/>
        <path class="cls-9" d="M228.27,177.03c-.66,3.52-1.83,6.05-2.82,7.74-2.15,3.67-2.99,4.93-2.99,4.93-1.71,2.55-2.41,3.18-2.05,4.19.58,1.64,3.51,3.11,6.04,2.86,1.64-.16,2.64-.99,3.03-1.36"/>
        <path class="cls-15" d="M226.87,165.47c1-.93,2.55-2.2,4.71-3.24.51-.25,3.6-1.74,6.43-1.8,6.5-.12,12.36,7.34,14.22,13.91.66,2.32,1.89,6.7-.54,10.51-1.48,2.32-3.69,3.43-4.91,3.92-2.12-3.28-4.24-6.57-6.36-9.85"/>
        <path class="cls-9" d="M170.71,266.76c0,.8.03,3.18.48,4.3,1.65,4.15,14.56,4.82,16.35.98.73-1.58-.35-4.04-1.88-5.25-1.16-.92-2.18-.81-4.44-1.1-6.32-.82-9.07-3.04-10.22-1.73-.31.36-.3,1.17-.29,2.8Z"/>
        <path class="cls-9" d="M176.89,274.43c-.52,1.32-.4,2.69.38,3.51.12.13.74.79,1.6.72.94-.07,1.49-.96,1.64-1.2,1.08-1.76-.26-4.12-.37-4.31"/>
        <path class="cls-9" d="M173.58,272.16c-.56,1.37-.37,2.6.28,3,.53.33,1.26.02,1.82-.22,1.02-.43,2.51-1.51,2.31-2.64-.04-.21-.15-.54-.57-.9"/>
        <path class="cls-9" d="M170.77,268.38c-1.19.8-1.72,2.16-1.35,3.22.56,1.63,3.13,2.24,4.29,1.16.92-.86.58-2.43.55-2.55"/>
        <path class="cls-5" d="M180.96,276.16c.3.08.89.18,1.56-.02.22-.07,1.61-.47,1.84-1.72.16-.83-.25-1.71-1.03-2.24"/>
        <path class="cls-9" d="M183.34,272.18c2.23-1.55,9.32-6.9,12.35-16.94,3.47-11.46-.79-20.93-1.84-23.13-5.25,5.74-8.25,11.04-10.04,14.86-3.4,7.28-5.38,15.61-8.73,15.64-1.58.02-2.28-1.82-3.81-1.42-1.9.49-3.5,4.03-2.22,6.19.83,1.41,2.89,2.25,3.54,1.64.52-.48.2-1.93-.77-3.55"/>
        <path class="cls-14" d="M176.84,344.85c-.84,3.07-1.67,6.15-2.51,9.22-6.23-1.97-12.46-3.93-18.69-5.9.43-1.09,1.67-3.86,4.67-5.97,3.22-2.26,6.49-2.39,7.64-2.38"/>
        <path class="cls-14" d="M195.32,347.44c-1.58,2.99-3.17,5.98-4.75,8.97,5.73,2.52,11.46,5.05,17.19,7.57.48-.75,2.21-3.63,1.54-7.29-.67-3.71-3.54-6.79-7.4-8.01"/>
        <path class="cls-15" d="M157.82,335.27c7.44-19.23,14.89-38.46,22.33-57.69,12.76,2.99,25.52,5.98,38.28,8.98-3.92,21.83-7.83,43.67-11.75,65.5-1.68.28-4.17.51-7.12.05-3.13-.48-5.55-1.53-7.09-2.35-.23-12.59-.47-25.18-.7-37.77-4.55,11.23-9.11,22.45-13.66,33.68-1.52.28-7.02,1.1-12.66-2.11-4.76-2.71-6.91-6.76-7.63-8.28Z"/>
        <path class="cls-6" d="M227.23,241.12c-2.75,15.87-2.71,26.85-2.03,34.28.21,2.24.64,5.97-1.59,9.06-3.17,4.38-9.6,4.54-18.93,4.63-12.12.12-19.92.19-23.19-5.08-2.18-3.5-1.33-7.78-.59-10.77,4.47-17.95,16.1-38.5,22.25-48.73"/>
        <path class="cls-6" d="M204.03,234.7c-2.93,3.38-5.85,6.76-8.78,10.14-.19.22-.38.44-.57.66-.85-.7-3.53-3.07-4.45-7.21-.84-3.76.25-6.78.7-7.84,1.95-2.63,4.49-5.61,7.76-8.59,5.02-4.57,10.01-7.54,13.92-9.46.66-.12,1.32-.24,1.98-.36.17.23.44.59.77,1.03,3.73,5.01,3.97,5.55,4.69,5.94.68.37,2.83,1.19,7.78-2.27,1.06.3,5.39,1.67,7.29,5.77.46.99.69,1.94.79,2.78,1.07,8.99,2.14,17.98,3.2,26.97-4.8-.56-9.6-1.12-14.4-1.68"/>
        <path class="cls-9" d="M225.17,254.5c-6.5.05-12.99.09-19.49.14-.63-.88-2.2-2.8-4.59-3.09-.52-.06-1.92-.23-2.36.51-.37.62,0,1.72.99,2.64-1.14-.3-2.16-.2-2.37.24-.24.49.41,1.57,1.86,2.36-.67-.06-2.37-.16-2.81.65-.54,1,1.06,3.03,2.81,3.91,2,1,4.03.42,4.63.22,9.42,1.63,18.85,3.26,28.27,4.89,1.63-.09,2.59-.64,3.14-1.09,2.72-2.24,2.72-8.01-.54-14.13-3.02-.37-6.05-.73-9.07-1.1-.15,1.28-.31,2.57-.46,3.85Z"/>
        <path class="cls-17" d="M220.71,170.7c-.71-.22-4.17-1.35-5.59-4.73-.4-.96-.77-1.85-.4-2.53,1.13-2.03,8.1-.76,12.48,1.12,7.52,3.23,11.58,10.05,13.59,14.46-2.28-1.18-4.71-2.35-7.29-3.49-4.5-1.98-8.79-3.56-12.8-4.84"/>
        <path class="cls-5" d="M217.83,186.19c-1.5-.83-1.75-3.97-.41-5.89.25-.37,1.04-1.38,2.44-1.7,1.12-.25,2.85-.11,3.64,1.07,1,1.5-.24,3.55-.62,4.18-.22.36-1.28,2.1-3.27,2.46-.52.09-1.18.21-1.78-.12Z"/>
        <path class="cls-5" d="M232.45,182.92c1.56.18,2.85,2.76,2.39,4.85-.09.4-.41,1.53-1.49,2.28-.86.6-2.38,1.08-3.46.35-1.37-.92-1.02-3.09-.91-3.76.06-.38.36-2.22,1.92-3.21.41-.26.92-.59,1.55-.51Z"/>
        <path class="cls-5" d="M231.83,186.89s-.04-.04-.04-.08c0,0,0-.02.02-.04.01,0,.04-.02.05,0,.02.01.02.05.01.06,0,0,0,.03-.03.05,0,0-.01,0-.02,0Z"/>
        <path class="cls-5" d="M220.11,182.97s-.04-.04-.04-.08c0,0,0-.02.02-.04.01,0,.04-.02.05,0,.02.01.02.05.01.06,0,0,0,.03-.03.05,0,0-.01,0-.02,0Z"/>
        <path class="cls-20" d="M217.42,177.53c-.25,1.6,1.71,3.12,3.22,3.63,1.32.45,2.45.19,4.37-.26,1.41-.33,1.57-.6,1.62-.73.38-.95-1.6-2.6-2.83-3.38-1.17-.75-2.98-1.9-4.68-1.18-.08.03-1.51.66-1.7,1.91Z"/>
        <path class="cls-20" d="M228.36,180.75c-.25,1.6,1.71,3.12,3.22,3.63,1.32.45,2.45.19,4.37-.26,1.41-.33,1.57-.6,1.62-.73.38-.95-1.6-2.6-2.83-3.38-1.17-.75-2.98-1.9-4.68-1.18-.08.03-1.51.66-1.7,1.91Z"/>
        <path class="cls-9" d="M218.29,201.73c.51-.22,3.33-1.39,6.25-.04,1.38.64,2.25,1.6,2.71,2.2"/>
        <path class="cls-9" d="M229.16,202.18c.12.24.65,1.34.24,2.62-.25.76-.71,1.24-.97,1.46"/>
        <path class="cls-9" d="M220.42,205.65c1.05-.16,2.11-.32,3.16-.48"/>
      </g>
      <g>
        <path class="cls-2" d="M257.86,405.51c-.98,4.07-1.96,8.14-2.95,12.22-6.14-.04-12.28-.08-18.42-.12-.18-.41-2.56-5.94.74-11.11,2.36-3.7,6.7-5.75,11.17-5.28,3.15,1.43,6.3,2.86,9.45,4.3Z"/>
        <path class="cls-2" d="M225.16,397.57c-1.15,3.4-2.3,6.81-3.45,10.21-8.86-1.11-17.72-2.21-26.58-3.31-.01-.95.01-6.7,4.45-10.59,4.4-3.85,11.34-4.28,17.04-.83"/>
        <path class="cls-4" d="M281.68,280.28c-.34,2,3.07,4.71,8.48,6.52,1.1,3.21,2.02,3.88,2.66,3.89,1.57,0,3.64-4.05,2.76-7.55-.8-3.21-3.93-5.38-7-5.71-2.91-.31-6.59.97-6.91,2.85Z"/>
        <path class="cls-9" d="M232.24,301.61c-2.48,1.38-2.75,3.98-4.34,10.96-3.9,17.13-7.42,23.91-6.46,30.25.16,1.09.56,2.79-.02,4.93-.78,2.85-2.45,3.39-2.58,5.93-.02.34-.1,2.81,1.54,4.2.67.57,1.39.75,2.83,1.12,1.78.45,2.68.67,3.21.29.96-.7.21-2.53.22-5.91,0-2.3.35-4,.58-5.13.58-2.86,1.53-4.93,3.23-8.61,1.02-2.21,1.89-3.84,2.14-4.31,3.29-6.14,4.4-6.39,6.56-10.63,1.07-2.09,2.8-5.56,3.42-10.24.31-2.34.24-4.2.12-7.4-.1-2.62-.27-3.1-.5-3.5-1.56-2.74-6.83-3.7-9.97-1.95Z"/>
        <path class="cls-9" d="M304.02,267.5c-.29.6-.25,1.11-.19,1.41.27,1.33,1.77,2.63,3.79,3.31-.8,7.58-1.59,15.17-2.39,22.75.71,5,1.43,10,2.14,15,.77.23,3.39.91,5.22-.51,1.24-.96,1.55-2.43,1.69-3.16,1.46-7.47.77-13.31.77-13.31-1.27-10.76-2.31-17.37-.04-18.48.62-.3,1.28-.13,2.6-.81.33-.17,1.7-.91,2.62-2.45,1.29-2.17.98-4.76-.12-6.75"/>
        <path class="cls-16" d="M302,268.31c6.2-.14,12.33,1.86,18.53,1.77.74-.01,2.36-.11,3.51.92.68.61.77,1.24,1.37,1.35,1.04.19,2.13-1.44,2.44-1.9.46-.68,1.44-2.16.95-3.82-.09-.31-.44-1.51-1.53-1.9-1.02-.37-2.1.19-2.67.76-.53.54-.46.95-.77,1.34-1.12,1.39-5.08-.04-5.44-.17,0,0-52.89-19.58-67.48-16.6-1.12.23-4.15.85-4.97,2.96-.7,1.81.6,3.75.66,3.84,1.71,2.49,5.45,2.67,6.6,2.74,14.2.88,27.15,9.21,48.8,8.72Z"/>
        <path class="cls-9" d="M320.12,264.51c-.42-.75-.83-1.47-1.55-1.67-1.38-.39-2.98,1.36-3.51,2.89-.25.72-.56,1.63.14,2.36.66.69,2.15,1.17,2.94.64.63-.43.35-1.49.31-1.64"/>
        <path class="cls-9" d="M308,261.13c-.13-.2-.43-.59-.98-.91-.24-.14-.79-.46-1.34-.4-.51.05-.78.39-.95.62-1.75,2.4-1.72,4.57-1.72,4.57.02,1.15.04,1.83.68,2.28.72.51,1.93.55,2.63.08.78-.52.85-1.61.07-2.54"/>
        <path class="cls-9" d="M312.11,261.88c-.22-.26-.77-.84-1.71-1.2-.34-.13-.99-.38-1.57-.24-.76.18-.98.93-1.13,1.51-.81,3.1-1.22,4.66-.35,5.41.81.69,2.39,1.08,3.37.56.92-.49,1.15-1.7.4-2.88"/>
        <path class="cls-9" d="M316.21,263.08c-.03-.11-.37-1.14-1.55-1.67-.93-.42-1.93-.31-2.53.01-.42.23-.69.6-.87,3.36-.17,2.49,0,2.82.31,3.08.77.66,2.5.95,3.47.17.88-.71.78-1.99-.24-2.89"/>
        <path class="cls-9" d="M269.03,288.97c4.33,2.63,6.5,3.94,9.89,4.75,3.85.92,7.18.72,9.34.41,2-6.86,3.04-12.51,3.62-16.44,1.02-6.91.65-7.3,1.61-11.92,1.43-6.87,3.06-8.2,2.24-11.59-.79-3.31-3.13-5.35-4.63-6.66-4.85-4.23-13.97-7.82-21.02-4.19-2.82,1.46-1.87,2.29-10.52,15.78-.8,1.24-2.09,3.23-2.18,5.95-.08,2.37.84,2.6.75,5.02-.13,3.33-1.93,4.34-1.43,6.87.23,1.14.8,1.96,1.82,3.15,4.45,5.19,9.92,8.5,10.51,8.86Z"/>
        <path class="cls-7" d="M234.3,320.25c-2.76,6.38-5.44,13.18-7.95,20.39-6.74,19.37-10.8,37.51-13.22,53.58,4.02,1.09,8.05,2.19,12.07,3.28,5.51-11.69,11.29-23.52,17.36-35.48,2.42-4.77,4.85-9.49,7.29-14.16-1.57,8.69-2.86,18.44-3.54,29.13-.58,9.16-.62,17.69-.33,25.45,3.86,1.01,7.73,2.02,11.59,3.03,2.55-7.39,5.3-14.94,8.28-22.62,6.41-16.53,13.19-31.97,20.1-46.29-17.21-5.44-34.43-10.87-51.64-16.31Z"/>
        <path class="cls-4" d="M237.95,306.13c-2.15,5.19-2.74,7.24-3.12,8.97-.41,1.89-.57,3.98-.51,5.15.32,6.54,9.8,13.3,19.18,15.93,12.45,3.48,19.14-1.88,28.42,1.9,1.07.43,4.13,1.76,5.63.52,1.17-.96.7-3.23.45-4.77,0,0-1.25-7.75.84-17.33,1.2-5.47,2.81-4.51,4.65-10.92,1.03-3.61,2.8-9.77.88-14.57-2.68-6.71-13.36-1.42-23.08-9.9-2-1.75-3.41-4.59-7.26-6.46-1.64-.8-4.57-2.22-7.78-1.45-4.69,1.13-7.1,6.25-8.86,10-1.69,3.59-1.26,4.65-3.32,9.69-1.46,3.57-2.94,6.4-3.98,8.27,0,0-.84,1.82-2.14,4.96Z"/>
        <path class="cls-4" d="M256.91,273.12c-2.37.26-5.88.96-9.46,3.07-4.68,2.76-6.62,6.76-10.87,12.69-2.23,3.1-5.08,7.81-7.32,14.47.62.94,1.77,2.43,3.67,3.69,2.27,1.5,4.47,1.92,5.64,2.06"/>
        <path class="cls-4" d="M289.62,306.18c3.94,2.4,7.47,3.54,9.9,4.13,5.56,1.34,7.32.25,7.81-.1,1.68-1.18,2.17-3.12,2.4-4.02,1.48-5.86-3.27-11.34-4.06-12.22-4.9-2.08-9.8-4.15-14.7-6.23"/>
        <path class="cls-12" d="M260.12,258.8c-.22-.23-.99-1.05-1.87-.95-.95.12-1.53,1.25-1.73,1.63-1.48,2.87-.42,7.39-.03,9.37.18.92-.14-.5.34,12.99.12,3.31.29,7.7.54,12.9,4.05-6.88,8.31-9.46,11.53-10.51,3.51-1.14,6.38-.67,9.23-3.34,2.38-2.23,1.8-3.88,4.65-6.07,2.75-2.12,6.17-2.78,6.72-2.88,3.06-.56,4.91,0,5.46-.99.52-.94-.5-2.5-1.45-3.69-.83.46-2.04,1.05-3.58,1.53-7.28,2.27-13.97-.41-15.47-1.05-4.09-1.75-11.98-6.52-14.33-8.95Z"/>
        <path class="cls-5" d="M266.91,260.49c-2.04-1.14-2.5-4.4-1.15-5.71,1.41-1.35,4.7-.53,5.76,1.51.49.95.61,2.38-.18,3.44-1.02,1.36-3.09,1.5-4.43.75Z"/>
        <path class="cls-5" d="M280.25,258.43c2.08,1.16,2.55,4.49,1.17,5.83-1.43,1.38-4.8.54-5.88-1.55-.5-.97-.62-2.43.18-3.51,1.04-1.39,3.16-1.53,4.52-.77Z"/>
        <path class="cls-21" d="M273.98,257.73c.62,2.21,3.54,3.17,5.36,3.37.92.1,3.22.35,3.94-.89.8-1.38-.96-3.54-1.25-3.89-.37-.45-1.56-1.91-3.6-2.17-1.51-.19-3.74.26-4.39,1.78-.33.78-.13,1.55-.06,1.8Z"/>
        <path class="cls-21" d="M274.86,254.34c-.6-2.13-3.42-3.06-5.18-3.26-.89-.1-3.11-.34-3.81.86-.77,1.33.93,3.42,1.21,3.76.35.43,1.51,1.85,3.48,2.09,1.46.18,3.61-.25,4.24-1.72.32-.75.13-1.5.06-1.74Z"/>
        <path class="cls-5" d="M268.44,258.04s-.04-.04-.04-.08c0,0,0-.02.02-.04.01,0,.04-.02.05,0,.02.01.02.05.01.06,0,0,0,.03-.03.05,0,0-.01,0-.02,0Z"/>
        <path class="cls-5" d="M278.67,262.23s-.04-.04-.04-.08c0,0,0-.02.02-.04.01,0,.04-.02.05,0,.02.01.02.05.01.06,0,0,0,.03-.03.05,0,0-.01,0-.02,0Z"/>
      </g>
      <path class="cls-5" d="M172.73,311.86c2.23-5.43,4.45-10.87,6.68-16.3"/>
      <path class="cls-10" d="M199.45,345.93c1.62.34,3.25.68,4.87,1.02.3-3.47.6-6.94.91-10.42"/>
      <path class="cls-10" d="M208.05,305.07c.23-2.53.45-5.06.68-7.58"/>
      <path class="cls-10" d="M205.56,283.67c4.48,2.24,9.13,1.61,11.21-1.02.39-.49,1.29-1.82,1.25-4.19"/>
      <path class="cls-10" d="M186.99,276.31c.38-2.75.75-5.51,1.13-8.26"/>
      <path class="cls-10" d="M231.14,226.39c.75,5.21,1.51,10.42,2.26,15.62"/>
      <path class="cls-10" d="M211.67,220.27c.16.67.86,3.17,3.17,4.53,2.76,1.62,6.71.97,9.51-1.81"/>
      <path class="cls-10" d="M237.48,198.88c-.19-.56-.7-2.33,0-4.42.66-1.96,2-3.04,2.49-3.4"/>
      <path class="cls-10" d="M247.9,178.5c.11-1.08.22-3.79-1.36-6.57-2.45-4.3-6.97-5.29-7.7-5.43"/>
      <path class="cls-10" d="M255.03,311.4c2.45,4.11,4.91,8.23,7.36,12.34"/>
      <path class="cls-10" d="M262.5,309.71c1.62,2.49,3.25,4.98,4.87,7.47"/>
      <path class="cls-10" d="M249.82,318.08c5.7-2.87,11.4-5.74,17.09-8.6"/>
      <path class="cls-10" d="M257.07,321.71c4.04-3.36,8.08-6.72,12.11-10.08"/>
      <path class="cls-10" d="M282.88,323.18c-.55-1.49-1.85-5.59-.34-10.3.72-2.24,1.84-3.9,2.72-4.98"/>
      <path class="cls-10" d="M287.63,294.31c1.07-.15,3.28-.3,5.77.68,1.94.76,3.24,1.88,3.96,2.6"/>
      <path class="cls-10" d="M234.99,300.99c1.15-2.81,2.78-6.05,5.09-9.4,1.01-1.46,2.05-2.78,3.06-3.96"/>
      <path class="cls-10" d="M241.11,320.46c.32,1.16,1.38,4.38,4.53,6.68,1.57,1.14,3.12,1.67,4.19,1.92"/>
      <path class="cls-10" d="M273.48,346.61c-1.84,1.76-5.67,5.95-6.34,12.11-.15,1.35-.12,2.61,0,3.74"/>
      <path class="cls-10" d="M249.94,391.44c.23,2.23.45,4.45.68,6.68"/>
      <path class="cls-10" d="M253.11,362.91c.53-4.6,1.06-9.21,1.58-13.81"/>
      <path class="cls-10" d="M230.24,380.46c1.92-4.91,3.88-9.85,5.89-14.83,1.77-4.38,3.54-8.72,5.32-13.02"/>
      <path class="cls-10" d="M228.09,352.73c.95-4.97,2.55-10.44,5.21-16.08.44-.94.89-1.84,1.36-2.72"/>
      <path class="cls-10" d="M199.11,356.12c2.19.79,4.38,1.58,6.57,2.38"/>
      <path class="cls-10" d="M171.82,348.54c-2.53-1.06-5.06-2.11-7.58-3.17"/>
      <path class="cls-10" d="M203.63,402.99c3.96.42,7.92.83,11.89,1.25.87-1.81,1.74-3.62,2.6-5.43"/>
      <path class="cls-10" d="M242.46,413.97c2.64-.15,5.28-.3,7.92-.45"/>
      <path class="cls-10" d="M279.26,247.67c.18-.08,4.1-1.87,7.47.45,2.25,1.55,2.82,3.94,2.94,4.53"/>
      <path class="cls-10" d="M287.3,262.95c.53-1.4,1.06-2.79,1.58-4.19"/>
      <path class="cls-10" d="M284.58,282.99c.21-.06,1.93-.56,2.6-2.26.42-1.06.21-2.02.11-2.38"/>
      <path class="cls-10" d="M311.3,296.46c-.57-3.02-1.13-6.04-1.7-9.06"/>
    </g>
  </g>
</svg>