<?xml version="1.0" encoding="UTF-8"?>
<svg id="Livello_2" data-name="Livello 2" xmlns="http://www.w3.org/2000/svg" viewBox="0 0 175.28 259.3">
  <defs>
    <style>
      .cls-1 {
        fill: #0d160a;
      }

      .cls-1, .cls-2, .cls-3, .cls-4, .cls-5, .cls-6, .cls-7, .cls-8, .cls-9, .cls-10, .cls-11, .cls-12, .cls-13, .cls-14 {
        stroke: #000;
        stroke-linecap: round;
        stroke-linejoin: round;
        stroke-width: 2px;
      }

      .cls-2 {
        fill: #494949;
      }

      .cls-3 {
        fill: #fff;
      }

      .cls-4 {
        fill: #0a1106;
      }

      .cls-5 {
        fill: #161616;
      }

      .cls-6 {
        fill: #ffcffc;
      }

      .cls-7 {
        fill: none;
      }

      .cls-8 {
        fill: #0f0f0f;
      }

      .cls-9 {
        fill: #1c1710;
      }

      .cls-10 {
        fill: #2d2d2d;
      }

      .cls-11 {
        fill: #351616;
      }

      .cls-12 {
        fill: #141414;
      }

      .cls-13 {
        fill: #1a0e1e;
      }

      .cls-14 {
        fill: #190b0b;
      }
    </style>
  </defs>
  <g id="Personaggi">
    <g>
      <polyline class="cls-7" points="58.8 72.74 53.25 74.44 52.35 66.97"/>
      <polyline class="cls-7" points="61.86 65.04 69.1 65.04 68.99 71.27"/>
      <polyline class="cls-7" points="28.23 114.06 35.25 107.61 40.57 112.36 42.04 113.27 51.21 102.4"/>
      <path class="cls-7" d="M79.18,96.29c.57-.68,5.21-1.25,5.21-1.25l-1.92-10.64"/>
      <path class="cls-7" d="M52.91,91.76l1.47-6.57,7.47,3.4s-.68,9.28,6.23-.23l6.91-9.51"/>
      <g>
        <path class="cls-6" d="M62.02,46.72c-1.88,1.63-2.04,4.06-2.18,6.27-.03.43-.49,9.19,3.95,10.75,2.31.81,4.92-.69,5.7-1.14.69-.4,2.14-1.26,3.03-3,.43-.85.59-1.62.67-2.28.41-3.21,1.04-8.14-2.23-10.65-2.43-1.86-6.53-2.03-8.94.05Z"/>
        <path class="cls-6" d="M70.47,9.1c-2.21,1.49-5.65,4.26-8.22,8.78-2.2,3.88-2.68,7.15-3.47,12.93-1.32,9.74-1.99,14.61.86,17.83,3.83,4.32,10.94,3.44,12.6,3.24,1.34-.17,7.99-1.15,11.85-6.78.44-.65.15-.36,1.86-3.81,3.3-6.65,3.65-6.31,4.53-8.8,1.58-4.44,1.39-8.1,1.28-9.82-.11-1.73-.19-2.77-.77-3.98-1.7-3.5-5.81-4.56-7.1-4.84"/>
        <path class="cls-6" d="M73.63,17.61c-.66,3.52-1.83,6.05-2.82,7.74-2.15,3.67-2.99,4.93-2.99,4.93-1.71,2.55-2.41,3.18-2.05,4.19.58,1.64,3.51,3.11,6.04,2.86,1.64-.16,2.64-.99,3.03-1.36"/>
        <path class="cls-10" d="M72.24,6.04c1-.93,2.55-2.2,4.71-3.24.51-.25,3.6-1.74,6.43-1.8,6.5-.12,12.36,7.34,14.22,13.91.66,2.32,1.89,6.7-.54,10.51-1.48,2.32-3.69,3.43-4.91,3.92-2.12-3.28-4.24-6.57-6.36-9.85"/>
        <path class="cls-6" d="M16.07,107.33c0,.8.03,3.18.48,4.3,1.65,4.15,14.56,4.82,16.35.98.73-1.58-.35-4.04-1.88-5.25-1.16-.92-2.18-.81-4.44-1.1-6.32-.82-9.07-3.04-10.22-1.73-.31.36-.3,1.17-.29,2.8Z"/>
        <path class="cls-6" d="M22.25,115.01c-.52,1.32-.4,2.69.38,3.51.12.13.74.79,1.6.72.94-.07,1.49-.96,1.64-1.2,1.08-1.76-.26-4.12-.37-4.31"/>
        <path class="cls-6" d="M18.95,112.74c-.56,1.37-.37,2.6.28,3,.53.33,1.26.02,1.82-.22,1.02-.43,2.51-1.51,2.31-2.64-.04-.21-.15-.54-.57-.9"/>
        <path class="cls-6" d="M16.13,108.96c-1.19.8-1.72,2.16-1.35,3.22.56,1.63,3.13,2.24,4.29,1.16.92-.86.58-2.43.55-2.55"/>
        <path class="cls-3" d="M26.32,116.73c.3.08.89.18,1.56-.02.22-.07,1.61-.47,1.84-1.72.16-.83-.25-1.71-1.03-2.24"/>
        <path class="cls-6" d="M28.7,112.75c2.23-1.55,9.32-6.9,12.35-16.94,3.47-11.46-.79-20.93-1.84-23.13-5.25,5.74-8.25,11.04-10.04,14.86-3.4,7.28-5.38,15.61-8.73,15.64-1.58.02-2.28-1.82-3.81-1.42-1.9.49-3.5,4.03-2.22,6.19.83,1.41,2.89,2.25,3.54,1.64.52-.48.2-1.93-.77-3.55"/>
        <path class="cls-9" d="M22.2,185.42c-.84,3.07-1.67,6.15-2.51,9.22-6.23-1.97-12.46-3.93-18.69-5.9.43-1.09,1.67-3.86,4.67-5.97,3.22-2.26,6.49-2.39,7.64-2.38"/>
        <path class="cls-9" d="M40.69,188.02c-1.58,2.99-3.17,5.98-4.75,8.97,5.73,2.52,11.46,5.05,17.19,7.57.48-.75,2.21-3.63,1.54-7.29-.67-3.71-3.54-6.79-7.4-8.01"/>
        <path class="cls-10" d="M3.18,175.85c7.44-19.23,14.89-38.46,22.33-57.69,12.76,2.99,25.52,5.98,38.28,8.98-3.92,21.83-7.83,43.67-11.75,65.5-1.68.28-4.17.51-7.12.05-3.13-.48-5.55-1.53-7.09-2.35-.23-12.59-.47-25.18-.7-37.77-4.55,11.23-9.11,22.45-13.66,33.68-1.52.28-7.02,1.1-12.66-2.11-4.76-2.71-6.91-6.76-7.63-8.28Z"/>
        <path class="cls-4" d="M72.59,81.69c-2.75,15.87-2.71,26.85-2.03,34.28.21,2.24.64,5.97-1.59,9.06-3.17,4.38-9.6,4.54-18.93,4.63-12.12.12-19.92.19-23.19-5.08-2.18-3.5-1.33-7.78-.59-10.77,4.47-17.95,16.1-38.5,22.25-48.73"/>
        <path class="cls-4" d="M49.39,75.27c-2.93,3.38-5.85,6.76-8.78,10.14-.19.22-.38.44-.57.66-.85-.7-3.53-3.07-4.45-7.21-.84-3.76.25-6.78.7-7.84,1.95-2.63,4.49-5.61,7.76-8.59,5.02-4.57,10.01-7.54,13.92-9.46.66-.12,1.32-.24,1.98-.36.17.23.44.59.77,1.03,3.73,5.01,3.97,5.55,4.69,5.94.68.37,2.83,1.19,7.78-2.27,1.06.3,5.39,1.67,7.29,5.77.46.99.69,1.94.79,2.78,1.07,8.99,2.14,17.98,3.2,26.97-4.8-.56-9.6-1.12-14.4-1.68"/>
        <path class="cls-6" d="M70.54,95.07c-6.5.05-12.99.09-19.49.14-.63-.88-2.2-2.8-4.59-3.09-.52-.06-1.92-.23-2.36.51-.37.62,0,1.72.99,2.64-1.14-.3-2.16-.2-2.37.24-.24.49.41,1.57,1.86,2.36-.67-.06-2.37-.16-2.81.65-.54,1,1.06,3.03,2.81,3.91,2,1,4.03.42,4.63.22,9.42,1.63,18.85,3.26,28.27,4.89,1.63-.09,2.59-.64,3.14-1.09,2.72-2.24,2.72-8.01-.54-14.13-3.02-.37-6.05-.73-9.07-1.1-.15,1.28-.31,2.57-.46,3.85Z"/>
        <path class="cls-12" d="M66.07,11.27c-.71-.22-4.17-1.35-5.59-4.73-.4-.96-.77-1.85-.4-2.53,1.13-2.03,8.1-.76,12.48,1.12,7.52,3.23,11.58,10.05,13.59,14.46-2.28-1.18-4.71-2.35-7.29-3.49-4.5-1.98-8.79-3.56-12.8-4.84"/>
        <path class="cls-3" d="M63.19,26.77c-1.5-.83-1.75-3.97-.41-5.89.25-.37,1.04-1.38,2.44-1.7,1.12-.25,2.85-.11,3.64,1.07,1,1.5-.24,3.55-.62,4.18-.22.36-1.28,2.1-3.27,2.46-.52.09-1.18.21-1.78-.12Z"/>
        <path class="cls-3" d="M77.81,23.49c1.56.18,2.85,2.76,2.39,4.85-.09.4-.41,1.53-1.49,2.28-.86.6-2.38,1.08-3.46.35-1.37-.92-1.02-3.09-.91-3.76.06-.38.36-2.22,1.92-3.21.41-.26.92-.59,1.55-.51Z"/>
        <path class="cls-3" d="M77.19,27.47s-.04-.04-.04-.08c0,0,0-.02.02-.04.01,0,.04-.02.05,0,.02.01.02.05.01.06,0,0,0,.03-.03.05,0,0-.01,0-.02,0Z"/>
        <path class="cls-3" d="M65.47,23.54s-.04-.04-.04-.08c0,0,0-.02.02-.04.01,0,.04-.02.05,0,.02.01.02.05.01.06,0,0,0,.03-.03.05,0,0-.01,0-.02,0Z"/>
        <path class="cls-13" d="M62.79,18.11c-.25,1.6,1.71,3.12,3.22,3.63,1.32.45,2.45.19,4.37-.26,1.41-.33,1.57-.6,1.62-.73.38-.95-1.6-2.6-2.83-3.38-1.17-.75-2.98-1.9-4.68-1.18-.08.03-1.51.66-1.7,1.91Z"/>
        <path class="cls-13" d="M73.73,21.32c-.25,1.6,1.71,3.12,3.22,3.63,1.32.45,2.45.19,4.37-.26,1.41-.33,1.57-.6,1.62-.73.38-.95-1.6-2.6-2.83-3.38-1.17-.75-2.98-1.9-4.68-1.18-.08.03-1.51.66-1.7,1.91Z"/>
        <path class="cls-6" d="M63.65,42.31c.51-.22,3.33-1.39,6.25-.04,1.38.64,2.25,1.6,2.71,2.2"/>
        <path class="cls-6" d="M74.52,42.75c.12.24.65,1.34.24,2.62-.25.76-.71,1.24-.97,1.46"/>
        <path class="cls-6" d="M65.79,46.22c1.05-.16,2.11-.32,3.16-.48"/>
      </g>
      <g>
        <path class="cls-1" d="M103.23,246.08c-.98,4.07-1.96,8.14-2.95,12.22-6.14-.04-12.28-.08-18.42-.12-.18-.41-2.56-5.94.74-11.11,2.36-3.7,6.7-5.75,11.17-5.28,3.15,1.43,6.3,2.86,9.45,4.3Z"/>
        <path class="cls-1" d="M70.52,238.14c-1.15,3.4-2.3,6.81-3.45,10.21-8.86-1.11-17.72-2.21-26.58-3.31-.01-.95.01-6.7,4.45-10.59,4.4-3.85,11.34-4.28,17.04-.83"/>
        <path class="cls-2" d="M127.04,120.86c-.34,2,3.07,4.71,8.48,6.52,1.1,3.21,2.02,3.88,2.66,3.89,1.57,0,3.64-4.05,2.76-7.55-.8-3.21-3.93-5.38-7-5.71-2.91-.31-6.59.97-6.91,2.85Z"/>
        <path class="cls-6" d="M77.61,142.18c-2.48,1.38-2.75,3.98-4.34,10.96-3.9,17.13-7.42,23.91-6.46,30.25.16,1.09.56,2.79-.02,4.93-.78,2.85-2.45,3.39-2.58,5.93-.02.34-.1,2.81,1.54,4.2.67.57,1.39.75,2.83,1.12,1.78.45,2.68.67,3.21.29.96-.7.21-2.53.22-5.91,0-2.3.35-4,.58-5.13.58-2.86,1.53-4.93,3.23-8.61,1.02-2.21,1.89-3.84,2.14-4.31,3.29-6.14,4.4-6.39,6.56-10.63,1.07-2.09,2.8-5.56,3.42-10.24.31-2.34.24-4.2.12-7.4-.1-2.62-.27-3.1-.5-3.5-1.56-2.74-6.83-3.7-9.97-1.95Z"/>
        <path class="cls-6" d="M149.38,108.07c-.29.6-.25,1.11-.19,1.41.27,1.33,1.77,2.63,3.79,3.31-.8,7.58-1.59,15.17-2.39,22.75.71,5,1.43,10,2.14,15,.77.23,3.39.91,5.22-.51,1.24-.96,1.55-2.43,1.69-3.16,1.46-7.47.77-13.31.77-13.31-1.27-10.76-2.31-17.37-.04-18.48.62-.3,1.28-.13,2.6-.81.33-.17,1.7-.91,2.62-2.45,1.29-2.17.98-4.76-.12-6.75"/>
        <path class="cls-11" d="M147.36,108.89c6.2-.14,12.33,1.86,18.53,1.77.74-.01,2.36-.11,3.51.92.68.61.77,1.24,1.37,1.35,1.04.19,2.13-1.44,2.44-1.9.46-.68,1.44-2.16.95-3.82-.09-.31-.44-1.51-1.53-1.9-1.02-.37-2.1.19-2.67.76-.53.54-.46.95-.77,1.34-1.12,1.39-5.08-.04-5.44-.17,0,0-52.89-19.58-67.48-16.6-1.12.23-4.15.85-4.97,2.96-.7,1.81.6,3.75.66,3.84,1.71,2.49,5.45,2.67,6.6,2.74,14.2.88,27.15,9.21,48.8,8.72Z"/>
        <path class="cls-6" d="M165.49,105.08c-.42-.75-.83-1.47-1.55-1.67-1.38-.39-2.98,1.36-3.51,2.89-.25.72-.56,1.63.14,2.36.66.69,2.15,1.17,2.94.64.63-.43.35-1.49.31-1.64"/>
        <path class="cls-6" d="M153.37,101.7c-.13-.2-.43-.59-.98-.91-.24-.14-.79-.46-1.34-.4-.51.05-.78.39-.95.62-1.75,2.4-1.72,4.57-1.72,4.57.02,1.15.04,1.83.68,2.28.72.51,1.93.55,2.63.08.78-.52.85-1.61.07-2.54"/>
        <path class="cls-6" d="M157.47,102.45c-.22-.26-.77-.84-1.71-1.2-.34-.13-.99-.38-1.57-.24-.76.18-.98.93-1.13,1.51-.81,3.1-1.22,4.66-.35,5.41.81.69,2.39,1.08,3.37.56.92-.49,1.15-1.7.4-2.88"/>
        <path class="cls-6" d="M161.57,103.65c-.03-.11-.37-1.14-1.55-1.67-.93-.42-1.93-.31-2.53.01-.42.23-.69.6-.87,3.36-.17,2.49,0,2.82.31,3.08.77.66,2.5.95,3.47.17.88-.71.78-1.99-.24-2.89"/>
        <path class="cls-6" d="M114.39,129.54c4.33,2.63,6.5,3.94,9.89,4.75,3.85.92,7.18.72,9.34.41,2-6.86,3.04-12.51,3.62-16.44,1.02-6.91.65-7.3,1.61-11.92,1.43-6.87,3.06-8.2,2.24-11.59-.79-3.31-3.13-5.35-4.63-6.66-4.85-4.23-13.97-7.82-21.02-4.19-2.82,1.46-1.87,2.29-10.52,15.78-.8,1.24-2.09,3.23-2.18,5.95-.08,2.37.84,2.6.75,5.02-.13,3.33-1.93,4.34-1.43,6.87.23,1.14.8,1.96,1.82,3.15,4.45,5.19,9.92,8.5,10.51,8.86Z"/>
        <path class="cls-5" d="M79.66,160.82c-2.76,6.38-5.44,13.18-7.95,20.39-6.74,19.37-10.8,37.51-13.22,53.58,4.02,1.09,8.05,2.19,12.07,3.28,5.51-11.69,11.29-23.52,17.36-35.48,2.42-4.77,4.85-9.49,7.29-14.16-1.57,8.69-2.86,18.44-3.54,29.13-.58,9.16-.62,17.69-.33,25.45,3.86,1.01,7.73,2.02,11.59,3.03,2.55-7.39,5.3-14.94,8.28-22.62,6.41-16.53,13.19-31.97,20.1-46.29-17.21-5.44-34.43-10.87-51.64-16.31Z"/>
        <path class="cls-2" d="M83.31,146.7c-2.15,5.19-2.74,7.24-3.12,8.97-.41,1.89-.57,3.98-.51,5.15.32,6.54,9.8,13.3,19.18,15.93,12.45,3.48,19.14-1.88,28.42,1.9,1.07.43,4.13,1.76,5.63.52,1.17-.96.7-3.23.45-4.77,0,0-1.25-7.75.84-17.33,1.2-5.47,2.81-4.51,4.65-10.92,1.03-3.61,2.8-9.77.88-14.57-2.68-6.71-13.36-1.42-23.08-9.9-2-1.75-3.41-4.59-7.26-6.46-1.64-.8-4.57-2.22-7.78-1.45-4.69,1.13-7.1,6.25-8.86,10-1.69,3.59-1.26,4.65-3.32,9.69-1.46,3.57-2.94,6.4-3.98,8.27,0,0-.84,1.82-2.14,4.96Z"/>
        <path class="cls-2" d="M102.27,113.69c-2.37.26-5.88.96-9.46,3.07-4.68,2.76-6.62,6.76-10.87,12.69-2.23,3.1-5.08,7.81-7.32,14.47.62.94,1.77,2.43,3.67,3.69,2.27,1.5,4.47,1.92,5.64,2.06"/>
        <path class="cls-2" d="M134.98,146.75c3.94,2.4,7.47,3.54,9.9,4.13,5.56,1.34,7.32.25,7.81-.1,1.68-1.18,2.17-3.12,2.4-4.02,1.48-5.86-3.27-11.34-4.06-12.22-4.9-2.08-9.8-4.15-14.7-6.23"/>
        <path class="cls-8" d="M105.48,99.38c-.22-.23-.99-1.05-1.87-.95-.95.12-1.53,1.25-1.73,1.63-1.48,2.87-.42,7.39-.03,9.37.18.92-.14-.5.34,12.99.12,3.31.29,7.7.54,12.9,4.05-6.88,8.31-9.46,11.53-10.51,3.51-1.14,6.38-.67,9.23-3.34,2.38-2.23,1.8-3.88,4.65-6.07,2.75-2.12,6.17-2.78,6.72-2.88,3.06-.56,4.91,0,5.46-.99.52-.94-.5-2.5-1.45-3.69-.83.46-2.04,1.05-3.58,1.53-7.28,2.27-13.97-.41-15.47-1.05-4.09-1.75-11.98-6.52-14.33-8.95Z"/>
        <path class="cls-3" d="M112.27,101.06c-2.04-1.14-2.5-4.4-1.15-5.71,1.41-1.35,4.7-.53,5.76,1.51.49.95.61,2.38-.18,3.44-1.02,1.36-3.09,1.5-4.43.75Z"/>
        <path class="cls-3" d="M125.61,99.01c2.08,1.16,2.55,4.49,1.17,5.83-1.43,1.38-4.8.54-5.88-1.55-.5-.97-.62-2.43.18-3.51,1.04-1.39,3.16-1.53,4.52-.77Z"/>
        <path class="cls-14" d="M119.34,98.3c.62,2.21,3.54,3.17,5.36,3.37.92.1,3.22.35,3.94-.89.8-1.38-.96-3.54-1.25-3.89-.37-.45-1.56-1.91-3.6-2.17-1.51-.19-3.74.26-4.39,1.78-.33.78-.13,1.55-.06,1.8Z"/>
        <path class="cls-14" d="M120.23,94.92c-.6-2.13-3.42-3.06-5.18-3.26-.89-.1-3.11-.34-3.81.86-.77,1.33.93,3.42,1.21,3.76.35.43,1.51,1.85,3.48,2.09,1.46.18,3.61-.25,4.24-1.72.32-.75.13-1.5.06-1.74Z"/>
        <path class="cls-3" d="M113.81,98.61s-.04-.04-.04-.08c0,0,0-.02.02-.04.01,0,.04-.02.05,0,.02.01.02.05.01.06,0,0,0,.03-.03.05,0,0-.01,0-.02,0Z"/>
        <path class="cls-3" d="M124.03,102.81s-.04-.04-.04-.08c0,0,0-.02.02-.04.01,0,.04-.02.05,0,.02.01.02.05.01.06,0,0,0,.03-.03.05,0,0-.01,0-.02,0Z"/>
      </g>
      <path class="cls-3" d="M18.09,152.43c2.23-5.43,4.45-10.87,6.68-16.3"/>
      <path class="cls-7" d="M44.81,186.51c1.62.34,3.25.68,4.87,1.02.3-3.47.6-6.94.91-10.42"/>
      <path class="cls-7" d="M53.41,145.64c.23-2.53.45-5.06.68-7.58"/>
      <path class="cls-7" d="M50.92,124.24c4.48,2.24,9.13,1.61,11.21-1.02.39-.49,1.29-1.82,1.25-4.19"/>
      <path class="cls-7" d="M32.36,116.88c.38-2.75.75-5.51,1.13-8.26"/>
      <path class="cls-7" d="M76.51,66.96c.75,5.21,1.51,10.42,2.26,15.62"/>
      <path class="cls-7" d="M57.03,60.85c.16.67.86,3.17,3.17,4.53,2.76,1.62,6.71.97,9.51-1.81"/>
      <path class="cls-7" d="M82.85,39.45c-.19-.56-.7-2.33,0-4.42.66-1.96,2-3.04,2.49-3.4"/>
      <path class="cls-7" d="M93.26,19.07c.11-1.08.22-3.79-1.36-6.57-2.45-4.3-6.97-5.29-7.7-5.43"/>
      <path class="cls-7" d="M100.39,151.98c2.45,4.11,4.91,8.23,7.36,12.34"/>
      <path class="cls-7" d="M107.86,150.28c1.62,2.49,3.25,4.98,4.87,7.47"/>
      <path class="cls-7" d="M95.19,158.66c5.7-2.87,11.4-5.74,17.09-8.6"/>
      <path class="cls-7" d="M102.43,162.28c4.04-3.36,8.08-6.72,12.11-10.08"/>
      <path class="cls-7" d="M128.24,163.75c-.55-1.49-1.85-5.59-.34-10.3.72-2.24,1.84-3.9,2.72-4.98"/>
      <path class="cls-7" d="M133,134.88c1.07-.15,3.28-.3,5.77.68,1.94.76,3.24,1.88,3.96,2.6"/>
      <path class="cls-7" d="M80.36,141.56c1.15-2.81,2.78-6.05,5.09-9.4,1.01-1.46,2.05-2.78,3.06-3.96"/>
      <path class="cls-7" d="M86.47,161.03c.32,1.16,1.38,4.38,4.53,6.68,1.57,1.14,3.12,1.67,4.19,1.92"/>
      <path class="cls-7" d="M118.85,187.18c-1.84,1.76-5.67,5.95-6.34,12.11-.15,1.35-.12,2.61,0,3.74"/>
      <path class="cls-7" d="M95.3,232.01c.23,2.23.45,4.45.68,6.68"/>
      <path class="cls-7" d="M98.47,203.49c.53-4.6,1.06-9.21,1.58-13.81"/>
      <path class="cls-7" d="M75.6,221.03c1.92-4.91,3.88-9.85,5.89-14.83,1.77-4.38,3.54-8.72,5.32-13.02"/>
      <path class="cls-7" d="M73.45,193.3c.95-4.97,2.55-10.44,5.21-16.08.44-.94.89-1.84,1.36-2.72"/>
      <path class="cls-7" d="M44.47,196.69c2.19.79,4.38,1.58,6.57,2.38"/>
      <path class="cls-7" d="M17.19,189.11c-2.53-1.06-5.06-2.11-7.58-3.17"/>
      <path class="cls-7" d="M49,243.56c3.96.42,7.92.83,11.89,1.25.87-1.81,1.74-3.62,2.6-5.43"/>
      <path class="cls-7" d="M87.83,254.54c2.64-.15,5.28-.3,7.92-.45"/>
      <path class="cls-7" d="M124.62,88.24c.18-.08,4.1-1.87,7.47.45,2.25,1.55,2.82,3.94,2.94,4.53"/>
      <path class="cls-7" d="M132.66,103.52c.53-1.4,1.06-2.79,1.58-4.19"/>
      <path class="cls-7" d="M129.94,123.56c.21-.06,1.93-.56,2.6-2.26.42-1.06.21-2.02.11-2.38"/>
      <path class="cls-7" d="M156.66,137.03c-.57-3.02-1.13-6.04-1.7-9.06"/>
    </g>
  </g>
</svg>